G04 MADE WITH FRITZING*
G04 WWW.FRITZING.ORG*
G04 DOUBLE SIDED*
G04 HOLES PLATED*
G04 CONTOUR ON CENTER OF CONTOUR VECTOR*
%ASAXBY*%
%FSLAX23Y23*%
%MOIN*%
%OFA0B0*%
%SFA1.0B1.0*%
%ADD10C,0.088000*%
%ADD11C,0.092000*%
%ADD12C,0.085000*%
%ADD13C,0.075278*%
%ADD14C,0.136000*%
%ADD15C,0.085433*%
%ADD16R,0.088000X0.088000*%
%ADD17R,0.092000X0.092000*%
%ADD18R,0.085000X0.085000*%
%ADD19R,0.010150X0.010150*%
%LNMASK0*%
G90*
G70*
G54D10*
X2600Y950D03*
X2500Y950D03*
X2400Y950D03*
G54D11*
X1000Y850D03*
X1000Y552D03*
G54D12*
X800Y850D03*
X800Y450D03*
X1700Y450D03*
X1700Y850D03*
X1900Y650D03*
X1900Y1050D03*
G54D13*
X2111Y101D03*
X2211Y101D03*
X2311Y101D03*
X2411Y101D03*
X2511Y101D03*
X1651Y2001D03*
X1551Y2001D03*
X1451Y2001D03*
X1351Y2001D03*
X1251Y2001D03*
X1151Y2001D03*
X1051Y2001D03*
X951Y2001D03*
X851Y2001D03*
X751Y2001D03*
X2511Y2001D03*
X2411Y2001D03*
X2311Y2001D03*
X2211Y2001D03*
X2111Y2001D03*
X2011Y2001D03*
X1911Y2001D03*
X1811Y2001D03*
X1211Y101D03*
X1111Y101D03*
X1311Y101D03*
X1411Y101D03*
X1511Y101D03*
X1611Y101D03*
X1711Y101D03*
X1811Y101D03*
X2011Y101D03*
G54D12*
X2300Y1450D03*
X2300Y1050D03*
X1200Y950D03*
X1500Y950D03*
X1200Y850D03*
X1500Y850D03*
X1200Y750D03*
X1500Y750D03*
X1200Y650D03*
X1500Y650D03*
X532Y950D03*
X631Y851D03*
X532Y655D03*
X631Y458D03*
X532Y359D03*
X139Y753D03*
G54D14*
X336Y359D03*
X336Y950D03*
G54D12*
X139Y556D03*
G54D10*
X2200Y450D03*
X2300Y450D03*
X2400Y450D03*
X2500Y450D03*
G54D15*
X981Y1313D03*
G54D16*
X2600Y950D03*
G54D17*
X1000Y851D03*
G54D18*
X1200Y950D03*
G54D19*
X1200Y649D03*
G04 End of Mask0*
M02*