G04 MADE WITH FRITZING*
G04 WWW.FRITZING.ORG*
G04 DOUBLE SIDED*
G04 HOLES PLATED*
G04 CONTOUR ON CENTER OF CONTOUR VECTOR*
%ASAXBY*%
%FSLAX23Y23*%
%MOIN*%
%OFA0B0*%
%SFA1.0B1.0*%
%ADD10C,0.078000*%
%ADD11C,0.082000*%
%ADD12C,0.075000*%
%ADD13C,0.065278*%
%ADD14C,0.126000*%
%ADD15C,0.075433*%
%ADD16R,0.078000X0.078000*%
%ADD17R,0.082000X0.082000*%
%ADD18R,0.044402X0.027479*%
%ADD19R,0.118193X0.082647*%
%ADD20R,0.075000X0.075000*%
%ADD21R,0.000150X0.000150*%
%ADD22C,0.024000*%
%LNCOPPER1*%
G90*
G70*
G54D10*
X2600Y950D03*
X2500Y950D03*
X2400Y950D03*
G54D11*
X1000Y850D03*
X1000Y552D03*
G54D12*
X800Y850D03*
X800Y450D03*
X1700Y450D03*
X1700Y850D03*
X1900Y650D03*
X1900Y1050D03*
G54D13*
X2111Y101D03*
X2211Y101D03*
X2311Y101D03*
X2411Y101D03*
X2511Y101D03*
X1651Y2001D03*
X1551Y2001D03*
X1451Y2001D03*
X1351Y2001D03*
X1251Y2001D03*
X1151Y2001D03*
X1051Y2001D03*
X951Y2001D03*
X851Y2001D03*
X751Y2001D03*
X2511Y2001D03*
X2411Y2001D03*
X2311Y2001D03*
X2211Y2001D03*
X2111Y2001D03*
X2011Y2001D03*
X1911Y2001D03*
X1811Y2001D03*
X1211Y101D03*
X1111Y101D03*
X1311Y101D03*
X1411Y101D03*
X1511Y101D03*
X1611Y101D03*
X1711Y101D03*
X1811Y101D03*
X2011Y101D03*
G54D12*
X2300Y1450D03*
X2300Y1050D03*
X1200Y950D03*
X1500Y950D03*
X1200Y850D03*
X1500Y850D03*
X1200Y750D03*
X1500Y750D03*
X1200Y650D03*
X1500Y650D03*
X532Y950D03*
X631Y851D03*
X532Y655D03*
X631Y458D03*
X532Y359D03*
X139Y753D03*
G54D14*
X336Y359D03*
X336Y950D03*
G54D12*
X139Y556D03*
X2581Y1447D03*
X132Y2010D03*
G54D10*
X2200Y450D03*
X2300Y450D03*
X2400Y450D03*
X2500Y450D03*
G54D15*
X981Y1313D03*
G54D16*
X2600Y950D03*
G54D17*
X1000Y851D03*
G54D18*
X311Y1450D03*
X311Y1401D03*
G54D19*
X206Y1550D03*
X206Y1300D03*
G54D18*
X611Y1450D03*
X611Y1401D03*
G54D19*
X506Y1550D03*
X506Y1300D03*
G54D18*
X911Y1450D03*
X911Y1401D03*
G54D19*
X806Y1550D03*
X806Y1300D03*
G54D18*
X1211Y1450D03*
X1211Y1401D03*
G54D19*
X1106Y1550D03*
X1106Y1300D03*
G54D18*
X1511Y1450D03*
X1511Y1401D03*
G54D19*
X1406Y1550D03*
X1406Y1300D03*
G54D18*
X1811Y1450D03*
X1811Y1401D03*
G54D19*
X1706Y1550D03*
X1706Y1300D03*
G54D18*
X2211Y1450D03*
X2211Y1401D03*
G54D19*
X2106Y1550D03*
X2106Y1300D03*
G54D20*
X1200Y950D03*
G54D21*
X1200Y649D03*
G54D22*
X2500Y980D02*
X2510Y1969D01*
D02*
X1671Y850D02*
X1528Y850D01*
D02*
X828Y850D02*
X968Y850D01*
D02*
X2228Y1450D02*
X2271Y1450D01*
D02*
X1023Y574D02*
X1179Y730D01*
D02*
X653Y833D02*
X975Y572D01*
D02*
X1527Y743D02*
X1872Y657D01*
D02*
X2206Y1970D02*
X2186Y1821D01*
D02*
X2186Y1821D02*
X1819Y1458D01*
D02*
X2104Y1970D02*
X2078Y1845D01*
D02*
X2078Y1845D02*
X1874Y1629D01*
D02*
X1874Y1629D02*
X1610Y1629D01*
D02*
X1610Y1629D02*
X1515Y1458D01*
D02*
X1999Y1972D02*
X1911Y1750D01*
D02*
X1911Y1750D02*
X1322Y1629D01*
D02*
X1322Y1629D02*
X1216Y1458D01*
D02*
X411Y1650D02*
X315Y1458D01*
D02*
X1900Y1971D02*
X1898Y1965D01*
D02*
X1706Y1783D02*
X1010Y1629D01*
D02*
X1898Y1965D02*
X1706Y1783D01*
D02*
X1010Y1629D02*
X915Y1458D01*
D02*
X1786Y1982D02*
X1611Y1850D01*
D02*
X1611Y1850D02*
X711Y1650D01*
D02*
X711Y1650D02*
X615Y1458D01*
D02*
X2300Y480D02*
X2300Y1021D01*
D02*
X2170Y450D02*
X1728Y450D01*
D02*
X917Y1392D02*
X963Y1335D01*
D02*
X1194Y1401D02*
X928Y1401D01*
D02*
X1494Y1401D02*
X1228Y1401D01*
D02*
X628Y1401D02*
X894Y1401D01*
D02*
X328Y1401D02*
X594Y1401D01*
D02*
X1794Y1401D02*
X1528Y1401D01*
D02*
X2194Y1401D02*
X1828Y1401D01*
D02*
X2401Y420D02*
X2410Y132D01*
D02*
X2501Y420D02*
X2510Y132D01*
D02*
X1634Y1965D02*
X411Y1650D01*
D02*
X1637Y1972D02*
X1634Y1965D01*
G36*
X766Y2059D02*
X766Y2039D01*
X770Y2039D01*
X770Y2037D01*
X774Y2037D01*
X774Y2035D01*
X776Y2035D01*
X776Y2033D01*
X778Y2033D01*
X778Y2031D01*
X782Y2031D01*
X782Y2027D01*
X784Y2027D01*
X784Y2025D01*
X786Y2025D01*
X786Y2023D01*
X788Y2023D01*
X788Y2019D01*
X790Y2019D01*
X790Y2013D01*
X810Y2013D01*
X810Y2015D01*
X812Y2015D01*
X812Y2019D01*
X814Y2019D01*
X814Y2023D01*
X816Y2023D01*
X816Y2025D01*
X818Y2025D01*
X818Y2029D01*
X820Y2029D01*
X820Y2031D01*
X822Y2031D01*
X822Y2033D01*
X826Y2033D01*
X826Y2035D01*
X828Y2035D01*
X828Y2037D01*
X832Y2037D01*
X832Y2039D01*
X836Y2039D01*
X836Y2059D01*
X766Y2059D01*
G37*
D02*
G36*
X866Y2059D02*
X866Y2039D01*
X870Y2039D01*
X870Y2037D01*
X874Y2037D01*
X874Y2035D01*
X876Y2035D01*
X876Y2033D01*
X878Y2033D01*
X878Y2031D01*
X882Y2031D01*
X882Y2027D01*
X884Y2027D01*
X884Y2025D01*
X886Y2025D01*
X886Y2023D01*
X888Y2023D01*
X888Y2019D01*
X890Y2019D01*
X890Y2013D01*
X910Y2013D01*
X910Y2015D01*
X912Y2015D01*
X912Y2019D01*
X914Y2019D01*
X914Y2023D01*
X916Y2023D01*
X916Y2025D01*
X918Y2025D01*
X918Y2029D01*
X920Y2029D01*
X920Y2031D01*
X922Y2031D01*
X922Y2033D01*
X926Y2033D01*
X926Y2035D01*
X928Y2035D01*
X928Y2037D01*
X932Y2037D01*
X932Y2039D01*
X936Y2039D01*
X936Y2059D01*
X866Y2059D01*
G37*
D02*
G36*
X966Y2059D02*
X966Y2039D01*
X970Y2039D01*
X970Y2037D01*
X974Y2037D01*
X974Y2035D01*
X976Y2035D01*
X976Y2033D01*
X978Y2033D01*
X978Y2031D01*
X982Y2031D01*
X982Y2027D01*
X984Y2027D01*
X984Y2025D01*
X986Y2025D01*
X986Y2023D01*
X988Y2023D01*
X988Y2019D01*
X990Y2019D01*
X990Y2013D01*
X1010Y2013D01*
X1010Y2015D01*
X1012Y2015D01*
X1012Y2019D01*
X1014Y2019D01*
X1014Y2023D01*
X1016Y2023D01*
X1016Y2025D01*
X1018Y2025D01*
X1018Y2029D01*
X1020Y2029D01*
X1020Y2031D01*
X1022Y2031D01*
X1022Y2033D01*
X1026Y2033D01*
X1026Y2035D01*
X1028Y2035D01*
X1028Y2037D01*
X1032Y2037D01*
X1032Y2039D01*
X1036Y2039D01*
X1036Y2059D01*
X966Y2059D01*
G37*
D02*
G36*
X1066Y2059D02*
X1066Y2039D01*
X1070Y2039D01*
X1070Y2037D01*
X1074Y2037D01*
X1074Y2035D01*
X1076Y2035D01*
X1076Y2033D01*
X1078Y2033D01*
X1078Y2031D01*
X1082Y2031D01*
X1082Y2027D01*
X1084Y2027D01*
X1084Y2025D01*
X1086Y2025D01*
X1086Y2023D01*
X1088Y2023D01*
X1088Y2019D01*
X1090Y2019D01*
X1090Y2013D01*
X1110Y2013D01*
X1110Y2015D01*
X1112Y2015D01*
X1112Y2019D01*
X1114Y2019D01*
X1114Y2023D01*
X1116Y2023D01*
X1116Y2025D01*
X1118Y2025D01*
X1118Y2029D01*
X1120Y2029D01*
X1120Y2031D01*
X1122Y2031D01*
X1122Y2033D01*
X1126Y2033D01*
X1126Y2035D01*
X1128Y2035D01*
X1128Y2037D01*
X1132Y2037D01*
X1132Y2039D01*
X1136Y2039D01*
X1136Y2059D01*
X1066Y2059D01*
G37*
D02*
G36*
X1166Y2059D02*
X1166Y2039D01*
X1170Y2039D01*
X1170Y2037D01*
X1174Y2037D01*
X1174Y2035D01*
X1176Y2035D01*
X1176Y2033D01*
X1178Y2033D01*
X1178Y2031D01*
X1182Y2031D01*
X1182Y2027D01*
X1184Y2027D01*
X1184Y2025D01*
X1186Y2025D01*
X1186Y2023D01*
X1188Y2023D01*
X1188Y2019D01*
X1190Y2019D01*
X1190Y2013D01*
X1210Y2013D01*
X1210Y2015D01*
X1212Y2015D01*
X1212Y2019D01*
X1214Y2019D01*
X1214Y2023D01*
X1216Y2023D01*
X1216Y2025D01*
X1218Y2025D01*
X1218Y2029D01*
X1220Y2029D01*
X1220Y2031D01*
X1222Y2031D01*
X1222Y2033D01*
X1226Y2033D01*
X1226Y2035D01*
X1228Y2035D01*
X1228Y2037D01*
X1232Y2037D01*
X1232Y2039D01*
X1236Y2039D01*
X1236Y2059D01*
X1166Y2059D01*
G37*
D02*
G36*
X1266Y2059D02*
X1266Y2039D01*
X1270Y2039D01*
X1270Y2037D01*
X1274Y2037D01*
X1274Y2035D01*
X1276Y2035D01*
X1276Y2033D01*
X1278Y2033D01*
X1278Y2031D01*
X1282Y2031D01*
X1282Y2027D01*
X1284Y2027D01*
X1284Y2025D01*
X1286Y2025D01*
X1286Y2023D01*
X1288Y2023D01*
X1288Y2019D01*
X1290Y2019D01*
X1290Y2013D01*
X1310Y2013D01*
X1310Y2015D01*
X1312Y2015D01*
X1312Y2019D01*
X1314Y2019D01*
X1314Y2023D01*
X1316Y2023D01*
X1316Y2025D01*
X1318Y2025D01*
X1318Y2029D01*
X1320Y2029D01*
X1320Y2031D01*
X1322Y2031D01*
X1322Y2033D01*
X1326Y2033D01*
X1326Y2035D01*
X1328Y2035D01*
X1328Y2037D01*
X1332Y2037D01*
X1332Y2039D01*
X1336Y2039D01*
X1336Y2059D01*
X1266Y2059D01*
G37*
D02*
G36*
X1366Y2059D02*
X1366Y2039D01*
X1370Y2039D01*
X1370Y2037D01*
X1374Y2037D01*
X1374Y2035D01*
X1376Y2035D01*
X1376Y2033D01*
X1378Y2033D01*
X1378Y2031D01*
X1382Y2031D01*
X1382Y2027D01*
X1384Y2027D01*
X1384Y2025D01*
X1386Y2025D01*
X1386Y2023D01*
X1388Y2023D01*
X1388Y2019D01*
X1390Y2019D01*
X1390Y2013D01*
X1410Y2013D01*
X1410Y2015D01*
X1412Y2015D01*
X1412Y2019D01*
X1414Y2019D01*
X1414Y2023D01*
X1416Y2023D01*
X1416Y2025D01*
X1418Y2025D01*
X1418Y2029D01*
X1420Y2029D01*
X1420Y2031D01*
X1422Y2031D01*
X1422Y2033D01*
X1426Y2033D01*
X1426Y2035D01*
X1428Y2035D01*
X1428Y2037D01*
X1432Y2037D01*
X1432Y2039D01*
X1436Y2039D01*
X1436Y2059D01*
X1366Y2059D01*
G37*
D02*
G36*
X1466Y2059D02*
X1466Y2039D01*
X1470Y2039D01*
X1470Y2037D01*
X1474Y2037D01*
X1474Y2035D01*
X1476Y2035D01*
X1476Y2033D01*
X1478Y2033D01*
X1478Y2031D01*
X1482Y2031D01*
X1482Y2027D01*
X1484Y2027D01*
X1484Y2025D01*
X1486Y2025D01*
X1486Y2023D01*
X1488Y2023D01*
X1488Y2019D01*
X1490Y2019D01*
X1490Y2013D01*
X1510Y2013D01*
X1510Y2015D01*
X1512Y2015D01*
X1512Y2019D01*
X1514Y2019D01*
X1514Y2023D01*
X1516Y2023D01*
X1516Y2025D01*
X1518Y2025D01*
X1518Y2029D01*
X1520Y2029D01*
X1520Y2031D01*
X1522Y2031D01*
X1522Y2033D01*
X1526Y2033D01*
X1526Y2035D01*
X1528Y2035D01*
X1528Y2037D01*
X1532Y2037D01*
X1532Y2039D01*
X1536Y2039D01*
X1536Y2059D01*
X1466Y2059D01*
G37*
D02*
G36*
X1566Y2059D02*
X1566Y2039D01*
X1570Y2039D01*
X1570Y2037D01*
X1574Y2037D01*
X1574Y2035D01*
X1576Y2035D01*
X1576Y2033D01*
X1578Y2033D01*
X1578Y2031D01*
X1582Y2031D01*
X1582Y2027D01*
X1584Y2027D01*
X1584Y2025D01*
X1586Y2025D01*
X1586Y2023D01*
X1588Y2023D01*
X1588Y2019D01*
X1590Y2019D01*
X1590Y2013D01*
X1610Y2013D01*
X1610Y2015D01*
X1612Y2015D01*
X1612Y2019D01*
X1614Y2019D01*
X1614Y2023D01*
X1616Y2023D01*
X1616Y2025D01*
X1618Y2025D01*
X1618Y2029D01*
X1620Y2029D01*
X1620Y2031D01*
X1622Y2031D01*
X1622Y2033D01*
X1626Y2033D01*
X1626Y2035D01*
X1628Y2035D01*
X1628Y2037D01*
X1632Y2037D01*
X1632Y2039D01*
X1636Y2039D01*
X1636Y2059D01*
X1566Y2059D01*
G37*
D02*
G36*
X1826Y2059D02*
X1826Y2039D01*
X1830Y2039D01*
X1830Y2037D01*
X1834Y2037D01*
X1834Y2035D01*
X1836Y2035D01*
X1836Y2033D01*
X1838Y2033D01*
X1838Y2031D01*
X1842Y2031D01*
X1842Y2027D01*
X1844Y2027D01*
X1844Y2025D01*
X1846Y2025D01*
X1846Y2023D01*
X1848Y2023D01*
X1848Y2019D01*
X1850Y2019D01*
X1850Y2013D01*
X1870Y2013D01*
X1870Y2015D01*
X1872Y2015D01*
X1872Y2019D01*
X1874Y2019D01*
X1874Y2023D01*
X1876Y2023D01*
X1876Y2025D01*
X1878Y2025D01*
X1878Y2029D01*
X1880Y2029D01*
X1880Y2031D01*
X1882Y2031D01*
X1882Y2033D01*
X1886Y2033D01*
X1886Y2035D01*
X1888Y2035D01*
X1888Y2037D01*
X1892Y2037D01*
X1892Y2039D01*
X1896Y2039D01*
X1896Y2059D01*
X1826Y2059D01*
G37*
D02*
G36*
X1926Y2059D02*
X1926Y2039D01*
X1930Y2039D01*
X1930Y2037D01*
X1934Y2037D01*
X1934Y2035D01*
X1936Y2035D01*
X1936Y2033D01*
X1938Y2033D01*
X1938Y2031D01*
X1942Y2031D01*
X1942Y2027D01*
X1944Y2027D01*
X1944Y2025D01*
X1946Y2025D01*
X1946Y2023D01*
X1948Y2023D01*
X1948Y2019D01*
X1950Y2019D01*
X1950Y2013D01*
X1970Y2013D01*
X1970Y2015D01*
X1972Y2015D01*
X1972Y2019D01*
X1974Y2019D01*
X1974Y2023D01*
X1976Y2023D01*
X1976Y2025D01*
X1978Y2025D01*
X1978Y2029D01*
X1980Y2029D01*
X1980Y2031D01*
X1982Y2031D01*
X1982Y2033D01*
X1986Y2033D01*
X1986Y2035D01*
X1988Y2035D01*
X1988Y2037D01*
X1992Y2037D01*
X1992Y2039D01*
X1996Y2039D01*
X1996Y2059D01*
X1926Y2059D01*
G37*
D02*
G36*
X2026Y2059D02*
X2026Y2039D01*
X2030Y2039D01*
X2030Y2037D01*
X2034Y2037D01*
X2034Y2035D01*
X2036Y2035D01*
X2036Y2033D01*
X2038Y2033D01*
X2038Y2031D01*
X2042Y2031D01*
X2042Y2027D01*
X2044Y2027D01*
X2044Y2025D01*
X2046Y2025D01*
X2046Y2023D01*
X2048Y2023D01*
X2048Y2019D01*
X2050Y2019D01*
X2050Y2013D01*
X2070Y2013D01*
X2070Y2015D01*
X2072Y2015D01*
X2072Y2019D01*
X2074Y2019D01*
X2074Y2023D01*
X2076Y2023D01*
X2076Y2025D01*
X2078Y2025D01*
X2078Y2029D01*
X2080Y2029D01*
X2080Y2031D01*
X2082Y2031D01*
X2082Y2033D01*
X2086Y2033D01*
X2086Y2035D01*
X2088Y2035D01*
X2088Y2037D01*
X2092Y2037D01*
X2092Y2039D01*
X2096Y2039D01*
X2096Y2059D01*
X2026Y2059D01*
G37*
D02*
G36*
X2126Y2059D02*
X2126Y2039D01*
X2130Y2039D01*
X2130Y2037D01*
X2134Y2037D01*
X2134Y2035D01*
X2136Y2035D01*
X2136Y2033D01*
X2138Y2033D01*
X2138Y2031D01*
X2142Y2031D01*
X2142Y2027D01*
X2144Y2027D01*
X2144Y2025D01*
X2146Y2025D01*
X2146Y2023D01*
X2148Y2023D01*
X2148Y2019D01*
X2150Y2019D01*
X2150Y2013D01*
X2170Y2013D01*
X2170Y2015D01*
X2172Y2015D01*
X2172Y2019D01*
X2174Y2019D01*
X2174Y2023D01*
X2176Y2023D01*
X2176Y2025D01*
X2178Y2025D01*
X2178Y2029D01*
X2180Y2029D01*
X2180Y2031D01*
X2182Y2031D01*
X2182Y2033D01*
X2186Y2033D01*
X2186Y2035D01*
X2188Y2035D01*
X2188Y2037D01*
X2192Y2037D01*
X2192Y2039D01*
X2196Y2039D01*
X2196Y2059D01*
X2126Y2059D01*
G37*
D02*
G36*
X2226Y2059D02*
X2226Y2039D01*
X2230Y2039D01*
X2230Y2037D01*
X2234Y2037D01*
X2234Y2035D01*
X2236Y2035D01*
X2236Y2033D01*
X2238Y2033D01*
X2238Y2031D01*
X2242Y2031D01*
X2242Y2027D01*
X2244Y2027D01*
X2244Y2025D01*
X2246Y2025D01*
X2246Y2023D01*
X2248Y2023D01*
X2248Y2019D01*
X2250Y2019D01*
X2250Y2013D01*
X2270Y2013D01*
X2270Y2015D01*
X2272Y2015D01*
X2272Y2019D01*
X2274Y2019D01*
X2274Y2023D01*
X2276Y2023D01*
X2276Y2025D01*
X2278Y2025D01*
X2278Y2029D01*
X2280Y2029D01*
X2280Y2031D01*
X2282Y2031D01*
X2282Y2033D01*
X2286Y2033D01*
X2286Y2035D01*
X2288Y2035D01*
X2288Y2037D01*
X2292Y2037D01*
X2292Y2039D01*
X2296Y2039D01*
X2296Y2059D01*
X2226Y2059D01*
G37*
D02*
G36*
X2326Y2059D02*
X2326Y2039D01*
X2330Y2039D01*
X2330Y2037D01*
X2334Y2037D01*
X2334Y2035D01*
X2336Y2035D01*
X2336Y2033D01*
X2338Y2033D01*
X2338Y2031D01*
X2342Y2031D01*
X2342Y2027D01*
X2344Y2027D01*
X2344Y2025D01*
X2346Y2025D01*
X2346Y2023D01*
X2348Y2023D01*
X2348Y2019D01*
X2350Y2019D01*
X2350Y2013D01*
X2370Y2013D01*
X2370Y2015D01*
X2372Y2015D01*
X2372Y2019D01*
X2374Y2019D01*
X2374Y2023D01*
X2376Y2023D01*
X2376Y2025D01*
X2378Y2025D01*
X2378Y2029D01*
X2380Y2029D01*
X2380Y2031D01*
X2382Y2031D01*
X2382Y2033D01*
X2386Y2033D01*
X2386Y2035D01*
X2388Y2035D01*
X2388Y2037D01*
X2392Y2037D01*
X2392Y2039D01*
X2396Y2039D01*
X2396Y2059D01*
X2326Y2059D01*
G37*
D02*
G36*
X2426Y2059D02*
X2426Y2039D01*
X2430Y2039D01*
X2430Y2037D01*
X2434Y2037D01*
X2434Y2035D01*
X2436Y2035D01*
X2436Y2033D01*
X2438Y2033D01*
X2438Y2031D01*
X2442Y2031D01*
X2442Y2027D01*
X2444Y2027D01*
X2444Y2025D01*
X2446Y2025D01*
X2446Y2023D01*
X2448Y2023D01*
X2448Y2019D01*
X2450Y2019D01*
X2450Y2013D01*
X2470Y2013D01*
X2470Y2015D01*
X2472Y2015D01*
X2472Y2019D01*
X2474Y2019D01*
X2474Y2023D01*
X2476Y2023D01*
X2476Y2025D01*
X2478Y2025D01*
X2478Y2029D01*
X2480Y2029D01*
X2480Y2031D01*
X2482Y2031D01*
X2482Y2033D01*
X2486Y2033D01*
X2486Y2035D01*
X2488Y2035D01*
X2488Y2037D01*
X2492Y2037D01*
X2492Y2039D01*
X2496Y2039D01*
X2496Y2059D01*
X2426Y2059D01*
G37*
D02*
G36*
X2050Y1987D02*
X2050Y1981D01*
X2048Y1981D01*
X2048Y1977D01*
X2046Y1977D01*
X2046Y1975D01*
X2044Y1975D01*
X2044Y1973D01*
X2042Y1973D01*
X2042Y1971D01*
X2040Y1971D01*
X2040Y1969D01*
X2038Y1969D01*
X2038Y1967D01*
X2036Y1967D01*
X2036Y1965D01*
X2034Y1965D01*
X2034Y1963D01*
X2030Y1963D01*
X2030Y1961D01*
X2024Y1961D01*
X2024Y1959D01*
X2018Y1959D01*
X2018Y1957D01*
X2016Y1957D01*
X2016Y1951D01*
X2014Y1951D01*
X2014Y1947D01*
X2012Y1947D01*
X2012Y1941D01*
X2010Y1941D01*
X2010Y1937D01*
X2008Y1937D01*
X2008Y1931D01*
X2006Y1931D01*
X2006Y1927D01*
X2004Y1927D01*
X2004Y1921D01*
X2002Y1921D01*
X2002Y1917D01*
X2000Y1917D01*
X2000Y1911D01*
X1998Y1911D01*
X1998Y1907D01*
X1996Y1907D01*
X1996Y1901D01*
X1994Y1901D01*
X1994Y1897D01*
X1992Y1897D01*
X1992Y1891D01*
X1990Y1891D01*
X1990Y1887D01*
X1988Y1887D01*
X1988Y1881D01*
X1986Y1881D01*
X1986Y1877D01*
X1984Y1877D01*
X1984Y1871D01*
X1982Y1871D01*
X1982Y1867D01*
X1980Y1867D01*
X1980Y1861D01*
X1978Y1861D01*
X1978Y1855D01*
X1976Y1855D01*
X1976Y1851D01*
X1974Y1851D01*
X1974Y1845D01*
X1972Y1845D01*
X1972Y1841D01*
X1970Y1841D01*
X1970Y1835D01*
X1968Y1835D01*
X1968Y1831D01*
X1966Y1831D01*
X1966Y1825D01*
X1964Y1825D01*
X1964Y1821D01*
X1962Y1821D01*
X1962Y1815D01*
X1960Y1815D01*
X1960Y1811D01*
X1958Y1811D01*
X1958Y1805D01*
X1956Y1805D01*
X1956Y1801D01*
X1954Y1801D01*
X1954Y1795D01*
X1952Y1795D01*
X1952Y1791D01*
X1950Y1791D01*
X1950Y1785D01*
X1948Y1785D01*
X1948Y1781D01*
X1946Y1781D01*
X1946Y1775D01*
X1944Y1775D01*
X1944Y1771D01*
X1942Y1771D01*
X1942Y1765D01*
X1940Y1765D01*
X1940Y1761D01*
X1938Y1761D01*
X1938Y1755D01*
X1936Y1755D01*
X1936Y1751D01*
X1934Y1751D01*
X1934Y1745D01*
X1932Y1745D01*
X1932Y1743D01*
X1952Y1743D01*
X1952Y1745D01*
X1954Y1745D01*
X1954Y1747D01*
X1956Y1747D01*
X1956Y1749D01*
X1958Y1749D01*
X1958Y1751D01*
X1960Y1751D01*
X1960Y1753D01*
X1962Y1753D01*
X1962Y1755D01*
X1964Y1755D01*
X1964Y1757D01*
X1966Y1757D01*
X1966Y1759D01*
X1968Y1759D01*
X1968Y1761D01*
X1970Y1761D01*
X1970Y1763D01*
X1972Y1763D01*
X1972Y1765D01*
X1974Y1765D01*
X1974Y1767D01*
X1976Y1767D01*
X1976Y1771D01*
X1978Y1771D01*
X1978Y1773D01*
X1980Y1773D01*
X1980Y1775D01*
X1982Y1775D01*
X1982Y1777D01*
X1984Y1777D01*
X1984Y1779D01*
X1986Y1779D01*
X1986Y1781D01*
X1988Y1781D01*
X1988Y1783D01*
X1990Y1783D01*
X1990Y1785D01*
X1992Y1785D01*
X1992Y1787D01*
X1994Y1787D01*
X1994Y1789D01*
X1996Y1789D01*
X1996Y1791D01*
X1998Y1791D01*
X1998Y1793D01*
X2000Y1793D01*
X2000Y1795D01*
X2002Y1795D01*
X2002Y1797D01*
X2004Y1797D01*
X2004Y1799D01*
X2006Y1799D01*
X2006Y1801D01*
X2008Y1801D01*
X2008Y1803D01*
X2010Y1803D01*
X2010Y1807D01*
X2012Y1807D01*
X2012Y1809D01*
X2014Y1809D01*
X2014Y1811D01*
X2016Y1811D01*
X2016Y1813D01*
X2018Y1813D01*
X2018Y1815D01*
X2020Y1815D01*
X2020Y1817D01*
X2022Y1817D01*
X2022Y1819D01*
X2024Y1819D01*
X2024Y1821D01*
X2026Y1821D01*
X2026Y1823D01*
X2028Y1823D01*
X2028Y1825D01*
X2030Y1825D01*
X2030Y1827D01*
X2032Y1827D01*
X2032Y1829D01*
X2034Y1829D01*
X2034Y1831D01*
X2036Y1831D01*
X2036Y1833D01*
X2038Y1833D01*
X2038Y1835D01*
X2040Y1835D01*
X2040Y1837D01*
X2042Y1837D01*
X2042Y1839D01*
X2044Y1839D01*
X2044Y1843D01*
X2046Y1843D01*
X2046Y1845D01*
X2048Y1845D01*
X2048Y1847D01*
X2050Y1847D01*
X2050Y1849D01*
X2052Y1849D01*
X2052Y1851D01*
X2054Y1851D01*
X2054Y1853D01*
X2056Y1853D01*
X2056Y1855D01*
X2058Y1855D01*
X2058Y1863D01*
X2060Y1863D01*
X2060Y1873D01*
X2062Y1873D01*
X2062Y1881D01*
X2064Y1881D01*
X2064Y1891D01*
X2066Y1891D01*
X2066Y1901D01*
X2068Y1901D01*
X2068Y1909D01*
X2070Y1909D01*
X2070Y1919D01*
X2072Y1919D01*
X2072Y1929D01*
X2074Y1929D01*
X2074Y1937D01*
X2076Y1937D01*
X2076Y1947D01*
X2078Y1947D01*
X2078Y1975D01*
X2076Y1975D01*
X2076Y1977D01*
X2074Y1977D01*
X2074Y1981D01*
X2072Y1981D01*
X2072Y1985D01*
X2070Y1985D01*
X2070Y1987D01*
X2050Y1987D01*
G37*
D02*
G36*
X2544Y1975D02*
X2544Y1973D01*
X2542Y1973D01*
X2542Y1971D01*
X2540Y1971D01*
X2540Y1969D01*
X2538Y1969D01*
X2538Y1967D01*
X2536Y1967D01*
X2536Y1965D01*
X2534Y1965D01*
X2534Y1963D01*
X2532Y1963D01*
X2532Y1829D01*
X2530Y1829D01*
X2530Y1641D01*
X2528Y1641D01*
X2528Y1451D01*
X2526Y1451D01*
X2526Y1263D01*
X2524Y1263D01*
X2524Y1073D01*
X2522Y1073D01*
X2522Y993D01*
X2524Y993D01*
X2524Y991D01*
X2526Y991D01*
X2526Y989D01*
X2530Y989D01*
X2530Y987D01*
X2550Y987D01*
X2550Y997D01*
X2552Y997D01*
X2552Y999D01*
X2664Y999D01*
X2664Y1453D01*
X2662Y1453D01*
X2662Y1455D01*
X2660Y1455D01*
X2660Y1457D01*
X2658Y1457D01*
X2658Y1459D01*
X2656Y1459D01*
X2656Y1461D01*
X2654Y1461D01*
X2654Y1463D01*
X2652Y1463D01*
X2652Y1465D01*
X2650Y1465D01*
X2650Y1467D01*
X2648Y1467D01*
X2648Y1469D01*
X2646Y1469D01*
X2646Y1471D01*
X2644Y1471D01*
X2644Y1473D01*
X2642Y1473D01*
X2642Y1475D01*
X2640Y1475D01*
X2640Y1477D01*
X2638Y1477D01*
X2638Y1479D01*
X2636Y1479D01*
X2636Y1481D01*
X2634Y1481D01*
X2634Y1483D01*
X2632Y1483D01*
X2632Y1485D01*
X2630Y1485D01*
X2630Y1487D01*
X2628Y1487D01*
X2628Y1489D01*
X2626Y1489D01*
X2626Y1491D01*
X2624Y1491D01*
X2624Y1493D01*
X2622Y1493D01*
X2622Y1495D01*
X2620Y1495D01*
X2620Y1497D01*
X2618Y1497D01*
X2618Y1499D01*
X2616Y1499D01*
X2616Y1501D01*
X2614Y1501D01*
X2614Y1503D01*
X2612Y1503D01*
X2612Y1505D01*
X2610Y1505D01*
X2610Y1507D01*
X2608Y1507D01*
X2608Y1509D01*
X2606Y1509D01*
X2606Y1511D01*
X2604Y1511D01*
X2604Y1513D01*
X2602Y1513D01*
X2602Y1515D01*
X2600Y1515D01*
X2600Y1517D01*
X2598Y1517D01*
X2598Y1519D01*
X2596Y1519D01*
X2596Y1521D01*
X2594Y1521D01*
X2594Y1523D01*
X2592Y1523D01*
X2592Y1525D01*
X2590Y1525D01*
X2590Y1527D01*
X2588Y1527D01*
X2588Y1529D01*
X2586Y1529D01*
X2586Y1531D01*
X2584Y1531D01*
X2584Y1533D01*
X2582Y1533D01*
X2582Y1535D01*
X2580Y1535D01*
X2580Y1537D01*
X2578Y1537D01*
X2578Y1539D01*
X2576Y1539D01*
X2576Y1541D01*
X2574Y1541D01*
X2574Y1543D01*
X2572Y1543D01*
X2572Y1545D01*
X2570Y1545D01*
X2570Y1547D01*
X2568Y1547D01*
X2568Y1549D01*
X2566Y1549D01*
X2566Y1551D01*
X2564Y1551D01*
X2564Y1975D01*
X2544Y1975D01*
G37*
D02*
G36*
X1896Y1725D02*
X1896Y1723D01*
X1886Y1723D01*
X1886Y1721D01*
X1878Y1721D01*
X1878Y1719D01*
X1868Y1719D01*
X1868Y1717D01*
X1858Y1717D01*
X1858Y1715D01*
X1848Y1715D01*
X1848Y1713D01*
X1838Y1713D01*
X1838Y1711D01*
X1828Y1711D01*
X1828Y1709D01*
X1818Y1709D01*
X1818Y1707D01*
X1808Y1707D01*
X1808Y1705D01*
X1800Y1705D01*
X1800Y1703D01*
X1790Y1703D01*
X1790Y1701D01*
X1780Y1701D01*
X1780Y1699D01*
X1770Y1699D01*
X1770Y1697D01*
X1760Y1697D01*
X1760Y1695D01*
X1750Y1695D01*
X1750Y1693D01*
X1740Y1693D01*
X1740Y1691D01*
X1730Y1691D01*
X1730Y1689D01*
X1722Y1689D01*
X1722Y1687D01*
X1712Y1687D01*
X1712Y1685D01*
X1702Y1685D01*
X1702Y1683D01*
X1692Y1683D01*
X1692Y1681D01*
X1682Y1681D01*
X1682Y1679D01*
X1672Y1679D01*
X1672Y1677D01*
X1662Y1677D01*
X1662Y1675D01*
X1652Y1675D01*
X1652Y1673D01*
X1644Y1673D01*
X1644Y1671D01*
X1634Y1671D01*
X1634Y1651D01*
X1866Y1651D01*
X1866Y1653D01*
X1868Y1653D01*
X1868Y1655D01*
X1870Y1655D01*
X1870Y1657D01*
X1872Y1657D01*
X1872Y1659D01*
X1874Y1659D01*
X1874Y1663D01*
X1876Y1663D01*
X1876Y1665D01*
X1878Y1665D01*
X1878Y1667D01*
X1880Y1667D01*
X1880Y1669D01*
X1882Y1669D01*
X1882Y1671D01*
X1884Y1671D01*
X1884Y1673D01*
X1886Y1673D01*
X1886Y1675D01*
X1888Y1675D01*
X1888Y1677D01*
X1890Y1677D01*
X1890Y1679D01*
X1892Y1679D01*
X1892Y1681D01*
X1894Y1681D01*
X1894Y1683D01*
X1896Y1683D01*
X1896Y1685D01*
X1898Y1685D01*
X1898Y1687D01*
X1900Y1687D01*
X1900Y1689D01*
X1902Y1689D01*
X1902Y1691D01*
X1904Y1691D01*
X1904Y1693D01*
X1906Y1693D01*
X1906Y1695D01*
X1908Y1695D01*
X1908Y1699D01*
X1910Y1699D01*
X1910Y1701D01*
X1912Y1701D01*
X1912Y1703D01*
X1914Y1703D01*
X1914Y1705D01*
X1916Y1705D01*
X1916Y1707D01*
X1918Y1707D01*
X1918Y1709D01*
X1920Y1709D01*
X1920Y1725D01*
X1896Y1725D01*
G37*
D02*
G36*
X76Y2059D02*
X76Y2057D01*
X70Y2057D01*
X70Y2055D01*
X68Y2055D01*
X68Y2053D01*
X64Y2053D01*
X64Y2051D01*
X62Y2051D01*
X62Y2049D01*
X60Y2049D01*
X60Y2047D01*
X58Y2047D01*
X58Y2043D01*
X56Y2043D01*
X56Y2041D01*
X54Y2041D01*
X54Y2035D01*
X52Y2035D01*
X52Y1957D01*
X744Y1957D01*
X744Y1959D01*
X736Y1959D01*
X736Y1961D01*
X732Y1961D01*
X732Y1963D01*
X728Y1963D01*
X728Y1965D01*
X726Y1965D01*
X726Y1967D01*
X724Y1967D01*
X724Y1969D01*
X720Y1969D01*
X720Y1971D01*
X718Y1971D01*
X718Y1975D01*
X716Y1975D01*
X716Y1977D01*
X714Y1977D01*
X714Y1981D01*
X712Y1981D01*
X712Y1985D01*
X710Y1985D01*
X710Y1993D01*
X708Y1993D01*
X708Y2009D01*
X710Y2009D01*
X710Y2015D01*
X712Y2015D01*
X712Y2019D01*
X714Y2019D01*
X714Y2023D01*
X716Y2023D01*
X716Y2025D01*
X718Y2025D01*
X718Y2029D01*
X720Y2029D01*
X720Y2031D01*
X722Y2031D01*
X722Y2033D01*
X726Y2033D01*
X726Y2035D01*
X728Y2035D01*
X728Y2037D01*
X732Y2037D01*
X732Y2039D01*
X736Y2039D01*
X736Y2059D01*
X76Y2059D01*
G37*
D02*
G36*
X1666Y2059D02*
X1666Y2039D01*
X1670Y2039D01*
X1670Y2037D01*
X1674Y2037D01*
X1674Y2035D01*
X1676Y2035D01*
X1676Y2033D01*
X1678Y2033D01*
X1678Y2031D01*
X1682Y2031D01*
X1682Y2027D01*
X1684Y2027D01*
X1684Y2025D01*
X1686Y2025D01*
X1686Y2023D01*
X1688Y2023D01*
X1688Y2019D01*
X1690Y2019D01*
X1690Y2013D01*
X1692Y2013D01*
X1692Y2005D01*
X1694Y2005D01*
X1694Y1995D01*
X1692Y1995D01*
X1692Y1987D01*
X1690Y1987D01*
X1690Y1981D01*
X1688Y1981D01*
X1688Y1977D01*
X1686Y1977D01*
X1686Y1975D01*
X1684Y1975D01*
X1684Y1973D01*
X1682Y1973D01*
X1682Y1971D01*
X1680Y1971D01*
X1680Y1969D01*
X1678Y1969D01*
X1678Y1967D01*
X1676Y1967D01*
X1676Y1965D01*
X1674Y1965D01*
X1674Y1963D01*
X1670Y1963D01*
X1670Y1961D01*
X1664Y1961D01*
X1664Y1959D01*
X1656Y1959D01*
X1656Y1957D01*
X1654Y1957D01*
X1654Y1955D01*
X1652Y1955D01*
X1652Y1951D01*
X1650Y1951D01*
X1650Y1949D01*
X1648Y1949D01*
X1648Y1947D01*
X1646Y1947D01*
X1646Y1945D01*
X1642Y1945D01*
X1642Y1943D01*
X1634Y1943D01*
X1634Y1941D01*
X1626Y1941D01*
X1626Y1939D01*
X1618Y1939D01*
X1618Y1937D01*
X1610Y1937D01*
X1610Y1935D01*
X1604Y1935D01*
X1604Y1933D01*
X1596Y1933D01*
X1596Y1931D01*
X1588Y1931D01*
X1588Y1929D01*
X1580Y1929D01*
X1580Y1927D01*
X1572Y1927D01*
X1572Y1925D01*
X1564Y1925D01*
X1564Y1923D01*
X1556Y1923D01*
X1556Y1921D01*
X1548Y1921D01*
X1548Y1919D01*
X1542Y1919D01*
X1542Y1917D01*
X1534Y1917D01*
X1534Y1915D01*
X1526Y1915D01*
X1526Y1913D01*
X1518Y1913D01*
X1518Y1911D01*
X1510Y1911D01*
X1510Y1909D01*
X1502Y1909D01*
X1502Y1907D01*
X1494Y1907D01*
X1494Y1905D01*
X1486Y1905D01*
X1486Y1903D01*
X1480Y1903D01*
X1480Y1901D01*
X1472Y1901D01*
X1472Y1899D01*
X1464Y1899D01*
X1464Y1897D01*
X1456Y1897D01*
X1456Y1895D01*
X1448Y1895D01*
X1448Y1893D01*
X1440Y1893D01*
X1440Y1891D01*
X1432Y1891D01*
X1432Y1889D01*
X1424Y1889D01*
X1424Y1887D01*
X1416Y1887D01*
X1416Y1885D01*
X1410Y1885D01*
X1410Y1883D01*
X1402Y1883D01*
X1402Y1881D01*
X1394Y1881D01*
X1394Y1879D01*
X1386Y1879D01*
X1386Y1877D01*
X1378Y1877D01*
X1378Y1875D01*
X1370Y1875D01*
X1370Y1873D01*
X1362Y1873D01*
X1362Y1871D01*
X1354Y1871D01*
X1354Y1869D01*
X1348Y1869D01*
X1348Y1867D01*
X1340Y1867D01*
X1340Y1865D01*
X1332Y1865D01*
X1332Y1863D01*
X1324Y1863D01*
X1324Y1861D01*
X1316Y1861D01*
X1316Y1859D01*
X1308Y1859D01*
X1308Y1857D01*
X1300Y1857D01*
X1300Y1855D01*
X1292Y1855D01*
X1292Y1853D01*
X1286Y1853D01*
X1286Y1851D01*
X1278Y1851D01*
X1278Y1849D01*
X1270Y1849D01*
X1270Y1847D01*
X1262Y1847D01*
X1262Y1845D01*
X1254Y1845D01*
X1254Y1843D01*
X1246Y1843D01*
X1246Y1841D01*
X1238Y1841D01*
X1238Y1839D01*
X1230Y1839D01*
X1230Y1837D01*
X1222Y1837D01*
X1222Y1835D01*
X1216Y1835D01*
X1216Y1833D01*
X1208Y1833D01*
X1208Y1831D01*
X1200Y1831D01*
X1200Y1829D01*
X1192Y1829D01*
X1192Y1827D01*
X1184Y1827D01*
X1184Y1825D01*
X1176Y1825D01*
X1176Y1823D01*
X1168Y1823D01*
X1168Y1821D01*
X1160Y1821D01*
X1160Y1819D01*
X1154Y1819D01*
X1154Y1817D01*
X1146Y1817D01*
X1146Y1815D01*
X1138Y1815D01*
X1138Y1813D01*
X1130Y1813D01*
X1130Y1811D01*
X1122Y1811D01*
X1122Y1809D01*
X1114Y1809D01*
X1114Y1807D01*
X1106Y1807D01*
X1106Y1805D01*
X1098Y1805D01*
X1098Y1803D01*
X1092Y1803D01*
X1092Y1801D01*
X1084Y1801D01*
X1084Y1799D01*
X1076Y1799D01*
X1076Y1797D01*
X1068Y1797D01*
X1068Y1795D01*
X1060Y1795D01*
X1060Y1793D01*
X1052Y1793D01*
X1052Y1791D01*
X1044Y1791D01*
X1044Y1789D01*
X1036Y1789D01*
X1036Y1787D01*
X1030Y1787D01*
X1030Y1785D01*
X1022Y1785D01*
X1022Y1783D01*
X1014Y1783D01*
X1014Y1781D01*
X1006Y1781D01*
X1006Y1779D01*
X998Y1779D01*
X998Y1777D01*
X990Y1777D01*
X990Y1775D01*
X982Y1775D01*
X982Y1773D01*
X974Y1773D01*
X974Y1771D01*
X966Y1771D01*
X966Y1769D01*
X960Y1769D01*
X960Y1767D01*
X952Y1767D01*
X952Y1765D01*
X944Y1765D01*
X944Y1763D01*
X936Y1763D01*
X936Y1761D01*
X928Y1761D01*
X928Y1759D01*
X920Y1759D01*
X920Y1757D01*
X912Y1757D01*
X912Y1755D01*
X904Y1755D01*
X904Y1753D01*
X898Y1753D01*
X898Y1751D01*
X890Y1751D01*
X890Y1749D01*
X882Y1749D01*
X882Y1747D01*
X874Y1747D01*
X874Y1745D01*
X866Y1745D01*
X866Y1743D01*
X858Y1743D01*
X858Y1741D01*
X850Y1741D01*
X850Y1739D01*
X842Y1739D01*
X842Y1737D01*
X836Y1737D01*
X836Y1735D01*
X828Y1735D01*
X828Y1733D01*
X820Y1733D01*
X820Y1731D01*
X812Y1731D01*
X812Y1729D01*
X804Y1729D01*
X804Y1727D01*
X796Y1727D01*
X796Y1725D01*
X788Y1725D01*
X788Y1723D01*
X780Y1723D01*
X780Y1721D01*
X772Y1721D01*
X772Y1719D01*
X766Y1719D01*
X766Y1717D01*
X758Y1717D01*
X758Y1715D01*
X750Y1715D01*
X750Y1713D01*
X742Y1713D01*
X742Y1711D01*
X734Y1711D01*
X734Y1709D01*
X726Y1709D01*
X726Y1707D01*
X718Y1707D01*
X718Y1705D01*
X710Y1705D01*
X710Y1703D01*
X704Y1703D01*
X704Y1701D01*
X696Y1701D01*
X696Y1699D01*
X688Y1699D01*
X688Y1697D01*
X680Y1697D01*
X680Y1695D01*
X672Y1695D01*
X672Y1693D01*
X664Y1693D01*
X664Y1691D01*
X656Y1691D01*
X656Y1689D01*
X648Y1689D01*
X648Y1687D01*
X642Y1687D01*
X642Y1685D01*
X634Y1685D01*
X634Y1683D01*
X626Y1683D01*
X626Y1681D01*
X618Y1681D01*
X618Y1679D01*
X610Y1679D01*
X610Y1677D01*
X602Y1677D01*
X602Y1675D01*
X594Y1675D01*
X594Y1673D01*
X586Y1673D01*
X586Y1671D01*
X578Y1671D01*
X578Y1669D01*
X572Y1669D01*
X572Y1667D01*
X564Y1667D01*
X564Y1665D01*
X556Y1665D01*
X556Y1663D01*
X548Y1663D01*
X548Y1661D01*
X540Y1661D01*
X540Y1659D01*
X532Y1659D01*
X532Y1657D01*
X524Y1657D01*
X524Y1655D01*
X516Y1655D01*
X516Y1653D01*
X510Y1653D01*
X510Y1651D01*
X502Y1651D01*
X502Y1649D01*
X494Y1649D01*
X494Y1647D01*
X486Y1647D01*
X486Y1645D01*
X478Y1645D01*
X478Y1643D01*
X470Y1643D01*
X470Y1641D01*
X462Y1641D01*
X462Y1639D01*
X454Y1639D01*
X454Y1637D01*
X448Y1637D01*
X448Y1635D01*
X440Y1635D01*
X440Y1633D01*
X432Y1633D01*
X432Y1631D01*
X426Y1631D01*
X426Y1629D01*
X424Y1629D01*
X424Y1625D01*
X422Y1625D01*
X422Y1621D01*
X420Y1621D01*
X420Y1617D01*
X418Y1617D01*
X418Y1613D01*
X416Y1613D01*
X416Y1609D01*
X414Y1609D01*
X414Y1605D01*
X412Y1605D01*
X412Y1601D01*
X574Y1601D01*
X574Y1499D01*
X612Y1499D01*
X612Y1503D01*
X614Y1503D01*
X614Y1507D01*
X616Y1507D01*
X616Y1511D01*
X618Y1511D01*
X618Y1515D01*
X620Y1515D01*
X620Y1519D01*
X622Y1519D01*
X622Y1523D01*
X624Y1523D01*
X624Y1527D01*
X626Y1527D01*
X626Y1531D01*
X628Y1531D01*
X628Y1535D01*
X630Y1535D01*
X630Y1539D01*
X632Y1539D01*
X632Y1543D01*
X634Y1543D01*
X634Y1547D01*
X636Y1547D01*
X636Y1551D01*
X638Y1551D01*
X638Y1555D01*
X640Y1555D01*
X640Y1559D01*
X642Y1559D01*
X642Y1563D01*
X644Y1563D01*
X644Y1567D01*
X646Y1567D01*
X646Y1571D01*
X648Y1571D01*
X648Y1575D01*
X650Y1575D01*
X650Y1579D01*
X652Y1579D01*
X652Y1583D01*
X654Y1583D01*
X654Y1587D01*
X656Y1587D01*
X656Y1591D01*
X658Y1591D01*
X658Y1595D01*
X660Y1595D01*
X660Y1599D01*
X662Y1599D01*
X662Y1603D01*
X664Y1603D01*
X664Y1607D01*
X666Y1607D01*
X666Y1611D01*
X668Y1611D01*
X668Y1615D01*
X670Y1615D01*
X670Y1619D01*
X672Y1619D01*
X672Y1623D01*
X674Y1623D01*
X674Y1627D01*
X676Y1627D01*
X676Y1631D01*
X678Y1631D01*
X678Y1635D01*
X680Y1635D01*
X680Y1639D01*
X682Y1639D01*
X682Y1643D01*
X684Y1643D01*
X684Y1647D01*
X686Y1647D01*
X686Y1651D01*
X688Y1651D01*
X688Y1655D01*
X690Y1655D01*
X690Y1659D01*
X692Y1659D01*
X692Y1663D01*
X694Y1663D01*
X694Y1665D01*
X696Y1665D01*
X696Y1667D01*
X700Y1667D01*
X700Y1669D01*
X704Y1669D01*
X704Y1671D01*
X712Y1671D01*
X712Y1673D01*
X720Y1673D01*
X720Y1675D01*
X730Y1675D01*
X730Y1677D01*
X738Y1677D01*
X738Y1679D01*
X748Y1679D01*
X748Y1681D01*
X756Y1681D01*
X756Y1683D01*
X766Y1683D01*
X766Y1685D01*
X774Y1685D01*
X774Y1687D01*
X784Y1687D01*
X784Y1689D01*
X792Y1689D01*
X792Y1691D01*
X802Y1691D01*
X802Y1693D01*
X810Y1693D01*
X810Y1695D01*
X820Y1695D01*
X820Y1697D01*
X828Y1697D01*
X828Y1699D01*
X838Y1699D01*
X838Y1701D01*
X846Y1701D01*
X846Y1703D01*
X856Y1703D01*
X856Y1705D01*
X864Y1705D01*
X864Y1707D01*
X874Y1707D01*
X874Y1709D01*
X882Y1709D01*
X882Y1711D01*
X892Y1711D01*
X892Y1713D01*
X900Y1713D01*
X900Y1715D01*
X910Y1715D01*
X910Y1717D01*
X918Y1717D01*
X918Y1719D01*
X928Y1719D01*
X928Y1721D01*
X936Y1721D01*
X936Y1723D01*
X946Y1723D01*
X946Y1725D01*
X954Y1725D01*
X954Y1727D01*
X964Y1727D01*
X964Y1729D01*
X972Y1729D01*
X972Y1731D01*
X982Y1731D01*
X982Y1733D01*
X990Y1733D01*
X990Y1735D01*
X1000Y1735D01*
X1000Y1737D01*
X1008Y1737D01*
X1008Y1739D01*
X1018Y1739D01*
X1018Y1741D01*
X1026Y1741D01*
X1026Y1743D01*
X1036Y1743D01*
X1036Y1745D01*
X1044Y1745D01*
X1044Y1747D01*
X1054Y1747D01*
X1054Y1749D01*
X1062Y1749D01*
X1062Y1751D01*
X1072Y1751D01*
X1072Y1753D01*
X1080Y1753D01*
X1080Y1755D01*
X1090Y1755D01*
X1090Y1757D01*
X1098Y1757D01*
X1098Y1759D01*
X1108Y1759D01*
X1108Y1761D01*
X1116Y1761D01*
X1116Y1763D01*
X1126Y1763D01*
X1126Y1765D01*
X1134Y1765D01*
X1134Y1767D01*
X1144Y1767D01*
X1144Y1769D01*
X1152Y1769D01*
X1152Y1771D01*
X1162Y1771D01*
X1162Y1773D01*
X1170Y1773D01*
X1170Y1775D01*
X1180Y1775D01*
X1180Y1777D01*
X1188Y1777D01*
X1188Y1779D01*
X1198Y1779D01*
X1198Y1781D01*
X1206Y1781D01*
X1206Y1783D01*
X1216Y1783D01*
X1216Y1785D01*
X1224Y1785D01*
X1224Y1787D01*
X1234Y1787D01*
X1234Y1789D01*
X1242Y1789D01*
X1242Y1791D01*
X1252Y1791D01*
X1252Y1793D01*
X1260Y1793D01*
X1260Y1795D01*
X1270Y1795D01*
X1270Y1797D01*
X1278Y1797D01*
X1278Y1799D01*
X1288Y1799D01*
X1288Y1801D01*
X1296Y1801D01*
X1296Y1803D01*
X1306Y1803D01*
X1306Y1805D01*
X1314Y1805D01*
X1314Y1807D01*
X1324Y1807D01*
X1324Y1809D01*
X1332Y1809D01*
X1332Y1811D01*
X1342Y1811D01*
X1342Y1813D01*
X1350Y1813D01*
X1350Y1815D01*
X1360Y1815D01*
X1360Y1817D01*
X1368Y1817D01*
X1368Y1819D01*
X1378Y1819D01*
X1378Y1821D01*
X1386Y1821D01*
X1386Y1823D01*
X1396Y1823D01*
X1396Y1825D01*
X1404Y1825D01*
X1404Y1827D01*
X1414Y1827D01*
X1414Y1829D01*
X1422Y1829D01*
X1422Y1831D01*
X1432Y1831D01*
X1432Y1833D01*
X1440Y1833D01*
X1440Y1835D01*
X1450Y1835D01*
X1450Y1837D01*
X1458Y1837D01*
X1458Y1839D01*
X1468Y1839D01*
X1468Y1841D01*
X1476Y1841D01*
X1476Y1843D01*
X1486Y1843D01*
X1486Y1845D01*
X1494Y1845D01*
X1494Y1847D01*
X1504Y1847D01*
X1504Y1849D01*
X1512Y1849D01*
X1512Y1851D01*
X1522Y1851D01*
X1522Y1853D01*
X1530Y1853D01*
X1530Y1855D01*
X1540Y1855D01*
X1540Y1857D01*
X1548Y1857D01*
X1548Y1859D01*
X1558Y1859D01*
X1558Y1861D01*
X1566Y1861D01*
X1566Y1863D01*
X1576Y1863D01*
X1576Y1865D01*
X1584Y1865D01*
X1584Y1867D01*
X1594Y1867D01*
X1594Y1869D01*
X1602Y1869D01*
X1602Y1871D01*
X1604Y1871D01*
X1604Y1873D01*
X1606Y1873D01*
X1606Y1875D01*
X1610Y1875D01*
X1610Y1877D01*
X1612Y1877D01*
X1612Y1879D01*
X1614Y1879D01*
X1614Y1881D01*
X1618Y1881D01*
X1618Y1883D01*
X1620Y1883D01*
X1620Y1885D01*
X1622Y1885D01*
X1622Y1887D01*
X1626Y1887D01*
X1626Y1889D01*
X1628Y1889D01*
X1628Y1891D01*
X1630Y1891D01*
X1630Y1893D01*
X1634Y1893D01*
X1634Y1895D01*
X1636Y1895D01*
X1636Y1897D01*
X1638Y1897D01*
X1638Y1899D01*
X1642Y1899D01*
X1642Y1901D01*
X1644Y1901D01*
X1644Y1903D01*
X1646Y1903D01*
X1646Y1905D01*
X1650Y1905D01*
X1650Y1907D01*
X1652Y1907D01*
X1652Y1909D01*
X1654Y1909D01*
X1654Y1911D01*
X1658Y1911D01*
X1658Y1913D01*
X1660Y1913D01*
X1660Y1915D01*
X1662Y1915D01*
X1662Y1917D01*
X1666Y1917D01*
X1666Y1919D01*
X1668Y1919D01*
X1668Y1921D01*
X1670Y1921D01*
X1670Y1923D01*
X1674Y1923D01*
X1674Y1925D01*
X1676Y1925D01*
X1676Y1927D01*
X1678Y1927D01*
X1678Y1929D01*
X1682Y1929D01*
X1682Y1931D01*
X1684Y1931D01*
X1684Y1933D01*
X1686Y1933D01*
X1686Y1935D01*
X1690Y1935D01*
X1690Y1937D01*
X1692Y1937D01*
X1692Y1939D01*
X1694Y1939D01*
X1694Y1941D01*
X1698Y1941D01*
X1698Y1943D01*
X1700Y1943D01*
X1700Y1945D01*
X1702Y1945D01*
X1702Y1947D01*
X1706Y1947D01*
X1706Y1949D01*
X1708Y1949D01*
X1708Y1951D01*
X1710Y1951D01*
X1710Y1953D01*
X1714Y1953D01*
X1714Y1955D01*
X1716Y1955D01*
X1716Y1957D01*
X1718Y1957D01*
X1718Y1959D01*
X1722Y1959D01*
X1722Y1961D01*
X1724Y1961D01*
X1724Y1963D01*
X1726Y1963D01*
X1726Y1965D01*
X1728Y1965D01*
X1728Y1967D01*
X1732Y1967D01*
X1732Y1969D01*
X1734Y1969D01*
X1734Y1971D01*
X1736Y1971D01*
X1736Y1973D01*
X1740Y1973D01*
X1740Y1975D01*
X1742Y1975D01*
X1742Y1977D01*
X1744Y1977D01*
X1744Y1979D01*
X1748Y1979D01*
X1748Y1981D01*
X1750Y1981D01*
X1750Y1983D01*
X1752Y1983D01*
X1752Y1985D01*
X1756Y1985D01*
X1756Y1987D01*
X1758Y1987D01*
X1758Y1989D01*
X1760Y1989D01*
X1760Y1991D01*
X1764Y1991D01*
X1764Y1993D01*
X1766Y1993D01*
X1766Y1995D01*
X1768Y1995D01*
X1768Y2009D01*
X1770Y2009D01*
X1770Y2015D01*
X1772Y2015D01*
X1772Y2019D01*
X1774Y2019D01*
X1774Y2023D01*
X1776Y2023D01*
X1776Y2025D01*
X1778Y2025D01*
X1778Y2029D01*
X1780Y2029D01*
X1780Y2031D01*
X1782Y2031D01*
X1782Y2033D01*
X1786Y2033D01*
X1786Y2035D01*
X1788Y2035D01*
X1788Y2037D01*
X1792Y2037D01*
X1792Y2039D01*
X1796Y2039D01*
X1796Y2059D01*
X1666Y2059D01*
G37*
D02*
G36*
X790Y1987D02*
X790Y1981D01*
X788Y1981D01*
X788Y1977D01*
X786Y1977D01*
X786Y1975D01*
X784Y1975D01*
X784Y1973D01*
X782Y1973D01*
X782Y1971D01*
X780Y1971D01*
X780Y1969D01*
X778Y1969D01*
X778Y1967D01*
X776Y1967D01*
X776Y1965D01*
X774Y1965D01*
X774Y1963D01*
X770Y1963D01*
X770Y1961D01*
X764Y1961D01*
X764Y1959D01*
X756Y1959D01*
X756Y1957D01*
X844Y1957D01*
X844Y1959D01*
X836Y1959D01*
X836Y1961D01*
X832Y1961D01*
X832Y1963D01*
X828Y1963D01*
X828Y1965D01*
X826Y1965D01*
X826Y1967D01*
X824Y1967D01*
X824Y1969D01*
X820Y1969D01*
X820Y1971D01*
X818Y1971D01*
X818Y1975D01*
X816Y1975D01*
X816Y1977D01*
X814Y1977D01*
X814Y1981D01*
X812Y1981D01*
X812Y1985D01*
X810Y1985D01*
X810Y1987D01*
X790Y1987D01*
G37*
D02*
G36*
X890Y1987D02*
X890Y1981D01*
X888Y1981D01*
X888Y1977D01*
X886Y1977D01*
X886Y1975D01*
X884Y1975D01*
X884Y1973D01*
X882Y1973D01*
X882Y1971D01*
X880Y1971D01*
X880Y1969D01*
X878Y1969D01*
X878Y1967D01*
X876Y1967D01*
X876Y1965D01*
X874Y1965D01*
X874Y1963D01*
X870Y1963D01*
X870Y1961D01*
X864Y1961D01*
X864Y1959D01*
X856Y1959D01*
X856Y1957D01*
X944Y1957D01*
X944Y1959D01*
X936Y1959D01*
X936Y1961D01*
X932Y1961D01*
X932Y1963D01*
X928Y1963D01*
X928Y1965D01*
X926Y1965D01*
X926Y1967D01*
X924Y1967D01*
X924Y1969D01*
X920Y1969D01*
X920Y1971D01*
X918Y1971D01*
X918Y1975D01*
X916Y1975D01*
X916Y1977D01*
X914Y1977D01*
X914Y1981D01*
X912Y1981D01*
X912Y1985D01*
X910Y1985D01*
X910Y1987D01*
X890Y1987D01*
G37*
D02*
G36*
X990Y1987D02*
X990Y1981D01*
X988Y1981D01*
X988Y1977D01*
X986Y1977D01*
X986Y1975D01*
X984Y1975D01*
X984Y1973D01*
X982Y1973D01*
X982Y1971D01*
X980Y1971D01*
X980Y1969D01*
X978Y1969D01*
X978Y1967D01*
X976Y1967D01*
X976Y1965D01*
X974Y1965D01*
X974Y1963D01*
X970Y1963D01*
X970Y1961D01*
X964Y1961D01*
X964Y1959D01*
X956Y1959D01*
X956Y1957D01*
X1044Y1957D01*
X1044Y1959D01*
X1036Y1959D01*
X1036Y1961D01*
X1032Y1961D01*
X1032Y1963D01*
X1028Y1963D01*
X1028Y1965D01*
X1026Y1965D01*
X1026Y1967D01*
X1024Y1967D01*
X1024Y1969D01*
X1020Y1969D01*
X1020Y1971D01*
X1018Y1971D01*
X1018Y1975D01*
X1016Y1975D01*
X1016Y1977D01*
X1014Y1977D01*
X1014Y1981D01*
X1012Y1981D01*
X1012Y1985D01*
X1010Y1985D01*
X1010Y1987D01*
X990Y1987D01*
G37*
D02*
G36*
X1090Y1987D02*
X1090Y1981D01*
X1088Y1981D01*
X1088Y1977D01*
X1086Y1977D01*
X1086Y1975D01*
X1084Y1975D01*
X1084Y1973D01*
X1082Y1973D01*
X1082Y1971D01*
X1080Y1971D01*
X1080Y1969D01*
X1078Y1969D01*
X1078Y1967D01*
X1076Y1967D01*
X1076Y1965D01*
X1074Y1965D01*
X1074Y1963D01*
X1070Y1963D01*
X1070Y1961D01*
X1064Y1961D01*
X1064Y1959D01*
X1056Y1959D01*
X1056Y1957D01*
X1144Y1957D01*
X1144Y1959D01*
X1136Y1959D01*
X1136Y1961D01*
X1132Y1961D01*
X1132Y1963D01*
X1128Y1963D01*
X1128Y1965D01*
X1126Y1965D01*
X1126Y1967D01*
X1124Y1967D01*
X1124Y1969D01*
X1120Y1969D01*
X1120Y1971D01*
X1118Y1971D01*
X1118Y1975D01*
X1116Y1975D01*
X1116Y1977D01*
X1114Y1977D01*
X1114Y1981D01*
X1112Y1981D01*
X1112Y1985D01*
X1110Y1985D01*
X1110Y1987D01*
X1090Y1987D01*
G37*
D02*
G36*
X1190Y1987D02*
X1190Y1981D01*
X1188Y1981D01*
X1188Y1977D01*
X1186Y1977D01*
X1186Y1975D01*
X1184Y1975D01*
X1184Y1973D01*
X1182Y1973D01*
X1182Y1971D01*
X1180Y1971D01*
X1180Y1969D01*
X1178Y1969D01*
X1178Y1967D01*
X1176Y1967D01*
X1176Y1965D01*
X1174Y1965D01*
X1174Y1963D01*
X1170Y1963D01*
X1170Y1961D01*
X1164Y1961D01*
X1164Y1959D01*
X1156Y1959D01*
X1156Y1957D01*
X1244Y1957D01*
X1244Y1959D01*
X1236Y1959D01*
X1236Y1961D01*
X1232Y1961D01*
X1232Y1963D01*
X1228Y1963D01*
X1228Y1965D01*
X1226Y1965D01*
X1226Y1967D01*
X1224Y1967D01*
X1224Y1969D01*
X1220Y1969D01*
X1220Y1971D01*
X1218Y1971D01*
X1218Y1975D01*
X1216Y1975D01*
X1216Y1977D01*
X1214Y1977D01*
X1214Y1981D01*
X1212Y1981D01*
X1212Y1985D01*
X1210Y1985D01*
X1210Y1987D01*
X1190Y1987D01*
G37*
D02*
G36*
X1290Y1987D02*
X1290Y1981D01*
X1288Y1981D01*
X1288Y1977D01*
X1286Y1977D01*
X1286Y1975D01*
X1284Y1975D01*
X1284Y1973D01*
X1282Y1973D01*
X1282Y1971D01*
X1280Y1971D01*
X1280Y1969D01*
X1278Y1969D01*
X1278Y1967D01*
X1276Y1967D01*
X1276Y1965D01*
X1274Y1965D01*
X1274Y1963D01*
X1270Y1963D01*
X1270Y1961D01*
X1264Y1961D01*
X1264Y1959D01*
X1256Y1959D01*
X1256Y1957D01*
X1344Y1957D01*
X1344Y1959D01*
X1336Y1959D01*
X1336Y1961D01*
X1332Y1961D01*
X1332Y1963D01*
X1328Y1963D01*
X1328Y1965D01*
X1326Y1965D01*
X1326Y1967D01*
X1324Y1967D01*
X1324Y1969D01*
X1320Y1969D01*
X1320Y1971D01*
X1318Y1971D01*
X1318Y1975D01*
X1316Y1975D01*
X1316Y1977D01*
X1314Y1977D01*
X1314Y1981D01*
X1312Y1981D01*
X1312Y1985D01*
X1310Y1985D01*
X1310Y1987D01*
X1290Y1987D01*
G37*
D02*
G36*
X1390Y1987D02*
X1390Y1981D01*
X1388Y1981D01*
X1388Y1977D01*
X1386Y1977D01*
X1386Y1975D01*
X1384Y1975D01*
X1384Y1973D01*
X1382Y1973D01*
X1382Y1971D01*
X1380Y1971D01*
X1380Y1969D01*
X1378Y1969D01*
X1378Y1967D01*
X1376Y1967D01*
X1376Y1965D01*
X1374Y1965D01*
X1374Y1963D01*
X1370Y1963D01*
X1370Y1961D01*
X1364Y1961D01*
X1364Y1959D01*
X1356Y1959D01*
X1356Y1957D01*
X1444Y1957D01*
X1444Y1959D01*
X1436Y1959D01*
X1436Y1961D01*
X1432Y1961D01*
X1432Y1963D01*
X1428Y1963D01*
X1428Y1965D01*
X1426Y1965D01*
X1426Y1967D01*
X1424Y1967D01*
X1424Y1969D01*
X1420Y1969D01*
X1420Y1971D01*
X1418Y1971D01*
X1418Y1975D01*
X1416Y1975D01*
X1416Y1977D01*
X1414Y1977D01*
X1414Y1981D01*
X1412Y1981D01*
X1412Y1985D01*
X1410Y1985D01*
X1410Y1987D01*
X1390Y1987D01*
G37*
D02*
G36*
X1850Y1987D02*
X1850Y1981D01*
X1848Y1981D01*
X1848Y1977D01*
X1846Y1977D01*
X1846Y1975D01*
X1844Y1975D01*
X1844Y1973D01*
X1842Y1973D01*
X1842Y1971D01*
X1840Y1971D01*
X1840Y1969D01*
X1838Y1969D01*
X1838Y1967D01*
X1836Y1967D01*
X1836Y1965D01*
X1834Y1965D01*
X1834Y1963D01*
X1830Y1963D01*
X1830Y1961D01*
X1824Y1961D01*
X1824Y1959D01*
X1816Y1959D01*
X1816Y1957D01*
X1788Y1957D01*
X1788Y1955D01*
X1786Y1955D01*
X1786Y1953D01*
X1784Y1953D01*
X1784Y1951D01*
X1780Y1951D01*
X1780Y1949D01*
X1778Y1949D01*
X1778Y1947D01*
X1776Y1947D01*
X1776Y1945D01*
X1772Y1945D01*
X1772Y1943D01*
X1770Y1943D01*
X1770Y1941D01*
X1768Y1941D01*
X1768Y1939D01*
X1764Y1939D01*
X1764Y1937D01*
X1762Y1937D01*
X1762Y1935D01*
X1760Y1935D01*
X1760Y1933D01*
X1758Y1933D01*
X1758Y1931D01*
X1754Y1931D01*
X1754Y1929D01*
X1752Y1929D01*
X1752Y1927D01*
X1750Y1927D01*
X1750Y1925D01*
X1746Y1925D01*
X1746Y1923D01*
X1744Y1923D01*
X1744Y1921D01*
X1742Y1921D01*
X1742Y1919D01*
X1738Y1919D01*
X1738Y1917D01*
X1736Y1917D01*
X1736Y1915D01*
X1734Y1915D01*
X1734Y1913D01*
X1730Y1913D01*
X1730Y1911D01*
X1728Y1911D01*
X1728Y1909D01*
X1726Y1909D01*
X1726Y1907D01*
X1722Y1907D01*
X1722Y1905D01*
X1720Y1905D01*
X1720Y1903D01*
X1718Y1903D01*
X1718Y1901D01*
X1714Y1901D01*
X1714Y1899D01*
X1712Y1899D01*
X1712Y1897D01*
X1710Y1897D01*
X1710Y1895D01*
X1706Y1895D01*
X1706Y1893D01*
X1704Y1893D01*
X1704Y1891D01*
X1702Y1891D01*
X1702Y1889D01*
X1698Y1889D01*
X1698Y1887D01*
X1696Y1887D01*
X1696Y1885D01*
X1694Y1885D01*
X1694Y1883D01*
X1690Y1883D01*
X1690Y1881D01*
X1688Y1881D01*
X1688Y1879D01*
X1686Y1879D01*
X1686Y1877D01*
X1682Y1877D01*
X1682Y1875D01*
X1680Y1875D01*
X1680Y1873D01*
X1678Y1873D01*
X1678Y1871D01*
X1674Y1871D01*
X1674Y1869D01*
X1672Y1869D01*
X1672Y1867D01*
X1670Y1867D01*
X1670Y1865D01*
X1666Y1865D01*
X1666Y1863D01*
X1664Y1863D01*
X1664Y1861D01*
X1662Y1861D01*
X1662Y1859D01*
X1658Y1859D01*
X1658Y1857D01*
X1656Y1857D01*
X1656Y1855D01*
X1654Y1855D01*
X1654Y1853D01*
X1650Y1853D01*
X1650Y1851D01*
X1648Y1851D01*
X1648Y1849D01*
X1646Y1849D01*
X1646Y1847D01*
X1642Y1847D01*
X1642Y1845D01*
X1640Y1845D01*
X1640Y1843D01*
X1638Y1843D01*
X1638Y1841D01*
X1634Y1841D01*
X1634Y1839D01*
X1632Y1839D01*
X1632Y1837D01*
X1630Y1837D01*
X1630Y1835D01*
X1626Y1835D01*
X1626Y1833D01*
X1624Y1833D01*
X1624Y1831D01*
X1622Y1831D01*
X1622Y1829D01*
X1616Y1829D01*
X1616Y1827D01*
X1608Y1827D01*
X1608Y1825D01*
X1598Y1825D01*
X1598Y1823D01*
X1590Y1823D01*
X1590Y1821D01*
X1580Y1821D01*
X1580Y1819D01*
X1572Y1819D01*
X1572Y1817D01*
X1562Y1817D01*
X1562Y1815D01*
X1554Y1815D01*
X1554Y1813D01*
X1544Y1813D01*
X1544Y1811D01*
X1536Y1811D01*
X1536Y1809D01*
X1526Y1809D01*
X1526Y1807D01*
X1518Y1807D01*
X1518Y1805D01*
X1508Y1805D01*
X1508Y1803D01*
X1500Y1803D01*
X1500Y1801D01*
X1490Y1801D01*
X1490Y1799D01*
X1482Y1799D01*
X1482Y1797D01*
X1472Y1797D01*
X1472Y1795D01*
X1464Y1795D01*
X1464Y1793D01*
X1454Y1793D01*
X1454Y1791D01*
X1446Y1791D01*
X1446Y1789D01*
X1436Y1789D01*
X1436Y1787D01*
X1428Y1787D01*
X1428Y1785D01*
X1418Y1785D01*
X1418Y1783D01*
X1410Y1783D01*
X1410Y1781D01*
X1400Y1781D01*
X1400Y1779D01*
X1392Y1779D01*
X1392Y1777D01*
X1382Y1777D01*
X1382Y1775D01*
X1374Y1775D01*
X1374Y1773D01*
X1364Y1773D01*
X1364Y1771D01*
X1356Y1771D01*
X1356Y1769D01*
X1346Y1769D01*
X1346Y1767D01*
X1338Y1767D01*
X1338Y1765D01*
X1328Y1765D01*
X1328Y1763D01*
X1320Y1763D01*
X1320Y1761D01*
X1310Y1761D01*
X1310Y1759D01*
X1302Y1759D01*
X1302Y1757D01*
X1292Y1757D01*
X1292Y1755D01*
X1284Y1755D01*
X1284Y1753D01*
X1274Y1753D01*
X1274Y1751D01*
X1266Y1751D01*
X1266Y1749D01*
X1256Y1749D01*
X1256Y1747D01*
X1248Y1747D01*
X1248Y1745D01*
X1238Y1745D01*
X1238Y1743D01*
X1230Y1743D01*
X1230Y1741D01*
X1220Y1741D01*
X1220Y1739D01*
X1212Y1739D01*
X1212Y1737D01*
X1202Y1737D01*
X1202Y1735D01*
X1194Y1735D01*
X1194Y1733D01*
X1184Y1733D01*
X1184Y1731D01*
X1176Y1731D01*
X1176Y1729D01*
X1166Y1729D01*
X1166Y1727D01*
X1158Y1727D01*
X1158Y1725D01*
X1148Y1725D01*
X1148Y1723D01*
X1140Y1723D01*
X1140Y1721D01*
X1130Y1721D01*
X1130Y1719D01*
X1122Y1719D01*
X1122Y1717D01*
X1112Y1717D01*
X1112Y1715D01*
X1104Y1715D01*
X1104Y1713D01*
X1094Y1713D01*
X1094Y1711D01*
X1086Y1711D01*
X1086Y1709D01*
X1076Y1709D01*
X1076Y1707D01*
X1068Y1707D01*
X1068Y1705D01*
X1058Y1705D01*
X1058Y1703D01*
X1050Y1703D01*
X1050Y1701D01*
X1040Y1701D01*
X1040Y1699D01*
X1032Y1699D01*
X1032Y1697D01*
X1022Y1697D01*
X1022Y1695D01*
X1014Y1695D01*
X1014Y1693D01*
X1004Y1693D01*
X1004Y1691D01*
X996Y1691D01*
X996Y1689D01*
X986Y1689D01*
X986Y1687D01*
X978Y1687D01*
X978Y1685D01*
X968Y1685D01*
X968Y1683D01*
X960Y1683D01*
X960Y1681D01*
X950Y1681D01*
X950Y1679D01*
X942Y1679D01*
X942Y1677D01*
X932Y1677D01*
X932Y1675D01*
X924Y1675D01*
X924Y1673D01*
X914Y1673D01*
X914Y1671D01*
X906Y1671D01*
X906Y1669D01*
X896Y1669D01*
X896Y1667D01*
X888Y1667D01*
X888Y1665D01*
X878Y1665D01*
X878Y1663D01*
X870Y1663D01*
X870Y1661D01*
X860Y1661D01*
X860Y1659D01*
X852Y1659D01*
X852Y1657D01*
X842Y1657D01*
X842Y1655D01*
X834Y1655D01*
X834Y1653D01*
X824Y1653D01*
X824Y1651D01*
X816Y1651D01*
X816Y1649D01*
X806Y1649D01*
X806Y1647D01*
X798Y1647D01*
X798Y1645D01*
X788Y1645D01*
X788Y1643D01*
X780Y1643D01*
X780Y1641D01*
X770Y1641D01*
X770Y1639D01*
X762Y1639D01*
X762Y1637D01*
X752Y1637D01*
X752Y1635D01*
X744Y1635D01*
X744Y1633D01*
X734Y1633D01*
X734Y1631D01*
X726Y1631D01*
X726Y1629D01*
X724Y1629D01*
X724Y1625D01*
X722Y1625D01*
X722Y1621D01*
X720Y1621D01*
X720Y1617D01*
X718Y1617D01*
X718Y1613D01*
X716Y1613D01*
X716Y1609D01*
X714Y1609D01*
X714Y1605D01*
X712Y1605D01*
X712Y1601D01*
X874Y1601D01*
X874Y1499D01*
X914Y1499D01*
X914Y1503D01*
X916Y1503D01*
X916Y1507D01*
X918Y1507D01*
X918Y1509D01*
X920Y1509D01*
X920Y1513D01*
X922Y1513D01*
X922Y1517D01*
X924Y1517D01*
X924Y1521D01*
X926Y1521D01*
X926Y1525D01*
X928Y1525D01*
X928Y1527D01*
X930Y1527D01*
X930Y1531D01*
X932Y1531D01*
X932Y1535D01*
X934Y1535D01*
X934Y1539D01*
X936Y1539D01*
X936Y1543D01*
X938Y1543D01*
X938Y1547D01*
X940Y1547D01*
X940Y1549D01*
X942Y1549D01*
X942Y1553D01*
X944Y1553D01*
X944Y1557D01*
X946Y1557D01*
X946Y1561D01*
X948Y1561D01*
X948Y1565D01*
X950Y1565D01*
X950Y1567D01*
X952Y1567D01*
X952Y1571D01*
X954Y1571D01*
X954Y1575D01*
X956Y1575D01*
X956Y1579D01*
X958Y1579D01*
X958Y1583D01*
X960Y1583D01*
X960Y1587D01*
X962Y1587D01*
X962Y1589D01*
X964Y1589D01*
X964Y1593D01*
X966Y1593D01*
X966Y1597D01*
X968Y1597D01*
X968Y1601D01*
X970Y1601D01*
X970Y1605D01*
X972Y1605D01*
X972Y1607D01*
X974Y1607D01*
X974Y1611D01*
X976Y1611D01*
X976Y1615D01*
X978Y1615D01*
X978Y1619D01*
X980Y1619D01*
X980Y1623D01*
X982Y1623D01*
X982Y1625D01*
X984Y1625D01*
X984Y1629D01*
X986Y1629D01*
X986Y1633D01*
X988Y1633D01*
X988Y1637D01*
X990Y1637D01*
X990Y1641D01*
X992Y1641D01*
X992Y1643D01*
X994Y1643D01*
X994Y1645D01*
X996Y1645D01*
X996Y1647D01*
X1000Y1647D01*
X1000Y1649D01*
X1004Y1649D01*
X1004Y1651D01*
X1014Y1651D01*
X1014Y1653D01*
X1022Y1653D01*
X1022Y1655D01*
X1032Y1655D01*
X1032Y1657D01*
X1040Y1657D01*
X1040Y1659D01*
X1050Y1659D01*
X1050Y1661D01*
X1058Y1661D01*
X1058Y1663D01*
X1068Y1663D01*
X1068Y1665D01*
X1076Y1665D01*
X1076Y1667D01*
X1086Y1667D01*
X1086Y1669D01*
X1096Y1669D01*
X1096Y1671D01*
X1104Y1671D01*
X1104Y1673D01*
X1114Y1673D01*
X1114Y1675D01*
X1122Y1675D01*
X1122Y1677D01*
X1132Y1677D01*
X1132Y1679D01*
X1140Y1679D01*
X1140Y1681D01*
X1150Y1681D01*
X1150Y1683D01*
X1158Y1683D01*
X1158Y1685D01*
X1168Y1685D01*
X1168Y1687D01*
X1176Y1687D01*
X1176Y1689D01*
X1186Y1689D01*
X1186Y1691D01*
X1194Y1691D01*
X1194Y1693D01*
X1204Y1693D01*
X1204Y1695D01*
X1212Y1695D01*
X1212Y1697D01*
X1222Y1697D01*
X1222Y1699D01*
X1230Y1699D01*
X1230Y1701D01*
X1240Y1701D01*
X1240Y1703D01*
X1248Y1703D01*
X1248Y1705D01*
X1258Y1705D01*
X1258Y1707D01*
X1266Y1707D01*
X1266Y1709D01*
X1276Y1709D01*
X1276Y1711D01*
X1284Y1711D01*
X1284Y1713D01*
X1294Y1713D01*
X1294Y1715D01*
X1304Y1715D01*
X1304Y1717D01*
X1312Y1717D01*
X1312Y1719D01*
X1322Y1719D01*
X1322Y1721D01*
X1330Y1721D01*
X1330Y1723D01*
X1340Y1723D01*
X1340Y1725D01*
X1348Y1725D01*
X1348Y1727D01*
X1358Y1727D01*
X1358Y1729D01*
X1366Y1729D01*
X1366Y1731D01*
X1376Y1731D01*
X1376Y1733D01*
X1384Y1733D01*
X1384Y1735D01*
X1394Y1735D01*
X1394Y1737D01*
X1402Y1737D01*
X1402Y1739D01*
X1412Y1739D01*
X1412Y1741D01*
X1420Y1741D01*
X1420Y1743D01*
X1430Y1743D01*
X1430Y1745D01*
X1438Y1745D01*
X1438Y1747D01*
X1448Y1747D01*
X1448Y1749D01*
X1456Y1749D01*
X1456Y1751D01*
X1466Y1751D01*
X1466Y1753D01*
X1474Y1753D01*
X1474Y1755D01*
X1484Y1755D01*
X1484Y1757D01*
X1492Y1757D01*
X1492Y1759D01*
X1502Y1759D01*
X1502Y1761D01*
X1510Y1761D01*
X1510Y1763D01*
X1520Y1763D01*
X1520Y1765D01*
X1530Y1765D01*
X1530Y1767D01*
X1538Y1767D01*
X1538Y1769D01*
X1548Y1769D01*
X1548Y1771D01*
X1556Y1771D01*
X1556Y1773D01*
X1566Y1773D01*
X1566Y1775D01*
X1574Y1775D01*
X1574Y1777D01*
X1584Y1777D01*
X1584Y1779D01*
X1592Y1779D01*
X1592Y1781D01*
X1602Y1781D01*
X1602Y1783D01*
X1610Y1783D01*
X1610Y1785D01*
X1620Y1785D01*
X1620Y1787D01*
X1628Y1787D01*
X1628Y1789D01*
X1638Y1789D01*
X1638Y1791D01*
X1646Y1791D01*
X1646Y1793D01*
X1656Y1793D01*
X1656Y1795D01*
X1664Y1795D01*
X1664Y1797D01*
X1674Y1797D01*
X1674Y1799D01*
X1682Y1799D01*
X1682Y1801D01*
X1692Y1801D01*
X1692Y1803D01*
X1696Y1803D01*
X1696Y1805D01*
X1698Y1805D01*
X1698Y1807D01*
X1702Y1807D01*
X1702Y1809D01*
X1704Y1809D01*
X1704Y1811D01*
X1706Y1811D01*
X1706Y1813D01*
X1708Y1813D01*
X1708Y1815D01*
X1710Y1815D01*
X1710Y1817D01*
X1712Y1817D01*
X1712Y1819D01*
X1714Y1819D01*
X1714Y1821D01*
X1716Y1821D01*
X1716Y1823D01*
X1718Y1823D01*
X1718Y1825D01*
X1720Y1825D01*
X1720Y1827D01*
X1722Y1827D01*
X1722Y1829D01*
X1724Y1829D01*
X1724Y1831D01*
X1726Y1831D01*
X1726Y1833D01*
X1728Y1833D01*
X1728Y1835D01*
X1730Y1835D01*
X1730Y1837D01*
X1732Y1837D01*
X1732Y1839D01*
X1734Y1839D01*
X1734Y1841D01*
X1736Y1841D01*
X1736Y1843D01*
X1738Y1843D01*
X1738Y1845D01*
X1740Y1845D01*
X1740Y1847D01*
X1744Y1847D01*
X1744Y1849D01*
X1746Y1849D01*
X1746Y1851D01*
X1748Y1851D01*
X1748Y1853D01*
X1750Y1853D01*
X1750Y1855D01*
X1752Y1855D01*
X1752Y1857D01*
X1754Y1857D01*
X1754Y1859D01*
X1756Y1859D01*
X1756Y1861D01*
X1758Y1861D01*
X1758Y1863D01*
X1760Y1863D01*
X1760Y1865D01*
X1762Y1865D01*
X1762Y1867D01*
X1764Y1867D01*
X1764Y1869D01*
X1766Y1869D01*
X1766Y1871D01*
X1768Y1871D01*
X1768Y1873D01*
X1770Y1873D01*
X1770Y1875D01*
X1772Y1875D01*
X1772Y1877D01*
X1774Y1877D01*
X1774Y1879D01*
X1776Y1879D01*
X1776Y1881D01*
X1778Y1881D01*
X1778Y1883D01*
X1780Y1883D01*
X1780Y1885D01*
X1784Y1885D01*
X1784Y1887D01*
X1786Y1887D01*
X1786Y1889D01*
X1788Y1889D01*
X1788Y1891D01*
X1790Y1891D01*
X1790Y1893D01*
X1792Y1893D01*
X1792Y1895D01*
X1794Y1895D01*
X1794Y1897D01*
X1796Y1897D01*
X1796Y1899D01*
X1798Y1899D01*
X1798Y1901D01*
X1800Y1901D01*
X1800Y1903D01*
X1802Y1903D01*
X1802Y1905D01*
X1804Y1905D01*
X1804Y1907D01*
X1806Y1907D01*
X1806Y1909D01*
X1808Y1909D01*
X1808Y1911D01*
X1810Y1911D01*
X1810Y1913D01*
X1812Y1913D01*
X1812Y1915D01*
X1814Y1915D01*
X1814Y1917D01*
X1816Y1917D01*
X1816Y1919D01*
X1818Y1919D01*
X1818Y1921D01*
X1820Y1921D01*
X1820Y1923D01*
X1824Y1923D01*
X1824Y1925D01*
X1826Y1925D01*
X1826Y1927D01*
X1828Y1927D01*
X1828Y1929D01*
X1830Y1929D01*
X1830Y1931D01*
X1832Y1931D01*
X1832Y1933D01*
X1834Y1933D01*
X1834Y1935D01*
X1836Y1935D01*
X1836Y1937D01*
X1838Y1937D01*
X1838Y1939D01*
X1840Y1939D01*
X1840Y1941D01*
X1842Y1941D01*
X1842Y1943D01*
X1844Y1943D01*
X1844Y1945D01*
X1846Y1945D01*
X1846Y1947D01*
X1848Y1947D01*
X1848Y1949D01*
X1850Y1949D01*
X1850Y1951D01*
X1852Y1951D01*
X1852Y1953D01*
X1854Y1953D01*
X1854Y1955D01*
X1856Y1955D01*
X1856Y1957D01*
X1858Y1957D01*
X1858Y1959D01*
X1860Y1959D01*
X1860Y1961D01*
X1862Y1961D01*
X1862Y1963D01*
X1866Y1963D01*
X1866Y1965D01*
X1868Y1965D01*
X1868Y1967D01*
X1870Y1967D01*
X1870Y1987D01*
X1850Y1987D01*
G37*
D02*
G36*
X1950Y1987D02*
X1950Y1981D01*
X1948Y1981D01*
X1948Y1977D01*
X1946Y1977D01*
X1946Y1975D01*
X1944Y1975D01*
X1944Y1973D01*
X1942Y1973D01*
X1942Y1971D01*
X1940Y1971D01*
X1940Y1969D01*
X1938Y1969D01*
X1938Y1967D01*
X1936Y1967D01*
X1936Y1965D01*
X1934Y1965D01*
X1934Y1963D01*
X1930Y1963D01*
X1930Y1961D01*
X1924Y1961D01*
X1924Y1959D01*
X1918Y1959D01*
X1918Y1955D01*
X1916Y1955D01*
X1916Y1951D01*
X1914Y1951D01*
X1914Y1949D01*
X1912Y1949D01*
X1912Y1947D01*
X1910Y1947D01*
X1910Y1945D01*
X1908Y1945D01*
X1908Y1943D01*
X1906Y1943D01*
X1906Y1941D01*
X1904Y1941D01*
X1904Y1939D01*
X1902Y1939D01*
X1902Y1937D01*
X1900Y1937D01*
X1900Y1935D01*
X1898Y1935D01*
X1898Y1933D01*
X1896Y1933D01*
X1896Y1931D01*
X1894Y1931D01*
X1894Y1929D01*
X1892Y1929D01*
X1892Y1927D01*
X1888Y1927D01*
X1888Y1925D01*
X1886Y1925D01*
X1886Y1923D01*
X1884Y1923D01*
X1884Y1921D01*
X1882Y1921D01*
X1882Y1919D01*
X1880Y1919D01*
X1880Y1917D01*
X1878Y1917D01*
X1878Y1915D01*
X1876Y1915D01*
X1876Y1913D01*
X1874Y1913D01*
X1874Y1911D01*
X1872Y1911D01*
X1872Y1909D01*
X1870Y1909D01*
X1870Y1907D01*
X1868Y1907D01*
X1868Y1905D01*
X1866Y1905D01*
X1866Y1903D01*
X1864Y1903D01*
X1864Y1901D01*
X1862Y1901D01*
X1862Y1899D01*
X1860Y1899D01*
X1860Y1897D01*
X1858Y1897D01*
X1858Y1895D01*
X1856Y1895D01*
X1856Y1893D01*
X1854Y1893D01*
X1854Y1891D01*
X1852Y1891D01*
X1852Y1889D01*
X1850Y1889D01*
X1850Y1887D01*
X1846Y1887D01*
X1846Y1885D01*
X1844Y1885D01*
X1844Y1883D01*
X1842Y1883D01*
X1842Y1881D01*
X1840Y1881D01*
X1840Y1879D01*
X1838Y1879D01*
X1838Y1877D01*
X1836Y1877D01*
X1836Y1875D01*
X1834Y1875D01*
X1834Y1873D01*
X1832Y1873D01*
X1832Y1871D01*
X1830Y1871D01*
X1830Y1869D01*
X1828Y1869D01*
X1828Y1867D01*
X1826Y1867D01*
X1826Y1865D01*
X1824Y1865D01*
X1824Y1863D01*
X1822Y1863D01*
X1822Y1861D01*
X1820Y1861D01*
X1820Y1859D01*
X1818Y1859D01*
X1818Y1857D01*
X1816Y1857D01*
X1816Y1855D01*
X1814Y1855D01*
X1814Y1853D01*
X1812Y1853D01*
X1812Y1851D01*
X1810Y1851D01*
X1810Y1849D01*
X1806Y1849D01*
X1806Y1847D01*
X1804Y1847D01*
X1804Y1845D01*
X1802Y1845D01*
X1802Y1843D01*
X1800Y1843D01*
X1800Y1841D01*
X1798Y1841D01*
X1798Y1839D01*
X1796Y1839D01*
X1796Y1837D01*
X1794Y1837D01*
X1794Y1835D01*
X1792Y1835D01*
X1792Y1833D01*
X1790Y1833D01*
X1790Y1831D01*
X1788Y1831D01*
X1788Y1829D01*
X1786Y1829D01*
X1786Y1827D01*
X1784Y1827D01*
X1784Y1825D01*
X1782Y1825D01*
X1782Y1823D01*
X1780Y1823D01*
X1780Y1821D01*
X1778Y1821D01*
X1778Y1819D01*
X1776Y1819D01*
X1776Y1817D01*
X1774Y1817D01*
X1774Y1815D01*
X1772Y1815D01*
X1772Y1813D01*
X1770Y1813D01*
X1770Y1811D01*
X1766Y1811D01*
X1766Y1809D01*
X1764Y1809D01*
X1764Y1807D01*
X1762Y1807D01*
X1762Y1805D01*
X1760Y1805D01*
X1760Y1803D01*
X1758Y1803D01*
X1758Y1801D01*
X1756Y1801D01*
X1756Y1799D01*
X1754Y1799D01*
X1754Y1797D01*
X1752Y1797D01*
X1752Y1795D01*
X1750Y1795D01*
X1750Y1793D01*
X1748Y1793D01*
X1748Y1791D01*
X1746Y1791D01*
X1746Y1789D01*
X1744Y1789D01*
X1744Y1787D01*
X1742Y1787D01*
X1742Y1785D01*
X1740Y1785D01*
X1740Y1783D01*
X1738Y1783D01*
X1738Y1781D01*
X1736Y1781D01*
X1736Y1779D01*
X1734Y1779D01*
X1734Y1777D01*
X1732Y1777D01*
X1732Y1775D01*
X1730Y1775D01*
X1730Y1773D01*
X1728Y1773D01*
X1728Y1771D01*
X1724Y1771D01*
X1724Y1769D01*
X1722Y1769D01*
X1722Y1767D01*
X1720Y1767D01*
X1720Y1765D01*
X1718Y1765D01*
X1718Y1763D01*
X1714Y1763D01*
X1714Y1761D01*
X1706Y1761D01*
X1706Y1759D01*
X1696Y1759D01*
X1696Y1757D01*
X1688Y1757D01*
X1688Y1755D01*
X1678Y1755D01*
X1678Y1753D01*
X1670Y1753D01*
X1670Y1751D01*
X1660Y1751D01*
X1660Y1749D01*
X1652Y1749D01*
X1652Y1747D01*
X1642Y1747D01*
X1642Y1745D01*
X1634Y1745D01*
X1634Y1743D01*
X1624Y1743D01*
X1624Y1741D01*
X1616Y1741D01*
X1616Y1739D01*
X1606Y1739D01*
X1606Y1737D01*
X1598Y1737D01*
X1598Y1735D01*
X1588Y1735D01*
X1588Y1733D01*
X1580Y1733D01*
X1580Y1731D01*
X1570Y1731D01*
X1570Y1729D01*
X1560Y1729D01*
X1560Y1727D01*
X1552Y1727D01*
X1552Y1725D01*
X1542Y1725D01*
X1542Y1723D01*
X1534Y1723D01*
X1534Y1721D01*
X1524Y1721D01*
X1524Y1719D01*
X1516Y1719D01*
X1516Y1717D01*
X1506Y1717D01*
X1506Y1715D01*
X1498Y1715D01*
X1498Y1713D01*
X1488Y1713D01*
X1488Y1711D01*
X1480Y1711D01*
X1480Y1709D01*
X1470Y1709D01*
X1470Y1707D01*
X1462Y1707D01*
X1462Y1705D01*
X1452Y1705D01*
X1452Y1703D01*
X1444Y1703D01*
X1444Y1701D01*
X1434Y1701D01*
X1434Y1699D01*
X1426Y1699D01*
X1426Y1697D01*
X1416Y1697D01*
X1416Y1695D01*
X1408Y1695D01*
X1408Y1693D01*
X1398Y1693D01*
X1398Y1691D01*
X1390Y1691D01*
X1390Y1689D01*
X1380Y1689D01*
X1380Y1687D01*
X1372Y1687D01*
X1372Y1685D01*
X1362Y1685D01*
X1362Y1683D01*
X1354Y1683D01*
X1354Y1681D01*
X1344Y1681D01*
X1344Y1679D01*
X1334Y1679D01*
X1334Y1677D01*
X1326Y1677D01*
X1326Y1675D01*
X1316Y1675D01*
X1316Y1673D01*
X1308Y1673D01*
X1308Y1671D01*
X1298Y1671D01*
X1298Y1669D01*
X1290Y1669D01*
X1290Y1667D01*
X1280Y1667D01*
X1280Y1665D01*
X1272Y1665D01*
X1272Y1663D01*
X1262Y1663D01*
X1262Y1661D01*
X1254Y1661D01*
X1254Y1659D01*
X1244Y1659D01*
X1244Y1657D01*
X1236Y1657D01*
X1236Y1655D01*
X1226Y1655D01*
X1226Y1653D01*
X1218Y1653D01*
X1218Y1651D01*
X1208Y1651D01*
X1208Y1649D01*
X1200Y1649D01*
X1200Y1647D01*
X1190Y1647D01*
X1190Y1645D01*
X1182Y1645D01*
X1182Y1643D01*
X1172Y1643D01*
X1172Y1641D01*
X1164Y1641D01*
X1164Y1639D01*
X1154Y1639D01*
X1154Y1637D01*
X1146Y1637D01*
X1146Y1635D01*
X1136Y1635D01*
X1136Y1633D01*
X1128Y1633D01*
X1128Y1631D01*
X1118Y1631D01*
X1118Y1629D01*
X1108Y1629D01*
X1108Y1627D01*
X1100Y1627D01*
X1100Y1625D01*
X1090Y1625D01*
X1090Y1623D01*
X1082Y1623D01*
X1082Y1621D01*
X1072Y1621D01*
X1072Y1601D01*
X1174Y1601D01*
X1174Y1499D01*
X1216Y1499D01*
X1216Y1501D01*
X1218Y1501D01*
X1218Y1505D01*
X1220Y1505D01*
X1220Y1507D01*
X1222Y1507D01*
X1222Y1511D01*
X1224Y1511D01*
X1224Y1515D01*
X1226Y1515D01*
X1226Y1517D01*
X1228Y1517D01*
X1228Y1521D01*
X1230Y1521D01*
X1230Y1523D01*
X1232Y1523D01*
X1232Y1527D01*
X1234Y1527D01*
X1234Y1531D01*
X1236Y1531D01*
X1236Y1533D01*
X1238Y1533D01*
X1238Y1537D01*
X1240Y1537D01*
X1240Y1541D01*
X1242Y1541D01*
X1242Y1543D01*
X1244Y1543D01*
X1244Y1547D01*
X1246Y1547D01*
X1246Y1549D01*
X1248Y1549D01*
X1248Y1553D01*
X1250Y1553D01*
X1250Y1557D01*
X1252Y1557D01*
X1252Y1559D01*
X1254Y1559D01*
X1254Y1563D01*
X1256Y1563D01*
X1256Y1565D01*
X1258Y1565D01*
X1258Y1569D01*
X1260Y1569D01*
X1260Y1573D01*
X1262Y1573D01*
X1262Y1575D01*
X1264Y1575D01*
X1264Y1579D01*
X1266Y1579D01*
X1266Y1583D01*
X1268Y1583D01*
X1268Y1585D01*
X1270Y1585D01*
X1270Y1589D01*
X1272Y1589D01*
X1272Y1591D01*
X1274Y1591D01*
X1274Y1595D01*
X1276Y1595D01*
X1276Y1599D01*
X1278Y1599D01*
X1278Y1601D01*
X1280Y1601D01*
X1280Y1605D01*
X1282Y1605D01*
X1282Y1607D01*
X1284Y1607D01*
X1284Y1611D01*
X1286Y1611D01*
X1286Y1615D01*
X1288Y1615D01*
X1288Y1617D01*
X1290Y1617D01*
X1290Y1621D01*
X1292Y1621D01*
X1292Y1625D01*
X1294Y1625D01*
X1294Y1627D01*
X1296Y1627D01*
X1296Y1631D01*
X1298Y1631D01*
X1298Y1633D01*
X1300Y1633D01*
X1300Y1637D01*
X1302Y1637D01*
X1302Y1641D01*
X1304Y1641D01*
X1304Y1643D01*
X1306Y1643D01*
X1306Y1645D01*
X1308Y1645D01*
X1308Y1647D01*
X1312Y1647D01*
X1312Y1649D01*
X1316Y1649D01*
X1316Y1651D01*
X1326Y1651D01*
X1326Y1653D01*
X1336Y1653D01*
X1336Y1655D01*
X1346Y1655D01*
X1346Y1657D01*
X1356Y1657D01*
X1356Y1659D01*
X1366Y1659D01*
X1366Y1661D01*
X1376Y1661D01*
X1376Y1663D01*
X1384Y1663D01*
X1384Y1665D01*
X1394Y1665D01*
X1394Y1667D01*
X1404Y1667D01*
X1404Y1669D01*
X1414Y1669D01*
X1414Y1671D01*
X1424Y1671D01*
X1424Y1673D01*
X1434Y1673D01*
X1434Y1675D01*
X1444Y1675D01*
X1444Y1677D01*
X1454Y1677D01*
X1454Y1679D01*
X1462Y1679D01*
X1462Y1681D01*
X1472Y1681D01*
X1472Y1683D01*
X1482Y1683D01*
X1482Y1685D01*
X1492Y1685D01*
X1492Y1687D01*
X1502Y1687D01*
X1502Y1689D01*
X1512Y1689D01*
X1512Y1691D01*
X1522Y1691D01*
X1522Y1693D01*
X1532Y1693D01*
X1532Y1695D01*
X1540Y1695D01*
X1540Y1697D01*
X1550Y1697D01*
X1550Y1699D01*
X1560Y1699D01*
X1560Y1701D01*
X1570Y1701D01*
X1570Y1703D01*
X1580Y1703D01*
X1580Y1705D01*
X1590Y1705D01*
X1590Y1707D01*
X1600Y1707D01*
X1600Y1709D01*
X1610Y1709D01*
X1610Y1711D01*
X1620Y1711D01*
X1620Y1713D01*
X1628Y1713D01*
X1628Y1715D01*
X1638Y1715D01*
X1638Y1717D01*
X1648Y1717D01*
X1648Y1719D01*
X1658Y1719D01*
X1658Y1721D01*
X1668Y1721D01*
X1668Y1723D01*
X1678Y1723D01*
X1678Y1725D01*
X1688Y1725D01*
X1688Y1727D01*
X1698Y1727D01*
X1698Y1729D01*
X1706Y1729D01*
X1706Y1731D01*
X1716Y1731D01*
X1716Y1733D01*
X1726Y1733D01*
X1726Y1735D01*
X1736Y1735D01*
X1736Y1737D01*
X1746Y1737D01*
X1746Y1739D01*
X1756Y1739D01*
X1756Y1741D01*
X1766Y1741D01*
X1766Y1743D01*
X1776Y1743D01*
X1776Y1745D01*
X1784Y1745D01*
X1784Y1747D01*
X1794Y1747D01*
X1794Y1749D01*
X1804Y1749D01*
X1804Y1751D01*
X1814Y1751D01*
X1814Y1753D01*
X1824Y1753D01*
X1824Y1755D01*
X1834Y1755D01*
X1834Y1757D01*
X1844Y1757D01*
X1844Y1759D01*
X1854Y1759D01*
X1854Y1761D01*
X1862Y1761D01*
X1862Y1763D01*
X1872Y1763D01*
X1872Y1765D01*
X1882Y1765D01*
X1882Y1767D01*
X1892Y1767D01*
X1892Y1769D01*
X1896Y1769D01*
X1896Y1775D01*
X1898Y1775D01*
X1898Y1779D01*
X1900Y1779D01*
X1900Y1785D01*
X1902Y1785D01*
X1902Y1789D01*
X1904Y1789D01*
X1904Y1795D01*
X1906Y1795D01*
X1906Y1799D01*
X1908Y1799D01*
X1908Y1805D01*
X1910Y1805D01*
X1910Y1809D01*
X1912Y1809D01*
X1912Y1815D01*
X1914Y1815D01*
X1914Y1819D01*
X1916Y1819D01*
X1916Y1825D01*
X1918Y1825D01*
X1918Y1829D01*
X1920Y1829D01*
X1920Y1835D01*
X1922Y1835D01*
X1922Y1839D01*
X1924Y1839D01*
X1924Y1845D01*
X1926Y1845D01*
X1926Y1849D01*
X1928Y1849D01*
X1928Y1855D01*
X1930Y1855D01*
X1930Y1859D01*
X1932Y1859D01*
X1932Y1865D01*
X1934Y1865D01*
X1934Y1869D01*
X1936Y1869D01*
X1936Y1875D01*
X1938Y1875D01*
X1938Y1879D01*
X1940Y1879D01*
X1940Y1885D01*
X1942Y1885D01*
X1942Y1889D01*
X1944Y1889D01*
X1944Y1895D01*
X1946Y1895D01*
X1946Y1899D01*
X1948Y1899D01*
X1948Y1905D01*
X1950Y1905D01*
X1950Y1909D01*
X1952Y1909D01*
X1952Y1915D01*
X1954Y1915D01*
X1954Y1919D01*
X1956Y1919D01*
X1956Y1925D01*
X1958Y1925D01*
X1958Y1929D01*
X1960Y1929D01*
X1960Y1935D01*
X1962Y1935D01*
X1962Y1939D01*
X1964Y1939D01*
X1964Y1945D01*
X1966Y1945D01*
X1966Y1949D01*
X1968Y1949D01*
X1968Y1955D01*
X1970Y1955D01*
X1970Y1959D01*
X1972Y1959D01*
X1972Y1985D01*
X1970Y1985D01*
X1970Y1987D01*
X1950Y1987D01*
G37*
D02*
G36*
X2150Y1987D02*
X2150Y1981D01*
X2148Y1981D01*
X2148Y1977D01*
X2146Y1977D01*
X2146Y1975D01*
X2144Y1975D01*
X2144Y1973D01*
X2142Y1973D01*
X2142Y1971D01*
X2140Y1971D01*
X2140Y1969D01*
X2138Y1969D01*
X2138Y1967D01*
X2136Y1967D01*
X2136Y1965D01*
X2134Y1965D01*
X2134Y1963D01*
X2130Y1963D01*
X2130Y1961D01*
X2124Y1961D01*
X2124Y1951D01*
X2122Y1951D01*
X2122Y1943D01*
X2120Y1943D01*
X2120Y1933D01*
X2118Y1933D01*
X2118Y1923D01*
X2116Y1923D01*
X2116Y1915D01*
X2114Y1915D01*
X2114Y1905D01*
X2112Y1905D01*
X2112Y1895D01*
X2110Y1895D01*
X2110Y1887D01*
X2108Y1887D01*
X2108Y1877D01*
X2106Y1877D01*
X2106Y1867D01*
X2104Y1867D01*
X2104Y1859D01*
X2102Y1859D01*
X2102Y1849D01*
X2100Y1849D01*
X2100Y1839D01*
X2098Y1839D01*
X2098Y1835D01*
X2096Y1835D01*
X2096Y1831D01*
X2094Y1831D01*
X2094Y1829D01*
X2092Y1829D01*
X2092Y1827D01*
X2090Y1827D01*
X2090Y1825D01*
X2088Y1825D01*
X2088Y1823D01*
X2086Y1823D01*
X2086Y1821D01*
X2084Y1821D01*
X2084Y1819D01*
X2082Y1819D01*
X2082Y1817D01*
X2080Y1817D01*
X2080Y1813D01*
X2078Y1813D01*
X2078Y1811D01*
X2076Y1811D01*
X2076Y1809D01*
X2074Y1809D01*
X2074Y1807D01*
X2072Y1807D01*
X2072Y1805D01*
X2070Y1805D01*
X2070Y1803D01*
X2068Y1803D01*
X2068Y1801D01*
X2066Y1801D01*
X2066Y1799D01*
X2064Y1799D01*
X2064Y1797D01*
X2062Y1797D01*
X2062Y1795D01*
X2060Y1795D01*
X2060Y1793D01*
X2058Y1793D01*
X2058Y1791D01*
X2056Y1791D01*
X2056Y1789D01*
X2054Y1789D01*
X2054Y1787D01*
X2052Y1787D01*
X2052Y1785D01*
X2050Y1785D01*
X2050Y1783D01*
X2048Y1783D01*
X2048Y1781D01*
X2046Y1781D01*
X2046Y1777D01*
X2044Y1777D01*
X2044Y1775D01*
X2042Y1775D01*
X2042Y1773D01*
X2040Y1773D01*
X2040Y1771D01*
X2038Y1771D01*
X2038Y1769D01*
X2036Y1769D01*
X2036Y1767D01*
X2034Y1767D01*
X2034Y1765D01*
X2032Y1765D01*
X2032Y1763D01*
X2030Y1763D01*
X2030Y1761D01*
X2028Y1761D01*
X2028Y1759D01*
X2026Y1759D01*
X2026Y1757D01*
X2024Y1757D01*
X2024Y1755D01*
X2022Y1755D01*
X2022Y1753D01*
X2020Y1753D01*
X2020Y1751D01*
X2018Y1751D01*
X2018Y1749D01*
X2016Y1749D01*
X2016Y1747D01*
X2014Y1747D01*
X2014Y1745D01*
X2012Y1745D01*
X2012Y1741D01*
X2010Y1741D01*
X2010Y1739D01*
X2008Y1739D01*
X2008Y1737D01*
X2006Y1737D01*
X2006Y1735D01*
X2004Y1735D01*
X2004Y1733D01*
X2002Y1733D01*
X2002Y1731D01*
X2000Y1731D01*
X2000Y1729D01*
X1998Y1729D01*
X1998Y1727D01*
X1996Y1727D01*
X1996Y1725D01*
X1994Y1725D01*
X1994Y1723D01*
X1992Y1723D01*
X1992Y1721D01*
X1990Y1721D01*
X1990Y1719D01*
X1988Y1719D01*
X1988Y1717D01*
X1986Y1717D01*
X1986Y1715D01*
X1984Y1715D01*
X1984Y1713D01*
X1982Y1713D01*
X1982Y1711D01*
X1980Y1711D01*
X1980Y1709D01*
X1978Y1709D01*
X1978Y1705D01*
X1976Y1705D01*
X1976Y1703D01*
X1974Y1703D01*
X1974Y1701D01*
X1972Y1701D01*
X1972Y1699D01*
X1970Y1699D01*
X1970Y1697D01*
X1968Y1697D01*
X1968Y1695D01*
X1966Y1695D01*
X1966Y1693D01*
X1964Y1693D01*
X1964Y1691D01*
X1962Y1691D01*
X1962Y1689D01*
X1960Y1689D01*
X1960Y1687D01*
X1958Y1687D01*
X1958Y1685D01*
X1956Y1685D01*
X1956Y1683D01*
X1954Y1683D01*
X1954Y1681D01*
X1952Y1681D01*
X1952Y1679D01*
X1950Y1679D01*
X1950Y1677D01*
X1948Y1677D01*
X1948Y1675D01*
X1946Y1675D01*
X1946Y1673D01*
X1944Y1673D01*
X1944Y1669D01*
X1942Y1669D01*
X1942Y1667D01*
X1940Y1667D01*
X1940Y1665D01*
X1938Y1665D01*
X1938Y1663D01*
X1936Y1663D01*
X1936Y1661D01*
X1934Y1661D01*
X1934Y1659D01*
X1932Y1659D01*
X1932Y1657D01*
X1930Y1657D01*
X1930Y1655D01*
X1928Y1655D01*
X1928Y1653D01*
X1926Y1653D01*
X1926Y1651D01*
X1924Y1651D01*
X1924Y1649D01*
X1922Y1649D01*
X1922Y1647D01*
X1920Y1647D01*
X1920Y1645D01*
X1918Y1645D01*
X1918Y1643D01*
X1916Y1643D01*
X1916Y1641D01*
X1914Y1641D01*
X1914Y1639D01*
X1912Y1639D01*
X1912Y1637D01*
X1910Y1637D01*
X1910Y1633D01*
X1908Y1633D01*
X1908Y1631D01*
X1906Y1631D01*
X1906Y1629D01*
X1904Y1629D01*
X1904Y1627D01*
X1902Y1627D01*
X1902Y1625D01*
X1900Y1625D01*
X1900Y1623D01*
X1898Y1623D01*
X1898Y1621D01*
X1896Y1621D01*
X1896Y1619D01*
X1894Y1619D01*
X1894Y1617D01*
X1892Y1617D01*
X1892Y1615D01*
X1890Y1615D01*
X1890Y1613D01*
X1888Y1613D01*
X1888Y1611D01*
X1886Y1611D01*
X1886Y1609D01*
X1882Y1609D01*
X1882Y1607D01*
X1774Y1607D01*
X1774Y1499D01*
X1830Y1499D01*
X1830Y1501D01*
X1832Y1501D01*
X1832Y1503D01*
X1834Y1503D01*
X1834Y1505D01*
X1836Y1505D01*
X1836Y1507D01*
X1838Y1507D01*
X1838Y1509D01*
X1840Y1509D01*
X1840Y1511D01*
X1842Y1511D01*
X1842Y1513D01*
X1844Y1513D01*
X1844Y1515D01*
X1846Y1515D01*
X1846Y1517D01*
X1848Y1517D01*
X1848Y1519D01*
X1850Y1519D01*
X1850Y1521D01*
X1852Y1521D01*
X1852Y1523D01*
X1854Y1523D01*
X1854Y1525D01*
X1856Y1525D01*
X1856Y1527D01*
X1858Y1527D01*
X1858Y1529D01*
X1860Y1529D01*
X1860Y1531D01*
X1862Y1531D01*
X1862Y1533D01*
X1864Y1533D01*
X1864Y1535D01*
X1866Y1535D01*
X1866Y1537D01*
X1870Y1537D01*
X1870Y1539D01*
X1872Y1539D01*
X1872Y1541D01*
X1874Y1541D01*
X1874Y1543D01*
X1876Y1543D01*
X1876Y1545D01*
X1878Y1545D01*
X1878Y1547D01*
X1880Y1547D01*
X1880Y1549D01*
X1882Y1549D01*
X1882Y1551D01*
X1884Y1551D01*
X1884Y1553D01*
X1886Y1553D01*
X1886Y1555D01*
X1888Y1555D01*
X1888Y1557D01*
X1890Y1557D01*
X1890Y1559D01*
X1892Y1559D01*
X1892Y1561D01*
X1894Y1561D01*
X1894Y1563D01*
X1896Y1563D01*
X1896Y1565D01*
X1898Y1565D01*
X1898Y1567D01*
X1900Y1567D01*
X1900Y1569D01*
X1902Y1569D01*
X1902Y1571D01*
X1904Y1571D01*
X1904Y1573D01*
X1906Y1573D01*
X1906Y1575D01*
X1908Y1575D01*
X1908Y1577D01*
X1910Y1577D01*
X1910Y1579D01*
X1912Y1579D01*
X1912Y1581D01*
X1914Y1581D01*
X1914Y1583D01*
X1916Y1583D01*
X1916Y1585D01*
X1918Y1585D01*
X1918Y1587D01*
X1920Y1587D01*
X1920Y1589D01*
X1922Y1589D01*
X1922Y1591D01*
X1924Y1591D01*
X1924Y1593D01*
X1926Y1593D01*
X1926Y1595D01*
X1928Y1595D01*
X1928Y1597D01*
X1930Y1597D01*
X1930Y1599D01*
X1932Y1599D01*
X1932Y1601D01*
X1934Y1601D01*
X1934Y1603D01*
X1936Y1603D01*
X1936Y1605D01*
X1938Y1605D01*
X1938Y1607D01*
X1940Y1607D01*
X1940Y1609D01*
X1942Y1609D01*
X1942Y1611D01*
X1944Y1611D01*
X1944Y1613D01*
X1946Y1613D01*
X1946Y1615D01*
X1948Y1615D01*
X1948Y1617D01*
X1950Y1617D01*
X1950Y1619D01*
X1952Y1619D01*
X1952Y1621D01*
X1954Y1621D01*
X1954Y1623D01*
X1956Y1623D01*
X1956Y1625D01*
X1958Y1625D01*
X1958Y1627D01*
X1960Y1627D01*
X1960Y1629D01*
X1962Y1629D01*
X1962Y1631D01*
X1964Y1631D01*
X1964Y1633D01*
X1966Y1633D01*
X1966Y1635D01*
X1968Y1635D01*
X1968Y1637D01*
X1970Y1637D01*
X1970Y1639D01*
X1972Y1639D01*
X1972Y1641D01*
X1974Y1641D01*
X1974Y1643D01*
X1976Y1643D01*
X1976Y1645D01*
X1978Y1645D01*
X1978Y1647D01*
X1980Y1647D01*
X1980Y1649D01*
X1982Y1649D01*
X1982Y1651D01*
X1984Y1651D01*
X1984Y1653D01*
X1986Y1653D01*
X1986Y1655D01*
X1988Y1655D01*
X1988Y1657D01*
X1990Y1657D01*
X1990Y1659D01*
X1992Y1659D01*
X1992Y1661D01*
X1994Y1661D01*
X1994Y1663D01*
X1996Y1663D01*
X1996Y1665D01*
X1998Y1665D01*
X1998Y1667D01*
X2000Y1667D01*
X2000Y1669D01*
X2002Y1669D01*
X2002Y1671D01*
X2004Y1671D01*
X2004Y1673D01*
X2006Y1673D01*
X2006Y1675D01*
X2008Y1675D01*
X2008Y1677D01*
X2010Y1677D01*
X2010Y1679D01*
X2012Y1679D01*
X2012Y1681D01*
X2014Y1681D01*
X2014Y1683D01*
X2016Y1683D01*
X2016Y1685D01*
X2018Y1685D01*
X2018Y1687D01*
X2020Y1687D01*
X2020Y1689D01*
X2022Y1689D01*
X2022Y1691D01*
X2024Y1691D01*
X2024Y1693D01*
X2026Y1693D01*
X2026Y1695D01*
X2028Y1695D01*
X2028Y1697D01*
X2030Y1697D01*
X2030Y1699D01*
X2032Y1699D01*
X2032Y1701D01*
X2034Y1701D01*
X2034Y1703D01*
X2036Y1703D01*
X2036Y1705D01*
X2038Y1705D01*
X2038Y1707D01*
X2040Y1707D01*
X2040Y1709D01*
X2042Y1709D01*
X2042Y1711D01*
X2044Y1711D01*
X2044Y1713D01*
X2046Y1713D01*
X2046Y1715D01*
X2048Y1715D01*
X2048Y1717D01*
X2050Y1717D01*
X2050Y1719D01*
X2052Y1719D01*
X2052Y1721D01*
X2054Y1721D01*
X2054Y1723D01*
X2056Y1723D01*
X2056Y1725D01*
X2058Y1725D01*
X2058Y1727D01*
X2060Y1727D01*
X2060Y1729D01*
X2062Y1729D01*
X2062Y1731D01*
X2064Y1731D01*
X2064Y1733D01*
X2066Y1733D01*
X2066Y1735D01*
X2068Y1735D01*
X2068Y1737D01*
X2070Y1737D01*
X2070Y1739D01*
X2072Y1739D01*
X2072Y1741D01*
X2074Y1741D01*
X2074Y1743D01*
X2078Y1743D01*
X2078Y1745D01*
X2080Y1745D01*
X2080Y1747D01*
X2082Y1747D01*
X2082Y1749D01*
X2084Y1749D01*
X2084Y1751D01*
X2086Y1751D01*
X2086Y1753D01*
X2088Y1753D01*
X2088Y1755D01*
X2090Y1755D01*
X2090Y1757D01*
X2092Y1757D01*
X2092Y1759D01*
X2094Y1759D01*
X2094Y1761D01*
X2096Y1761D01*
X2096Y1763D01*
X2098Y1763D01*
X2098Y1765D01*
X2100Y1765D01*
X2100Y1767D01*
X2102Y1767D01*
X2102Y1769D01*
X2104Y1769D01*
X2104Y1771D01*
X2106Y1771D01*
X2106Y1773D01*
X2108Y1773D01*
X2108Y1775D01*
X2110Y1775D01*
X2110Y1777D01*
X2112Y1777D01*
X2112Y1779D01*
X2114Y1779D01*
X2114Y1781D01*
X2116Y1781D01*
X2116Y1783D01*
X2118Y1783D01*
X2118Y1785D01*
X2120Y1785D01*
X2120Y1787D01*
X2122Y1787D01*
X2122Y1789D01*
X2124Y1789D01*
X2124Y1791D01*
X2126Y1791D01*
X2126Y1793D01*
X2128Y1793D01*
X2128Y1795D01*
X2130Y1795D01*
X2130Y1797D01*
X2132Y1797D01*
X2132Y1799D01*
X2134Y1799D01*
X2134Y1801D01*
X2136Y1801D01*
X2136Y1803D01*
X2138Y1803D01*
X2138Y1805D01*
X2140Y1805D01*
X2140Y1807D01*
X2142Y1807D01*
X2142Y1809D01*
X2144Y1809D01*
X2144Y1811D01*
X2146Y1811D01*
X2146Y1813D01*
X2148Y1813D01*
X2148Y1815D01*
X2150Y1815D01*
X2150Y1817D01*
X2152Y1817D01*
X2152Y1819D01*
X2154Y1819D01*
X2154Y1821D01*
X2156Y1821D01*
X2156Y1823D01*
X2158Y1823D01*
X2158Y1825D01*
X2160Y1825D01*
X2160Y1827D01*
X2162Y1827D01*
X2162Y1829D01*
X2164Y1829D01*
X2164Y1833D01*
X2166Y1833D01*
X2166Y1847D01*
X2168Y1847D01*
X2168Y1861D01*
X2170Y1861D01*
X2170Y1875D01*
X2172Y1875D01*
X2172Y1889D01*
X2174Y1889D01*
X2174Y1903D01*
X2176Y1903D01*
X2176Y1917D01*
X2178Y1917D01*
X2178Y1931D01*
X2180Y1931D01*
X2180Y1947D01*
X2182Y1947D01*
X2182Y1969D01*
X2180Y1969D01*
X2180Y1971D01*
X2178Y1971D01*
X2178Y1975D01*
X2176Y1975D01*
X2176Y1977D01*
X2174Y1977D01*
X2174Y1981D01*
X2172Y1981D01*
X2172Y1985D01*
X2170Y1985D01*
X2170Y1987D01*
X2150Y1987D01*
G37*
D02*
G36*
X2250Y1987D02*
X2250Y1981D01*
X2248Y1981D01*
X2248Y1977D01*
X2246Y1977D01*
X2246Y1975D01*
X2244Y1975D01*
X2244Y1973D01*
X2242Y1973D01*
X2242Y1971D01*
X2240Y1971D01*
X2240Y1969D01*
X2238Y1969D01*
X2238Y1967D01*
X2236Y1967D01*
X2236Y1965D01*
X2234Y1965D01*
X2234Y1963D01*
X2230Y1963D01*
X2230Y1961D01*
X2228Y1961D01*
X2228Y1957D01*
X2304Y1957D01*
X2304Y1959D01*
X2296Y1959D01*
X2296Y1961D01*
X2292Y1961D01*
X2292Y1963D01*
X2288Y1963D01*
X2288Y1965D01*
X2286Y1965D01*
X2286Y1967D01*
X2284Y1967D01*
X2284Y1969D01*
X2280Y1969D01*
X2280Y1971D01*
X2278Y1971D01*
X2278Y1975D01*
X2276Y1975D01*
X2276Y1977D01*
X2274Y1977D01*
X2274Y1981D01*
X2272Y1981D01*
X2272Y1985D01*
X2270Y1985D01*
X2270Y1987D01*
X2250Y1987D01*
G37*
D02*
G36*
X2350Y1987D02*
X2350Y1981D01*
X2348Y1981D01*
X2348Y1977D01*
X2346Y1977D01*
X2346Y1975D01*
X2344Y1975D01*
X2344Y1973D01*
X2342Y1973D01*
X2342Y1971D01*
X2340Y1971D01*
X2340Y1969D01*
X2338Y1969D01*
X2338Y1967D01*
X2336Y1967D01*
X2336Y1965D01*
X2334Y1965D01*
X2334Y1963D01*
X2330Y1963D01*
X2330Y1961D01*
X2324Y1961D01*
X2324Y1959D01*
X2316Y1959D01*
X2316Y1957D01*
X2404Y1957D01*
X2404Y1959D01*
X2396Y1959D01*
X2396Y1961D01*
X2392Y1961D01*
X2392Y1963D01*
X2388Y1963D01*
X2388Y1965D01*
X2386Y1965D01*
X2386Y1967D01*
X2384Y1967D01*
X2384Y1969D01*
X2380Y1969D01*
X2380Y1971D01*
X2378Y1971D01*
X2378Y1975D01*
X2376Y1975D01*
X2376Y1977D01*
X2374Y1977D01*
X2374Y1981D01*
X2372Y1981D01*
X2372Y1985D01*
X2370Y1985D01*
X2370Y1987D01*
X2350Y1987D01*
G37*
D02*
G36*
X2450Y1987D02*
X2450Y1981D01*
X2448Y1981D01*
X2448Y1977D01*
X2446Y1977D01*
X2446Y1975D01*
X2444Y1975D01*
X2444Y1973D01*
X2442Y1973D01*
X2442Y1971D01*
X2440Y1971D01*
X2440Y1969D01*
X2438Y1969D01*
X2438Y1967D01*
X2436Y1967D01*
X2436Y1965D01*
X2434Y1965D01*
X2434Y1963D01*
X2430Y1963D01*
X2430Y1961D01*
X2424Y1961D01*
X2424Y1959D01*
X2416Y1959D01*
X2416Y1957D01*
X2488Y1957D01*
X2488Y1965D01*
X2486Y1965D01*
X2486Y1967D01*
X2484Y1967D01*
X2484Y1969D01*
X2480Y1969D01*
X2480Y1971D01*
X2478Y1971D01*
X2478Y1975D01*
X2476Y1975D01*
X2476Y1977D01*
X2474Y1977D01*
X2474Y1981D01*
X2472Y1981D01*
X2472Y1985D01*
X2470Y1985D01*
X2470Y1987D01*
X2450Y1987D01*
G37*
D02*
G36*
X52Y1957D02*
X52Y1955D01*
X1444Y1955D01*
X1444Y1957D01*
X52Y1957D01*
G37*
D02*
G36*
X52Y1957D02*
X52Y1955D01*
X1444Y1955D01*
X1444Y1957D01*
X52Y1957D01*
G37*
D02*
G36*
X52Y1957D02*
X52Y1955D01*
X1444Y1955D01*
X1444Y1957D01*
X52Y1957D01*
G37*
D02*
G36*
X52Y1957D02*
X52Y1955D01*
X1444Y1955D01*
X1444Y1957D01*
X52Y1957D01*
G37*
D02*
G36*
X52Y1957D02*
X52Y1955D01*
X1444Y1955D01*
X1444Y1957D01*
X52Y1957D01*
G37*
D02*
G36*
X52Y1957D02*
X52Y1955D01*
X1444Y1955D01*
X1444Y1957D01*
X52Y1957D01*
G37*
D02*
G36*
X52Y1957D02*
X52Y1955D01*
X1444Y1955D01*
X1444Y1957D01*
X52Y1957D01*
G37*
D02*
G36*
X52Y1957D02*
X52Y1955D01*
X1444Y1955D01*
X1444Y1957D01*
X52Y1957D01*
G37*
D02*
G36*
X2226Y1957D02*
X2226Y1955D01*
X2488Y1955D01*
X2488Y1957D01*
X2226Y1957D01*
G37*
D02*
G36*
X2226Y1957D02*
X2226Y1955D01*
X2488Y1955D01*
X2488Y1957D01*
X2226Y1957D01*
G37*
D02*
G36*
X2226Y1957D02*
X2226Y1955D01*
X2488Y1955D01*
X2488Y1957D01*
X2226Y1957D01*
G37*
D02*
G36*
X52Y1955D02*
X52Y1601D01*
X274Y1601D01*
X274Y1499D01*
X312Y1499D01*
X312Y1503D01*
X314Y1503D01*
X314Y1507D01*
X316Y1507D01*
X316Y1511D01*
X318Y1511D01*
X318Y1515D01*
X320Y1515D01*
X320Y1519D01*
X322Y1519D01*
X322Y1523D01*
X324Y1523D01*
X324Y1527D01*
X326Y1527D01*
X326Y1531D01*
X328Y1531D01*
X328Y1535D01*
X330Y1535D01*
X330Y1539D01*
X332Y1539D01*
X332Y1543D01*
X334Y1543D01*
X334Y1547D01*
X336Y1547D01*
X336Y1551D01*
X338Y1551D01*
X338Y1555D01*
X340Y1555D01*
X340Y1559D01*
X342Y1559D01*
X342Y1563D01*
X344Y1563D01*
X344Y1567D01*
X346Y1567D01*
X346Y1571D01*
X348Y1571D01*
X348Y1575D01*
X350Y1575D01*
X350Y1579D01*
X352Y1579D01*
X352Y1583D01*
X354Y1583D01*
X354Y1587D01*
X356Y1587D01*
X356Y1591D01*
X358Y1591D01*
X358Y1595D01*
X360Y1595D01*
X360Y1599D01*
X362Y1599D01*
X362Y1603D01*
X364Y1603D01*
X364Y1607D01*
X366Y1607D01*
X366Y1611D01*
X368Y1611D01*
X368Y1615D01*
X370Y1615D01*
X370Y1619D01*
X372Y1619D01*
X372Y1623D01*
X374Y1623D01*
X374Y1627D01*
X376Y1627D01*
X376Y1631D01*
X378Y1631D01*
X378Y1635D01*
X380Y1635D01*
X380Y1639D01*
X382Y1639D01*
X382Y1643D01*
X384Y1643D01*
X384Y1647D01*
X386Y1647D01*
X386Y1651D01*
X388Y1651D01*
X388Y1655D01*
X390Y1655D01*
X390Y1659D01*
X392Y1659D01*
X392Y1663D01*
X394Y1663D01*
X394Y1665D01*
X396Y1665D01*
X396Y1667D01*
X400Y1667D01*
X400Y1669D01*
X404Y1669D01*
X404Y1671D01*
X410Y1671D01*
X410Y1673D01*
X418Y1673D01*
X418Y1675D01*
X426Y1675D01*
X426Y1677D01*
X434Y1677D01*
X434Y1679D01*
X442Y1679D01*
X442Y1681D01*
X450Y1681D01*
X450Y1683D01*
X458Y1683D01*
X458Y1685D01*
X464Y1685D01*
X464Y1687D01*
X472Y1687D01*
X472Y1689D01*
X480Y1689D01*
X480Y1691D01*
X488Y1691D01*
X488Y1693D01*
X496Y1693D01*
X496Y1695D01*
X504Y1695D01*
X504Y1697D01*
X512Y1697D01*
X512Y1699D01*
X520Y1699D01*
X520Y1701D01*
X526Y1701D01*
X526Y1703D01*
X534Y1703D01*
X534Y1705D01*
X542Y1705D01*
X542Y1707D01*
X550Y1707D01*
X550Y1709D01*
X558Y1709D01*
X558Y1711D01*
X566Y1711D01*
X566Y1713D01*
X574Y1713D01*
X574Y1715D01*
X582Y1715D01*
X582Y1717D01*
X588Y1717D01*
X588Y1719D01*
X596Y1719D01*
X596Y1721D01*
X604Y1721D01*
X604Y1723D01*
X612Y1723D01*
X612Y1725D01*
X620Y1725D01*
X620Y1727D01*
X628Y1727D01*
X628Y1729D01*
X636Y1729D01*
X636Y1731D01*
X644Y1731D01*
X644Y1733D01*
X652Y1733D01*
X652Y1735D01*
X658Y1735D01*
X658Y1737D01*
X666Y1737D01*
X666Y1739D01*
X674Y1739D01*
X674Y1741D01*
X682Y1741D01*
X682Y1743D01*
X690Y1743D01*
X690Y1745D01*
X698Y1745D01*
X698Y1747D01*
X706Y1747D01*
X706Y1749D01*
X714Y1749D01*
X714Y1751D01*
X720Y1751D01*
X720Y1753D01*
X728Y1753D01*
X728Y1755D01*
X736Y1755D01*
X736Y1757D01*
X744Y1757D01*
X744Y1759D01*
X752Y1759D01*
X752Y1761D01*
X760Y1761D01*
X760Y1763D01*
X768Y1763D01*
X768Y1765D01*
X776Y1765D01*
X776Y1767D01*
X782Y1767D01*
X782Y1769D01*
X790Y1769D01*
X790Y1771D01*
X798Y1771D01*
X798Y1773D01*
X806Y1773D01*
X806Y1775D01*
X814Y1775D01*
X814Y1777D01*
X822Y1777D01*
X822Y1779D01*
X830Y1779D01*
X830Y1781D01*
X838Y1781D01*
X838Y1783D01*
X844Y1783D01*
X844Y1785D01*
X852Y1785D01*
X852Y1787D01*
X860Y1787D01*
X860Y1789D01*
X868Y1789D01*
X868Y1791D01*
X876Y1791D01*
X876Y1793D01*
X884Y1793D01*
X884Y1795D01*
X892Y1795D01*
X892Y1797D01*
X900Y1797D01*
X900Y1799D01*
X908Y1799D01*
X908Y1801D01*
X914Y1801D01*
X914Y1803D01*
X922Y1803D01*
X922Y1805D01*
X930Y1805D01*
X930Y1807D01*
X938Y1807D01*
X938Y1809D01*
X946Y1809D01*
X946Y1811D01*
X954Y1811D01*
X954Y1813D01*
X962Y1813D01*
X962Y1815D01*
X970Y1815D01*
X970Y1817D01*
X976Y1817D01*
X976Y1819D01*
X984Y1819D01*
X984Y1821D01*
X992Y1821D01*
X992Y1823D01*
X1000Y1823D01*
X1000Y1825D01*
X1008Y1825D01*
X1008Y1827D01*
X1016Y1827D01*
X1016Y1829D01*
X1024Y1829D01*
X1024Y1831D01*
X1032Y1831D01*
X1032Y1833D01*
X1038Y1833D01*
X1038Y1835D01*
X1046Y1835D01*
X1046Y1837D01*
X1054Y1837D01*
X1054Y1839D01*
X1062Y1839D01*
X1062Y1841D01*
X1070Y1841D01*
X1070Y1843D01*
X1078Y1843D01*
X1078Y1845D01*
X1086Y1845D01*
X1086Y1847D01*
X1094Y1847D01*
X1094Y1849D01*
X1102Y1849D01*
X1102Y1851D01*
X1108Y1851D01*
X1108Y1853D01*
X1116Y1853D01*
X1116Y1855D01*
X1124Y1855D01*
X1124Y1857D01*
X1132Y1857D01*
X1132Y1859D01*
X1140Y1859D01*
X1140Y1861D01*
X1148Y1861D01*
X1148Y1863D01*
X1156Y1863D01*
X1156Y1865D01*
X1164Y1865D01*
X1164Y1867D01*
X1170Y1867D01*
X1170Y1869D01*
X1178Y1869D01*
X1178Y1871D01*
X1186Y1871D01*
X1186Y1873D01*
X1194Y1873D01*
X1194Y1875D01*
X1202Y1875D01*
X1202Y1877D01*
X1210Y1877D01*
X1210Y1879D01*
X1218Y1879D01*
X1218Y1881D01*
X1226Y1881D01*
X1226Y1883D01*
X1232Y1883D01*
X1232Y1885D01*
X1240Y1885D01*
X1240Y1887D01*
X1248Y1887D01*
X1248Y1889D01*
X1256Y1889D01*
X1256Y1891D01*
X1264Y1891D01*
X1264Y1893D01*
X1272Y1893D01*
X1272Y1895D01*
X1280Y1895D01*
X1280Y1897D01*
X1288Y1897D01*
X1288Y1899D01*
X1296Y1899D01*
X1296Y1901D01*
X1302Y1901D01*
X1302Y1903D01*
X1310Y1903D01*
X1310Y1905D01*
X1318Y1905D01*
X1318Y1907D01*
X1326Y1907D01*
X1326Y1909D01*
X1334Y1909D01*
X1334Y1911D01*
X1342Y1911D01*
X1342Y1913D01*
X1350Y1913D01*
X1350Y1915D01*
X1358Y1915D01*
X1358Y1917D01*
X1364Y1917D01*
X1364Y1919D01*
X1372Y1919D01*
X1372Y1921D01*
X1380Y1921D01*
X1380Y1923D01*
X1388Y1923D01*
X1388Y1925D01*
X1396Y1925D01*
X1396Y1927D01*
X1404Y1927D01*
X1404Y1929D01*
X1412Y1929D01*
X1412Y1931D01*
X1420Y1931D01*
X1420Y1933D01*
X1426Y1933D01*
X1426Y1935D01*
X1434Y1935D01*
X1434Y1937D01*
X1442Y1937D01*
X1442Y1939D01*
X1444Y1939D01*
X1444Y1955D01*
X52Y1955D01*
G37*
D02*
G36*
X2226Y1955D02*
X2226Y1943D01*
X2224Y1943D01*
X2224Y1929D01*
X2222Y1929D01*
X2222Y1915D01*
X2220Y1915D01*
X2220Y1901D01*
X2218Y1901D01*
X2218Y1887D01*
X2216Y1887D01*
X2216Y1871D01*
X2214Y1871D01*
X2214Y1857D01*
X2212Y1857D01*
X2212Y1843D01*
X2210Y1843D01*
X2210Y1829D01*
X2208Y1829D01*
X2208Y1815D01*
X2206Y1815D01*
X2206Y1811D01*
X2204Y1811D01*
X2204Y1807D01*
X2202Y1807D01*
X2202Y1805D01*
X2200Y1805D01*
X2200Y1803D01*
X2198Y1803D01*
X2198Y1801D01*
X2196Y1801D01*
X2196Y1799D01*
X2194Y1799D01*
X2194Y1797D01*
X2192Y1797D01*
X2192Y1795D01*
X2190Y1795D01*
X2190Y1793D01*
X2188Y1793D01*
X2188Y1791D01*
X2186Y1791D01*
X2186Y1789D01*
X2184Y1789D01*
X2184Y1787D01*
X2182Y1787D01*
X2182Y1785D01*
X2180Y1785D01*
X2180Y1783D01*
X2178Y1783D01*
X2178Y1781D01*
X2176Y1781D01*
X2176Y1779D01*
X2174Y1779D01*
X2174Y1777D01*
X2172Y1777D01*
X2172Y1775D01*
X2170Y1775D01*
X2170Y1773D01*
X2168Y1773D01*
X2168Y1771D01*
X2166Y1771D01*
X2166Y1769D01*
X2164Y1769D01*
X2164Y1767D01*
X2162Y1767D01*
X2162Y1765D01*
X2160Y1765D01*
X2160Y1763D01*
X2158Y1763D01*
X2158Y1761D01*
X2156Y1761D01*
X2156Y1759D01*
X2154Y1759D01*
X2154Y1757D01*
X2152Y1757D01*
X2152Y1755D01*
X2150Y1755D01*
X2150Y1753D01*
X2148Y1753D01*
X2148Y1751D01*
X2146Y1751D01*
X2146Y1749D01*
X2144Y1749D01*
X2144Y1747D01*
X2142Y1747D01*
X2142Y1745D01*
X2140Y1745D01*
X2140Y1743D01*
X2138Y1743D01*
X2138Y1741D01*
X2136Y1741D01*
X2136Y1739D01*
X2134Y1739D01*
X2134Y1737D01*
X2132Y1737D01*
X2132Y1735D01*
X2130Y1735D01*
X2130Y1733D01*
X2128Y1733D01*
X2128Y1731D01*
X2126Y1731D01*
X2126Y1729D01*
X2124Y1729D01*
X2124Y1727D01*
X2122Y1727D01*
X2122Y1725D01*
X2120Y1725D01*
X2120Y1723D01*
X2118Y1723D01*
X2118Y1721D01*
X2116Y1721D01*
X2116Y1719D01*
X2114Y1719D01*
X2114Y1717D01*
X2112Y1717D01*
X2112Y1715D01*
X2110Y1715D01*
X2110Y1713D01*
X2108Y1713D01*
X2108Y1711D01*
X2106Y1711D01*
X2106Y1709D01*
X2104Y1709D01*
X2104Y1707D01*
X2102Y1707D01*
X2102Y1705D01*
X2100Y1705D01*
X2100Y1703D01*
X2098Y1703D01*
X2098Y1701D01*
X2096Y1701D01*
X2096Y1699D01*
X2094Y1699D01*
X2094Y1697D01*
X2092Y1697D01*
X2092Y1695D01*
X2090Y1695D01*
X2090Y1693D01*
X2088Y1693D01*
X2088Y1691D01*
X2086Y1691D01*
X2086Y1689D01*
X2084Y1689D01*
X2084Y1687D01*
X2082Y1687D01*
X2082Y1685D01*
X2078Y1685D01*
X2078Y1683D01*
X2076Y1683D01*
X2076Y1681D01*
X2074Y1681D01*
X2074Y1679D01*
X2072Y1679D01*
X2072Y1677D01*
X2070Y1677D01*
X2070Y1675D01*
X2068Y1675D01*
X2068Y1673D01*
X2066Y1673D01*
X2066Y1671D01*
X2064Y1671D01*
X2064Y1669D01*
X2062Y1669D01*
X2062Y1667D01*
X2060Y1667D01*
X2060Y1665D01*
X2058Y1665D01*
X2058Y1663D01*
X2056Y1663D01*
X2056Y1661D01*
X2054Y1661D01*
X2054Y1659D01*
X2052Y1659D01*
X2052Y1657D01*
X2050Y1657D01*
X2050Y1655D01*
X2048Y1655D01*
X2048Y1653D01*
X2046Y1653D01*
X2046Y1651D01*
X2044Y1651D01*
X2044Y1649D01*
X2042Y1649D01*
X2042Y1647D01*
X2040Y1647D01*
X2040Y1645D01*
X2038Y1645D01*
X2038Y1643D01*
X2036Y1643D01*
X2036Y1641D01*
X2034Y1641D01*
X2034Y1639D01*
X2032Y1639D01*
X2032Y1637D01*
X2030Y1637D01*
X2030Y1635D01*
X2028Y1635D01*
X2028Y1633D01*
X2026Y1633D01*
X2026Y1631D01*
X2024Y1631D01*
X2024Y1629D01*
X2022Y1629D01*
X2022Y1627D01*
X2020Y1627D01*
X2020Y1625D01*
X2018Y1625D01*
X2018Y1623D01*
X2016Y1623D01*
X2016Y1621D01*
X2014Y1621D01*
X2014Y1619D01*
X2012Y1619D01*
X2012Y1617D01*
X2010Y1617D01*
X2010Y1615D01*
X2008Y1615D01*
X2008Y1613D01*
X2006Y1613D01*
X2006Y1611D01*
X2004Y1611D01*
X2004Y1609D01*
X2002Y1609D01*
X2002Y1607D01*
X2000Y1607D01*
X2000Y1605D01*
X1998Y1605D01*
X1998Y1603D01*
X1996Y1603D01*
X1996Y1601D01*
X2174Y1601D01*
X2174Y1499D01*
X2484Y1499D01*
X2484Y1643D01*
X2486Y1643D01*
X2486Y1831D01*
X2488Y1831D01*
X2488Y1955D01*
X2226Y1955D01*
G37*
D02*
G36*
X1564Y1657D02*
X1564Y1655D01*
X1556Y1655D01*
X1556Y1653D01*
X1546Y1653D01*
X1546Y1651D01*
X1536Y1651D01*
X1536Y1649D01*
X1526Y1649D01*
X1526Y1647D01*
X1516Y1647D01*
X1516Y1645D01*
X1506Y1645D01*
X1506Y1643D01*
X1496Y1643D01*
X1496Y1641D01*
X1486Y1641D01*
X1486Y1639D01*
X1478Y1639D01*
X1478Y1637D01*
X1468Y1637D01*
X1468Y1635D01*
X1458Y1635D01*
X1458Y1633D01*
X1448Y1633D01*
X1448Y1631D01*
X1438Y1631D01*
X1438Y1629D01*
X1428Y1629D01*
X1428Y1627D01*
X1418Y1627D01*
X1418Y1625D01*
X1408Y1625D01*
X1408Y1623D01*
X1400Y1623D01*
X1400Y1621D01*
X1390Y1621D01*
X1390Y1601D01*
X1474Y1601D01*
X1474Y1499D01*
X1514Y1499D01*
X1514Y1503D01*
X1516Y1503D01*
X1516Y1507D01*
X1518Y1507D01*
X1518Y1509D01*
X1520Y1509D01*
X1520Y1513D01*
X1522Y1513D01*
X1522Y1517D01*
X1524Y1517D01*
X1524Y1521D01*
X1526Y1521D01*
X1526Y1525D01*
X1528Y1525D01*
X1528Y1527D01*
X1530Y1527D01*
X1530Y1531D01*
X1532Y1531D01*
X1532Y1535D01*
X1534Y1535D01*
X1534Y1539D01*
X1536Y1539D01*
X1536Y1543D01*
X1538Y1543D01*
X1538Y1547D01*
X1540Y1547D01*
X1540Y1549D01*
X1542Y1549D01*
X1542Y1553D01*
X1544Y1553D01*
X1544Y1557D01*
X1546Y1557D01*
X1546Y1561D01*
X1548Y1561D01*
X1548Y1565D01*
X1550Y1565D01*
X1550Y1567D01*
X1552Y1567D01*
X1552Y1571D01*
X1554Y1571D01*
X1554Y1575D01*
X1556Y1575D01*
X1556Y1579D01*
X1558Y1579D01*
X1558Y1583D01*
X1560Y1583D01*
X1560Y1587D01*
X1562Y1587D01*
X1562Y1589D01*
X1564Y1589D01*
X1564Y1593D01*
X1566Y1593D01*
X1566Y1597D01*
X1568Y1597D01*
X1568Y1601D01*
X1570Y1601D01*
X1570Y1605D01*
X1572Y1605D01*
X1572Y1607D01*
X1574Y1607D01*
X1574Y1611D01*
X1576Y1611D01*
X1576Y1615D01*
X1578Y1615D01*
X1578Y1619D01*
X1580Y1619D01*
X1580Y1623D01*
X1582Y1623D01*
X1582Y1625D01*
X1584Y1625D01*
X1584Y1629D01*
X1586Y1629D01*
X1586Y1633D01*
X1588Y1633D01*
X1588Y1637D01*
X1590Y1637D01*
X1590Y1641D01*
X1592Y1641D01*
X1592Y1657D01*
X1564Y1657D01*
G37*
D02*
G36*
X52Y1601D02*
X52Y1499D01*
X136Y1499D01*
X136Y1601D01*
X52Y1601D01*
G37*
D02*
G36*
X410Y1601D02*
X410Y1597D01*
X408Y1597D01*
X408Y1593D01*
X406Y1593D01*
X406Y1589D01*
X404Y1589D01*
X404Y1585D01*
X402Y1585D01*
X402Y1581D01*
X400Y1581D01*
X400Y1577D01*
X398Y1577D01*
X398Y1573D01*
X396Y1573D01*
X396Y1569D01*
X394Y1569D01*
X394Y1565D01*
X392Y1565D01*
X392Y1561D01*
X390Y1561D01*
X390Y1557D01*
X388Y1557D01*
X388Y1553D01*
X386Y1553D01*
X386Y1549D01*
X384Y1549D01*
X384Y1545D01*
X382Y1545D01*
X382Y1541D01*
X380Y1541D01*
X380Y1537D01*
X378Y1537D01*
X378Y1533D01*
X376Y1533D01*
X376Y1529D01*
X374Y1529D01*
X374Y1525D01*
X372Y1525D01*
X372Y1521D01*
X370Y1521D01*
X370Y1517D01*
X368Y1517D01*
X368Y1513D01*
X366Y1513D01*
X366Y1509D01*
X364Y1509D01*
X364Y1505D01*
X362Y1505D01*
X362Y1501D01*
X360Y1501D01*
X360Y1499D01*
X436Y1499D01*
X436Y1601D01*
X410Y1601D01*
G37*
D02*
G36*
X710Y1601D02*
X710Y1597D01*
X708Y1597D01*
X708Y1593D01*
X706Y1593D01*
X706Y1589D01*
X704Y1589D01*
X704Y1585D01*
X702Y1585D01*
X702Y1581D01*
X700Y1581D01*
X700Y1577D01*
X698Y1577D01*
X698Y1573D01*
X696Y1573D01*
X696Y1569D01*
X694Y1569D01*
X694Y1565D01*
X692Y1565D01*
X692Y1561D01*
X690Y1561D01*
X690Y1557D01*
X688Y1557D01*
X688Y1553D01*
X686Y1553D01*
X686Y1549D01*
X684Y1549D01*
X684Y1545D01*
X682Y1545D01*
X682Y1541D01*
X680Y1541D01*
X680Y1537D01*
X678Y1537D01*
X678Y1533D01*
X676Y1533D01*
X676Y1529D01*
X674Y1529D01*
X674Y1525D01*
X672Y1525D01*
X672Y1521D01*
X670Y1521D01*
X670Y1517D01*
X668Y1517D01*
X668Y1513D01*
X666Y1513D01*
X666Y1509D01*
X664Y1509D01*
X664Y1505D01*
X662Y1505D01*
X662Y1501D01*
X660Y1501D01*
X660Y1499D01*
X736Y1499D01*
X736Y1601D01*
X710Y1601D01*
G37*
D02*
G36*
X1994Y1601D02*
X1994Y1599D01*
X1992Y1599D01*
X1992Y1597D01*
X1990Y1597D01*
X1990Y1595D01*
X1988Y1595D01*
X1988Y1593D01*
X1986Y1593D01*
X1986Y1591D01*
X1984Y1591D01*
X1984Y1589D01*
X1982Y1589D01*
X1982Y1587D01*
X1980Y1587D01*
X1980Y1585D01*
X1978Y1585D01*
X1978Y1583D01*
X1976Y1583D01*
X1976Y1581D01*
X1974Y1581D01*
X1974Y1579D01*
X1972Y1579D01*
X1972Y1577D01*
X1970Y1577D01*
X1970Y1575D01*
X1968Y1575D01*
X1968Y1573D01*
X1966Y1573D01*
X1966Y1571D01*
X1964Y1571D01*
X1964Y1569D01*
X1962Y1569D01*
X1962Y1567D01*
X1960Y1567D01*
X1960Y1565D01*
X1958Y1565D01*
X1958Y1563D01*
X1956Y1563D01*
X1956Y1561D01*
X1954Y1561D01*
X1954Y1559D01*
X1952Y1559D01*
X1952Y1557D01*
X1950Y1557D01*
X1950Y1555D01*
X1948Y1555D01*
X1948Y1553D01*
X1946Y1553D01*
X1946Y1551D01*
X1944Y1551D01*
X1944Y1549D01*
X1942Y1549D01*
X1942Y1547D01*
X1940Y1547D01*
X1940Y1545D01*
X1938Y1545D01*
X1938Y1543D01*
X1936Y1543D01*
X1936Y1541D01*
X1934Y1541D01*
X1934Y1539D01*
X1932Y1539D01*
X1932Y1537D01*
X1930Y1537D01*
X1930Y1535D01*
X1928Y1535D01*
X1928Y1533D01*
X1926Y1533D01*
X1926Y1531D01*
X1924Y1531D01*
X1924Y1529D01*
X1922Y1529D01*
X1922Y1527D01*
X1920Y1527D01*
X1920Y1525D01*
X1918Y1525D01*
X1918Y1523D01*
X1916Y1523D01*
X1916Y1521D01*
X1914Y1521D01*
X1914Y1519D01*
X1912Y1519D01*
X1912Y1517D01*
X1910Y1517D01*
X1910Y1515D01*
X1908Y1515D01*
X1908Y1513D01*
X1906Y1513D01*
X1906Y1511D01*
X1904Y1511D01*
X1904Y1509D01*
X1902Y1509D01*
X1902Y1507D01*
X1900Y1507D01*
X1900Y1505D01*
X1898Y1505D01*
X1898Y1503D01*
X1896Y1503D01*
X1896Y1501D01*
X1894Y1501D01*
X1894Y1499D01*
X2036Y1499D01*
X2036Y1601D01*
X1994Y1601D01*
G37*
D02*
G36*
X1016Y1597D02*
X1016Y1593D01*
X1014Y1593D01*
X1014Y1589D01*
X1012Y1589D01*
X1012Y1585D01*
X1010Y1585D01*
X1010Y1581D01*
X1008Y1581D01*
X1008Y1579D01*
X1006Y1579D01*
X1006Y1575D01*
X1004Y1575D01*
X1004Y1571D01*
X1002Y1571D01*
X1002Y1567D01*
X1000Y1567D01*
X1000Y1563D01*
X998Y1563D01*
X998Y1561D01*
X996Y1561D01*
X996Y1557D01*
X994Y1557D01*
X994Y1553D01*
X992Y1553D01*
X992Y1549D01*
X990Y1549D01*
X990Y1545D01*
X988Y1545D01*
X988Y1543D01*
X986Y1543D01*
X986Y1539D01*
X984Y1539D01*
X984Y1535D01*
X982Y1535D01*
X982Y1531D01*
X980Y1531D01*
X980Y1527D01*
X978Y1527D01*
X978Y1523D01*
X976Y1523D01*
X976Y1521D01*
X974Y1521D01*
X974Y1517D01*
X972Y1517D01*
X972Y1513D01*
X970Y1513D01*
X970Y1509D01*
X968Y1509D01*
X968Y1505D01*
X966Y1505D01*
X966Y1503D01*
X964Y1503D01*
X964Y1499D01*
X1036Y1499D01*
X1036Y1597D01*
X1016Y1597D01*
G37*
D02*
G36*
X1616Y1597D02*
X1616Y1593D01*
X1614Y1593D01*
X1614Y1589D01*
X1612Y1589D01*
X1612Y1585D01*
X1610Y1585D01*
X1610Y1581D01*
X1608Y1581D01*
X1608Y1579D01*
X1606Y1579D01*
X1606Y1575D01*
X1604Y1575D01*
X1604Y1571D01*
X1602Y1571D01*
X1602Y1567D01*
X1600Y1567D01*
X1600Y1563D01*
X1598Y1563D01*
X1598Y1561D01*
X1596Y1561D01*
X1596Y1557D01*
X1594Y1557D01*
X1594Y1553D01*
X1592Y1553D01*
X1592Y1549D01*
X1590Y1549D01*
X1590Y1545D01*
X1588Y1545D01*
X1588Y1543D01*
X1586Y1543D01*
X1586Y1539D01*
X1584Y1539D01*
X1584Y1535D01*
X1582Y1535D01*
X1582Y1531D01*
X1580Y1531D01*
X1580Y1527D01*
X1578Y1527D01*
X1578Y1523D01*
X1576Y1523D01*
X1576Y1521D01*
X1574Y1521D01*
X1574Y1517D01*
X1572Y1517D01*
X1572Y1513D01*
X1570Y1513D01*
X1570Y1509D01*
X1568Y1509D01*
X1568Y1505D01*
X1566Y1505D01*
X1566Y1503D01*
X1564Y1503D01*
X1564Y1499D01*
X1636Y1499D01*
X1636Y1597D01*
X1616Y1597D01*
G37*
D02*
G36*
X1316Y1579D02*
X1316Y1577D01*
X1314Y1577D01*
X1314Y1573D01*
X1312Y1573D01*
X1312Y1569D01*
X1310Y1569D01*
X1310Y1567D01*
X1308Y1567D01*
X1308Y1563D01*
X1306Y1563D01*
X1306Y1559D01*
X1304Y1559D01*
X1304Y1557D01*
X1302Y1557D01*
X1302Y1553D01*
X1300Y1553D01*
X1300Y1551D01*
X1298Y1551D01*
X1298Y1547D01*
X1296Y1547D01*
X1296Y1543D01*
X1294Y1543D01*
X1294Y1541D01*
X1292Y1541D01*
X1292Y1537D01*
X1290Y1537D01*
X1290Y1533D01*
X1288Y1533D01*
X1288Y1531D01*
X1286Y1531D01*
X1286Y1527D01*
X1284Y1527D01*
X1284Y1525D01*
X1282Y1525D01*
X1282Y1521D01*
X1280Y1521D01*
X1280Y1517D01*
X1278Y1517D01*
X1278Y1515D01*
X1276Y1515D01*
X1276Y1511D01*
X1274Y1511D01*
X1274Y1509D01*
X1272Y1509D01*
X1272Y1505D01*
X1270Y1505D01*
X1270Y1501D01*
X1268Y1501D01*
X1268Y1499D01*
X1336Y1499D01*
X1336Y1579D01*
X1316Y1579D01*
G37*
D02*
G36*
X52Y1499D02*
X52Y1497D01*
X310Y1497D01*
X310Y1499D01*
X52Y1499D01*
G37*
D02*
G36*
X52Y1499D02*
X52Y1497D01*
X310Y1497D01*
X310Y1499D01*
X52Y1499D01*
G37*
D02*
G36*
X360Y1499D02*
X360Y1497D01*
X610Y1497D01*
X610Y1499D01*
X360Y1499D01*
G37*
D02*
G36*
X360Y1499D02*
X360Y1497D01*
X610Y1497D01*
X610Y1499D01*
X360Y1499D01*
G37*
D02*
G36*
X660Y1499D02*
X660Y1497D01*
X912Y1497D01*
X912Y1499D01*
X660Y1499D01*
G37*
D02*
G36*
X660Y1499D02*
X660Y1497D01*
X912Y1497D01*
X912Y1499D01*
X660Y1499D01*
G37*
D02*
G36*
X962Y1499D02*
X962Y1497D01*
X1216Y1497D01*
X1216Y1499D01*
X962Y1499D01*
G37*
D02*
G36*
X962Y1499D02*
X962Y1497D01*
X1216Y1497D01*
X1216Y1499D01*
X962Y1499D01*
G37*
D02*
G36*
X1266Y1499D02*
X1266Y1497D01*
X1512Y1497D01*
X1512Y1499D01*
X1266Y1499D01*
G37*
D02*
G36*
X1266Y1499D02*
X1266Y1497D01*
X1512Y1497D01*
X1512Y1499D01*
X1266Y1499D01*
G37*
D02*
G36*
X1562Y1499D02*
X1562Y1497D01*
X1828Y1497D01*
X1828Y1499D01*
X1562Y1499D01*
G37*
D02*
G36*
X1562Y1499D02*
X1562Y1497D01*
X1828Y1497D01*
X1828Y1499D01*
X1562Y1499D01*
G37*
D02*
G36*
X1892Y1499D02*
X1892Y1497D01*
X2484Y1497D01*
X2484Y1499D01*
X1892Y1499D01*
G37*
D02*
G36*
X1892Y1499D02*
X1892Y1497D01*
X2484Y1497D01*
X2484Y1499D01*
X1892Y1499D01*
G37*
D02*
G36*
X52Y1497D02*
X52Y1377D01*
X278Y1377D01*
X278Y1473D01*
X298Y1473D01*
X298Y1475D01*
X300Y1475D01*
X300Y1479D01*
X302Y1479D01*
X302Y1483D01*
X304Y1483D01*
X304Y1487D01*
X306Y1487D01*
X306Y1491D01*
X308Y1491D01*
X308Y1495D01*
X310Y1495D01*
X310Y1497D01*
X52Y1497D01*
G37*
D02*
G36*
X358Y1497D02*
X358Y1493D01*
X356Y1493D01*
X356Y1489D01*
X354Y1489D01*
X354Y1485D01*
X352Y1485D01*
X352Y1481D01*
X350Y1481D01*
X350Y1477D01*
X348Y1477D01*
X348Y1473D01*
X346Y1473D01*
X346Y1469D01*
X344Y1469D01*
X344Y1377D01*
X578Y1377D01*
X578Y1473D01*
X598Y1473D01*
X598Y1475D01*
X600Y1475D01*
X600Y1479D01*
X602Y1479D01*
X602Y1483D01*
X604Y1483D01*
X604Y1487D01*
X606Y1487D01*
X606Y1491D01*
X608Y1491D01*
X608Y1495D01*
X610Y1495D01*
X610Y1497D01*
X358Y1497D01*
G37*
D02*
G36*
X658Y1497D02*
X658Y1493D01*
X656Y1493D01*
X656Y1489D01*
X654Y1489D01*
X654Y1485D01*
X652Y1485D01*
X652Y1481D01*
X650Y1481D01*
X650Y1477D01*
X648Y1477D01*
X648Y1473D01*
X646Y1473D01*
X646Y1469D01*
X644Y1469D01*
X644Y1377D01*
X878Y1377D01*
X878Y1473D01*
X900Y1473D01*
X900Y1477D01*
X902Y1477D01*
X902Y1481D01*
X904Y1481D01*
X904Y1485D01*
X906Y1485D01*
X906Y1489D01*
X908Y1489D01*
X908Y1491D01*
X910Y1491D01*
X910Y1495D01*
X912Y1495D01*
X912Y1497D01*
X658Y1497D01*
G37*
D02*
G36*
X962Y1497D02*
X962Y1495D01*
X960Y1495D01*
X960Y1491D01*
X958Y1491D01*
X958Y1487D01*
X956Y1487D01*
X956Y1483D01*
X954Y1483D01*
X954Y1481D01*
X952Y1481D01*
X952Y1477D01*
X950Y1477D01*
X950Y1473D01*
X948Y1473D01*
X948Y1469D01*
X946Y1469D01*
X946Y1465D01*
X944Y1465D01*
X944Y1377D01*
X1178Y1377D01*
X1178Y1473D01*
X1200Y1473D01*
X1200Y1475D01*
X1202Y1475D01*
X1202Y1479D01*
X1204Y1479D01*
X1204Y1481D01*
X1206Y1481D01*
X1206Y1485D01*
X1208Y1485D01*
X1208Y1489D01*
X1210Y1489D01*
X1210Y1491D01*
X1212Y1491D01*
X1212Y1495D01*
X1214Y1495D01*
X1214Y1497D01*
X962Y1497D01*
G37*
D02*
G36*
X1266Y1497D02*
X1266Y1495D01*
X1264Y1495D01*
X1264Y1491D01*
X1262Y1491D01*
X1262Y1489D01*
X1260Y1489D01*
X1260Y1485D01*
X1258Y1485D01*
X1258Y1483D01*
X1256Y1483D01*
X1256Y1479D01*
X1254Y1479D01*
X1254Y1475D01*
X1252Y1475D01*
X1252Y1473D01*
X1250Y1473D01*
X1250Y1469D01*
X1248Y1469D01*
X1248Y1467D01*
X1246Y1467D01*
X1246Y1463D01*
X1244Y1463D01*
X1244Y1377D01*
X1478Y1377D01*
X1478Y1473D01*
X1500Y1473D01*
X1500Y1477D01*
X1502Y1477D01*
X1502Y1481D01*
X1504Y1481D01*
X1504Y1485D01*
X1506Y1485D01*
X1506Y1489D01*
X1508Y1489D01*
X1508Y1491D01*
X1510Y1491D01*
X1510Y1495D01*
X1512Y1495D01*
X1512Y1497D01*
X1266Y1497D01*
G37*
D02*
G36*
X1562Y1497D02*
X1562Y1495D01*
X1560Y1495D01*
X1560Y1491D01*
X1558Y1491D01*
X1558Y1487D01*
X1556Y1487D01*
X1556Y1483D01*
X1554Y1483D01*
X1554Y1481D01*
X1552Y1481D01*
X1552Y1477D01*
X1550Y1477D01*
X1550Y1473D01*
X1548Y1473D01*
X1548Y1469D01*
X1546Y1469D01*
X1546Y1465D01*
X1544Y1465D01*
X1544Y1377D01*
X1778Y1377D01*
X1778Y1473D01*
X1804Y1473D01*
X1804Y1475D01*
X1806Y1475D01*
X1806Y1477D01*
X1808Y1477D01*
X1808Y1479D01*
X1810Y1479D01*
X1810Y1481D01*
X1812Y1481D01*
X1812Y1483D01*
X1814Y1483D01*
X1814Y1485D01*
X1816Y1485D01*
X1816Y1487D01*
X1818Y1487D01*
X1818Y1489D01*
X1820Y1489D01*
X1820Y1491D01*
X1822Y1491D01*
X1822Y1493D01*
X1824Y1493D01*
X1824Y1495D01*
X1826Y1495D01*
X1826Y1497D01*
X1562Y1497D01*
G37*
D02*
G36*
X1890Y1497D02*
X1890Y1495D01*
X1888Y1495D01*
X1888Y1493D01*
X1886Y1493D01*
X1886Y1491D01*
X1884Y1491D01*
X1884Y1489D01*
X1882Y1489D01*
X1882Y1487D01*
X1880Y1487D01*
X1880Y1485D01*
X1878Y1485D01*
X1878Y1483D01*
X1876Y1483D01*
X1876Y1481D01*
X1874Y1481D01*
X1874Y1479D01*
X1872Y1479D01*
X1872Y1477D01*
X1868Y1477D01*
X1868Y1475D01*
X1866Y1475D01*
X1866Y1473D01*
X1864Y1473D01*
X1864Y1471D01*
X1862Y1471D01*
X1862Y1469D01*
X1860Y1469D01*
X1860Y1467D01*
X1858Y1467D01*
X1858Y1465D01*
X1856Y1465D01*
X1856Y1463D01*
X1854Y1463D01*
X1854Y1461D01*
X1852Y1461D01*
X1852Y1459D01*
X1850Y1459D01*
X1850Y1457D01*
X1848Y1457D01*
X1848Y1455D01*
X1846Y1455D01*
X1846Y1453D01*
X1844Y1453D01*
X1844Y1377D01*
X2178Y1377D01*
X2178Y1473D01*
X2260Y1473D01*
X2260Y1477D01*
X2262Y1477D01*
X2262Y1479D01*
X2264Y1479D01*
X2264Y1481D01*
X2266Y1481D01*
X2266Y1483D01*
X2268Y1483D01*
X2268Y1485D01*
X2270Y1485D01*
X2270Y1487D01*
X2272Y1487D01*
X2272Y1489D01*
X2276Y1489D01*
X2276Y1491D01*
X2280Y1491D01*
X2280Y1493D01*
X2284Y1493D01*
X2284Y1495D01*
X2292Y1495D01*
X2292Y1497D01*
X1890Y1497D01*
G37*
D02*
G36*
X2308Y1497D02*
X2308Y1495D01*
X2316Y1495D01*
X2316Y1493D01*
X2320Y1493D01*
X2320Y1491D01*
X2324Y1491D01*
X2324Y1489D01*
X2328Y1489D01*
X2328Y1487D01*
X2330Y1487D01*
X2330Y1485D01*
X2332Y1485D01*
X2332Y1483D01*
X2334Y1483D01*
X2334Y1481D01*
X2336Y1481D01*
X2336Y1479D01*
X2338Y1479D01*
X2338Y1475D01*
X2340Y1475D01*
X2340Y1473D01*
X2342Y1473D01*
X2342Y1469D01*
X2344Y1469D01*
X2344Y1463D01*
X2346Y1463D01*
X2346Y1453D01*
X2348Y1453D01*
X2348Y1447D01*
X2346Y1447D01*
X2346Y1437D01*
X2344Y1437D01*
X2344Y1431D01*
X2342Y1431D01*
X2342Y1427D01*
X2340Y1427D01*
X2340Y1423D01*
X2338Y1423D01*
X2338Y1421D01*
X2336Y1421D01*
X2336Y1417D01*
X2334Y1417D01*
X2334Y1415D01*
X2332Y1415D01*
X2332Y1413D01*
X2328Y1413D01*
X2328Y1411D01*
X2326Y1411D01*
X2326Y1409D01*
X2322Y1409D01*
X2322Y1407D01*
X2318Y1407D01*
X2318Y1405D01*
X2312Y1405D01*
X2312Y1403D01*
X2302Y1403D01*
X2302Y1401D01*
X2482Y1401D01*
X2482Y1453D01*
X2484Y1453D01*
X2484Y1497D01*
X2308Y1497D01*
G37*
D02*
G36*
X2244Y1419D02*
X2244Y1401D01*
X2298Y1401D01*
X2298Y1403D01*
X2286Y1403D01*
X2286Y1405D01*
X2280Y1405D01*
X2280Y1407D01*
X2276Y1407D01*
X2276Y1409D01*
X2274Y1409D01*
X2274Y1411D01*
X2270Y1411D01*
X2270Y1413D01*
X2268Y1413D01*
X2268Y1415D01*
X2266Y1415D01*
X2266Y1417D01*
X2264Y1417D01*
X2264Y1419D01*
X2244Y1419D01*
G37*
D02*
G36*
X2244Y1401D02*
X2244Y1399D01*
X2482Y1399D01*
X2482Y1401D01*
X2244Y1401D01*
G37*
D02*
G36*
X2244Y1401D02*
X2244Y1399D01*
X2482Y1399D01*
X2482Y1401D01*
X2244Y1401D01*
G37*
D02*
G36*
X2244Y1399D02*
X2244Y1377D01*
X2482Y1377D01*
X2482Y1399D01*
X2244Y1399D01*
G37*
D02*
G36*
X52Y1377D02*
X52Y1375D01*
X2482Y1375D01*
X2482Y1377D01*
X52Y1377D01*
G37*
D02*
G36*
X52Y1377D02*
X52Y1375D01*
X2482Y1375D01*
X2482Y1377D01*
X52Y1377D01*
G37*
D02*
G36*
X52Y1377D02*
X52Y1375D01*
X2482Y1375D01*
X2482Y1377D01*
X52Y1377D01*
G37*
D02*
G36*
X52Y1377D02*
X52Y1375D01*
X2482Y1375D01*
X2482Y1377D01*
X52Y1377D01*
G37*
D02*
G36*
X52Y1377D02*
X52Y1375D01*
X2482Y1375D01*
X2482Y1377D01*
X52Y1377D01*
G37*
D02*
G36*
X52Y1377D02*
X52Y1375D01*
X2482Y1375D01*
X2482Y1377D01*
X52Y1377D01*
G37*
D02*
G36*
X52Y1377D02*
X52Y1375D01*
X2482Y1375D01*
X2482Y1377D01*
X52Y1377D01*
G37*
D02*
G36*
X52Y1377D02*
X52Y1375D01*
X2482Y1375D01*
X2482Y1377D01*
X52Y1377D01*
G37*
D02*
G36*
X52Y1375D02*
X52Y1361D01*
X982Y1361D01*
X982Y1359D01*
X994Y1359D01*
X994Y1357D01*
X1000Y1357D01*
X1000Y1355D01*
X1004Y1355D01*
X1004Y1353D01*
X1008Y1353D01*
X1008Y1351D01*
X2174Y1351D01*
X2174Y1249D01*
X2480Y1249D01*
X2480Y1265D01*
X2482Y1265D01*
X2482Y1375D01*
X52Y1375D01*
G37*
D02*
G36*
X52Y1361D02*
X52Y1351D01*
X874Y1351D01*
X874Y1265D01*
X970Y1265D01*
X970Y1267D01*
X964Y1267D01*
X964Y1269D01*
X960Y1269D01*
X960Y1271D01*
X956Y1271D01*
X956Y1273D01*
X954Y1273D01*
X954Y1275D01*
X950Y1275D01*
X950Y1277D01*
X948Y1277D01*
X948Y1279D01*
X946Y1279D01*
X946Y1281D01*
X944Y1281D01*
X944Y1285D01*
X942Y1285D01*
X942Y1287D01*
X940Y1287D01*
X940Y1291D01*
X938Y1291D01*
X938Y1295D01*
X936Y1295D01*
X936Y1301D01*
X934Y1301D01*
X934Y1323D01*
X936Y1323D01*
X936Y1331D01*
X938Y1331D01*
X938Y1335D01*
X940Y1335D01*
X940Y1337D01*
X942Y1337D01*
X942Y1341D01*
X944Y1341D01*
X944Y1343D01*
X946Y1343D01*
X946Y1345D01*
X948Y1345D01*
X948Y1347D01*
X950Y1347D01*
X950Y1349D01*
X952Y1349D01*
X952Y1351D01*
X954Y1351D01*
X954Y1353D01*
X958Y1353D01*
X958Y1355D01*
X962Y1355D01*
X962Y1357D01*
X968Y1357D01*
X968Y1359D01*
X980Y1359D01*
X980Y1361D01*
X52Y1361D01*
G37*
D02*
G36*
X52Y1351D02*
X52Y1249D01*
X136Y1249D01*
X136Y1351D01*
X52Y1351D01*
G37*
D02*
G36*
X274Y1351D02*
X274Y1249D01*
X436Y1249D01*
X436Y1351D01*
X274Y1351D01*
G37*
D02*
G36*
X574Y1351D02*
X574Y1249D01*
X736Y1249D01*
X736Y1351D01*
X574Y1351D01*
G37*
D02*
G36*
X1010Y1351D02*
X1010Y1349D01*
X1012Y1349D01*
X1012Y1347D01*
X1014Y1347D01*
X1014Y1345D01*
X1016Y1345D01*
X1016Y1343D01*
X1036Y1343D01*
X1036Y1351D01*
X1010Y1351D01*
G37*
D02*
G36*
X1174Y1351D02*
X1174Y1249D01*
X1336Y1249D01*
X1336Y1351D01*
X1174Y1351D01*
G37*
D02*
G36*
X1474Y1351D02*
X1474Y1249D01*
X1636Y1249D01*
X1636Y1351D01*
X1474Y1351D01*
G37*
D02*
G36*
X1774Y1351D02*
X1774Y1249D01*
X2036Y1249D01*
X2036Y1351D01*
X1774Y1351D01*
G37*
D02*
G36*
X1016Y1281D02*
X1016Y1279D01*
X1014Y1279D01*
X1014Y1277D01*
X1012Y1277D01*
X1012Y1275D01*
X1010Y1275D01*
X1010Y1273D01*
X1006Y1273D01*
X1006Y1271D01*
X1002Y1271D01*
X1002Y1269D01*
X998Y1269D01*
X998Y1267D01*
X992Y1267D01*
X992Y1265D01*
X1036Y1265D01*
X1036Y1281D01*
X1016Y1281D01*
G37*
D02*
G36*
X874Y1265D02*
X874Y1263D01*
X1036Y1263D01*
X1036Y1265D01*
X874Y1265D01*
G37*
D02*
G36*
X874Y1265D02*
X874Y1263D01*
X1036Y1263D01*
X1036Y1265D01*
X874Y1265D01*
G37*
D02*
G36*
X874Y1263D02*
X874Y1249D01*
X1036Y1249D01*
X1036Y1263D01*
X874Y1263D01*
G37*
D02*
G36*
X52Y1249D02*
X52Y1247D01*
X2480Y1247D01*
X2480Y1249D01*
X52Y1249D01*
G37*
D02*
G36*
X52Y1249D02*
X52Y1247D01*
X2480Y1247D01*
X2480Y1249D01*
X52Y1249D01*
G37*
D02*
G36*
X52Y1249D02*
X52Y1247D01*
X2480Y1247D01*
X2480Y1249D01*
X52Y1249D01*
G37*
D02*
G36*
X52Y1249D02*
X52Y1247D01*
X2480Y1247D01*
X2480Y1249D01*
X52Y1249D01*
G37*
D02*
G36*
X52Y1249D02*
X52Y1247D01*
X2480Y1247D01*
X2480Y1249D01*
X52Y1249D01*
G37*
D02*
G36*
X52Y1249D02*
X52Y1247D01*
X2480Y1247D01*
X2480Y1249D01*
X52Y1249D01*
G37*
D02*
G36*
X52Y1249D02*
X52Y1247D01*
X2480Y1247D01*
X2480Y1249D01*
X52Y1249D01*
G37*
D02*
G36*
X52Y1249D02*
X52Y1247D01*
X2480Y1247D01*
X2480Y1249D01*
X52Y1249D01*
G37*
D02*
G36*
X52Y1247D02*
X52Y1097D01*
X2308Y1097D01*
X2308Y1095D01*
X2316Y1095D01*
X2316Y1093D01*
X2320Y1093D01*
X2320Y1091D01*
X2324Y1091D01*
X2324Y1089D01*
X2328Y1089D01*
X2328Y1087D01*
X2330Y1087D01*
X2330Y1085D01*
X2332Y1085D01*
X2332Y1083D01*
X2334Y1083D01*
X2334Y1081D01*
X2336Y1081D01*
X2336Y1079D01*
X2338Y1079D01*
X2338Y1075D01*
X2340Y1075D01*
X2340Y1073D01*
X2342Y1073D01*
X2342Y1069D01*
X2344Y1069D01*
X2344Y1063D01*
X2346Y1063D01*
X2346Y1053D01*
X2348Y1053D01*
X2348Y1047D01*
X2346Y1047D01*
X2346Y1037D01*
X2344Y1037D01*
X2344Y1031D01*
X2342Y1031D01*
X2342Y1027D01*
X2340Y1027D01*
X2340Y1023D01*
X2338Y1023D01*
X2338Y1021D01*
X2336Y1021D01*
X2336Y1017D01*
X2334Y1017D01*
X2334Y1015D01*
X2332Y1015D01*
X2332Y1013D01*
X2328Y1013D01*
X2328Y1011D01*
X2326Y1011D01*
X2326Y1009D01*
X2322Y1009D01*
X2322Y999D01*
X2404Y999D01*
X2404Y997D01*
X2414Y997D01*
X2414Y995D01*
X2420Y995D01*
X2420Y993D01*
X2424Y993D01*
X2424Y991D01*
X2426Y991D01*
X2426Y989D01*
X2430Y989D01*
X2430Y987D01*
X2432Y987D01*
X2432Y985D01*
X2434Y985D01*
X2434Y983D01*
X2436Y983D01*
X2436Y981D01*
X2438Y981D01*
X2438Y979D01*
X2440Y979D01*
X2440Y977D01*
X2460Y977D01*
X2460Y979D01*
X2462Y979D01*
X2462Y981D01*
X2464Y981D01*
X2464Y983D01*
X2466Y983D01*
X2466Y985D01*
X2468Y985D01*
X2468Y987D01*
X2470Y987D01*
X2470Y989D01*
X2472Y989D01*
X2472Y991D01*
X2476Y991D01*
X2476Y993D01*
X2478Y993D01*
X2478Y1075D01*
X2480Y1075D01*
X2480Y1247D01*
X52Y1247D01*
G37*
D02*
G36*
X52Y1097D02*
X52Y1023D01*
X342Y1023D01*
X342Y1021D01*
X354Y1021D01*
X354Y1019D01*
X360Y1019D01*
X360Y1017D01*
X366Y1017D01*
X366Y1015D01*
X370Y1015D01*
X370Y1013D01*
X372Y1013D01*
X372Y1011D01*
X376Y1011D01*
X376Y1009D01*
X378Y1009D01*
X378Y1007D01*
X382Y1007D01*
X382Y1005D01*
X384Y1005D01*
X384Y1003D01*
X386Y1003D01*
X386Y1001D01*
X1898Y1001D01*
X1898Y1003D01*
X1886Y1003D01*
X1886Y1005D01*
X1880Y1005D01*
X1880Y1007D01*
X1876Y1007D01*
X1876Y1009D01*
X1874Y1009D01*
X1874Y1011D01*
X1870Y1011D01*
X1870Y1013D01*
X1868Y1013D01*
X1868Y1015D01*
X1866Y1015D01*
X1866Y1017D01*
X1864Y1017D01*
X1864Y1019D01*
X1862Y1019D01*
X1862Y1023D01*
X1860Y1023D01*
X1860Y1025D01*
X1858Y1025D01*
X1858Y1029D01*
X1856Y1029D01*
X1856Y1033D01*
X1854Y1033D01*
X1854Y1041D01*
X1852Y1041D01*
X1852Y1057D01*
X1854Y1057D01*
X1854Y1065D01*
X1856Y1065D01*
X1856Y1069D01*
X1858Y1069D01*
X1858Y1073D01*
X1860Y1073D01*
X1860Y1077D01*
X1862Y1077D01*
X1862Y1079D01*
X1864Y1079D01*
X1864Y1081D01*
X1866Y1081D01*
X1866Y1083D01*
X1868Y1083D01*
X1868Y1085D01*
X1870Y1085D01*
X1870Y1087D01*
X1872Y1087D01*
X1872Y1089D01*
X1876Y1089D01*
X1876Y1091D01*
X1880Y1091D01*
X1880Y1093D01*
X1884Y1093D01*
X1884Y1095D01*
X1892Y1095D01*
X1892Y1097D01*
X52Y1097D01*
G37*
D02*
G36*
X1908Y1097D02*
X1908Y1095D01*
X1916Y1095D01*
X1916Y1093D01*
X1920Y1093D01*
X1920Y1091D01*
X1924Y1091D01*
X1924Y1089D01*
X1928Y1089D01*
X1928Y1087D01*
X1930Y1087D01*
X1930Y1085D01*
X1932Y1085D01*
X1932Y1083D01*
X1934Y1083D01*
X1934Y1081D01*
X1936Y1081D01*
X1936Y1079D01*
X1938Y1079D01*
X1938Y1075D01*
X1940Y1075D01*
X1940Y1073D01*
X1942Y1073D01*
X1942Y1069D01*
X1944Y1069D01*
X1944Y1063D01*
X1946Y1063D01*
X1946Y1053D01*
X1948Y1053D01*
X1948Y1047D01*
X1946Y1047D01*
X1946Y1037D01*
X1944Y1037D01*
X1944Y1031D01*
X1942Y1031D01*
X1942Y1027D01*
X1940Y1027D01*
X1940Y1023D01*
X1938Y1023D01*
X1938Y1021D01*
X1936Y1021D01*
X1936Y1017D01*
X1934Y1017D01*
X1934Y1015D01*
X1932Y1015D01*
X1932Y1013D01*
X1928Y1013D01*
X1928Y1011D01*
X1926Y1011D01*
X1926Y1009D01*
X1922Y1009D01*
X1922Y1007D01*
X1918Y1007D01*
X1918Y1005D01*
X1912Y1005D01*
X1912Y1003D01*
X1902Y1003D01*
X1902Y1001D01*
X2278Y1001D01*
X2278Y1007D01*
X2276Y1007D01*
X2276Y1009D01*
X2274Y1009D01*
X2274Y1011D01*
X2270Y1011D01*
X2270Y1013D01*
X2268Y1013D01*
X2268Y1015D01*
X2266Y1015D01*
X2266Y1017D01*
X2264Y1017D01*
X2264Y1019D01*
X2262Y1019D01*
X2262Y1023D01*
X2260Y1023D01*
X2260Y1025D01*
X2258Y1025D01*
X2258Y1029D01*
X2256Y1029D01*
X2256Y1033D01*
X2254Y1033D01*
X2254Y1041D01*
X2252Y1041D01*
X2252Y1057D01*
X2254Y1057D01*
X2254Y1065D01*
X2256Y1065D01*
X2256Y1069D01*
X2258Y1069D01*
X2258Y1073D01*
X2260Y1073D01*
X2260Y1077D01*
X2262Y1077D01*
X2262Y1079D01*
X2264Y1079D01*
X2264Y1081D01*
X2266Y1081D01*
X2266Y1083D01*
X2268Y1083D01*
X2268Y1085D01*
X2270Y1085D01*
X2270Y1087D01*
X2272Y1087D01*
X2272Y1089D01*
X2276Y1089D01*
X2276Y1091D01*
X2280Y1091D01*
X2280Y1093D01*
X2284Y1093D01*
X2284Y1095D01*
X2292Y1095D01*
X2292Y1097D01*
X1908Y1097D01*
G37*
D02*
G36*
X52Y1023D02*
X52Y877D01*
X320Y877D01*
X320Y879D01*
X312Y879D01*
X312Y881D01*
X308Y881D01*
X308Y883D01*
X304Y883D01*
X304Y885D01*
X300Y885D01*
X300Y887D01*
X296Y887D01*
X296Y889D01*
X294Y889D01*
X294Y891D01*
X290Y891D01*
X290Y893D01*
X288Y893D01*
X288Y895D01*
X286Y895D01*
X286Y897D01*
X284Y897D01*
X284Y899D01*
X282Y899D01*
X282Y901D01*
X280Y901D01*
X280Y903D01*
X278Y903D01*
X278Y905D01*
X276Y905D01*
X276Y909D01*
X274Y909D01*
X274Y911D01*
X272Y911D01*
X272Y915D01*
X270Y915D01*
X270Y919D01*
X268Y919D01*
X268Y925D01*
X266Y925D01*
X266Y931D01*
X264Y931D01*
X264Y941D01*
X262Y941D01*
X262Y957D01*
X264Y957D01*
X264Y967D01*
X266Y967D01*
X266Y975D01*
X268Y975D01*
X268Y979D01*
X270Y979D01*
X270Y983D01*
X272Y983D01*
X272Y987D01*
X274Y987D01*
X274Y989D01*
X276Y989D01*
X276Y993D01*
X278Y993D01*
X278Y995D01*
X280Y995D01*
X280Y997D01*
X282Y997D01*
X282Y999D01*
X284Y999D01*
X284Y1001D01*
X286Y1001D01*
X286Y1003D01*
X288Y1003D01*
X288Y1005D01*
X290Y1005D01*
X290Y1007D01*
X292Y1007D01*
X292Y1009D01*
X296Y1009D01*
X296Y1011D01*
X298Y1011D01*
X298Y1013D01*
X302Y1013D01*
X302Y1015D01*
X306Y1015D01*
X306Y1017D01*
X312Y1017D01*
X312Y1019D01*
X318Y1019D01*
X318Y1021D01*
X330Y1021D01*
X330Y1023D01*
X52Y1023D01*
G37*
D02*
G36*
X388Y1001D02*
X388Y999D01*
X2278Y999D01*
X2278Y1001D01*
X388Y1001D01*
G37*
D02*
G36*
X388Y1001D02*
X388Y999D01*
X2278Y999D01*
X2278Y1001D01*
X388Y1001D01*
G37*
D02*
G36*
X390Y999D02*
X390Y997D01*
X1508Y997D01*
X1508Y995D01*
X1516Y995D01*
X1516Y993D01*
X1520Y993D01*
X1520Y991D01*
X1524Y991D01*
X1524Y989D01*
X1528Y989D01*
X1528Y987D01*
X1530Y987D01*
X1530Y985D01*
X1532Y985D01*
X1532Y983D01*
X1534Y983D01*
X1534Y981D01*
X1536Y981D01*
X1536Y979D01*
X1538Y979D01*
X1538Y975D01*
X1540Y975D01*
X1540Y973D01*
X1542Y973D01*
X1542Y969D01*
X1544Y969D01*
X1544Y963D01*
X1546Y963D01*
X1546Y953D01*
X1548Y953D01*
X1548Y947D01*
X1546Y947D01*
X1546Y937D01*
X1544Y937D01*
X1544Y931D01*
X1542Y931D01*
X1542Y927D01*
X1540Y927D01*
X1540Y923D01*
X1538Y923D01*
X1538Y921D01*
X1536Y921D01*
X1536Y917D01*
X1534Y917D01*
X1534Y915D01*
X1532Y915D01*
X1532Y913D01*
X1528Y913D01*
X1528Y911D01*
X1526Y911D01*
X1526Y909D01*
X1524Y909D01*
X1524Y897D01*
X1708Y897D01*
X1708Y895D01*
X1716Y895D01*
X1716Y893D01*
X1720Y893D01*
X1720Y891D01*
X1724Y891D01*
X1724Y889D01*
X1728Y889D01*
X1728Y887D01*
X1730Y887D01*
X1730Y885D01*
X1732Y885D01*
X1732Y883D01*
X1734Y883D01*
X1734Y881D01*
X1736Y881D01*
X1736Y879D01*
X1738Y879D01*
X1738Y875D01*
X1740Y875D01*
X1740Y873D01*
X1742Y873D01*
X1742Y869D01*
X1744Y869D01*
X1744Y863D01*
X1746Y863D01*
X1746Y853D01*
X1748Y853D01*
X1748Y847D01*
X1746Y847D01*
X1746Y837D01*
X1744Y837D01*
X1744Y831D01*
X1742Y831D01*
X1742Y827D01*
X1740Y827D01*
X1740Y823D01*
X1738Y823D01*
X1738Y821D01*
X1736Y821D01*
X1736Y817D01*
X1734Y817D01*
X1734Y815D01*
X1732Y815D01*
X1732Y813D01*
X1728Y813D01*
X1728Y811D01*
X1726Y811D01*
X1726Y809D01*
X1722Y809D01*
X1722Y807D01*
X1718Y807D01*
X1718Y805D01*
X1712Y805D01*
X1712Y803D01*
X1702Y803D01*
X1702Y801D01*
X2278Y801D01*
X2278Y999D01*
X390Y999D01*
G37*
D02*
G36*
X2322Y999D02*
X2322Y901D01*
X2388Y901D01*
X2388Y903D01*
X2382Y903D01*
X2382Y905D01*
X2378Y905D01*
X2378Y907D01*
X2374Y907D01*
X2374Y909D01*
X2370Y909D01*
X2370Y911D01*
X2368Y911D01*
X2368Y913D01*
X2366Y913D01*
X2366Y915D01*
X2364Y915D01*
X2364Y917D01*
X2362Y917D01*
X2362Y919D01*
X2360Y919D01*
X2360Y923D01*
X2358Y923D01*
X2358Y925D01*
X2356Y925D01*
X2356Y929D01*
X2354Y929D01*
X2354Y935D01*
X2352Y935D01*
X2352Y945D01*
X2350Y945D01*
X2350Y955D01*
X2352Y955D01*
X2352Y963D01*
X2354Y963D01*
X2354Y969D01*
X2356Y969D01*
X2356Y973D01*
X2358Y973D01*
X2358Y977D01*
X2360Y977D01*
X2360Y979D01*
X2362Y979D01*
X2362Y981D01*
X2364Y981D01*
X2364Y983D01*
X2366Y983D01*
X2366Y985D01*
X2368Y985D01*
X2368Y987D01*
X2370Y987D01*
X2370Y989D01*
X2372Y989D01*
X2372Y991D01*
X2376Y991D01*
X2376Y993D01*
X2380Y993D01*
X2380Y995D01*
X2386Y995D01*
X2386Y997D01*
X2394Y997D01*
X2394Y999D01*
X2322Y999D01*
G37*
D02*
G36*
X392Y997D02*
X392Y995D01*
X394Y995D01*
X394Y991D01*
X396Y991D01*
X396Y989D01*
X398Y989D01*
X398Y985D01*
X400Y985D01*
X400Y981D01*
X402Y981D01*
X402Y977D01*
X404Y977D01*
X404Y971D01*
X406Y971D01*
X406Y963D01*
X408Y963D01*
X408Y935D01*
X406Y935D01*
X406Y927D01*
X404Y927D01*
X404Y921D01*
X402Y921D01*
X402Y917D01*
X400Y917D01*
X400Y913D01*
X398Y913D01*
X398Y911D01*
X396Y911D01*
X396Y907D01*
X394Y907D01*
X394Y905D01*
X392Y905D01*
X392Y903D01*
X390Y903D01*
X390Y901D01*
X530Y901D01*
X530Y903D01*
X520Y903D01*
X520Y905D01*
X514Y905D01*
X514Y907D01*
X510Y907D01*
X510Y909D01*
X506Y909D01*
X506Y911D01*
X504Y911D01*
X504Y913D01*
X500Y913D01*
X500Y915D01*
X498Y915D01*
X498Y917D01*
X496Y917D01*
X496Y921D01*
X494Y921D01*
X494Y923D01*
X492Y923D01*
X492Y927D01*
X490Y927D01*
X490Y931D01*
X488Y931D01*
X488Y937D01*
X486Y937D01*
X486Y947D01*
X484Y947D01*
X484Y951D01*
X486Y951D01*
X486Y963D01*
X488Y963D01*
X488Y969D01*
X490Y969D01*
X490Y973D01*
X492Y973D01*
X492Y975D01*
X494Y975D01*
X494Y979D01*
X496Y979D01*
X496Y981D01*
X498Y981D01*
X498Y983D01*
X500Y983D01*
X500Y985D01*
X502Y985D01*
X502Y987D01*
X506Y987D01*
X506Y989D01*
X508Y989D01*
X508Y991D01*
X512Y991D01*
X512Y993D01*
X516Y993D01*
X516Y995D01*
X524Y995D01*
X524Y997D01*
X392Y997D01*
G37*
D02*
G36*
X540Y997D02*
X540Y995D01*
X548Y995D01*
X548Y993D01*
X552Y993D01*
X552Y991D01*
X556Y991D01*
X556Y989D01*
X560Y989D01*
X560Y987D01*
X562Y987D01*
X562Y985D01*
X564Y985D01*
X564Y983D01*
X566Y983D01*
X566Y981D01*
X568Y981D01*
X568Y979D01*
X570Y979D01*
X570Y977D01*
X572Y977D01*
X572Y973D01*
X574Y973D01*
X574Y969D01*
X576Y969D01*
X576Y965D01*
X578Y965D01*
X578Y957D01*
X580Y957D01*
X580Y941D01*
X578Y941D01*
X578Y933D01*
X576Y933D01*
X576Y929D01*
X574Y929D01*
X574Y925D01*
X572Y925D01*
X572Y921D01*
X570Y921D01*
X570Y919D01*
X568Y919D01*
X568Y917D01*
X566Y917D01*
X566Y915D01*
X564Y915D01*
X564Y913D01*
X562Y913D01*
X562Y911D01*
X558Y911D01*
X558Y909D01*
X556Y909D01*
X556Y907D01*
X552Y907D01*
X552Y905D01*
X546Y905D01*
X546Y903D01*
X536Y903D01*
X536Y901D01*
X1050Y901D01*
X1050Y799D01*
X1176Y799D01*
X1176Y809D01*
X1174Y809D01*
X1174Y811D01*
X1170Y811D01*
X1170Y813D01*
X1168Y813D01*
X1168Y815D01*
X1166Y815D01*
X1166Y817D01*
X1164Y817D01*
X1164Y819D01*
X1162Y819D01*
X1162Y823D01*
X1160Y823D01*
X1160Y825D01*
X1158Y825D01*
X1158Y829D01*
X1156Y829D01*
X1156Y833D01*
X1154Y833D01*
X1154Y841D01*
X1152Y841D01*
X1152Y857D01*
X1154Y857D01*
X1154Y865D01*
X1156Y865D01*
X1156Y869D01*
X1158Y869D01*
X1158Y873D01*
X1160Y873D01*
X1160Y877D01*
X1162Y877D01*
X1162Y879D01*
X1164Y879D01*
X1164Y881D01*
X1166Y881D01*
X1166Y901D01*
X1152Y901D01*
X1152Y997D01*
X540Y997D01*
G37*
D02*
G36*
X1248Y997D02*
X1248Y903D01*
X1246Y903D01*
X1246Y901D01*
X1234Y901D01*
X1234Y881D01*
X1236Y881D01*
X1236Y879D01*
X1238Y879D01*
X1238Y875D01*
X1240Y875D01*
X1240Y873D01*
X1242Y873D01*
X1242Y869D01*
X1244Y869D01*
X1244Y863D01*
X1246Y863D01*
X1246Y853D01*
X1248Y853D01*
X1248Y847D01*
X1246Y847D01*
X1246Y837D01*
X1244Y837D01*
X1244Y831D01*
X1242Y831D01*
X1242Y827D01*
X1240Y827D01*
X1240Y823D01*
X1238Y823D01*
X1238Y821D01*
X1236Y821D01*
X1236Y817D01*
X1234Y817D01*
X1234Y815D01*
X1232Y815D01*
X1232Y813D01*
X1228Y813D01*
X1228Y811D01*
X1226Y811D01*
X1226Y809D01*
X1224Y809D01*
X1224Y789D01*
X1228Y789D01*
X1228Y787D01*
X1230Y787D01*
X1230Y785D01*
X1232Y785D01*
X1232Y783D01*
X1234Y783D01*
X1234Y781D01*
X1236Y781D01*
X1236Y779D01*
X1238Y779D01*
X1238Y775D01*
X1240Y775D01*
X1240Y773D01*
X1242Y773D01*
X1242Y769D01*
X1244Y769D01*
X1244Y763D01*
X1246Y763D01*
X1246Y753D01*
X1248Y753D01*
X1248Y747D01*
X1246Y747D01*
X1246Y737D01*
X1244Y737D01*
X1244Y731D01*
X1242Y731D01*
X1242Y727D01*
X1240Y727D01*
X1240Y723D01*
X1238Y723D01*
X1238Y721D01*
X1236Y721D01*
X1236Y717D01*
X1234Y717D01*
X1234Y715D01*
X1232Y715D01*
X1232Y713D01*
X1228Y713D01*
X1228Y711D01*
X1226Y711D01*
X1226Y709D01*
X1224Y709D01*
X1224Y689D01*
X1228Y689D01*
X1228Y687D01*
X1230Y687D01*
X1230Y685D01*
X1232Y685D01*
X1232Y683D01*
X1234Y683D01*
X1234Y681D01*
X1236Y681D01*
X1236Y679D01*
X1238Y679D01*
X1238Y675D01*
X1240Y675D01*
X1240Y673D01*
X1242Y673D01*
X1242Y669D01*
X1244Y669D01*
X1244Y663D01*
X1246Y663D01*
X1246Y653D01*
X1248Y653D01*
X1248Y647D01*
X1246Y647D01*
X1246Y637D01*
X1244Y637D01*
X1244Y631D01*
X1242Y631D01*
X1242Y627D01*
X1240Y627D01*
X1240Y623D01*
X1238Y623D01*
X1238Y621D01*
X1236Y621D01*
X1236Y617D01*
X1234Y617D01*
X1234Y615D01*
X1232Y615D01*
X1232Y613D01*
X1228Y613D01*
X1228Y611D01*
X1226Y611D01*
X1226Y609D01*
X1222Y609D01*
X1222Y607D01*
X1218Y607D01*
X1218Y605D01*
X1212Y605D01*
X1212Y603D01*
X1202Y603D01*
X1202Y601D01*
X1498Y601D01*
X1498Y603D01*
X1486Y603D01*
X1486Y605D01*
X1480Y605D01*
X1480Y607D01*
X1476Y607D01*
X1476Y609D01*
X1474Y609D01*
X1474Y611D01*
X1470Y611D01*
X1470Y613D01*
X1468Y613D01*
X1468Y615D01*
X1466Y615D01*
X1466Y617D01*
X1464Y617D01*
X1464Y619D01*
X1462Y619D01*
X1462Y623D01*
X1460Y623D01*
X1460Y625D01*
X1458Y625D01*
X1458Y629D01*
X1456Y629D01*
X1456Y633D01*
X1454Y633D01*
X1454Y641D01*
X1452Y641D01*
X1452Y657D01*
X1454Y657D01*
X1454Y665D01*
X1456Y665D01*
X1456Y669D01*
X1458Y669D01*
X1458Y673D01*
X1460Y673D01*
X1460Y677D01*
X1462Y677D01*
X1462Y679D01*
X1464Y679D01*
X1464Y681D01*
X1466Y681D01*
X1466Y683D01*
X1468Y683D01*
X1468Y685D01*
X1470Y685D01*
X1470Y687D01*
X1472Y687D01*
X1472Y689D01*
X1476Y689D01*
X1476Y709D01*
X1474Y709D01*
X1474Y711D01*
X1470Y711D01*
X1470Y713D01*
X1468Y713D01*
X1468Y715D01*
X1466Y715D01*
X1466Y717D01*
X1464Y717D01*
X1464Y719D01*
X1462Y719D01*
X1462Y723D01*
X1460Y723D01*
X1460Y725D01*
X1458Y725D01*
X1458Y729D01*
X1456Y729D01*
X1456Y733D01*
X1454Y733D01*
X1454Y741D01*
X1452Y741D01*
X1452Y757D01*
X1454Y757D01*
X1454Y765D01*
X1456Y765D01*
X1456Y769D01*
X1458Y769D01*
X1458Y773D01*
X1460Y773D01*
X1460Y777D01*
X1462Y777D01*
X1462Y779D01*
X1464Y779D01*
X1464Y781D01*
X1466Y781D01*
X1466Y783D01*
X1468Y783D01*
X1468Y785D01*
X1470Y785D01*
X1470Y787D01*
X1472Y787D01*
X1472Y789D01*
X1476Y789D01*
X1476Y809D01*
X1474Y809D01*
X1474Y811D01*
X1470Y811D01*
X1470Y813D01*
X1468Y813D01*
X1468Y815D01*
X1466Y815D01*
X1466Y817D01*
X1464Y817D01*
X1464Y819D01*
X1462Y819D01*
X1462Y823D01*
X1460Y823D01*
X1460Y825D01*
X1458Y825D01*
X1458Y829D01*
X1456Y829D01*
X1456Y833D01*
X1454Y833D01*
X1454Y841D01*
X1452Y841D01*
X1452Y857D01*
X1454Y857D01*
X1454Y865D01*
X1456Y865D01*
X1456Y869D01*
X1458Y869D01*
X1458Y873D01*
X1460Y873D01*
X1460Y877D01*
X1462Y877D01*
X1462Y879D01*
X1464Y879D01*
X1464Y881D01*
X1466Y881D01*
X1466Y883D01*
X1468Y883D01*
X1468Y885D01*
X1470Y885D01*
X1470Y887D01*
X1472Y887D01*
X1472Y889D01*
X1476Y889D01*
X1476Y909D01*
X1474Y909D01*
X1474Y911D01*
X1470Y911D01*
X1470Y913D01*
X1468Y913D01*
X1468Y915D01*
X1466Y915D01*
X1466Y917D01*
X1464Y917D01*
X1464Y919D01*
X1462Y919D01*
X1462Y923D01*
X1460Y923D01*
X1460Y925D01*
X1458Y925D01*
X1458Y929D01*
X1456Y929D01*
X1456Y933D01*
X1454Y933D01*
X1454Y941D01*
X1452Y941D01*
X1452Y957D01*
X1454Y957D01*
X1454Y965D01*
X1456Y965D01*
X1456Y969D01*
X1458Y969D01*
X1458Y973D01*
X1460Y973D01*
X1460Y977D01*
X1462Y977D01*
X1462Y979D01*
X1464Y979D01*
X1464Y981D01*
X1466Y981D01*
X1466Y983D01*
X1468Y983D01*
X1468Y985D01*
X1470Y985D01*
X1470Y987D01*
X1472Y987D01*
X1472Y989D01*
X1476Y989D01*
X1476Y991D01*
X1480Y991D01*
X1480Y993D01*
X1484Y993D01*
X1484Y995D01*
X1492Y995D01*
X1492Y997D01*
X1248Y997D01*
G37*
D02*
G36*
X2440Y923D02*
X2440Y921D01*
X2438Y921D01*
X2438Y917D01*
X2436Y917D01*
X2436Y915D01*
X2434Y915D01*
X2434Y913D01*
X2430Y913D01*
X2430Y911D01*
X2428Y911D01*
X2428Y909D01*
X2426Y909D01*
X2426Y907D01*
X2422Y907D01*
X2422Y905D01*
X2418Y905D01*
X2418Y903D01*
X2412Y903D01*
X2412Y901D01*
X2488Y901D01*
X2488Y903D01*
X2482Y903D01*
X2482Y905D01*
X2478Y905D01*
X2478Y907D01*
X2474Y907D01*
X2474Y909D01*
X2470Y909D01*
X2470Y911D01*
X2468Y911D01*
X2468Y913D01*
X2466Y913D01*
X2466Y915D01*
X2464Y915D01*
X2464Y917D01*
X2462Y917D01*
X2462Y919D01*
X2460Y919D01*
X2460Y923D01*
X2440Y923D01*
G37*
D02*
G36*
X2530Y913D02*
X2530Y911D01*
X2528Y911D01*
X2528Y909D01*
X2526Y909D01*
X2526Y907D01*
X2522Y907D01*
X2522Y905D01*
X2518Y905D01*
X2518Y903D01*
X2512Y903D01*
X2512Y901D01*
X2550Y901D01*
X2550Y913D01*
X2530Y913D01*
G37*
D02*
G36*
X390Y901D02*
X390Y899D01*
X948Y899D01*
X948Y901D01*
X390Y901D01*
G37*
D02*
G36*
X390Y901D02*
X390Y899D01*
X948Y899D01*
X948Y901D01*
X390Y901D01*
G37*
D02*
G36*
X2322Y901D02*
X2322Y899D01*
X2664Y899D01*
X2664Y901D01*
X2322Y901D01*
G37*
D02*
G36*
X2322Y901D02*
X2322Y899D01*
X2664Y899D01*
X2664Y901D01*
X2322Y901D01*
G37*
D02*
G36*
X2322Y901D02*
X2322Y899D01*
X2664Y899D01*
X2664Y901D01*
X2322Y901D01*
G37*
D02*
G36*
X388Y899D02*
X388Y897D01*
X386Y897D01*
X386Y895D01*
X384Y895D01*
X384Y893D01*
X380Y893D01*
X380Y891D01*
X378Y891D01*
X378Y889D01*
X374Y889D01*
X374Y887D01*
X372Y887D01*
X372Y885D01*
X368Y885D01*
X368Y883D01*
X364Y883D01*
X364Y881D01*
X358Y881D01*
X358Y879D01*
X350Y879D01*
X350Y877D01*
X592Y877D01*
X592Y879D01*
X594Y879D01*
X594Y881D01*
X596Y881D01*
X596Y885D01*
X600Y885D01*
X600Y887D01*
X602Y887D01*
X602Y889D01*
X604Y889D01*
X604Y891D01*
X608Y891D01*
X608Y893D01*
X612Y893D01*
X612Y895D01*
X616Y895D01*
X616Y897D01*
X626Y897D01*
X626Y899D01*
X388Y899D01*
G37*
D02*
G36*
X636Y899D02*
X636Y897D01*
X808Y897D01*
X808Y895D01*
X816Y895D01*
X816Y893D01*
X820Y893D01*
X820Y891D01*
X824Y891D01*
X824Y889D01*
X828Y889D01*
X828Y887D01*
X830Y887D01*
X830Y885D01*
X832Y885D01*
X832Y883D01*
X834Y883D01*
X834Y881D01*
X836Y881D01*
X836Y879D01*
X838Y879D01*
X838Y875D01*
X840Y875D01*
X840Y873D01*
X842Y873D01*
X842Y871D01*
X948Y871D01*
X948Y899D01*
X636Y899D01*
G37*
D02*
G36*
X2322Y899D02*
X2322Y499D01*
X2504Y499D01*
X2504Y497D01*
X2514Y497D01*
X2514Y495D01*
X2520Y495D01*
X2520Y493D01*
X2524Y493D01*
X2524Y491D01*
X2526Y491D01*
X2526Y489D01*
X2530Y489D01*
X2530Y487D01*
X2532Y487D01*
X2532Y485D01*
X2534Y485D01*
X2534Y483D01*
X2536Y483D01*
X2536Y481D01*
X2538Y481D01*
X2538Y479D01*
X2540Y479D01*
X2540Y475D01*
X2542Y475D01*
X2542Y471D01*
X2544Y471D01*
X2544Y467D01*
X2546Y467D01*
X2546Y461D01*
X2548Y461D01*
X2548Y437D01*
X2546Y437D01*
X2546Y431D01*
X2544Y431D01*
X2544Y427D01*
X2542Y427D01*
X2542Y423D01*
X2540Y423D01*
X2540Y421D01*
X2538Y421D01*
X2538Y417D01*
X2536Y417D01*
X2536Y415D01*
X2534Y415D01*
X2534Y413D01*
X2530Y413D01*
X2530Y411D01*
X2528Y411D01*
X2528Y409D01*
X2526Y409D01*
X2526Y407D01*
X2524Y407D01*
X2524Y345D01*
X2526Y345D01*
X2526Y283D01*
X2528Y283D01*
X2528Y221D01*
X2530Y221D01*
X2530Y157D01*
X2532Y157D01*
X2532Y137D01*
X2534Y137D01*
X2534Y135D01*
X2536Y135D01*
X2536Y133D01*
X2538Y133D01*
X2538Y131D01*
X2542Y131D01*
X2542Y127D01*
X2544Y127D01*
X2544Y125D01*
X2564Y125D01*
X2564Y147D01*
X2566Y147D01*
X2566Y149D01*
X2568Y149D01*
X2568Y151D01*
X2570Y151D01*
X2570Y153D01*
X2572Y153D01*
X2572Y155D01*
X2574Y155D01*
X2574Y157D01*
X2576Y157D01*
X2576Y159D01*
X2578Y159D01*
X2578Y161D01*
X2580Y161D01*
X2580Y163D01*
X2582Y163D01*
X2582Y165D01*
X2584Y165D01*
X2584Y167D01*
X2586Y167D01*
X2586Y169D01*
X2588Y169D01*
X2588Y171D01*
X2590Y171D01*
X2590Y173D01*
X2592Y173D01*
X2592Y175D01*
X2594Y175D01*
X2594Y177D01*
X2596Y177D01*
X2596Y179D01*
X2598Y179D01*
X2598Y181D01*
X2600Y181D01*
X2600Y183D01*
X2602Y183D01*
X2602Y185D01*
X2604Y185D01*
X2604Y187D01*
X2606Y187D01*
X2606Y189D01*
X2608Y189D01*
X2608Y191D01*
X2610Y191D01*
X2610Y193D01*
X2612Y193D01*
X2612Y195D01*
X2614Y195D01*
X2614Y197D01*
X2616Y197D01*
X2616Y199D01*
X2618Y199D01*
X2618Y201D01*
X2620Y201D01*
X2620Y203D01*
X2622Y203D01*
X2622Y205D01*
X2624Y205D01*
X2624Y207D01*
X2626Y207D01*
X2626Y209D01*
X2628Y209D01*
X2628Y211D01*
X2630Y211D01*
X2630Y213D01*
X2632Y213D01*
X2632Y215D01*
X2634Y215D01*
X2634Y217D01*
X2636Y217D01*
X2636Y219D01*
X2638Y219D01*
X2638Y221D01*
X2640Y221D01*
X2640Y223D01*
X2642Y223D01*
X2642Y225D01*
X2644Y225D01*
X2644Y227D01*
X2646Y227D01*
X2646Y229D01*
X2648Y229D01*
X2648Y231D01*
X2650Y231D01*
X2650Y233D01*
X2652Y233D01*
X2652Y235D01*
X2654Y235D01*
X2654Y237D01*
X2656Y237D01*
X2656Y239D01*
X2658Y239D01*
X2658Y241D01*
X2660Y241D01*
X2660Y243D01*
X2662Y243D01*
X2662Y245D01*
X2664Y245D01*
X2664Y899D01*
X2322Y899D01*
G37*
D02*
G36*
X644Y897D02*
X644Y895D01*
X650Y895D01*
X650Y893D01*
X654Y893D01*
X654Y891D01*
X658Y891D01*
X658Y889D01*
X660Y889D01*
X660Y887D01*
X662Y887D01*
X662Y885D01*
X664Y885D01*
X664Y883D01*
X666Y883D01*
X666Y881D01*
X668Y881D01*
X668Y879D01*
X670Y879D01*
X670Y875D01*
X672Y875D01*
X672Y873D01*
X674Y873D01*
X674Y867D01*
X676Y867D01*
X676Y861D01*
X678Y861D01*
X678Y841D01*
X680Y841D01*
X680Y839D01*
X682Y839D01*
X682Y837D01*
X684Y837D01*
X684Y835D01*
X686Y835D01*
X686Y833D01*
X690Y833D01*
X690Y831D01*
X692Y831D01*
X692Y829D01*
X694Y829D01*
X694Y827D01*
X696Y827D01*
X696Y825D01*
X698Y825D01*
X698Y823D01*
X702Y823D01*
X702Y821D01*
X704Y821D01*
X704Y819D01*
X706Y819D01*
X706Y817D01*
X708Y817D01*
X708Y815D01*
X712Y815D01*
X712Y813D01*
X714Y813D01*
X714Y811D01*
X716Y811D01*
X716Y809D01*
X718Y809D01*
X718Y807D01*
X722Y807D01*
X722Y805D01*
X724Y805D01*
X724Y803D01*
X726Y803D01*
X726Y801D01*
X798Y801D01*
X798Y803D01*
X786Y803D01*
X786Y805D01*
X780Y805D01*
X780Y807D01*
X776Y807D01*
X776Y809D01*
X774Y809D01*
X774Y811D01*
X770Y811D01*
X770Y813D01*
X768Y813D01*
X768Y815D01*
X766Y815D01*
X766Y817D01*
X764Y817D01*
X764Y819D01*
X762Y819D01*
X762Y823D01*
X760Y823D01*
X760Y825D01*
X758Y825D01*
X758Y829D01*
X756Y829D01*
X756Y833D01*
X754Y833D01*
X754Y841D01*
X752Y841D01*
X752Y857D01*
X754Y857D01*
X754Y865D01*
X756Y865D01*
X756Y869D01*
X758Y869D01*
X758Y873D01*
X760Y873D01*
X760Y877D01*
X762Y877D01*
X762Y879D01*
X764Y879D01*
X764Y881D01*
X766Y881D01*
X766Y883D01*
X768Y883D01*
X768Y885D01*
X770Y885D01*
X770Y887D01*
X772Y887D01*
X772Y889D01*
X776Y889D01*
X776Y891D01*
X780Y891D01*
X780Y893D01*
X784Y893D01*
X784Y895D01*
X792Y895D01*
X792Y897D01*
X644Y897D01*
G37*
D02*
G36*
X1524Y897D02*
X1524Y889D01*
X1528Y889D01*
X1528Y887D01*
X1530Y887D01*
X1530Y885D01*
X1532Y885D01*
X1532Y883D01*
X1534Y883D01*
X1534Y881D01*
X1536Y881D01*
X1536Y879D01*
X1538Y879D01*
X1538Y875D01*
X1540Y875D01*
X1540Y873D01*
X1542Y873D01*
X1542Y871D01*
X1658Y871D01*
X1658Y873D01*
X1660Y873D01*
X1660Y877D01*
X1662Y877D01*
X1662Y879D01*
X1664Y879D01*
X1664Y881D01*
X1666Y881D01*
X1666Y883D01*
X1668Y883D01*
X1668Y885D01*
X1670Y885D01*
X1670Y887D01*
X1672Y887D01*
X1672Y889D01*
X1676Y889D01*
X1676Y891D01*
X1680Y891D01*
X1680Y893D01*
X1684Y893D01*
X1684Y895D01*
X1692Y895D01*
X1692Y897D01*
X1524Y897D01*
G37*
D02*
G36*
X52Y877D02*
X52Y875D01*
X590Y875D01*
X590Y877D01*
X52Y877D01*
G37*
D02*
G36*
X52Y877D02*
X52Y875D01*
X590Y875D01*
X590Y877D01*
X52Y877D01*
G37*
D02*
G36*
X52Y875D02*
X52Y799D01*
X152Y799D01*
X152Y797D01*
X158Y797D01*
X158Y795D01*
X162Y795D01*
X162Y793D01*
X164Y793D01*
X164Y791D01*
X168Y791D01*
X168Y789D01*
X170Y789D01*
X170Y787D01*
X172Y787D01*
X172Y785D01*
X174Y785D01*
X174Y783D01*
X176Y783D01*
X176Y781D01*
X178Y781D01*
X178Y777D01*
X180Y777D01*
X180Y773D01*
X182Y773D01*
X182Y769D01*
X184Y769D01*
X184Y763D01*
X186Y763D01*
X186Y743D01*
X184Y743D01*
X184Y735D01*
X182Y735D01*
X182Y731D01*
X180Y731D01*
X180Y727D01*
X178Y727D01*
X178Y725D01*
X176Y725D01*
X176Y723D01*
X174Y723D01*
X174Y719D01*
X172Y719D01*
X172Y717D01*
X168Y717D01*
X168Y715D01*
X166Y715D01*
X166Y713D01*
X164Y713D01*
X164Y711D01*
X160Y711D01*
X160Y709D01*
X154Y709D01*
X154Y707D01*
X148Y707D01*
X148Y705D01*
X774Y705D01*
X774Y707D01*
X772Y707D01*
X772Y709D01*
X770Y709D01*
X770Y711D01*
X766Y711D01*
X766Y713D01*
X764Y713D01*
X764Y715D01*
X762Y715D01*
X762Y717D01*
X760Y717D01*
X760Y719D01*
X758Y719D01*
X758Y721D01*
X754Y721D01*
X754Y723D01*
X752Y723D01*
X752Y725D01*
X750Y725D01*
X750Y727D01*
X748Y727D01*
X748Y729D01*
X744Y729D01*
X744Y731D01*
X742Y731D01*
X742Y733D01*
X740Y733D01*
X740Y735D01*
X738Y735D01*
X738Y737D01*
X734Y737D01*
X734Y739D01*
X732Y739D01*
X732Y741D01*
X730Y741D01*
X730Y743D01*
X728Y743D01*
X728Y745D01*
X726Y745D01*
X726Y747D01*
X722Y747D01*
X722Y749D01*
X720Y749D01*
X720Y751D01*
X718Y751D01*
X718Y753D01*
X716Y753D01*
X716Y755D01*
X712Y755D01*
X712Y757D01*
X710Y757D01*
X710Y759D01*
X708Y759D01*
X708Y761D01*
X706Y761D01*
X706Y763D01*
X702Y763D01*
X702Y765D01*
X700Y765D01*
X700Y767D01*
X698Y767D01*
X698Y769D01*
X696Y769D01*
X696Y771D01*
X694Y771D01*
X694Y773D01*
X690Y773D01*
X690Y775D01*
X688Y775D01*
X688Y777D01*
X686Y777D01*
X686Y779D01*
X684Y779D01*
X684Y781D01*
X680Y781D01*
X680Y783D01*
X678Y783D01*
X678Y785D01*
X676Y785D01*
X676Y787D01*
X674Y787D01*
X674Y789D01*
X670Y789D01*
X670Y791D01*
X668Y791D01*
X668Y793D01*
X666Y793D01*
X666Y795D01*
X664Y795D01*
X664Y797D01*
X662Y797D01*
X662Y799D01*
X658Y799D01*
X658Y801D01*
X656Y801D01*
X656Y803D01*
X624Y803D01*
X624Y805D01*
X616Y805D01*
X616Y807D01*
X610Y807D01*
X610Y809D01*
X608Y809D01*
X608Y811D01*
X604Y811D01*
X604Y813D01*
X602Y813D01*
X602Y815D01*
X598Y815D01*
X598Y817D01*
X596Y817D01*
X596Y821D01*
X594Y821D01*
X594Y823D01*
X592Y823D01*
X592Y825D01*
X590Y825D01*
X590Y829D01*
X588Y829D01*
X588Y833D01*
X586Y833D01*
X586Y839D01*
X584Y839D01*
X584Y863D01*
X586Y863D01*
X586Y869D01*
X588Y869D01*
X588Y873D01*
X590Y873D01*
X590Y875D01*
X52Y875D01*
G37*
D02*
G36*
X840Y827D02*
X840Y823D01*
X838Y823D01*
X838Y821D01*
X836Y821D01*
X836Y817D01*
X834Y817D01*
X834Y815D01*
X832Y815D01*
X832Y813D01*
X828Y813D01*
X828Y811D01*
X826Y811D01*
X826Y809D01*
X822Y809D01*
X822Y807D01*
X818Y807D01*
X818Y805D01*
X812Y805D01*
X812Y803D01*
X802Y803D01*
X802Y801D01*
X948Y801D01*
X948Y827D01*
X840Y827D01*
G37*
D02*
G36*
X1540Y827D02*
X1540Y823D01*
X1538Y823D01*
X1538Y821D01*
X1536Y821D01*
X1536Y817D01*
X1534Y817D01*
X1534Y815D01*
X1532Y815D01*
X1532Y813D01*
X1528Y813D01*
X1528Y811D01*
X1526Y811D01*
X1526Y809D01*
X1524Y809D01*
X1524Y801D01*
X1698Y801D01*
X1698Y803D01*
X1686Y803D01*
X1686Y805D01*
X1680Y805D01*
X1680Y807D01*
X1676Y807D01*
X1676Y809D01*
X1674Y809D01*
X1674Y811D01*
X1670Y811D01*
X1670Y813D01*
X1668Y813D01*
X1668Y815D01*
X1666Y815D01*
X1666Y817D01*
X1664Y817D01*
X1664Y819D01*
X1662Y819D01*
X1662Y823D01*
X1660Y823D01*
X1660Y825D01*
X1658Y825D01*
X1658Y827D01*
X1540Y827D01*
G37*
D02*
G36*
X728Y801D02*
X728Y799D01*
X948Y799D01*
X948Y801D01*
X728Y801D01*
G37*
D02*
G36*
X728Y801D02*
X728Y799D01*
X948Y799D01*
X948Y801D01*
X728Y801D01*
G37*
D02*
G36*
X1524Y801D02*
X1524Y799D01*
X2278Y799D01*
X2278Y801D01*
X1524Y801D01*
G37*
D02*
G36*
X1524Y801D02*
X1524Y799D01*
X2278Y799D01*
X2278Y801D01*
X1524Y801D01*
G37*
D02*
G36*
X52Y799D02*
X52Y705D01*
X130Y705D01*
X130Y707D01*
X122Y707D01*
X122Y709D01*
X118Y709D01*
X118Y711D01*
X114Y711D01*
X114Y713D01*
X112Y713D01*
X112Y715D01*
X108Y715D01*
X108Y717D01*
X106Y717D01*
X106Y719D01*
X104Y719D01*
X104Y721D01*
X102Y721D01*
X102Y723D01*
X100Y723D01*
X100Y727D01*
X98Y727D01*
X98Y731D01*
X96Y731D01*
X96Y733D01*
X94Y733D01*
X94Y741D01*
X92Y741D01*
X92Y765D01*
X94Y765D01*
X94Y771D01*
X96Y771D01*
X96Y775D01*
X98Y775D01*
X98Y779D01*
X100Y779D01*
X100Y781D01*
X102Y781D01*
X102Y783D01*
X104Y783D01*
X104Y785D01*
X106Y785D01*
X106Y787D01*
X108Y787D01*
X108Y789D01*
X110Y789D01*
X110Y791D01*
X112Y791D01*
X112Y793D01*
X116Y793D01*
X116Y795D01*
X120Y795D01*
X120Y797D01*
X126Y797D01*
X126Y799D01*
X52Y799D01*
G37*
D02*
G36*
X730Y799D02*
X730Y797D01*
X1176Y797D01*
X1176Y799D01*
X730Y799D01*
G37*
D02*
G36*
X730Y799D02*
X730Y797D01*
X1176Y797D01*
X1176Y799D01*
X730Y799D01*
G37*
D02*
G36*
X1524Y799D02*
X1524Y789D01*
X1528Y789D01*
X1528Y787D01*
X1530Y787D01*
X1530Y785D01*
X1532Y785D01*
X1532Y783D01*
X1534Y783D01*
X1534Y781D01*
X1536Y781D01*
X1536Y779D01*
X1538Y779D01*
X1538Y775D01*
X1540Y775D01*
X1540Y773D01*
X1542Y773D01*
X1542Y769D01*
X1544Y769D01*
X1544Y763D01*
X1546Y763D01*
X1546Y761D01*
X1548Y761D01*
X1548Y759D01*
X1556Y759D01*
X1556Y757D01*
X1564Y757D01*
X1564Y755D01*
X1572Y755D01*
X1572Y753D01*
X1580Y753D01*
X1580Y751D01*
X1588Y751D01*
X1588Y749D01*
X1596Y749D01*
X1596Y747D01*
X1604Y747D01*
X1604Y745D01*
X1612Y745D01*
X1612Y743D01*
X1620Y743D01*
X1620Y741D01*
X1628Y741D01*
X1628Y739D01*
X1636Y739D01*
X1636Y737D01*
X1644Y737D01*
X1644Y735D01*
X1652Y735D01*
X1652Y733D01*
X1660Y733D01*
X1660Y731D01*
X1668Y731D01*
X1668Y729D01*
X1676Y729D01*
X1676Y727D01*
X1684Y727D01*
X1684Y725D01*
X1692Y725D01*
X1692Y723D01*
X1700Y723D01*
X1700Y721D01*
X1708Y721D01*
X1708Y719D01*
X1716Y719D01*
X1716Y717D01*
X1724Y717D01*
X1724Y715D01*
X1732Y715D01*
X1732Y713D01*
X1740Y713D01*
X1740Y711D01*
X1748Y711D01*
X1748Y709D01*
X1756Y709D01*
X1756Y707D01*
X1764Y707D01*
X1764Y705D01*
X1772Y705D01*
X1772Y703D01*
X1780Y703D01*
X1780Y701D01*
X1788Y701D01*
X1788Y699D01*
X1796Y699D01*
X1796Y697D01*
X1908Y697D01*
X1908Y695D01*
X1916Y695D01*
X1916Y693D01*
X1920Y693D01*
X1920Y691D01*
X1924Y691D01*
X1924Y689D01*
X1928Y689D01*
X1928Y687D01*
X1930Y687D01*
X1930Y685D01*
X1932Y685D01*
X1932Y683D01*
X1934Y683D01*
X1934Y681D01*
X1936Y681D01*
X1936Y679D01*
X1938Y679D01*
X1938Y675D01*
X1940Y675D01*
X1940Y673D01*
X1942Y673D01*
X1942Y669D01*
X1944Y669D01*
X1944Y663D01*
X1946Y663D01*
X1946Y653D01*
X1948Y653D01*
X1948Y647D01*
X1946Y647D01*
X1946Y637D01*
X1944Y637D01*
X1944Y631D01*
X1942Y631D01*
X1942Y627D01*
X1940Y627D01*
X1940Y623D01*
X1938Y623D01*
X1938Y621D01*
X1936Y621D01*
X1936Y617D01*
X1934Y617D01*
X1934Y615D01*
X1932Y615D01*
X1932Y613D01*
X1928Y613D01*
X1928Y611D01*
X1926Y611D01*
X1926Y609D01*
X1922Y609D01*
X1922Y607D01*
X1918Y607D01*
X1918Y605D01*
X1912Y605D01*
X1912Y603D01*
X1902Y603D01*
X1902Y601D01*
X2278Y601D01*
X2278Y799D01*
X1524Y799D01*
G37*
D02*
G36*
X734Y797D02*
X734Y795D01*
X736Y795D01*
X736Y793D01*
X738Y793D01*
X738Y791D01*
X740Y791D01*
X740Y789D01*
X744Y789D01*
X744Y787D01*
X746Y787D01*
X746Y785D01*
X748Y785D01*
X748Y783D01*
X750Y783D01*
X750Y781D01*
X754Y781D01*
X754Y779D01*
X756Y779D01*
X756Y777D01*
X758Y777D01*
X758Y775D01*
X760Y775D01*
X760Y773D01*
X762Y773D01*
X762Y771D01*
X766Y771D01*
X766Y769D01*
X768Y769D01*
X768Y767D01*
X770Y767D01*
X770Y765D01*
X772Y765D01*
X772Y763D01*
X776Y763D01*
X776Y761D01*
X778Y761D01*
X778Y759D01*
X780Y759D01*
X780Y757D01*
X782Y757D01*
X782Y755D01*
X786Y755D01*
X786Y753D01*
X788Y753D01*
X788Y751D01*
X790Y751D01*
X790Y749D01*
X792Y749D01*
X792Y747D01*
X794Y747D01*
X794Y745D01*
X798Y745D01*
X798Y743D01*
X800Y743D01*
X800Y741D01*
X802Y741D01*
X802Y739D01*
X804Y739D01*
X804Y737D01*
X808Y737D01*
X808Y735D01*
X810Y735D01*
X810Y733D01*
X812Y733D01*
X812Y731D01*
X814Y731D01*
X814Y729D01*
X818Y729D01*
X818Y727D01*
X820Y727D01*
X820Y725D01*
X822Y725D01*
X822Y723D01*
X824Y723D01*
X824Y721D01*
X826Y721D01*
X826Y719D01*
X830Y719D01*
X830Y717D01*
X832Y717D01*
X832Y715D01*
X834Y715D01*
X834Y713D01*
X836Y713D01*
X836Y711D01*
X840Y711D01*
X840Y709D01*
X842Y709D01*
X842Y707D01*
X844Y707D01*
X844Y705D01*
X846Y705D01*
X846Y703D01*
X850Y703D01*
X850Y701D01*
X852Y701D01*
X852Y699D01*
X854Y699D01*
X854Y697D01*
X856Y697D01*
X856Y695D01*
X858Y695D01*
X858Y693D01*
X862Y693D01*
X862Y691D01*
X864Y691D01*
X864Y689D01*
X866Y689D01*
X866Y687D01*
X868Y687D01*
X868Y685D01*
X872Y685D01*
X872Y683D01*
X874Y683D01*
X874Y681D01*
X876Y681D01*
X876Y679D01*
X878Y679D01*
X878Y677D01*
X882Y677D01*
X882Y675D01*
X884Y675D01*
X884Y673D01*
X886Y673D01*
X886Y671D01*
X888Y671D01*
X888Y669D01*
X890Y669D01*
X890Y667D01*
X894Y667D01*
X894Y665D01*
X896Y665D01*
X896Y663D01*
X898Y663D01*
X898Y661D01*
X900Y661D01*
X900Y659D01*
X904Y659D01*
X904Y657D01*
X906Y657D01*
X906Y655D01*
X908Y655D01*
X908Y653D01*
X910Y653D01*
X910Y651D01*
X914Y651D01*
X914Y649D01*
X916Y649D01*
X916Y647D01*
X918Y647D01*
X918Y645D01*
X920Y645D01*
X920Y643D01*
X922Y643D01*
X922Y641D01*
X926Y641D01*
X926Y639D01*
X928Y639D01*
X928Y637D01*
X930Y637D01*
X930Y635D01*
X932Y635D01*
X932Y633D01*
X936Y633D01*
X936Y631D01*
X938Y631D01*
X938Y629D01*
X940Y629D01*
X940Y627D01*
X942Y627D01*
X942Y625D01*
X946Y625D01*
X946Y623D01*
X948Y623D01*
X948Y621D01*
X950Y621D01*
X950Y619D01*
X952Y619D01*
X952Y617D01*
X954Y617D01*
X954Y615D01*
X958Y615D01*
X958Y613D01*
X960Y613D01*
X960Y611D01*
X962Y611D01*
X962Y609D01*
X964Y609D01*
X964Y607D01*
X968Y607D01*
X968Y605D01*
X970Y605D01*
X970Y603D01*
X972Y603D01*
X972Y601D01*
X994Y601D01*
X994Y603D01*
X1022Y603D01*
X1022Y605D01*
X1024Y605D01*
X1024Y607D01*
X1026Y607D01*
X1026Y609D01*
X1028Y609D01*
X1028Y611D01*
X1030Y611D01*
X1030Y613D01*
X1032Y613D01*
X1032Y615D01*
X1034Y615D01*
X1034Y617D01*
X1036Y617D01*
X1036Y619D01*
X1038Y619D01*
X1038Y621D01*
X1040Y621D01*
X1040Y623D01*
X1042Y623D01*
X1042Y625D01*
X1044Y625D01*
X1044Y627D01*
X1046Y627D01*
X1046Y629D01*
X1048Y629D01*
X1048Y631D01*
X1050Y631D01*
X1050Y633D01*
X1052Y633D01*
X1052Y635D01*
X1054Y635D01*
X1054Y637D01*
X1056Y637D01*
X1056Y639D01*
X1058Y639D01*
X1058Y641D01*
X1060Y641D01*
X1060Y643D01*
X1062Y643D01*
X1062Y645D01*
X1064Y645D01*
X1064Y647D01*
X1066Y647D01*
X1066Y649D01*
X1068Y649D01*
X1068Y651D01*
X1070Y651D01*
X1070Y653D01*
X1072Y653D01*
X1072Y655D01*
X1074Y655D01*
X1074Y657D01*
X1076Y657D01*
X1076Y659D01*
X1078Y659D01*
X1078Y661D01*
X1080Y661D01*
X1080Y663D01*
X1082Y663D01*
X1082Y665D01*
X1084Y665D01*
X1084Y667D01*
X1086Y667D01*
X1086Y669D01*
X1088Y669D01*
X1088Y671D01*
X1090Y671D01*
X1090Y673D01*
X1092Y673D01*
X1092Y675D01*
X1094Y675D01*
X1094Y677D01*
X1096Y677D01*
X1096Y679D01*
X1098Y679D01*
X1098Y681D01*
X1100Y681D01*
X1100Y683D01*
X1102Y683D01*
X1102Y685D01*
X1104Y685D01*
X1104Y687D01*
X1106Y687D01*
X1106Y689D01*
X1108Y689D01*
X1108Y691D01*
X1110Y691D01*
X1110Y693D01*
X1112Y693D01*
X1112Y695D01*
X1114Y695D01*
X1114Y697D01*
X1116Y697D01*
X1116Y699D01*
X1118Y699D01*
X1118Y701D01*
X1120Y701D01*
X1120Y703D01*
X1122Y703D01*
X1122Y705D01*
X1124Y705D01*
X1124Y707D01*
X1126Y707D01*
X1126Y709D01*
X1128Y709D01*
X1128Y711D01*
X1130Y711D01*
X1130Y713D01*
X1132Y713D01*
X1132Y715D01*
X1134Y715D01*
X1134Y717D01*
X1136Y717D01*
X1136Y719D01*
X1138Y719D01*
X1138Y721D01*
X1140Y721D01*
X1140Y723D01*
X1142Y723D01*
X1142Y725D01*
X1144Y725D01*
X1144Y727D01*
X1146Y727D01*
X1146Y729D01*
X1148Y729D01*
X1148Y731D01*
X1150Y731D01*
X1150Y733D01*
X1152Y733D01*
X1152Y757D01*
X1154Y757D01*
X1154Y765D01*
X1156Y765D01*
X1156Y769D01*
X1158Y769D01*
X1158Y773D01*
X1160Y773D01*
X1160Y777D01*
X1162Y777D01*
X1162Y779D01*
X1164Y779D01*
X1164Y781D01*
X1166Y781D01*
X1166Y783D01*
X1168Y783D01*
X1168Y785D01*
X1170Y785D01*
X1170Y787D01*
X1172Y787D01*
X1172Y789D01*
X1176Y789D01*
X1176Y797D01*
X734Y797D01*
G37*
D02*
G36*
X1528Y713D02*
X1528Y711D01*
X1526Y711D01*
X1526Y709D01*
X1524Y709D01*
X1524Y689D01*
X1528Y689D01*
X1528Y687D01*
X1530Y687D01*
X1530Y685D01*
X1532Y685D01*
X1532Y683D01*
X1534Y683D01*
X1534Y681D01*
X1536Y681D01*
X1536Y679D01*
X1538Y679D01*
X1538Y675D01*
X1540Y675D01*
X1540Y673D01*
X1542Y673D01*
X1542Y669D01*
X1544Y669D01*
X1544Y663D01*
X1546Y663D01*
X1546Y653D01*
X1548Y653D01*
X1548Y647D01*
X1546Y647D01*
X1546Y637D01*
X1544Y637D01*
X1544Y631D01*
X1542Y631D01*
X1542Y627D01*
X1540Y627D01*
X1540Y623D01*
X1538Y623D01*
X1538Y621D01*
X1536Y621D01*
X1536Y617D01*
X1534Y617D01*
X1534Y615D01*
X1532Y615D01*
X1532Y613D01*
X1528Y613D01*
X1528Y611D01*
X1526Y611D01*
X1526Y609D01*
X1522Y609D01*
X1522Y607D01*
X1518Y607D01*
X1518Y605D01*
X1512Y605D01*
X1512Y603D01*
X1502Y603D01*
X1502Y601D01*
X1898Y601D01*
X1898Y603D01*
X1886Y603D01*
X1886Y605D01*
X1880Y605D01*
X1880Y607D01*
X1876Y607D01*
X1876Y609D01*
X1874Y609D01*
X1874Y611D01*
X1870Y611D01*
X1870Y613D01*
X1868Y613D01*
X1868Y615D01*
X1866Y615D01*
X1866Y617D01*
X1864Y617D01*
X1864Y619D01*
X1862Y619D01*
X1862Y623D01*
X1860Y623D01*
X1860Y625D01*
X1858Y625D01*
X1858Y629D01*
X1856Y629D01*
X1856Y633D01*
X1854Y633D01*
X1854Y639D01*
X1846Y639D01*
X1846Y641D01*
X1838Y641D01*
X1838Y643D01*
X1830Y643D01*
X1830Y645D01*
X1822Y645D01*
X1822Y647D01*
X1814Y647D01*
X1814Y649D01*
X1806Y649D01*
X1806Y651D01*
X1798Y651D01*
X1798Y653D01*
X1790Y653D01*
X1790Y655D01*
X1782Y655D01*
X1782Y657D01*
X1774Y657D01*
X1774Y659D01*
X1766Y659D01*
X1766Y661D01*
X1758Y661D01*
X1758Y663D01*
X1750Y663D01*
X1750Y665D01*
X1742Y665D01*
X1742Y667D01*
X1734Y667D01*
X1734Y669D01*
X1726Y669D01*
X1726Y671D01*
X1718Y671D01*
X1718Y673D01*
X1710Y673D01*
X1710Y675D01*
X1702Y675D01*
X1702Y677D01*
X1694Y677D01*
X1694Y679D01*
X1686Y679D01*
X1686Y681D01*
X1678Y681D01*
X1678Y683D01*
X1670Y683D01*
X1670Y685D01*
X1662Y685D01*
X1662Y687D01*
X1654Y687D01*
X1654Y689D01*
X1646Y689D01*
X1646Y691D01*
X1638Y691D01*
X1638Y693D01*
X1630Y693D01*
X1630Y695D01*
X1622Y695D01*
X1622Y697D01*
X1614Y697D01*
X1614Y699D01*
X1606Y699D01*
X1606Y701D01*
X1598Y701D01*
X1598Y703D01*
X1590Y703D01*
X1590Y705D01*
X1582Y705D01*
X1582Y707D01*
X1574Y707D01*
X1574Y709D01*
X1566Y709D01*
X1566Y711D01*
X1558Y711D01*
X1558Y713D01*
X1528Y713D01*
G37*
D02*
G36*
X52Y705D02*
X52Y703D01*
X776Y703D01*
X776Y705D01*
X52Y705D01*
G37*
D02*
G36*
X52Y705D02*
X52Y703D01*
X776Y703D01*
X776Y705D01*
X52Y705D01*
G37*
D02*
G36*
X52Y703D02*
X52Y701D01*
X544Y701D01*
X544Y699D01*
X550Y699D01*
X550Y697D01*
X554Y697D01*
X554Y695D01*
X558Y695D01*
X558Y693D01*
X560Y693D01*
X560Y691D01*
X564Y691D01*
X564Y689D01*
X566Y689D01*
X566Y687D01*
X568Y687D01*
X568Y683D01*
X570Y683D01*
X570Y681D01*
X572Y681D01*
X572Y679D01*
X574Y679D01*
X574Y675D01*
X576Y675D01*
X576Y669D01*
X578Y669D01*
X578Y663D01*
X580Y663D01*
X580Y645D01*
X578Y645D01*
X578Y639D01*
X576Y639D01*
X576Y633D01*
X574Y633D01*
X574Y629D01*
X572Y629D01*
X572Y627D01*
X570Y627D01*
X570Y625D01*
X568Y625D01*
X568Y621D01*
X566Y621D01*
X566Y619D01*
X562Y619D01*
X562Y617D01*
X560Y617D01*
X560Y615D01*
X558Y615D01*
X558Y613D01*
X554Y613D01*
X554Y611D01*
X550Y611D01*
X550Y609D01*
X544Y609D01*
X544Y607D01*
X896Y607D01*
X896Y609D01*
X892Y609D01*
X892Y611D01*
X890Y611D01*
X890Y613D01*
X888Y613D01*
X888Y615D01*
X886Y615D01*
X886Y617D01*
X882Y617D01*
X882Y619D01*
X880Y619D01*
X880Y621D01*
X878Y621D01*
X878Y623D01*
X876Y623D01*
X876Y625D01*
X872Y625D01*
X872Y627D01*
X870Y627D01*
X870Y629D01*
X868Y629D01*
X868Y631D01*
X866Y631D01*
X866Y633D01*
X862Y633D01*
X862Y635D01*
X860Y635D01*
X860Y637D01*
X858Y637D01*
X858Y639D01*
X856Y639D01*
X856Y641D01*
X854Y641D01*
X854Y643D01*
X850Y643D01*
X850Y645D01*
X848Y645D01*
X848Y647D01*
X846Y647D01*
X846Y649D01*
X844Y649D01*
X844Y651D01*
X840Y651D01*
X840Y653D01*
X838Y653D01*
X838Y655D01*
X836Y655D01*
X836Y657D01*
X834Y657D01*
X834Y659D01*
X830Y659D01*
X830Y661D01*
X828Y661D01*
X828Y663D01*
X826Y663D01*
X826Y665D01*
X824Y665D01*
X824Y667D01*
X822Y667D01*
X822Y669D01*
X818Y669D01*
X818Y671D01*
X816Y671D01*
X816Y673D01*
X814Y673D01*
X814Y675D01*
X812Y675D01*
X812Y677D01*
X808Y677D01*
X808Y679D01*
X806Y679D01*
X806Y681D01*
X804Y681D01*
X804Y683D01*
X802Y683D01*
X802Y685D01*
X798Y685D01*
X798Y687D01*
X796Y687D01*
X796Y689D01*
X794Y689D01*
X794Y691D01*
X792Y691D01*
X792Y693D01*
X790Y693D01*
X790Y695D01*
X786Y695D01*
X786Y697D01*
X784Y697D01*
X784Y699D01*
X782Y699D01*
X782Y701D01*
X780Y701D01*
X780Y703D01*
X52Y703D01*
G37*
D02*
G36*
X52Y701D02*
X52Y607D01*
X522Y607D01*
X522Y609D01*
X514Y609D01*
X514Y611D01*
X510Y611D01*
X510Y613D01*
X508Y613D01*
X508Y615D01*
X504Y615D01*
X504Y617D01*
X502Y617D01*
X502Y619D01*
X500Y619D01*
X500Y621D01*
X498Y621D01*
X498Y623D01*
X496Y623D01*
X496Y625D01*
X494Y625D01*
X494Y627D01*
X492Y627D01*
X492Y631D01*
X490Y631D01*
X490Y635D01*
X488Y635D01*
X488Y641D01*
X486Y641D01*
X486Y651D01*
X484Y651D01*
X484Y657D01*
X486Y657D01*
X486Y667D01*
X488Y667D01*
X488Y673D01*
X490Y673D01*
X490Y677D01*
X492Y677D01*
X492Y681D01*
X494Y681D01*
X494Y683D01*
X496Y683D01*
X496Y685D01*
X498Y685D01*
X498Y687D01*
X500Y687D01*
X500Y689D01*
X502Y689D01*
X502Y691D01*
X504Y691D01*
X504Y693D01*
X506Y693D01*
X506Y695D01*
X510Y695D01*
X510Y697D01*
X514Y697D01*
X514Y699D01*
X522Y699D01*
X522Y701D01*
X52Y701D01*
G37*
D02*
G36*
X1804Y697D02*
X1804Y695D01*
X1812Y695D01*
X1812Y693D01*
X1820Y693D01*
X1820Y691D01*
X1828Y691D01*
X1828Y689D01*
X1836Y689D01*
X1836Y687D01*
X1844Y687D01*
X1844Y685D01*
X1870Y685D01*
X1870Y687D01*
X1872Y687D01*
X1872Y689D01*
X1876Y689D01*
X1876Y691D01*
X1880Y691D01*
X1880Y693D01*
X1884Y693D01*
X1884Y695D01*
X1892Y695D01*
X1892Y697D01*
X1804Y697D01*
G37*
D02*
G36*
X1132Y653D02*
X1132Y651D01*
X1130Y651D01*
X1130Y649D01*
X1128Y649D01*
X1128Y647D01*
X1126Y647D01*
X1126Y645D01*
X1124Y645D01*
X1124Y643D01*
X1122Y643D01*
X1122Y641D01*
X1120Y641D01*
X1120Y639D01*
X1118Y639D01*
X1118Y637D01*
X1116Y637D01*
X1116Y635D01*
X1114Y635D01*
X1114Y633D01*
X1112Y633D01*
X1112Y631D01*
X1110Y631D01*
X1110Y629D01*
X1108Y629D01*
X1108Y627D01*
X1106Y627D01*
X1106Y625D01*
X1104Y625D01*
X1104Y623D01*
X1102Y623D01*
X1102Y621D01*
X1100Y621D01*
X1100Y619D01*
X1098Y619D01*
X1098Y617D01*
X1096Y617D01*
X1096Y615D01*
X1094Y615D01*
X1094Y613D01*
X1092Y613D01*
X1092Y611D01*
X1090Y611D01*
X1090Y609D01*
X1088Y609D01*
X1088Y607D01*
X1086Y607D01*
X1086Y605D01*
X1084Y605D01*
X1084Y603D01*
X1082Y603D01*
X1082Y601D01*
X1198Y601D01*
X1198Y603D01*
X1186Y603D01*
X1186Y605D01*
X1180Y605D01*
X1180Y607D01*
X1176Y607D01*
X1176Y609D01*
X1174Y609D01*
X1174Y611D01*
X1170Y611D01*
X1170Y613D01*
X1168Y613D01*
X1168Y615D01*
X1166Y615D01*
X1166Y617D01*
X1164Y617D01*
X1164Y619D01*
X1162Y619D01*
X1162Y623D01*
X1160Y623D01*
X1160Y625D01*
X1158Y625D01*
X1158Y629D01*
X1156Y629D01*
X1156Y633D01*
X1154Y633D01*
X1154Y641D01*
X1152Y641D01*
X1152Y653D01*
X1132Y653D01*
G37*
D02*
G36*
X52Y607D02*
X52Y605D01*
X898Y605D01*
X898Y607D01*
X52Y607D01*
G37*
D02*
G36*
X52Y607D02*
X52Y605D01*
X898Y605D01*
X898Y607D01*
X52Y607D01*
G37*
D02*
G36*
X52Y605D02*
X52Y603D01*
X148Y603D01*
X148Y601D01*
X156Y601D01*
X156Y599D01*
X160Y599D01*
X160Y597D01*
X164Y597D01*
X164Y595D01*
X166Y595D01*
X166Y593D01*
X168Y593D01*
X168Y591D01*
X172Y591D01*
X172Y589D01*
X174Y589D01*
X174Y585D01*
X176Y585D01*
X176Y583D01*
X178Y583D01*
X178Y581D01*
X180Y581D01*
X180Y577D01*
X182Y577D01*
X182Y573D01*
X184Y573D01*
X184Y565D01*
X186Y565D01*
X186Y545D01*
X184Y545D01*
X184Y539D01*
X182Y539D01*
X182Y535D01*
X180Y535D01*
X180Y531D01*
X178Y531D01*
X178Y527D01*
X176Y527D01*
X176Y525D01*
X174Y525D01*
X174Y523D01*
X172Y523D01*
X172Y521D01*
X170Y521D01*
X170Y519D01*
X168Y519D01*
X168Y517D01*
X164Y517D01*
X164Y515D01*
X160Y515D01*
X160Y513D01*
X158Y513D01*
X158Y511D01*
X150Y511D01*
X150Y509D01*
X970Y509D01*
X970Y511D01*
X968Y511D01*
X968Y513D01*
X966Y513D01*
X966Y515D01*
X964Y515D01*
X964Y517D01*
X962Y517D01*
X962Y519D01*
X960Y519D01*
X960Y521D01*
X958Y521D01*
X958Y523D01*
X956Y523D01*
X956Y527D01*
X954Y527D01*
X954Y531D01*
X952Y531D01*
X952Y537D01*
X950Y537D01*
X950Y547D01*
X948Y547D01*
X948Y565D01*
X946Y565D01*
X946Y567D01*
X944Y567D01*
X944Y569D01*
X942Y569D01*
X942Y571D01*
X940Y571D01*
X940Y573D01*
X936Y573D01*
X936Y575D01*
X934Y575D01*
X934Y577D01*
X932Y577D01*
X932Y579D01*
X930Y579D01*
X930Y581D01*
X928Y581D01*
X928Y583D01*
X924Y583D01*
X924Y585D01*
X922Y585D01*
X922Y587D01*
X920Y587D01*
X920Y589D01*
X918Y589D01*
X918Y591D01*
X914Y591D01*
X914Y593D01*
X912Y593D01*
X912Y595D01*
X910Y595D01*
X910Y597D01*
X908Y597D01*
X908Y599D01*
X904Y599D01*
X904Y601D01*
X902Y601D01*
X902Y603D01*
X900Y603D01*
X900Y605D01*
X52Y605D01*
G37*
D02*
G36*
X52Y603D02*
X52Y509D01*
X126Y509D01*
X126Y511D01*
X120Y511D01*
X120Y513D01*
X116Y513D01*
X116Y515D01*
X112Y515D01*
X112Y517D01*
X110Y517D01*
X110Y519D01*
X108Y519D01*
X108Y521D01*
X106Y521D01*
X106Y523D01*
X104Y523D01*
X104Y525D01*
X102Y525D01*
X102Y527D01*
X100Y527D01*
X100Y529D01*
X98Y529D01*
X98Y533D01*
X96Y533D01*
X96Y537D01*
X94Y537D01*
X94Y543D01*
X92Y543D01*
X92Y567D01*
X94Y567D01*
X94Y575D01*
X96Y575D01*
X96Y577D01*
X98Y577D01*
X98Y581D01*
X100Y581D01*
X100Y585D01*
X102Y585D01*
X102Y587D01*
X104Y587D01*
X104Y589D01*
X106Y589D01*
X106Y591D01*
X108Y591D01*
X108Y593D01*
X110Y593D01*
X110Y595D01*
X114Y595D01*
X114Y597D01*
X118Y597D01*
X118Y599D01*
X122Y599D01*
X122Y601D01*
X128Y601D01*
X128Y603D01*
X52Y603D01*
G37*
D02*
G36*
X1080Y601D02*
X1080Y599D01*
X2278Y599D01*
X2278Y601D01*
X1080Y601D01*
G37*
D02*
G36*
X1080Y601D02*
X1080Y599D01*
X2278Y599D01*
X2278Y601D01*
X1080Y601D01*
G37*
D02*
G36*
X1080Y601D02*
X1080Y599D01*
X2278Y599D01*
X2278Y601D01*
X1080Y601D01*
G37*
D02*
G36*
X1080Y601D02*
X1080Y599D01*
X2278Y599D01*
X2278Y601D01*
X1080Y601D01*
G37*
D02*
G36*
X1078Y599D02*
X1078Y597D01*
X1076Y597D01*
X1076Y595D01*
X1074Y595D01*
X1074Y593D01*
X1072Y593D01*
X1072Y591D01*
X1070Y591D01*
X1070Y589D01*
X1068Y589D01*
X1068Y587D01*
X1066Y587D01*
X1066Y585D01*
X1064Y585D01*
X1064Y583D01*
X1062Y583D01*
X1062Y581D01*
X1060Y581D01*
X1060Y579D01*
X1058Y579D01*
X1058Y577D01*
X1056Y577D01*
X1056Y575D01*
X1054Y575D01*
X1054Y573D01*
X1052Y573D01*
X1052Y571D01*
X1050Y571D01*
X1050Y539D01*
X1048Y539D01*
X1048Y533D01*
X1046Y533D01*
X1046Y529D01*
X1044Y529D01*
X1044Y525D01*
X1042Y525D01*
X1042Y521D01*
X1040Y521D01*
X1040Y519D01*
X1038Y519D01*
X1038Y517D01*
X1036Y517D01*
X1036Y515D01*
X1034Y515D01*
X1034Y513D01*
X1032Y513D01*
X1032Y511D01*
X1030Y511D01*
X1030Y509D01*
X1026Y509D01*
X1026Y507D01*
X1022Y507D01*
X1022Y505D01*
X1018Y505D01*
X1018Y503D01*
X1012Y503D01*
X1012Y501D01*
X2278Y501D01*
X2278Y599D01*
X1078Y599D01*
G37*
D02*
G36*
X52Y509D02*
X52Y507D01*
X974Y507D01*
X974Y509D01*
X52Y509D01*
G37*
D02*
G36*
X52Y509D02*
X52Y507D01*
X974Y507D01*
X974Y509D01*
X52Y509D01*
G37*
D02*
G36*
X52Y507D02*
X52Y505D01*
X638Y505D01*
X638Y503D01*
X646Y503D01*
X646Y501D01*
X988Y501D01*
X988Y503D01*
X980Y503D01*
X980Y505D01*
X976Y505D01*
X976Y507D01*
X52Y507D01*
G37*
D02*
G36*
X52Y505D02*
X52Y431D01*
X352Y431D01*
X352Y429D01*
X358Y429D01*
X358Y427D01*
X364Y427D01*
X364Y425D01*
X368Y425D01*
X368Y423D01*
X372Y423D01*
X372Y421D01*
X376Y421D01*
X376Y419D01*
X378Y419D01*
X378Y417D01*
X380Y417D01*
X380Y415D01*
X384Y415D01*
X384Y413D01*
X386Y413D01*
X386Y411D01*
X388Y411D01*
X388Y409D01*
X626Y409D01*
X626Y411D01*
X618Y411D01*
X618Y413D01*
X612Y413D01*
X612Y415D01*
X608Y415D01*
X608Y417D01*
X604Y417D01*
X604Y419D01*
X602Y419D01*
X602Y421D01*
X600Y421D01*
X600Y423D01*
X596Y423D01*
X596Y427D01*
X594Y427D01*
X594Y429D01*
X592Y429D01*
X592Y431D01*
X590Y431D01*
X590Y435D01*
X588Y435D01*
X588Y439D01*
X586Y439D01*
X586Y445D01*
X584Y445D01*
X584Y469D01*
X586Y469D01*
X586Y475D01*
X588Y475D01*
X588Y479D01*
X590Y479D01*
X590Y483D01*
X592Y483D01*
X592Y485D01*
X594Y485D01*
X594Y489D01*
X596Y489D01*
X596Y491D01*
X598Y491D01*
X598Y493D01*
X602Y493D01*
X602Y495D01*
X604Y495D01*
X604Y497D01*
X606Y497D01*
X606Y499D01*
X610Y499D01*
X610Y501D01*
X616Y501D01*
X616Y503D01*
X624Y503D01*
X624Y505D01*
X52Y505D01*
G37*
D02*
G36*
X652Y501D02*
X652Y499D01*
X2278Y499D01*
X2278Y501D01*
X652Y501D01*
G37*
D02*
G36*
X652Y501D02*
X652Y499D01*
X2278Y499D01*
X2278Y501D01*
X652Y501D01*
G37*
D02*
G36*
X654Y499D02*
X654Y497D01*
X1708Y497D01*
X1708Y495D01*
X1716Y495D01*
X1716Y493D01*
X1720Y493D01*
X1720Y491D01*
X1724Y491D01*
X1724Y489D01*
X1728Y489D01*
X1728Y487D01*
X1730Y487D01*
X1730Y485D01*
X1732Y485D01*
X1732Y483D01*
X1734Y483D01*
X1734Y481D01*
X1736Y481D01*
X1736Y479D01*
X1738Y479D01*
X1738Y475D01*
X1740Y475D01*
X1740Y473D01*
X1742Y473D01*
X1742Y469D01*
X1744Y469D01*
X1744Y463D01*
X1746Y463D01*
X1746Y453D01*
X1748Y453D01*
X1748Y447D01*
X1746Y447D01*
X1746Y437D01*
X1744Y437D01*
X1744Y431D01*
X1742Y431D01*
X1742Y427D01*
X1740Y427D01*
X1740Y423D01*
X1738Y423D01*
X1738Y421D01*
X1736Y421D01*
X1736Y417D01*
X1734Y417D01*
X1734Y415D01*
X1732Y415D01*
X1732Y413D01*
X1728Y413D01*
X1728Y411D01*
X1726Y411D01*
X1726Y409D01*
X1722Y409D01*
X1722Y407D01*
X1718Y407D01*
X1718Y405D01*
X1712Y405D01*
X1712Y403D01*
X1702Y403D01*
X1702Y401D01*
X2188Y401D01*
X2188Y403D01*
X2182Y403D01*
X2182Y405D01*
X2178Y405D01*
X2178Y407D01*
X2174Y407D01*
X2174Y409D01*
X2170Y409D01*
X2170Y411D01*
X2168Y411D01*
X2168Y413D01*
X2166Y413D01*
X2166Y415D01*
X2164Y415D01*
X2164Y417D01*
X2162Y417D01*
X2162Y419D01*
X2160Y419D01*
X2160Y423D01*
X2158Y423D01*
X2158Y425D01*
X2156Y425D01*
X2156Y429D01*
X2154Y429D01*
X2154Y435D01*
X2152Y435D01*
X2152Y445D01*
X2150Y445D01*
X2150Y455D01*
X2152Y455D01*
X2152Y463D01*
X2154Y463D01*
X2154Y469D01*
X2156Y469D01*
X2156Y473D01*
X2158Y473D01*
X2158Y477D01*
X2160Y477D01*
X2160Y479D01*
X2162Y479D01*
X2162Y481D01*
X2164Y481D01*
X2164Y483D01*
X2166Y483D01*
X2166Y485D01*
X2168Y485D01*
X2168Y487D01*
X2170Y487D01*
X2170Y489D01*
X2172Y489D01*
X2172Y491D01*
X2176Y491D01*
X2176Y493D01*
X2180Y493D01*
X2180Y495D01*
X2186Y495D01*
X2186Y497D01*
X2194Y497D01*
X2194Y499D01*
X654Y499D01*
G37*
D02*
G36*
X2204Y499D02*
X2204Y497D01*
X2214Y497D01*
X2214Y495D01*
X2220Y495D01*
X2220Y493D01*
X2224Y493D01*
X2224Y491D01*
X2226Y491D01*
X2226Y489D01*
X2230Y489D01*
X2230Y487D01*
X2232Y487D01*
X2232Y485D01*
X2234Y485D01*
X2234Y483D01*
X2236Y483D01*
X2236Y481D01*
X2238Y481D01*
X2238Y479D01*
X2240Y479D01*
X2240Y477D01*
X2260Y477D01*
X2260Y479D01*
X2262Y479D01*
X2262Y481D01*
X2264Y481D01*
X2264Y483D01*
X2266Y483D01*
X2266Y485D01*
X2268Y485D01*
X2268Y487D01*
X2270Y487D01*
X2270Y489D01*
X2272Y489D01*
X2272Y491D01*
X2276Y491D01*
X2276Y493D01*
X2278Y493D01*
X2278Y499D01*
X2204Y499D01*
G37*
D02*
G36*
X2322Y499D02*
X2322Y493D01*
X2324Y493D01*
X2324Y491D01*
X2326Y491D01*
X2326Y489D01*
X2330Y489D01*
X2330Y487D01*
X2332Y487D01*
X2332Y485D01*
X2334Y485D01*
X2334Y483D01*
X2336Y483D01*
X2336Y481D01*
X2338Y481D01*
X2338Y479D01*
X2340Y479D01*
X2340Y477D01*
X2360Y477D01*
X2360Y479D01*
X2362Y479D01*
X2362Y481D01*
X2364Y481D01*
X2364Y483D01*
X2366Y483D01*
X2366Y485D01*
X2368Y485D01*
X2368Y487D01*
X2370Y487D01*
X2370Y489D01*
X2372Y489D01*
X2372Y491D01*
X2376Y491D01*
X2376Y493D01*
X2380Y493D01*
X2380Y495D01*
X2386Y495D01*
X2386Y497D01*
X2394Y497D01*
X2394Y499D01*
X2322Y499D01*
G37*
D02*
G36*
X2404Y499D02*
X2404Y497D01*
X2414Y497D01*
X2414Y495D01*
X2420Y495D01*
X2420Y493D01*
X2424Y493D01*
X2424Y491D01*
X2426Y491D01*
X2426Y489D01*
X2430Y489D01*
X2430Y487D01*
X2432Y487D01*
X2432Y485D01*
X2434Y485D01*
X2434Y483D01*
X2436Y483D01*
X2436Y481D01*
X2438Y481D01*
X2438Y479D01*
X2440Y479D01*
X2440Y477D01*
X2460Y477D01*
X2460Y479D01*
X2462Y479D01*
X2462Y481D01*
X2464Y481D01*
X2464Y483D01*
X2466Y483D01*
X2466Y485D01*
X2468Y485D01*
X2468Y487D01*
X2470Y487D01*
X2470Y489D01*
X2472Y489D01*
X2472Y491D01*
X2476Y491D01*
X2476Y493D01*
X2480Y493D01*
X2480Y495D01*
X2486Y495D01*
X2486Y497D01*
X2494Y497D01*
X2494Y499D01*
X2404Y499D01*
G37*
D02*
G36*
X658Y497D02*
X658Y495D01*
X660Y495D01*
X660Y493D01*
X662Y493D01*
X662Y491D01*
X666Y491D01*
X666Y487D01*
X668Y487D01*
X668Y485D01*
X670Y485D01*
X670Y483D01*
X672Y483D01*
X672Y479D01*
X674Y479D01*
X674Y475D01*
X676Y475D01*
X676Y467D01*
X678Y467D01*
X678Y447D01*
X676Y447D01*
X676Y441D01*
X674Y441D01*
X674Y435D01*
X672Y435D01*
X672Y433D01*
X670Y433D01*
X670Y429D01*
X668Y429D01*
X668Y427D01*
X666Y427D01*
X666Y425D01*
X664Y425D01*
X664Y423D01*
X662Y423D01*
X662Y421D01*
X660Y421D01*
X660Y419D01*
X658Y419D01*
X658Y417D01*
X654Y417D01*
X654Y415D01*
X650Y415D01*
X650Y413D01*
X644Y413D01*
X644Y411D01*
X636Y411D01*
X636Y409D01*
X774Y409D01*
X774Y411D01*
X770Y411D01*
X770Y413D01*
X768Y413D01*
X768Y415D01*
X766Y415D01*
X766Y417D01*
X764Y417D01*
X764Y419D01*
X762Y419D01*
X762Y423D01*
X760Y423D01*
X760Y425D01*
X758Y425D01*
X758Y429D01*
X756Y429D01*
X756Y433D01*
X754Y433D01*
X754Y441D01*
X752Y441D01*
X752Y457D01*
X754Y457D01*
X754Y465D01*
X756Y465D01*
X756Y469D01*
X758Y469D01*
X758Y473D01*
X760Y473D01*
X760Y477D01*
X762Y477D01*
X762Y479D01*
X764Y479D01*
X764Y481D01*
X766Y481D01*
X766Y483D01*
X768Y483D01*
X768Y485D01*
X770Y485D01*
X770Y487D01*
X772Y487D01*
X772Y489D01*
X776Y489D01*
X776Y491D01*
X780Y491D01*
X780Y493D01*
X784Y493D01*
X784Y495D01*
X792Y495D01*
X792Y497D01*
X658Y497D01*
G37*
D02*
G36*
X808Y497D02*
X808Y495D01*
X816Y495D01*
X816Y493D01*
X820Y493D01*
X820Y491D01*
X824Y491D01*
X824Y489D01*
X828Y489D01*
X828Y487D01*
X830Y487D01*
X830Y485D01*
X832Y485D01*
X832Y483D01*
X834Y483D01*
X834Y481D01*
X836Y481D01*
X836Y479D01*
X838Y479D01*
X838Y475D01*
X840Y475D01*
X840Y473D01*
X842Y473D01*
X842Y469D01*
X844Y469D01*
X844Y463D01*
X846Y463D01*
X846Y453D01*
X848Y453D01*
X848Y447D01*
X846Y447D01*
X846Y437D01*
X844Y437D01*
X844Y431D01*
X842Y431D01*
X842Y427D01*
X840Y427D01*
X840Y423D01*
X838Y423D01*
X838Y421D01*
X836Y421D01*
X836Y417D01*
X834Y417D01*
X834Y415D01*
X832Y415D01*
X832Y413D01*
X828Y413D01*
X828Y411D01*
X826Y411D01*
X826Y409D01*
X822Y409D01*
X822Y407D01*
X818Y407D01*
X818Y405D01*
X812Y405D01*
X812Y403D01*
X802Y403D01*
X802Y401D01*
X1698Y401D01*
X1698Y403D01*
X1686Y403D01*
X1686Y405D01*
X1680Y405D01*
X1680Y407D01*
X1676Y407D01*
X1676Y409D01*
X1674Y409D01*
X1674Y411D01*
X1670Y411D01*
X1670Y413D01*
X1668Y413D01*
X1668Y415D01*
X1666Y415D01*
X1666Y417D01*
X1664Y417D01*
X1664Y419D01*
X1662Y419D01*
X1662Y423D01*
X1660Y423D01*
X1660Y425D01*
X1658Y425D01*
X1658Y429D01*
X1656Y429D01*
X1656Y433D01*
X1654Y433D01*
X1654Y441D01*
X1652Y441D01*
X1652Y457D01*
X1654Y457D01*
X1654Y465D01*
X1656Y465D01*
X1656Y469D01*
X1658Y469D01*
X1658Y473D01*
X1660Y473D01*
X1660Y477D01*
X1662Y477D01*
X1662Y479D01*
X1664Y479D01*
X1664Y481D01*
X1666Y481D01*
X1666Y483D01*
X1668Y483D01*
X1668Y485D01*
X1670Y485D01*
X1670Y487D01*
X1672Y487D01*
X1672Y489D01*
X1676Y489D01*
X1676Y491D01*
X1680Y491D01*
X1680Y493D01*
X1684Y493D01*
X1684Y495D01*
X1692Y495D01*
X1692Y497D01*
X808Y497D01*
G37*
D02*
G36*
X52Y431D02*
X52Y285D01*
X332Y285D01*
X332Y287D01*
X318Y287D01*
X318Y289D01*
X312Y289D01*
X312Y291D01*
X306Y291D01*
X306Y293D01*
X302Y293D01*
X302Y295D01*
X298Y295D01*
X298Y297D01*
X296Y297D01*
X296Y299D01*
X292Y299D01*
X292Y301D01*
X290Y301D01*
X290Y303D01*
X288Y303D01*
X288Y305D01*
X286Y305D01*
X286Y307D01*
X284Y307D01*
X284Y309D01*
X282Y309D01*
X282Y311D01*
X280Y311D01*
X280Y313D01*
X278Y313D01*
X278Y315D01*
X276Y315D01*
X276Y319D01*
X274Y319D01*
X274Y321D01*
X272Y321D01*
X272Y325D01*
X270Y325D01*
X270Y329D01*
X268Y329D01*
X268Y333D01*
X266Y333D01*
X266Y341D01*
X264Y341D01*
X264Y351D01*
X262Y351D01*
X262Y367D01*
X264Y367D01*
X264Y377D01*
X266Y377D01*
X266Y383D01*
X268Y383D01*
X268Y389D01*
X270Y389D01*
X270Y393D01*
X272Y393D01*
X272Y397D01*
X274Y397D01*
X274Y399D01*
X276Y399D01*
X276Y403D01*
X278Y403D01*
X278Y405D01*
X280Y405D01*
X280Y407D01*
X282Y407D01*
X282Y409D01*
X284Y409D01*
X284Y411D01*
X286Y411D01*
X286Y413D01*
X288Y413D01*
X288Y415D01*
X290Y415D01*
X290Y417D01*
X294Y417D01*
X294Y419D01*
X296Y419D01*
X296Y421D01*
X300Y421D01*
X300Y423D01*
X302Y423D01*
X302Y425D01*
X308Y425D01*
X308Y427D01*
X312Y427D01*
X312Y429D01*
X320Y429D01*
X320Y431D01*
X52Y431D01*
G37*
D02*
G36*
X2240Y423D02*
X2240Y421D01*
X2238Y421D01*
X2238Y417D01*
X2236Y417D01*
X2236Y415D01*
X2234Y415D01*
X2234Y413D01*
X2230Y413D01*
X2230Y411D01*
X2228Y411D01*
X2228Y409D01*
X2226Y409D01*
X2226Y407D01*
X2222Y407D01*
X2222Y405D01*
X2218Y405D01*
X2218Y403D01*
X2212Y403D01*
X2212Y401D01*
X2288Y401D01*
X2288Y403D01*
X2282Y403D01*
X2282Y405D01*
X2278Y405D01*
X2278Y407D01*
X2274Y407D01*
X2274Y409D01*
X2270Y409D01*
X2270Y411D01*
X2268Y411D01*
X2268Y413D01*
X2266Y413D01*
X2266Y415D01*
X2264Y415D01*
X2264Y417D01*
X2262Y417D01*
X2262Y419D01*
X2260Y419D01*
X2260Y423D01*
X2240Y423D01*
G37*
D02*
G36*
X2340Y423D02*
X2340Y421D01*
X2338Y421D01*
X2338Y417D01*
X2336Y417D01*
X2336Y415D01*
X2334Y415D01*
X2334Y413D01*
X2330Y413D01*
X2330Y411D01*
X2328Y411D01*
X2328Y409D01*
X2326Y409D01*
X2326Y407D01*
X2322Y407D01*
X2322Y405D01*
X2318Y405D01*
X2318Y403D01*
X2312Y403D01*
X2312Y401D01*
X2380Y401D01*
X2380Y405D01*
X2378Y405D01*
X2378Y407D01*
X2374Y407D01*
X2374Y409D01*
X2370Y409D01*
X2370Y411D01*
X2368Y411D01*
X2368Y413D01*
X2366Y413D01*
X2366Y415D01*
X2364Y415D01*
X2364Y417D01*
X2362Y417D01*
X2362Y419D01*
X2360Y419D01*
X2360Y423D01*
X2340Y423D01*
G37*
D02*
G36*
X390Y409D02*
X390Y407D01*
X776Y407D01*
X776Y409D01*
X390Y409D01*
G37*
D02*
G36*
X390Y409D02*
X390Y407D01*
X776Y407D01*
X776Y409D01*
X390Y409D01*
G37*
D02*
G36*
X392Y407D02*
X392Y403D01*
X394Y403D01*
X394Y401D01*
X396Y401D01*
X396Y397D01*
X398Y397D01*
X398Y395D01*
X400Y395D01*
X400Y391D01*
X402Y391D01*
X402Y387D01*
X404Y387D01*
X404Y381D01*
X406Y381D01*
X406Y373D01*
X408Y373D01*
X408Y345D01*
X406Y345D01*
X406Y337D01*
X404Y337D01*
X404Y331D01*
X402Y331D01*
X402Y327D01*
X400Y327D01*
X400Y323D01*
X398Y323D01*
X398Y319D01*
X396Y319D01*
X396Y317D01*
X394Y317D01*
X394Y315D01*
X392Y315D01*
X392Y311D01*
X526Y311D01*
X526Y313D01*
X518Y313D01*
X518Y315D01*
X512Y315D01*
X512Y317D01*
X508Y317D01*
X508Y319D01*
X506Y319D01*
X506Y321D01*
X502Y321D01*
X502Y323D01*
X500Y323D01*
X500Y325D01*
X498Y325D01*
X498Y327D01*
X496Y327D01*
X496Y329D01*
X494Y329D01*
X494Y333D01*
X492Y333D01*
X492Y337D01*
X490Y337D01*
X490Y339D01*
X488Y339D01*
X488Y345D01*
X486Y345D01*
X486Y357D01*
X484Y357D01*
X484Y361D01*
X486Y361D01*
X486Y371D01*
X488Y371D01*
X488Y377D01*
X490Y377D01*
X490Y381D01*
X492Y381D01*
X492Y385D01*
X494Y385D01*
X494Y387D01*
X496Y387D01*
X496Y391D01*
X498Y391D01*
X498Y393D01*
X500Y393D01*
X500Y395D01*
X504Y395D01*
X504Y397D01*
X506Y397D01*
X506Y399D01*
X510Y399D01*
X510Y401D01*
X512Y401D01*
X512Y403D01*
X518Y403D01*
X518Y405D01*
X528Y405D01*
X528Y407D01*
X392Y407D01*
G37*
D02*
G36*
X538Y407D02*
X538Y405D01*
X546Y405D01*
X546Y403D01*
X552Y403D01*
X552Y401D01*
X798Y401D01*
X798Y403D01*
X786Y403D01*
X786Y405D01*
X780Y405D01*
X780Y407D01*
X538Y407D01*
G37*
D02*
G36*
X556Y401D02*
X556Y399D01*
X2380Y399D01*
X2380Y401D01*
X556Y401D01*
G37*
D02*
G36*
X556Y401D02*
X556Y399D01*
X2380Y399D01*
X2380Y401D01*
X556Y401D01*
G37*
D02*
G36*
X556Y401D02*
X556Y399D01*
X2380Y399D01*
X2380Y401D01*
X556Y401D01*
G37*
D02*
G36*
X556Y401D02*
X556Y399D01*
X2380Y399D01*
X2380Y401D01*
X556Y401D01*
G37*
D02*
G36*
X556Y401D02*
X556Y399D01*
X2380Y399D01*
X2380Y401D01*
X556Y401D01*
G37*
D02*
G36*
X558Y399D02*
X558Y397D01*
X562Y397D01*
X562Y395D01*
X564Y395D01*
X564Y393D01*
X566Y393D01*
X566Y391D01*
X568Y391D01*
X568Y389D01*
X570Y389D01*
X570Y387D01*
X572Y387D01*
X572Y383D01*
X574Y383D01*
X574Y379D01*
X576Y379D01*
X576Y375D01*
X578Y375D01*
X578Y367D01*
X580Y367D01*
X580Y351D01*
X578Y351D01*
X578Y343D01*
X576Y343D01*
X576Y339D01*
X574Y339D01*
X574Y335D01*
X572Y335D01*
X572Y331D01*
X570Y331D01*
X570Y329D01*
X568Y329D01*
X568Y327D01*
X566Y327D01*
X566Y325D01*
X564Y325D01*
X564Y323D01*
X562Y323D01*
X562Y321D01*
X560Y321D01*
X560Y319D01*
X556Y319D01*
X556Y317D01*
X552Y317D01*
X552Y315D01*
X548Y315D01*
X548Y313D01*
X540Y313D01*
X540Y311D01*
X2382Y311D01*
X2382Y345D01*
X2380Y345D01*
X2380Y399D01*
X558Y399D01*
G37*
D02*
G36*
X390Y311D02*
X390Y309D01*
X2382Y309D01*
X2382Y311D01*
X390Y311D01*
G37*
D02*
G36*
X390Y311D02*
X390Y309D01*
X2382Y309D01*
X2382Y311D01*
X390Y311D01*
G37*
D02*
G36*
X388Y309D02*
X388Y307D01*
X386Y307D01*
X386Y305D01*
X384Y305D01*
X384Y303D01*
X382Y303D01*
X382Y301D01*
X378Y301D01*
X378Y299D01*
X376Y299D01*
X376Y297D01*
X372Y297D01*
X372Y295D01*
X368Y295D01*
X368Y293D01*
X364Y293D01*
X364Y291D01*
X360Y291D01*
X360Y289D01*
X352Y289D01*
X352Y287D01*
X338Y287D01*
X338Y285D01*
X2382Y285D01*
X2382Y309D01*
X388Y309D01*
G37*
D02*
G36*
X52Y285D02*
X52Y283D01*
X2382Y283D01*
X2382Y285D01*
X52Y285D01*
G37*
D02*
G36*
X52Y285D02*
X52Y283D01*
X2382Y283D01*
X2382Y285D01*
X52Y285D01*
G37*
D02*
G36*
X52Y283D02*
X52Y143D01*
X2318Y143D01*
X2318Y141D01*
X2326Y141D01*
X2326Y139D01*
X2330Y139D01*
X2330Y137D01*
X2334Y137D01*
X2334Y135D01*
X2336Y135D01*
X2336Y133D01*
X2338Y133D01*
X2338Y131D01*
X2342Y131D01*
X2342Y127D01*
X2344Y127D01*
X2344Y125D01*
X2346Y125D01*
X2346Y123D01*
X2348Y123D01*
X2348Y119D01*
X2350Y119D01*
X2350Y113D01*
X2370Y113D01*
X2370Y115D01*
X2372Y115D01*
X2372Y119D01*
X2374Y119D01*
X2374Y123D01*
X2376Y123D01*
X2376Y125D01*
X2378Y125D01*
X2378Y129D01*
X2380Y129D01*
X2380Y131D01*
X2382Y131D01*
X2382Y133D01*
X2386Y133D01*
X2386Y135D01*
X2388Y135D01*
X2388Y155D01*
X2386Y155D01*
X2386Y219D01*
X2384Y219D01*
X2384Y281D01*
X2382Y281D01*
X2382Y283D01*
X52Y283D01*
G37*
D02*
G36*
X52Y143D02*
X52Y71D01*
X54Y71D01*
X54Y67D01*
X56Y67D01*
X56Y63D01*
X58Y63D01*
X58Y61D01*
X60Y61D01*
X60Y59D01*
X62Y59D01*
X62Y57D01*
X64Y57D01*
X64Y55D01*
X66Y55D01*
X66Y53D01*
X70Y53D01*
X70Y51D01*
X74Y51D01*
X74Y49D01*
X80Y49D01*
X80Y47D01*
X1086Y47D01*
X1086Y67D01*
X1084Y67D01*
X1084Y69D01*
X1080Y69D01*
X1080Y71D01*
X1078Y71D01*
X1078Y75D01*
X1076Y75D01*
X1076Y77D01*
X1074Y77D01*
X1074Y81D01*
X1072Y81D01*
X1072Y85D01*
X1070Y85D01*
X1070Y93D01*
X1068Y93D01*
X1068Y109D01*
X1070Y109D01*
X1070Y115D01*
X1072Y115D01*
X1072Y119D01*
X1074Y119D01*
X1074Y123D01*
X1076Y123D01*
X1076Y125D01*
X1078Y125D01*
X1078Y129D01*
X1080Y129D01*
X1080Y131D01*
X1082Y131D01*
X1082Y133D01*
X1086Y133D01*
X1086Y135D01*
X1088Y135D01*
X1088Y137D01*
X1092Y137D01*
X1092Y139D01*
X1096Y139D01*
X1096Y141D01*
X1104Y141D01*
X1104Y143D01*
X52Y143D01*
G37*
D02*
G36*
X1118Y143D02*
X1118Y141D01*
X1126Y141D01*
X1126Y139D01*
X1130Y139D01*
X1130Y137D01*
X1134Y137D01*
X1134Y135D01*
X1136Y135D01*
X1136Y133D01*
X1138Y133D01*
X1138Y131D01*
X1142Y131D01*
X1142Y127D01*
X1144Y127D01*
X1144Y125D01*
X1146Y125D01*
X1146Y123D01*
X1148Y123D01*
X1148Y119D01*
X1150Y119D01*
X1150Y113D01*
X1170Y113D01*
X1170Y115D01*
X1172Y115D01*
X1172Y119D01*
X1174Y119D01*
X1174Y123D01*
X1176Y123D01*
X1176Y125D01*
X1178Y125D01*
X1178Y129D01*
X1180Y129D01*
X1180Y131D01*
X1182Y131D01*
X1182Y133D01*
X1186Y133D01*
X1186Y135D01*
X1188Y135D01*
X1188Y137D01*
X1192Y137D01*
X1192Y139D01*
X1196Y139D01*
X1196Y141D01*
X1204Y141D01*
X1204Y143D01*
X1118Y143D01*
G37*
D02*
G36*
X1218Y143D02*
X1218Y141D01*
X1226Y141D01*
X1226Y139D01*
X1230Y139D01*
X1230Y137D01*
X1234Y137D01*
X1234Y135D01*
X1236Y135D01*
X1236Y133D01*
X1238Y133D01*
X1238Y131D01*
X1242Y131D01*
X1242Y127D01*
X1244Y127D01*
X1244Y125D01*
X1246Y125D01*
X1246Y123D01*
X1248Y123D01*
X1248Y119D01*
X1250Y119D01*
X1250Y113D01*
X1270Y113D01*
X1270Y115D01*
X1272Y115D01*
X1272Y119D01*
X1274Y119D01*
X1274Y123D01*
X1276Y123D01*
X1276Y125D01*
X1278Y125D01*
X1278Y129D01*
X1280Y129D01*
X1280Y131D01*
X1282Y131D01*
X1282Y133D01*
X1286Y133D01*
X1286Y135D01*
X1288Y135D01*
X1288Y137D01*
X1292Y137D01*
X1292Y139D01*
X1296Y139D01*
X1296Y141D01*
X1304Y141D01*
X1304Y143D01*
X1218Y143D01*
G37*
D02*
G36*
X1318Y143D02*
X1318Y141D01*
X1326Y141D01*
X1326Y139D01*
X1330Y139D01*
X1330Y137D01*
X1334Y137D01*
X1334Y135D01*
X1336Y135D01*
X1336Y133D01*
X1338Y133D01*
X1338Y131D01*
X1342Y131D01*
X1342Y127D01*
X1344Y127D01*
X1344Y125D01*
X1346Y125D01*
X1346Y123D01*
X1348Y123D01*
X1348Y119D01*
X1350Y119D01*
X1350Y113D01*
X1370Y113D01*
X1370Y115D01*
X1372Y115D01*
X1372Y119D01*
X1374Y119D01*
X1374Y123D01*
X1376Y123D01*
X1376Y125D01*
X1378Y125D01*
X1378Y129D01*
X1380Y129D01*
X1380Y131D01*
X1382Y131D01*
X1382Y133D01*
X1386Y133D01*
X1386Y135D01*
X1388Y135D01*
X1388Y137D01*
X1392Y137D01*
X1392Y139D01*
X1396Y139D01*
X1396Y141D01*
X1404Y141D01*
X1404Y143D01*
X1318Y143D01*
G37*
D02*
G36*
X1418Y143D02*
X1418Y141D01*
X1426Y141D01*
X1426Y139D01*
X1430Y139D01*
X1430Y137D01*
X1434Y137D01*
X1434Y135D01*
X1436Y135D01*
X1436Y133D01*
X1438Y133D01*
X1438Y131D01*
X1442Y131D01*
X1442Y127D01*
X1444Y127D01*
X1444Y125D01*
X1446Y125D01*
X1446Y123D01*
X1448Y123D01*
X1448Y119D01*
X1450Y119D01*
X1450Y113D01*
X1470Y113D01*
X1470Y115D01*
X1472Y115D01*
X1472Y119D01*
X1474Y119D01*
X1474Y123D01*
X1476Y123D01*
X1476Y125D01*
X1478Y125D01*
X1478Y129D01*
X1480Y129D01*
X1480Y131D01*
X1482Y131D01*
X1482Y133D01*
X1486Y133D01*
X1486Y135D01*
X1488Y135D01*
X1488Y137D01*
X1492Y137D01*
X1492Y139D01*
X1496Y139D01*
X1496Y141D01*
X1504Y141D01*
X1504Y143D01*
X1418Y143D01*
G37*
D02*
G36*
X1518Y143D02*
X1518Y141D01*
X1526Y141D01*
X1526Y139D01*
X1530Y139D01*
X1530Y137D01*
X1534Y137D01*
X1534Y135D01*
X1536Y135D01*
X1536Y133D01*
X1538Y133D01*
X1538Y131D01*
X1542Y131D01*
X1542Y127D01*
X1544Y127D01*
X1544Y125D01*
X1546Y125D01*
X1546Y123D01*
X1548Y123D01*
X1548Y119D01*
X1550Y119D01*
X1550Y113D01*
X1570Y113D01*
X1570Y115D01*
X1572Y115D01*
X1572Y119D01*
X1574Y119D01*
X1574Y123D01*
X1576Y123D01*
X1576Y125D01*
X1578Y125D01*
X1578Y129D01*
X1580Y129D01*
X1580Y131D01*
X1582Y131D01*
X1582Y133D01*
X1586Y133D01*
X1586Y135D01*
X1588Y135D01*
X1588Y137D01*
X1592Y137D01*
X1592Y139D01*
X1596Y139D01*
X1596Y141D01*
X1604Y141D01*
X1604Y143D01*
X1518Y143D01*
G37*
D02*
G36*
X1618Y143D02*
X1618Y141D01*
X1626Y141D01*
X1626Y139D01*
X1630Y139D01*
X1630Y137D01*
X1634Y137D01*
X1634Y135D01*
X1636Y135D01*
X1636Y133D01*
X1638Y133D01*
X1638Y131D01*
X1642Y131D01*
X1642Y127D01*
X1644Y127D01*
X1644Y125D01*
X1646Y125D01*
X1646Y123D01*
X1648Y123D01*
X1648Y119D01*
X1650Y119D01*
X1650Y113D01*
X1670Y113D01*
X1670Y115D01*
X1672Y115D01*
X1672Y119D01*
X1674Y119D01*
X1674Y123D01*
X1676Y123D01*
X1676Y125D01*
X1678Y125D01*
X1678Y129D01*
X1680Y129D01*
X1680Y131D01*
X1682Y131D01*
X1682Y133D01*
X1686Y133D01*
X1686Y135D01*
X1688Y135D01*
X1688Y137D01*
X1692Y137D01*
X1692Y139D01*
X1696Y139D01*
X1696Y141D01*
X1704Y141D01*
X1704Y143D01*
X1618Y143D01*
G37*
D02*
G36*
X1718Y143D02*
X1718Y141D01*
X1726Y141D01*
X1726Y139D01*
X1730Y139D01*
X1730Y137D01*
X1734Y137D01*
X1734Y135D01*
X1736Y135D01*
X1736Y133D01*
X1738Y133D01*
X1738Y131D01*
X1742Y131D01*
X1742Y127D01*
X1744Y127D01*
X1744Y125D01*
X1746Y125D01*
X1746Y123D01*
X1748Y123D01*
X1748Y119D01*
X1750Y119D01*
X1750Y113D01*
X1770Y113D01*
X1770Y115D01*
X1772Y115D01*
X1772Y119D01*
X1774Y119D01*
X1774Y123D01*
X1776Y123D01*
X1776Y125D01*
X1778Y125D01*
X1778Y129D01*
X1780Y129D01*
X1780Y131D01*
X1782Y131D01*
X1782Y133D01*
X1786Y133D01*
X1786Y135D01*
X1788Y135D01*
X1788Y137D01*
X1792Y137D01*
X1792Y139D01*
X1796Y139D01*
X1796Y141D01*
X1804Y141D01*
X1804Y143D01*
X1718Y143D01*
G37*
D02*
G36*
X1818Y143D02*
X1818Y141D01*
X1826Y141D01*
X1826Y139D01*
X1830Y139D01*
X1830Y137D01*
X1834Y137D01*
X1834Y135D01*
X1836Y135D01*
X1836Y133D01*
X1838Y133D01*
X1838Y131D01*
X1842Y131D01*
X1842Y127D01*
X1844Y127D01*
X1844Y125D01*
X1846Y125D01*
X1846Y123D01*
X1848Y123D01*
X1848Y119D01*
X1850Y119D01*
X1850Y113D01*
X1852Y113D01*
X1852Y105D01*
X1854Y105D01*
X1854Y95D01*
X1852Y95D01*
X1852Y87D01*
X1850Y87D01*
X1850Y81D01*
X1848Y81D01*
X1848Y77D01*
X1846Y77D01*
X1846Y75D01*
X1844Y75D01*
X1844Y73D01*
X1842Y73D01*
X1842Y71D01*
X1840Y71D01*
X1840Y69D01*
X1838Y69D01*
X1838Y67D01*
X1836Y67D01*
X1836Y47D01*
X1986Y47D01*
X1986Y67D01*
X1984Y67D01*
X1984Y69D01*
X1980Y69D01*
X1980Y71D01*
X1978Y71D01*
X1978Y75D01*
X1976Y75D01*
X1976Y77D01*
X1974Y77D01*
X1974Y81D01*
X1972Y81D01*
X1972Y85D01*
X1970Y85D01*
X1970Y93D01*
X1968Y93D01*
X1968Y107D01*
X1970Y107D01*
X1970Y115D01*
X1972Y115D01*
X1972Y119D01*
X1974Y119D01*
X1974Y123D01*
X1976Y123D01*
X1976Y125D01*
X1978Y125D01*
X1978Y129D01*
X1980Y129D01*
X1980Y131D01*
X1982Y131D01*
X1982Y133D01*
X1986Y133D01*
X1986Y135D01*
X1988Y135D01*
X1988Y137D01*
X1992Y137D01*
X1992Y139D01*
X1996Y139D01*
X1996Y141D01*
X2004Y141D01*
X2004Y143D01*
X1818Y143D01*
G37*
D02*
G36*
X2018Y143D02*
X2018Y141D01*
X2026Y141D01*
X2026Y139D01*
X2030Y139D01*
X2030Y137D01*
X2034Y137D01*
X2034Y135D01*
X2036Y135D01*
X2036Y133D01*
X2038Y133D01*
X2038Y131D01*
X2042Y131D01*
X2042Y127D01*
X2044Y127D01*
X2044Y125D01*
X2046Y125D01*
X2046Y123D01*
X2048Y123D01*
X2048Y119D01*
X2050Y119D01*
X2050Y113D01*
X2070Y113D01*
X2070Y115D01*
X2072Y115D01*
X2072Y119D01*
X2074Y119D01*
X2074Y123D01*
X2076Y123D01*
X2076Y125D01*
X2078Y125D01*
X2078Y129D01*
X2080Y129D01*
X2080Y131D01*
X2082Y131D01*
X2082Y133D01*
X2086Y133D01*
X2086Y135D01*
X2088Y135D01*
X2088Y137D01*
X2092Y137D01*
X2092Y139D01*
X2096Y139D01*
X2096Y141D01*
X2104Y141D01*
X2104Y143D01*
X2018Y143D01*
G37*
D02*
G36*
X2118Y143D02*
X2118Y141D01*
X2126Y141D01*
X2126Y139D01*
X2130Y139D01*
X2130Y137D01*
X2134Y137D01*
X2134Y135D01*
X2136Y135D01*
X2136Y133D01*
X2138Y133D01*
X2138Y131D01*
X2142Y131D01*
X2142Y127D01*
X2144Y127D01*
X2144Y125D01*
X2146Y125D01*
X2146Y123D01*
X2148Y123D01*
X2148Y119D01*
X2150Y119D01*
X2150Y113D01*
X2170Y113D01*
X2170Y115D01*
X2172Y115D01*
X2172Y119D01*
X2174Y119D01*
X2174Y123D01*
X2176Y123D01*
X2176Y125D01*
X2178Y125D01*
X2178Y129D01*
X2180Y129D01*
X2180Y131D01*
X2182Y131D01*
X2182Y133D01*
X2186Y133D01*
X2186Y135D01*
X2188Y135D01*
X2188Y137D01*
X2192Y137D01*
X2192Y139D01*
X2196Y139D01*
X2196Y141D01*
X2204Y141D01*
X2204Y143D01*
X2118Y143D01*
G37*
D02*
G36*
X2218Y143D02*
X2218Y141D01*
X2226Y141D01*
X2226Y139D01*
X2230Y139D01*
X2230Y137D01*
X2234Y137D01*
X2234Y135D01*
X2236Y135D01*
X2236Y133D01*
X2238Y133D01*
X2238Y131D01*
X2242Y131D01*
X2242Y127D01*
X2244Y127D01*
X2244Y125D01*
X2246Y125D01*
X2246Y123D01*
X2248Y123D01*
X2248Y119D01*
X2250Y119D01*
X2250Y113D01*
X2270Y113D01*
X2270Y115D01*
X2272Y115D01*
X2272Y119D01*
X2274Y119D01*
X2274Y123D01*
X2276Y123D01*
X2276Y125D01*
X2278Y125D01*
X2278Y129D01*
X2280Y129D01*
X2280Y131D01*
X2282Y131D01*
X2282Y133D01*
X2286Y133D01*
X2286Y135D01*
X2288Y135D01*
X2288Y137D01*
X2292Y137D01*
X2292Y139D01*
X2296Y139D01*
X2296Y141D01*
X2304Y141D01*
X2304Y143D01*
X2218Y143D01*
G37*
D02*
G36*
X2440Y423D02*
X2440Y421D01*
X2438Y421D01*
X2438Y417D01*
X2436Y417D01*
X2436Y415D01*
X2434Y415D01*
X2434Y413D01*
X2430Y413D01*
X2430Y411D01*
X2428Y411D01*
X2428Y409D01*
X2426Y409D01*
X2426Y407D01*
X2424Y407D01*
X2424Y345D01*
X2426Y345D01*
X2426Y283D01*
X2428Y283D01*
X2428Y221D01*
X2430Y221D01*
X2430Y157D01*
X2432Y157D01*
X2432Y137D01*
X2434Y137D01*
X2434Y135D01*
X2436Y135D01*
X2436Y133D01*
X2438Y133D01*
X2438Y131D01*
X2442Y131D01*
X2442Y127D01*
X2444Y127D01*
X2444Y125D01*
X2446Y125D01*
X2446Y123D01*
X2448Y123D01*
X2448Y119D01*
X2450Y119D01*
X2450Y113D01*
X2470Y113D01*
X2470Y115D01*
X2472Y115D01*
X2472Y119D01*
X2474Y119D01*
X2474Y123D01*
X2476Y123D01*
X2476Y125D01*
X2478Y125D01*
X2478Y129D01*
X2480Y129D01*
X2480Y131D01*
X2482Y131D01*
X2482Y133D01*
X2486Y133D01*
X2486Y135D01*
X2488Y135D01*
X2488Y155D01*
X2486Y155D01*
X2486Y219D01*
X2484Y219D01*
X2484Y281D01*
X2482Y281D01*
X2482Y345D01*
X2480Y345D01*
X2480Y405D01*
X2478Y405D01*
X2478Y407D01*
X2474Y407D01*
X2474Y409D01*
X2470Y409D01*
X2470Y411D01*
X2468Y411D01*
X2468Y413D01*
X2466Y413D01*
X2466Y415D01*
X2464Y415D01*
X2464Y417D01*
X2462Y417D01*
X2462Y419D01*
X2460Y419D01*
X2460Y423D01*
X2440Y423D01*
G37*
D02*
G36*
X1150Y87D02*
X1150Y81D01*
X1148Y81D01*
X1148Y77D01*
X1146Y77D01*
X1146Y75D01*
X1144Y75D01*
X1144Y73D01*
X1142Y73D01*
X1142Y71D01*
X1140Y71D01*
X1140Y69D01*
X1138Y69D01*
X1138Y67D01*
X1136Y67D01*
X1136Y47D01*
X1186Y47D01*
X1186Y67D01*
X1184Y67D01*
X1184Y69D01*
X1180Y69D01*
X1180Y71D01*
X1178Y71D01*
X1178Y75D01*
X1176Y75D01*
X1176Y77D01*
X1174Y77D01*
X1174Y81D01*
X1172Y81D01*
X1172Y85D01*
X1170Y85D01*
X1170Y87D01*
X1150Y87D01*
G37*
D02*
G36*
X1250Y87D02*
X1250Y81D01*
X1248Y81D01*
X1248Y77D01*
X1246Y77D01*
X1246Y75D01*
X1244Y75D01*
X1244Y73D01*
X1242Y73D01*
X1242Y71D01*
X1240Y71D01*
X1240Y69D01*
X1238Y69D01*
X1238Y67D01*
X1236Y67D01*
X1236Y47D01*
X1286Y47D01*
X1286Y67D01*
X1284Y67D01*
X1284Y69D01*
X1280Y69D01*
X1280Y71D01*
X1278Y71D01*
X1278Y75D01*
X1276Y75D01*
X1276Y77D01*
X1274Y77D01*
X1274Y81D01*
X1272Y81D01*
X1272Y85D01*
X1270Y85D01*
X1270Y87D01*
X1250Y87D01*
G37*
D02*
G36*
X1350Y87D02*
X1350Y81D01*
X1348Y81D01*
X1348Y77D01*
X1346Y77D01*
X1346Y75D01*
X1344Y75D01*
X1344Y73D01*
X1342Y73D01*
X1342Y71D01*
X1340Y71D01*
X1340Y69D01*
X1338Y69D01*
X1338Y67D01*
X1336Y67D01*
X1336Y47D01*
X1386Y47D01*
X1386Y67D01*
X1384Y67D01*
X1384Y69D01*
X1380Y69D01*
X1380Y71D01*
X1378Y71D01*
X1378Y75D01*
X1376Y75D01*
X1376Y77D01*
X1374Y77D01*
X1374Y81D01*
X1372Y81D01*
X1372Y85D01*
X1370Y85D01*
X1370Y87D01*
X1350Y87D01*
G37*
D02*
G36*
X1450Y87D02*
X1450Y81D01*
X1448Y81D01*
X1448Y77D01*
X1446Y77D01*
X1446Y75D01*
X1444Y75D01*
X1444Y73D01*
X1442Y73D01*
X1442Y71D01*
X1440Y71D01*
X1440Y69D01*
X1438Y69D01*
X1438Y67D01*
X1436Y67D01*
X1436Y47D01*
X1486Y47D01*
X1486Y67D01*
X1484Y67D01*
X1484Y69D01*
X1480Y69D01*
X1480Y71D01*
X1478Y71D01*
X1478Y75D01*
X1476Y75D01*
X1476Y77D01*
X1474Y77D01*
X1474Y81D01*
X1472Y81D01*
X1472Y85D01*
X1470Y85D01*
X1470Y87D01*
X1450Y87D01*
G37*
D02*
G36*
X1550Y87D02*
X1550Y81D01*
X1548Y81D01*
X1548Y77D01*
X1546Y77D01*
X1546Y75D01*
X1544Y75D01*
X1544Y73D01*
X1542Y73D01*
X1542Y71D01*
X1540Y71D01*
X1540Y69D01*
X1538Y69D01*
X1538Y67D01*
X1536Y67D01*
X1536Y47D01*
X1586Y47D01*
X1586Y67D01*
X1584Y67D01*
X1584Y69D01*
X1580Y69D01*
X1580Y71D01*
X1578Y71D01*
X1578Y75D01*
X1576Y75D01*
X1576Y77D01*
X1574Y77D01*
X1574Y81D01*
X1572Y81D01*
X1572Y85D01*
X1570Y85D01*
X1570Y87D01*
X1550Y87D01*
G37*
D02*
G36*
X1650Y87D02*
X1650Y81D01*
X1648Y81D01*
X1648Y77D01*
X1646Y77D01*
X1646Y75D01*
X1644Y75D01*
X1644Y73D01*
X1642Y73D01*
X1642Y71D01*
X1640Y71D01*
X1640Y69D01*
X1638Y69D01*
X1638Y67D01*
X1636Y67D01*
X1636Y47D01*
X1686Y47D01*
X1686Y67D01*
X1684Y67D01*
X1684Y69D01*
X1680Y69D01*
X1680Y71D01*
X1678Y71D01*
X1678Y75D01*
X1676Y75D01*
X1676Y77D01*
X1674Y77D01*
X1674Y81D01*
X1672Y81D01*
X1672Y85D01*
X1670Y85D01*
X1670Y87D01*
X1650Y87D01*
G37*
D02*
G36*
X1750Y87D02*
X1750Y81D01*
X1748Y81D01*
X1748Y77D01*
X1746Y77D01*
X1746Y75D01*
X1744Y75D01*
X1744Y73D01*
X1742Y73D01*
X1742Y71D01*
X1740Y71D01*
X1740Y69D01*
X1738Y69D01*
X1738Y67D01*
X1736Y67D01*
X1736Y47D01*
X1786Y47D01*
X1786Y67D01*
X1784Y67D01*
X1784Y69D01*
X1780Y69D01*
X1780Y71D01*
X1778Y71D01*
X1778Y75D01*
X1776Y75D01*
X1776Y77D01*
X1774Y77D01*
X1774Y81D01*
X1772Y81D01*
X1772Y85D01*
X1770Y85D01*
X1770Y87D01*
X1750Y87D01*
G37*
D02*
G36*
X2050Y87D02*
X2050Y81D01*
X2048Y81D01*
X2048Y77D01*
X2046Y77D01*
X2046Y75D01*
X2044Y75D01*
X2044Y73D01*
X2042Y73D01*
X2042Y71D01*
X2040Y71D01*
X2040Y69D01*
X2038Y69D01*
X2038Y67D01*
X2036Y67D01*
X2036Y47D01*
X2086Y47D01*
X2086Y67D01*
X2084Y67D01*
X2084Y69D01*
X2080Y69D01*
X2080Y71D01*
X2078Y71D01*
X2078Y75D01*
X2076Y75D01*
X2076Y77D01*
X2074Y77D01*
X2074Y81D01*
X2072Y81D01*
X2072Y85D01*
X2070Y85D01*
X2070Y87D01*
X2050Y87D01*
G37*
D02*
G36*
X2150Y87D02*
X2150Y81D01*
X2148Y81D01*
X2148Y77D01*
X2146Y77D01*
X2146Y75D01*
X2144Y75D01*
X2144Y73D01*
X2142Y73D01*
X2142Y71D01*
X2140Y71D01*
X2140Y69D01*
X2138Y69D01*
X2138Y67D01*
X2136Y67D01*
X2136Y47D01*
X2186Y47D01*
X2186Y67D01*
X2184Y67D01*
X2184Y69D01*
X2180Y69D01*
X2180Y71D01*
X2178Y71D01*
X2178Y75D01*
X2176Y75D01*
X2176Y77D01*
X2174Y77D01*
X2174Y81D01*
X2172Y81D01*
X2172Y85D01*
X2170Y85D01*
X2170Y87D01*
X2150Y87D01*
G37*
D02*
G36*
X2250Y87D02*
X2250Y81D01*
X2248Y81D01*
X2248Y77D01*
X2246Y77D01*
X2246Y75D01*
X2244Y75D01*
X2244Y73D01*
X2242Y73D01*
X2242Y71D01*
X2240Y71D01*
X2240Y69D01*
X2238Y69D01*
X2238Y67D01*
X2236Y67D01*
X2236Y47D01*
X2286Y47D01*
X2286Y67D01*
X2284Y67D01*
X2284Y69D01*
X2280Y69D01*
X2280Y71D01*
X2278Y71D01*
X2278Y75D01*
X2276Y75D01*
X2276Y77D01*
X2274Y77D01*
X2274Y81D01*
X2272Y81D01*
X2272Y85D01*
X2270Y85D01*
X2270Y87D01*
X2250Y87D01*
G37*
D02*
G36*
X2350Y87D02*
X2350Y81D01*
X2348Y81D01*
X2348Y77D01*
X2346Y77D01*
X2346Y75D01*
X2344Y75D01*
X2344Y73D01*
X2342Y73D01*
X2342Y71D01*
X2340Y71D01*
X2340Y69D01*
X2338Y69D01*
X2338Y67D01*
X2336Y67D01*
X2336Y47D01*
X2386Y47D01*
X2386Y67D01*
X2384Y67D01*
X2384Y69D01*
X2380Y69D01*
X2380Y71D01*
X2378Y71D01*
X2378Y75D01*
X2376Y75D01*
X2376Y77D01*
X2374Y77D01*
X2374Y81D01*
X2372Y81D01*
X2372Y85D01*
X2370Y85D01*
X2370Y87D01*
X2350Y87D01*
G37*
D02*
G36*
X2450Y87D02*
X2450Y81D01*
X2448Y81D01*
X2448Y77D01*
X2446Y77D01*
X2446Y75D01*
X2444Y75D01*
X2444Y73D01*
X2442Y73D01*
X2442Y71D01*
X2440Y71D01*
X2440Y69D01*
X2438Y69D01*
X2438Y67D01*
X2436Y67D01*
X2436Y47D01*
X2486Y47D01*
X2486Y67D01*
X2484Y67D01*
X2484Y69D01*
X2480Y69D01*
X2480Y71D01*
X2478Y71D01*
X2478Y75D01*
X2476Y75D01*
X2476Y77D01*
X2474Y77D01*
X2474Y81D01*
X2472Y81D01*
X2472Y85D01*
X2470Y85D01*
X2470Y87D01*
X2450Y87D01*
G37*
D02*
G36*
X116Y607D02*
X159Y607D01*
X159Y575D01*
X116Y575D01*
X116Y607D01*
G37*
D02*
G36*
X116Y541D02*
X159Y541D01*
X159Y509D01*
X116Y509D01*
X116Y541D01*
G37*
D02*
G36*
X88Y579D02*
X120Y579D01*
X120Y536D01*
X88Y536D01*
X88Y579D01*
G37*
D02*
G36*
X154Y579D02*
X186Y579D01*
X186Y536D01*
X154Y536D01*
X154Y579D01*
G37*
D02*
G36*
X1476Y635D02*
X1519Y635D01*
X1519Y601D01*
X1476Y601D01*
X1476Y635D01*
G37*
D02*
G36*
X1448Y673D02*
X1480Y673D01*
X1480Y630D01*
X1448Y630D01*
X1448Y673D01*
G37*
D02*
G36*
X1514Y673D02*
X1548Y673D01*
X1548Y630D01*
X1514Y630D01*
X1514Y673D01*
G37*
D02*
G36*
X116Y803D02*
X159Y803D01*
X159Y773D01*
X116Y773D01*
X116Y803D01*
G37*
D02*
G36*
X116Y739D02*
X159Y739D01*
X159Y705D01*
X116Y705D01*
X116Y739D01*
G37*
D02*
G36*
X88Y777D02*
X120Y777D01*
X120Y734D01*
X88Y734D01*
X88Y777D01*
G37*
D02*
G36*
X154Y777D02*
X186Y777D01*
X186Y734D01*
X154Y734D01*
X154Y777D01*
G37*
D02*
G36*
X299Y435D02*
X368Y435D01*
X368Y405D01*
X299Y405D01*
X299Y435D01*
G37*
D02*
G36*
X299Y319D02*
X368Y319D01*
X368Y285D01*
X299Y285D01*
X299Y319D01*
G37*
D02*
G36*
X258Y396D02*
X290Y396D01*
X290Y327D01*
X258Y327D01*
X258Y396D01*
G37*
D02*
G36*
X299Y1027D02*
X368Y1027D01*
X368Y995D01*
X299Y995D01*
X299Y1027D01*
G37*
D02*
G36*
X299Y909D02*
X368Y909D01*
X368Y877D01*
X299Y877D01*
X299Y909D01*
G37*
D02*
G36*
X258Y986D02*
X290Y986D01*
X290Y917D01*
X258Y917D01*
X258Y986D01*
G37*
D02*
G36*
X1676Y501D02*
X1719Y501D01*
X1719Y469D01*
X1676Y469D01*
X1676Y501D01*
G37*
D02*
G36*
X1676Y435D02*
X1719Y435D01*
X1719Y401D01*
X1676Y401D01*
X1676Y435D01*
G37*
D02*
G36*
X1648Y473D02*
X1680Y473D01*
X1680Y430D01*
X1648Y430D01*
X1648Y473D01*
G37*
D02*
G36*
X2175Y503D02*
X2220Y503D01*
X2220Y471D01*
X2175Y471D01*
X2175Y503D01*
G37*
D02*
G36*
X2175Y433D02*
X2220Y433D01*
X2220Y401D01*
X2175Y401D01*
X2175Y433D01*
G37*
D02*
G36*
X1690Y147D02*
X1729Y147D01*
X1729Y125D01*
X1690Y125D01*
X1690Y147D01*
G37*
D02*
G36*
X1690Y83D02*
X1729Y83D01*
X1729Y57D01*
X1690Y57D01*
X1690Y83D01*
G37*
D02*
G36*
X1796Y1401D02*
X1823Y1401D01*
X1823Y1377D01*
X1796Y1377D01*
X1796Y1401D01*
G37*
D02*
G36*
X2196Y1401D02*
X2223Y1401D01*
X2223Y1377D01*
X2196Y1377D01*
X2196Y1401D01*
G37*
D02*
G36*
X1196Y1401D02*
X1223Y1401D01*
X1223Y1377D01*
X1196Y1377D01*
X1196Y1401D01*
G37*
D02*
G36*
X296Y1401D02*
X323Y1401D01*
X323Y1377D01*
X296Y1377D01*
X296Y1401D01*
G37*
D02*
G36*
X274Y1411D02*
X308Y1411D01*
X308Y1392D01*
X274Y1392D01*
X274Y1411D01*
G37*
D02*
G36*
X1496Y1401D02*
X1523Y1401D01*
X1523Y1377D01*
X1496Y1377D01*
X1496Y1401D01*
G37*
D02*
G36*
X596Y1401D02*
X623Y1401D01*
X623Y1377D01*
X596Y1377D01*
X596Y1401D01*
G37*
D02*
G36*
X1030Y2047D02*
X1069Y2047D01*
X1069Y2023D01*
X1030Y2023D01*
X1030Y2047D01*
G37*
D02*
G36*
X1030Y1981D02*
X1069Y1981D01*
X1069Y1957D01*
X1030Y1957D01*
X1030Y1981D01*
G37*
D02*
G36*
X1590Y147D02*
X1629Y147D01*
X1629Y125D01*
X1590Y125D01*
X1590Y147D01*
G37*
D02*
G36*
X1590Y83D02*
X1629Y83D01*
X1629Y57D01*
X1590Y57D01*
X1590Y83D01*
G37*
D02*
G36*
X958Y1297D02*
X1001Y1297D01*
X1001Y1265D01*
X958Y1265D01*
X958Y1297D01*
G37*
D02*
G36*
X996Y1335D02*
X1028Y1335D01*
X1028Y1292D01*
X996Y1292D01*
X996Y1335D01*
G37*
D02*
G04 End of Copper1*
M02*