; NON-PLATED HOLES START AT T1
; THROUGH (PLATED) HOLES START AT T100
M48
INCH
T100C0.040278
T101C0.086000
T102C0.035433
T103C0.042000
T104C0.038000
T105C0.035000
%
T100
X021108Y001005
X016108Y001005
X019108Y020005
X015108Y001005
X016507Y020005
X018108Y020005
X021108Y020005
X012108Y001005
X009507Y020005
X014508Y020005
X007507Y020005
X011508Y020005
X024108Y001005
X010508Y020005
X022107Y001005
X023108Y001005
X024108Y020005
X020108Y001005
X022107Y020005
X023108Y020005
X014108Y001005
X013108Y001005
X020108Y020005
X015508Y020005
X011108Y001005
X008507Y020005
X013508Y020005
X012508Y020005
X025108Y001005
X017107Y001005
X018108Y001005
X025108Y020005
T101
X003355Y003592
X003355Y009498
T102
X009811Y013127
T103
X009996Y008498
X009996Y005518
T104
X025996Y009498
X024996Y004498
X023996Y004498
X024996Y009498
X023996Y009498
X022996Y004498
X021996Y004498
T105
X011996Y008498
X014996Y009498
X022996Y014498
X014996Y006498
X006308Y008513
X016996Y004498
X001386Y007529
X011996Y007498
X014996Y008498
X006308Y004576
X005323Y009498
X018996Y006498
X005323Y006545
X022996Y010498
X018996Y010498
X007996Y008498
X011996Y009498
X011996Y006498
X014996Y007498
X001386Y005561
X016996Y008498
X005323Y003592
X007996Y004498
T00
M30
