G04 MADE WITH FRITZING*
G04 WWW.FRITZING.ORG*
G04 DOUBLE SIDED*
G04 HOLES PLATED*
G04 CONTOUR ON CENTER OF CONTOUR VECTOR*
%ASAXBY*%
%FSLAX23Y23*%
%MOIN*%
%OFA0B0*%
%SFA1.0B1.0*%
%ADD10C,0.075000*%
%ADD11C,0.078000*%
%ADD12C,0.082000*%
%ADD13C,0.065278*%
%ADD14C,0.126000*%
%ADD15C,0.057000*%
%ADD16C,0.047559*%
%ADD17R,0.078000X0.078000*%
%ADD18R,0.082000X0.082000*%
%ADD19R,0.075000X0.075000*%
%ADD20R,0.000150X0.000150*%
%ADD21C,0.024000*%
%LNCOPPER0*%
G90*
G70*
G54D10*
X132Y2010D03*
G54D11*
X2600Y950D03*
X2500Y950D03*
X2400Y950D03*
G54D12*
X1000Y850D03*
X1000Y552D03*
G54D10*
X800Y850D03*
X800Y450D03*
X1700Y450D03*
X1700Y850D03*
X1900Y650D03*
X1900Y1050D03*
G54D13*
X2111Y101D03*
X2211Y101D03*
X2311Y101D03*
X2411Y101D03*
X2511Y101D03*
X1651Y2001D03*
X1551Y2001D03*
X1451Y2001D03*
X1351Y2001D03*
X1251Y2001D03*
X1151Y2001D03*
X1051Y2001D03*
X951Y2001D03*
X851Y2001D03*
X751Y2001D03*
X2511Y2001D03*
X2411Y2001D03*
X2311Y2001D03*
X2211Y2001D03*
X2111Y2001D03*
X2011Y2001D03*
X1911Y2001D03*
X1811Y2001D03*
X1211Y101D03*
X1111Y101D03*
X1311Y101D03*
X1411Y101D03*
X1511Y101D03*
X1611Y101D03*
X1711Y101D03*
X1811Y101D03*
X2011Y101D03*
G54D10*
X2300Y1450D03*
X2300Y1050D03*
X1200Y950D03*
X1500Y950D03*
X1200Y850D03*
X1500Y850D03*
X1200Y750D03*
X1500Y750D03*
X1200Y650D03*
X1500Y650D03*
X532Y950D03*
X631Y851D03*
X532Y655D03*
X631Y458D03*
X532Y359D03*
X139Y753D03*
G54D14*
X336Y359D03*
X336Y950D03*
G54D10*
X139Y556D03*
G54D15*
X1711Y1251D03*
X1789Y1251D03*
X2011Y1250D03*
X2090Y1250D03*
X211Y1251D03*
X289Y1251D03*
X511Y1251D03*
X589Y1251D03*
X811Y1251D03*
X889Y1251D03*
X1111Y1251D03*
X1189Y1251D03*
X1411Y1251D03*
X1489Y1251D03*
G54D16*
X2411Y650D03*
X2411Y571D03*
X2411Y492D03*
X2411Y414D03*
G54D17*
X2600Y950D03*
G54D18*
X1000Y851D03*
G54D19*
X1200Y950D03*
G54D20*
X1200Y649D03*
G54D21*
X2311Y550D02*
X2389Y505D01*
D02*
X2300Y1021D02*
X2311Y550D01*
G36*
X76Y2059D02*
X76Y2057D01*
X70Y2057D01*
X70Y2055D01*
X68Y2055D01*
X68Y2053D01*
X64Y2053D01*
X64Y2051D01*
X62Y2051D01*
X62Y2049D01*
X60Y2049D01*
X60Y2047D01*
X58Y2047D01*
X58Y2043D01*
X56Y2043D01*
X56Y2041D01*
X54Y2041D01*
X54Y2035D01*
X52Y2035D01*
X52Y1957D01*
X744Y1957D01*
X744Y1959D01*
X736Y1959D01*
X736Y1961D01*
X732Y1961D01*
X732Y1963D01*
X728Y1963D01*
X728Y1965D01*
X726Y1965D01*
X726Y1967D01*
X724Y1967D01*
X724Y1969D01*
X720Y1969D01*
X720Y1971D01*
X718Y1971D01*
X718Y1975D01*
X716Y1975D01*
X716Y1977D01*
X714Y1977D01*
X714Y1981D01*
X712Y1981D01*
X712Y1985D01*
X710Y1985D01*
X710Y1993D01*
X708Y1993D01*
X708Y2009D01*
X710Y2009D01*
X710Y2015D01*
X712Y2015D01*
X712Y2019D01*
X714Y2019D01*
X714Y2023D01*
X716Y2023D01*
X716Y2025D01*
X718Y2025D01*
X718Y2029D01*
X720Y2029D01*
X720Y2031D01*
X722Y2031D01*
X722Y2033D01*
X726Y2033D01*
X726Y2035D01*
X728Y2035D01*
X728Y2037D01*
X732Y2037D01*
X732Y2039D01*
X736Y2039D01*
X736Y2059D01*
X76Y2059D01*
G37*
D02*
G36*
X1666Y2059D02*
X1666Y2039D01*
X1670Y2039D01*
X1670Y2037D01*
X1674Y2037D01*
X1674Y2035D01*
X1676Y2035D01*
X1676Y2033D01*
X1678Y2033D01*
X1678Y2031D01*
X1682Y2031D01*
X1682Y2027D01*
X1684Y2027D01*
X1684Y2025D01*
X1686Y2025D01*
X1686Y2023D01*
X1688Y2023D01*
X1688Y2019D01*
X1690Y2019D01*
X1690Y2013D01*
X1692Y2013D01*
X1692Y2005D01*
X1694Y2005D01*
X1694Y1995D01*
X1692Y1995D01*
X1692Y1987D01*
X1690Y1987D01*
X1690Y1981D01*
X1688Y1981D01*
X1688Y1977D01*
X1686Y1977D01*
X1686Y1975D01*
X1684Y1975D01*
X1684Y1973D01*
X1682Y1973D01*
X1682Y1971D01*
X1680Y1971D01*
X1680Y1969D01*
X1678Y1969D01*
X1678Y1967D01*
X1676Y1967D01*
X1676Y1965D01*
X1674Y1965D01*
X1674Y1963D01*
X1670Y1963D01*
X1670Y1961D01*
X1664Y1961D01*
X1664Y1959D01*
X1656Y1959D01*
X1656Y1957D01*
X1804Y1957D01*
X1804Y1959D01*
X1796Y1959D01*
X1796Y1961D01*
X1792Y1961D01*
X1792Y1963D01*
X1788Y1963D01*
X1788Y1965D01*
X1786Y1965D01*
X1786Y1967D01*
X1784Y1967D01*
X1784Y1969D01*
X1780Y1969D01*
X1780Y1971D01*
X1778Y1971D01*
X1778Y1975D01*
X1776Y1975D01*
X1776Y1977D01*
X1774Y1977D01*
X1774Y1981D01*
X1772Y1981D01*
X1772Y1985D01*
X1770Y1985D01*
X1770Y1993D01*
X1768Y1993D01*
X1768Y2009D01*
X1770Y2009D01*
X1770Y2015D01*
X1772Y2015D01*
X1772Y2019D01*
X1774Y2019D01*
X1774Y2023D01*
X1776Y2023D01*
X1776Y2025D01*
X1778Y2025D01*
X1778Y2029D01*
X1780Y2029D01*
X1780Y2031D01*
X1782Y2031D01*
X1782Y2033D01*
X1786Y2033D01*
X1786Y2035D01*
X1788Y2035D01*
X1788Y2037D01*
X1792Y2037D01*
X1792Y2039D01*
X1796Y2039D01*
X1796Y2059D01*
X1666Y2059D01*
G37*
D02*
G36*
X790Y1987D02*
X790Y1981D01*
X788Y1981D01*
X788Y1977D01*
X786Y1977D01*
X786Y1975D01*
X784Y1975D01*
X784Y1973D01*
X782Y1973D01*
X782Y1971D01*
X780Y1971D01*
X780Y1969D01*
X778Y1969D01*
X778Y1967D01*
X776Y1967D01*
X776Y1965D01*
X774Y1965D01*
X774Y1963D01*
X770Y1963D01*
X770Y1961D01*
X764Y1961D01*
X764Y1959D01*
X756Y1959D01*
X756Y1957D01*
X844Y1957D01*
X844Y1959D01*
X836Y1959D01*
X836Y1961D01*
X832Y1961D01*
X832Y1963D01*
X828Y1963D01*
X828Y1965D01*
X826Y1965D01*
X826Y1967D01*
X824Y1967D01*
X824Y1969D01*
X820Y1969D01*
X820Y1971D01*
X818Y1971D01*
X818Y1975D01*
X816Y1975D01*
X816Y1977D01*
X814Y1977D01*
X814Y1981D01*
X812Y1981D01*
X812Y1985D01*
X810Y1985D01*
X810Y1987D01*
X790Y1987D01*
G37*
D02*
G36*
X890Y1987D02*
X890Y1981D01*
X888Y1981D01*
X888Y1977D01*
X886Y1977D01*
X886Y1975D01*
X884Y1975D01*
X884Y1973D01*
X882Y1973D01*
X882Y1971D01*
X880Y1971D01*
X880Y1969D01*
X878Y1969D01*
X878Y1967D01*
X876Y1967D01*
X876Y1965D01*
X874Y1965D01*
X874Y1963D01*
X870Y1963D01*
X870Y1961D01*
X864Y1961D01*
X864Y1959D01*
X856Y1959D01*
X856Y1957D01*
X944Y1957D01*
X944Y1959D01*
X936Y1959D01*
X936Y1961D01*
X932Y1961D01*
X932Y1963D01*
X928Y1963D01*
X928Y1965D01*
X926Y1965D01*
X926Y1967D01*
X924Y1967D01*
X924Y1969D01*
X920Y1969D01*
X920Y1971D01*
X918Y1971D01*
X918Y1975D01*
X916Y1975D01*
X916Y1977D01*
X914Y1977D01*
X914Y1981D01*
X912Y1981D01*
X912Y1985D01*
X910Y1985D01*
X910Y1987D01*
X890Y1987D01*
G37*
D02*
G36*
X990Y1987D02*
X990Y1981D01*
X988Y1981D01*
X988Y1977D01*
X986Y1977D01*
X986Y1975D01*
X984Y1975D01*
X984Y1973D01*
X982Y1973D01*
X982Y1971D01*
X980Y1971D01*
X980Y1969D01*
X978Y1969D01*
X978Y1967D01*
X976Y1967D01*
X976Y1965D01*
X974Y1965D01*
X974Y1963D01*
X970Y1963D01*
X970Y1961D01*
X964Y1961D01*
X964Y1959D01*
X956Y1959D01*
X956Y1957D01*
X1044Y1957D01*
X1044Y1959D01*
X1036Y1959D01*
X1036Y1961D01*
X1032Y1961D01*
X1032Y1963D01*
X1028Y1963D01*
X1028Y1965D01*
X1026Y1965D01*
X1026Y1967D01*
X1024Y1967D01*
X1024Y1969D01*
X1020Y1969D01*
X1020Y1971D01*
X1018Y1971D01*
X1018Y1975D01*
X1016Y1975D01*
X1016Y1977D01*
X1014Y1977D01*
X1014Y1981D01*
X1012Y1981D01*
X1012Y1985D01*
X1010Y1985D01*
X1010Y1987D01*
X990Y1987D01*
G37*
D02*
G36*
X1090Y1987D02*
X1090Y1981D01*
X1088Y1981D01*
X1088Y1977D01*
X1086Y1977D01*
X1086Y1975D01*
X1084Y1975D01*
X1084Y1973D01*
X1082Y1973D01*
X1082Y1971D01*
X1080Y1971D01*
X1080Y1969D01*
X1078Y1969D01*
X1078Y1967D01*
X1076Y1967D01*
X1076Y1965D01*
X1074Y1965D01*
X1074Y1963D01*
X1070Y1963D01*
X1070Y1961D01*
X1064Y1961D01*
X1064Y1959D01*
X1056Y1959D01*
X1056Y1957D01*
X1144Y1957D01*
X1144Y1959D01*
X1136Y1959D01*
X1136Y1961D01*
X1132Y1961D01*
X1132Y1963D01*
X1128Y1963D01*
X1128Y1965D01*
X1126Y1965D01*
X1126Y1967D01*
X1124Y1967D01*
X1124Y1969D01*
X1120Y1969D01*
X1120Y1971D01*
X1118Y1971D01*
X1118Y1975D01*
X1116Y1975D01*
X1116Y1977D01*
X1114Y1977D01*
X1114Y1981D01*
X1112Y1981D01*
X1112Y1985D01*
X1110Y1985D01*
X1110Y1987D01*
X1090Y1987D01*
G37*
D02*
G36*
X1190Y1987D02*
X1190Y1981D01*
X1188Y1981D01*
X1188Y1977D01*
X1186Y1977D01*
X1186Y1975D01*
X1184Y1975D01*
X1184Y1973D01*
X1182Y1973D01*
X1182Y1971D01*
X1180Y1971D01*
X1180Y1969D01*
X1178Y1969D01*
X1178Y1967D01*
X1176Y1967D01*
X1176Y1965D01*
X1174Y1965D01*
X1174Y1963D01*
X1170Y1963D01*
X1170Y1961D01*
X1164Y1961D01*
X1164Y1959D01*
X1156Y1959D01*
X1156Y1957D01*
X1244Y1957D01*
X1244Y1959D01*
X1236Y1959D01*
X1236Y1961D01*
X1232Y1961D01*
X1232Y1963D01*
X1228Y1963D01*
X1228Y1965D01*
X1226Y1965D01*
X1226Y1967D01*
X1224Y1967D01*
X1224Y1969D01*
X1220Y1969D01*
X1220Y1971D01*
X1218Y1971D01*
X1218Y1975D01*
X1216Y1975D01*
X1216Y1977D01*
X1214Y1977D01*
X1214Y1981D01*
X1212Y1981D01*
X1212Y1985D01*
X1210Y1985D01*
X1210Y1987D01*
X1190Y1987D01*
G37*
D02*
G36*
X1290Y1987D02*
X1290Y1981D01*
X1288Y1981D01*
X1288Y1977D01*
X1286Y1977D01*
X1286Y1975D01*
X1284Y1975D01*
X1284Y1973D01*
X1282Y1973D01*
X1282Y1971D01*
X1280Y1971D01*
X1280Y1969D01*
X1278Y1969D01*
X1278Y1967D01*
X1276Y1967D01*
X1276Y1965D01*
X1274Y1965D01*
X1274Y1963D01*
X1270Y1963D01*
X1270Y1961D01*
X1264Y1961D01*
X1264Y1959D01*
X1256Y1959D01*
X1256Y1957D01*
X1344Y1957D01*
X1344Y1959D01*
X1336Y1959D01*
X1336Y1961D01*
X1332Y1961D01*
X1332Y1963D01*
X1328Y1963D01*
X1328Y1965D01*
X1326Y1965D01*
X1326Y1967D01*
X1324Y1967D01*
X1324Y1969D01*
X1320Y1969D01*
X1320Y1971D01*
X1318Y1971D01*
X1318Y1975D01*
X1316Y1975D01*
X1316Y1977D01*
X1314Y1977D01*
X1314Y1981D01*
X1312Y1981D01*
X1312Y1985D01*
X1310Y1985D01*
X1310Y1987D01*
X1290Y1987D01*
G37*
D02*
G36*
X1390Y1987D02*
X1390Y1981D01*
X1388Y1981D01*
X1388Y1977D01*
X1386Y1977D01*
X1386Y1975D01*
X1384Y1975D01*
X1384Y1973D01*
X1382Y1973D01*
X1382Y1971D01*
X1380Y1971D01*
X1380Y1969D01*
X1378Y1969D01*
X1378Y1967D01*
X1376Y1967D01*
X1376Y1965D01*
X1374Y1965D01*
X1374Y1963D01*
X1370Y1963D01*
X1370Y1961D01*
X1364Y1961D01*
X1364Y1959D01*
X1356Y1959D01*
X1356Y1957D01*
X1444Y1957D01*
X1444Y1959D01*
X1436Y1959D01*
X1436Y1961D01*
X1432Y1961D01*
X1432Y1963D01*
X1428Y1963D01*
X1428Y1965D01*
X1426Y1965D01*
X1426Y1967D01*
X1424Y1967D01*
X1424Y1969D01*
X1420Y1969D01*
X1420Y1971D01*
X1418Y1971D01*
X1418Y1975D01*
X1416Y1975D01*
X1416Y1977D01*
X1414Y1977D01*
X1414Y1981D01*
X1412Y1981D01*
X1412Y1985D01*
X1410Y1985D01*
X1410Y1987D01*
X1390Y1987D01*
G37*
D02*
G36*
X1490Y1987D02*
X1490Y1981D01*
X1488Y1981D01*
X1488Y1977D01*
X1486Y1977D01*
X1486Y1975D01*
X1484Y1975D01*
X1484Y1973D01*
X1482Y1973D01*
X1482Y1971D01*
X1480Y1971D01*
X1480Y1969D01*
X1478Y1969D01*
X1478Y1967D01*
X1476Y1967D01*
X1476Y1965D01*
X1474Y1965D01*
X1474Y1963D01*
X1470Y1963D01*
X1470Y1961D01*
X1464Y1961D01*
X1464Y1959D01*
X1456Y1959D01*
X1456Y1957D01*
X1544Y1957D01*
X1544Y1959D01*
X1536Y1959D01*
X1536Y1961D01*
X1532Y1961D01*
X1532Y1963D01*
X1528Y1963D01*
X1528Y1965D01*
X1526Y1965D01*
X1526Y1967D01*
X1524Y1967D01*
X1524Y1969D01*
X1520Y1969D01*
X1520Y1971D01*
X1518Y1971D01*
X1518Y1975D01*
X1516Y1975D01*
X1516Y1977D01*
X1514Y1977D01*
X1514Y1981D01*
X1512Y1981D01*
X1512Y1985D01*
X1510Y1985D01*
X1510Y1987D01*
X1490Y1987D01*
G37*
D02*
G36*
X1590Y1987D02*
X1590Y1981D01*
X1588Y1981D01*
X1588Y1977D01*
X1586Y1977D01*
X1586Y1975D01*
X1584Y1975D01*
X1584Y1973D01*
X1582Y1973D01*
X1582Y1971D01*
X1580Y1971D01*
X1580Y1969D01*
X1578Y1969D01*
X1578Y1967D01*
X1576Y1967D01*
X1576Y1965D01*
X1574Y1965D01*
X1574Y1963D01*
X1570Y1963D01*
X1570Y1961D01*
X1564Y1961D01*
X1564Y1959D01*
X1556Y1959D01*
X1556Y1957D01*
X1644Y1957D01*
X1644Y1959D01*
X1636Y1959D01*
X1636Y1961D01*
X1632Y1961D01*
X1632Y1963D01*
X1628Y1963D01*
X1628Y1965D01*
X1626Y1965D01*
X1626Y1967D01*
X1624Y1967D01*
X1624Y1969D01*
X1620Y1969D01*
X1620Y1971D01*
X1618Y1971D01*
X1618Y1975D01*
X1616Y1975D01*
X1616Y1977D01*
X1614Y1977D01*
X1614Y1981D01*
X1612Y1981D01*
X1612Y1985D01*
X1610Y1985D01*
X1610Y1987D01*
X1590Y1987D01*
G37*
D02*
G36*
X1850Y1987D02*
X1850Y1981D01*
X1848Y1981D01*
X1848Y1977D01*
X1846Y1977D01*
X1846Y1975D01*
X1844Y1975D01*
X1844Y1973D01*
X1842Y1973D01*
X1842Y1971D01*
X1840Y1971D01*
X1840Y1969D01*
X1838Y1969D01*
X1838Y1967D01*
X1836Y1967D01*
X1836Y1965D01*
X1834Y1965D01*
X1834Y1963D01*
X1830Y1963D01*
X1830Y1961D01*
X1824Y1961D01*
X1824Y1959D01*
X1816Y1959D01*
X1816Y1957D01*
X1904Y1957D01*
X1904Y1959D01*
X1896Y1959D01*
X1896Y1961D01*
X1892Y1961D01*
X1892Y1963D01*
X1888Y1963D01*
X1888Y1965D01*
X1886Y1965D01*
X1886Y1967D01*
X1884Y1967D01*
X1884Y1969D01*
X1880Y1969D01*
X1880Y1971D01*
X1878Y1971D01*
X1878Y1975D01*
X1876Y1975D01*
X1876Y1977D01*
X1874Y1977D01*
X1874Y1981D01*
X1872Y1981D01*
X1872Y1985D01*
X1870Y1985D01*
X1870Y1987D01*
X1850Y1987D01*
G37*
D02*
G36*
X1950Y1987D02*
X1950Y1981D01*
X1948Y1981D01*
X1948Y1977D01*
X1946Y1977D01*
X1946Y1975D01*
X1944Y1975D01*
X1944Y1973D01*
X1942Y1973D01*
X1942Y1971D01*
X1940Y1971D01*
X1940Y1969D01*
X1938Y1969D01*
X1938Y1967D01*
X1936Y1967D01*
X1936Y1965D01*
X1934Y1965D01*
X1934Y1963D01*
X1930Y1963D01*
X1930Y1961D01*
X1924Y1961D01*
X1924Y1959D01*
X1916Y1959D01*
X1916Y1957D01*
X2004Y1957D01*
X2004Y1959D01*
X1996Y1959D01*
X1996Y1961D01*
X1992Y1961D01*
X1992Y1963D01*
X1988Y1963D01*
X1988Y1965D01*
X1986Y1965D01*
X1986Y1967D01*
X1984Y1967D01*
X1984Y1969D01*
X1980Y1969D01*
X1980Y1971D01*
X1978Y1971D01*
X1978Y1975D01*
X1976Y1975D01*
X1976Y1977D01*
X1974Y1977D01*
X1974Y1981D01*
X1972Y1981D01*
X1972Y1985D01*
X1970Y1985D01*
X1970Y1987D01*
X1950Y1987D01*
G37*
D02*
G36*
X2050Y1987D02*
X2050Y1981D01*
X2048Y1981D01*
X2048Y1977D01*
X2046Y1977D01*
X2046Y1975D01*
X2044Y1975D01*
X2044Y1973D01*
X2042Y1973D01*
X2042Y1971D01*
X2040Y1971D01*
X2040Y1969D01*
X2038Y1969D01*
X2038Y1967D01*
X2036Y1967D01*
X2036Y1965D01*
X2034Y1965D01*
X2034Y1963D01*
X2030Y1963D01*
X2030Y1961D01*
X2024Y1961D01*
X2024Y1959D01*
X2016Y1959D01*
X2016Y1957D01*
X2104Y1957D01*
X2104Y1959D01*
X2096Y1959D01*
X2096Y1961D01*
X2092Y1961D01*
X2092Y1963D01*
X2088Y1963D01*
X2088Y1965D01*
X2086Y1965D01*
X2086Y1967D01*
X2084Y1967D01*
X2084Y1969D01*
X2080Y1969D01*
X2080Y1971D01*
X2078Y1971D01*
X2078Y1975D01*
X2076Y1975D01*
X2076Y1977D01*
X2074Y1977D01*
X2074Y1981D01*
X2072Y1981D01*
X2072Y1985D01*
X2070Y1985D01*
X2070Y1987D01*
X2050Y1987D01*
G37*
D02*
G36*
X2150Y1987D02*
X2150Y1981D01*
X2148Y1981D01*
X2148Y1977D01*
X2146Y1977D01*
X2146Y1975D01*
X2144Y1975D01*
X2144Y1973D01*
X2142Y1973D01*
X2142Y1971D01*
X2140Y1971D01*
X2140Y1969D01*
X2138Y1969D01*
X2138Y1967D01*
X2136Y1967D01*
X2136Y1965D01*
X2134Y1965D01*
X2134Y1963D01*
X2130Y1963D01*
X2130Y1961D01*
X2124Y1961D01*
X2124Y1959D01*
X2116Y1959D01*
X2116Y1957D01*
X2204Y1957D01*
X2204Y1959D01*
X2196Y1959D01*
X2196Y1961D01*
X2192Y1961D01*
X2192Y1963D01*
X2188Y1963D01*
X2188Y1965D01*
X2186Y1965D01*
X2186Y1967D01*
X2184Y1967D01*
X2184Y1969D01*
X2180Y1969D01*
X2180Y1971D01*
X2178Y1971D01*
X2178Y1975D01*
X2176Y1975D01*
X2176Y1977D01*
X2174Y1977D01*
X2174Y1981D01*
X2172Y1981D01*
X2172Y1985D01*
X2170Y1985D01*
X2170Y1987D01*
X2150Y1987D01*
G37*
D02*
G36*
X2250Y1987D02*
X2250Y1981D01*
X2248Y1981D01*
X2248Y1977D01*
X2246Y1977D01*
X2246Y1975D01*
X2244Y1975D01*
X2244Y1973D01*
X2242Y1973D01*
X2242Y1971D01*
X2240Y1971D01*
X2240Y1969D01*
X2238Y1969D01*
X2238Y1967D01*
X2236Y1967D01*
X2236Y1965D01*
X2234Y1965D01*
X2234Y1963D01*
X2230Y1963D01*
X2230Y1961D01*
X2224Y1961D01*
X2224Y1959D01*
X2216Y1959D01*
X2216Y1957D01*
X2304Y1957D01*
X2304Y1959D01*
X2296Y1959D01*
X2296Y1961D01*
X2292Y1961D01*
X2292Y1963D01*
X2288Y1963D01*
X2288Y1965D01*
X2286Y1965D01*
X2286Y1967D01*
X2284Y1967D01*
X2284Y1969D01*
X2280Y1969D01*
X2280Y1971D01*
X2278Y1971D01*
X2278Y1975D01*
X2276Y1975D01*
X2276Y1977D01*
X2274Y1977D01*
X2274Y1981D01*
X2272Y1981D01*
X2272Y1985D01*
X2270Y1985D01*
X2270Y1987D01*
X2250Y1987D01*
G37*
D02*
G36*
X2350Y1987D02*
X2350Y1981D01*
X2348Y1981D01*
X2348Y1977D01*
X2346Y1977D01*
X2346Y1975D01*
X2344Y1975D01*
X2344Y1973D01*
X2342Y1973D01*
X2342Y1971D01*
X2340Y1971D01*
X2340Y1969D01*
X2338Y1969D01*
X2338Y1967D01*
X2336Y1967D01*
X2336Y1965D01*
X2334Y1965D01*
X2334Y1963D01*
X2330Y1963D01*
X2330Y1961D01*
X2324Y1961D01*
X2324Y1959D01*
X2316Y1959D01*
X2316Y1957D01*
X2404Y1957D01*
X2404Y1959D01*
X2396Y1959D01*
X2396Y1961D01*
X2392Y1961D01*
X2392Y1963D01*
X2388Y1963D01*
X2388Y1965D01*
X2386Y1965D01*
X2386Y1967D01*
X2384Y1967D01*
X2384Y1969D01*
X2380Y1969D01*
X2380Y1971D01*
X2378Y1971D01*
X2378Y1975D01*
X2376Y1975D01*
X2376Y1977D01*
X2374Y1977D01*
X2374Y1981D01*
X2372Y1981D01*
X2372Y1985D01*
X2370Y1985D01*
X2370Y1987D01*
X2350Y1987D01*
G37*
D02*
G36*
X2450Y1987D02*
X2450Y1981D01*
X2448Y1981D01*
X2448Y1977D01*
X2446Y1977D01*
X2446Y1975D01*
X2444Y1975D01*
X2444Y1973D01*
X2442Y1973D01*
X2442Y1971D01*
X2440Y1971D01*
X2440Y1969D01*
X2438Y1969D01*
X2438Y1967D01*
X2436Y1967D01*
X2436Y1965D01*
X2434Y1965D01*
X2434Y1963D01*
X2430Y1963D01*
X2430Y1961D01*
X2424Y1961D01*
X2424Y1959D01*
X2416Y1959D01*
X2416Y1957D01*
X2504Y1957D01*
X2504Y1959D01*
X2496Y1959D01*
X2496Y1961D01*
X2492Y1961D01*
X2492Y1963D01*
X2488Y1963D01*
X2488Y1965D01*
X2486Y1965D01*
X2486Y1967D01*
X2484Y1967D01*
X2484Y1969D01*
X2480Y1969D01*
X2480Y1971D01*
X2478Y1971D01*
X2478Y1975D01*
X2476Y1975D01*
X2476Y1977D01*
X2474Y1977D01*
X2474Y1981D01*
X2472Y1981D01*
X2472Y1985D01*
X2470Y1985D01*
X2470Y1987D01*
X2450Y1987D01*
G37*
D02*
G36*
X2544Y1975D02*
X2544Y1973D01*
X2542Y1973D01*
X2542Y1971D01*
X2540Y1971D01*
X2540Y1969D01*
X2538Y1969D01*
X2538Y1967D01*
X2536Y1967D01*
X2536Y1965D01*
X2534Y1965D01*
X2534Y1963D01*
X2530Y1963D01*
X2530Y1961D01*
X2524Y1961D01*
X2524Y1959D01*
X2516Y1959D01*
X2516Y1957D01*
X2564Y1957D01*
X2564Y1975D01*
X2544Y1975D01*
G37*
D02*
G36*
X52Y1957D02*
X52Y1955D01*
X2564Y1955D01*
X2564Y1957D01*
X52Y1957D01*
G37*
D02*
G36*
X52Y1957D02*
X52Y1955D01*
X2564Y1955D01*
X2564Y1957D01*
X52Y1957D01*
G37*
D02*
G36*
X52Y1957D02*
X52Y1955D01*
X2564Y1955D01*
X2564Y1957D01*
X52Y1957D01*
G37*
D02*
G36*
X52Y1957D02*
X52Y1955D01*
X2564Y1955D01*
X2564Y1957D01*
X52Y1957D01*
G37*
D02*
G36*
X52Y1957D02*
X52Y1955D01*
X2564Y1955D01*
X2564Y1957D01*
X52Y1957D01*
G37*
D02*
G36*
X52Y1957D02*
X52Y1955D01*
X2564Y1955D01*
X2564Y1957D01*
X52Y1957D01*
G37*
D02*
G36*
X52Y1957D02*
X52Y1955D01*
X2564Y1955D01*
X2564Y1957D01*
X52Y1957D01*
G37*
D02*
G36*
X52Y1957D02*
X52Y1955D01*
X2564Y1955D01*
X2564Y1957D01*
X52Y1957D01*
G37*
D02*
G36*
X52Y1957D02*
X52Y1955D01*
X2564Y1955D01*
X2564Y1957D01*
X52Y1957D01*
G37*
D02*
G36*
X52Y1957D02*
X52Y1955D01*
X2564Y1955D01*
X2564Y1957D01*
X52Y1957D01*
G37*
D02*
G36*
X52Y1957D02*
X52Y1955D01*
X2564Y1955D01*
X2564Y1957D01*
X52Y1957D01*
G37*
D02*
G36*
X52Y1957D02*
X52Y1955D01*
X2564Y1955D01*
X2564Y1957D01*
X52Y1957D01*
G37*
D02*
G36*
X52Y1957D02*
X52Y1955D01*
X2564Y1955D01*
X2564Y1957D01*
X52Y1957D01*
G37*
D02*
G36*
X52Y1957D02*
X52Y1955D01*
X2564Y1955D01*
X2564Y1957D01*
X52Y1957D01*
G37*
D02*
G36*
X52Y1957D02*
X52Y1955D01*
X2564Y1955D01*
X2564Y1957D01*
X52Y1957D01*
G37*
D02*
G36*
X52Y1957D02*
X52Y1955D01*
X2564Y1955D01*
X2564Y1957D01*
X52Y1957D01*
G37*
D02*
G36*
X52Y1957D02*
X52Y1955D01*
X2564Y1955D01*
X2564Y1957D01*
X52Y1957D01*
G37*
D02*
G36*
X52Y1957D02*
X52Y1955D01*
X2564Y1955D01*
X2564Y1957D01*
X52Y1957D01*
G37*
D02*
G36*
X52Y1957D02*
X52Y1955D01*
X2564Y1955D01*
X2564Y1957D01*
X52Y1957D01*
G37*
D02*
G36*
X52Y1955D02*
X52Y1497D01*
X2308Y1497D01*
X2308Y1495D01*
X2316Y1495D01*
X2316Y1493D01*
X2320Y1493D01*
X2320Y1491D01*
X2324Y1491D01*
X2324Y1489D01*
X2328Y1489D01*
X2328Y1487D01*
X2330Y1487D01*
X2330Y1485D01*
X2332Y1485D01*
X2332Y1483D01*
X2334Y1483D01*
X2334Y1481D01*
X2336Y1481D01*
X2336Y1479D01*
X2338Y1479D01*
X2338Y1475D01*
X2340Y1475D01*
X2340Y1473D01*
X2342Y1473D01*
X2342Y1469D01*
X2344Y1469D01*
X2344Y1463D01*
X2346Y1463D01*
X2346Y1453D01*
X2348Y1453D01*
X2348Y1447D01*
X2346Y1447D01*
X2346Y1437D01*
X2344Y1437D01*
X2344Y1431D01*
X2342Y1431D01*
X2342Y1427D01*
X2340Y1427D01*
X2340Y1423D01*
X2338Y1423D01*
X2338Y1421D01*
X2336Y1421D01*
X2336Y1417D01*
X2334Y1417D01*
X2334Y1415D01*
X2332Y1415D01*
X2332Y1413D01*
X2328Y1413D01*
X2328Y1411D01*
X2326Y1411D01*
X2326Y1409D01*
X2322Y1409D01*
X2322Y1407D01*
X2318Y1407D01*
X2318Y1405D01*
X2312Y1405D01*
X2312Y1403D01*
X2302Y1403D01*
X2302Y1401D01*
X2664Y1401D01*
X2664Y1453D01*
X2662Y1453D01*
X2662Y1455D01*
X2660Y1455D01*
X2660Y1457D01*
X2658Y1457D01*
X2658Y1459D01*
X2656Y1459D01*
X2656Y1461D01*
X2654Y1461D01*
X2654Y1463D01*
X2652Y1463D01*
X2652Y1465D01*
X2650Y1465D01*
X2650Y1467D01*
X2648Y1467D01*
X2648Y1469D01*
X2646Y1469D01*
X2646Y1471D01*
X2644Y1471D01*
X2644Y1473D01*
X2642Y1473D01*
X2642Y1475D01*
X2640Y1475D01*
X2640Y1477D01*
X2638Y1477D01*
X2638Y1479D01*
X2636Y1479D01*
X2636Y1481D01*
X2634Y1481D01*
X2634Y1483D01*
X2632Y1483D01*
X2632Y1485D01*
X2630Y1485D01*
X2630Y1487D01*
X2628Y1487D01*
X2628Y1489D01*
X2626Y1489D01*
X2626Y1491D01*
X2624Y1491D01*
X2624Y1493D01*
X2622Y1493D01*
X2622Y1495D01*
X2620Y1495D01*
X2620Y1497D01*
X2618Y1497D01*
X2618Y1499D01*
X2616Y1499D01*
X2616Y1501D01*
X2614Y1501D01*
X2614Y1503D01*
X2612Y1503D01*
X2612Y1505D01*
X2610Y1505D01*
X2610Y1507D01*
X2608Y1507D01*
X2608Y1509D01*
X2606Y1509D01*
X2606Y1511D01*
X2604Y1511D01*
X2604Y1513D01*
X2602Y1513D01*
X2602Y1515D01*
X2600Y1515D01*
X2600Y1517D01*
X2598Y1517D01*
X2598Y1519D01*
X2596Y1519D01*
X2596Y1521D01*
X2594Y1521D01*
X2594Y1523D01*
X2592Y1523D01*
X2592Y1525D01*
X2590Y1525D01*
X2590Y1527D01*
X2588Y1527D01*
X2588Y1529D01*
X2586Y1529D01*
X2586Y1531D01*
X2584Y1531D01*
X2584Y1533D01*
X2582Y1533D01*
X2582Y1535D01*
X2580Y1535D01*
X2580Y1537D01*
X2578Y1537D01*
X2578Y1539D01*
X2576Y1539D01*
X2576Y1541D01*
X2574Y1541D01*
X2574Y1543D01*
X2572Y1543D01*
X2572Y1545D01*
X2570Y1545D01*
X2570Y1547D01*
X2568Y1547D01*
X2568Y1549D01*
X2566Y1549D01*
X2566Y1551D01*
X2564Y1551D01*
X2564Y1955D01*
X52Y1955D01*
G37*
D02*
G36*
X52Y1497D02*
X52Y1401D01*
X2298Y1401D01*
X2298Y1403D01*
X2286Y1403D01*
X2286Y1405D01*
X2280Y1405D01*
X2280Y1407D01*
X2276Y1407D01*
X2276Y1409D01*
X2274Y1409D01*
X2274Y1411D01*
X2270Y1411D01*
X2270Y1413D01*
X2268Y1413D01*
X2268Y1415D01*
X2266Y1415D01*
X2266Y1417D01*
X2264Y1417D01*
X2264Y1419D01*
X2262Y1419D01*
X2262Y1423D01*
X2260Y1423D01*
X2260Y1425D01*
X2258Y1425D01*
X2258Y1429D01*
X2256Y1429D01*
X2256Y1433D01*
X2254Y1433D01*
X2254Y1441D01*
X2252Y1441D01*
X2252Y1457D01*
X2254Y1457D01*
X2254Y1465D01*
X2256Y1465D01*
X2256Y1469D01*
X2258Y1469D01*
X2258Y1473D01*
X2260Y1473D01*
X2260Y1477D01*
X2262Y1477D01*
X2262Y1479D01*
X2264Y1479D01*
X2264Y1481D01*
X2266Y1481D01*
X2266Y1483D01*
X2268Y1483D01*
X2268Y1485D01*
X2270Y1485D01*
X2270Y1487D01*
X2272Y1487D01*
X2272Y1489D01*
X2276Y1489D01*
X2276Y1491D01*
X2280Y1491D01*
X2280Y1493D01*
X2284Y1493D01*
X2284Y1495D01*
X2292Y1495D01*
X2292Y1497D01*
X52Y1497D01*
G37*
D02*
G36*
X52Y1401D02*
X52Y1399D01*
X2664Y1399D01*
X2664Y1401D01*
X52Y1401D01*
G37*
D02*
G36*
X52Y1401D02*
X52Y1399D01*
X2664Y1399D01*
X2664Y1401D01*
X52Y1401D01*
G37*
D02*
G36*
X52Y1399D02*
X52Y1289D01*
X1798Y1289D01*
X1798Y1287D01*
X2100Y1287D01*
X2100Y1285D01*
X2106Y1285D01*
X2106Y1283D01*
X2110Y1283D01*
X2110Y1281D01*
X2112Y1281D01*
X2112Y1279D01*
X2114Y1279D01*
X2114Y1277D01*
X2118Y1277D01*
X2118Y1273D01*
X2120Y1273D01*
X2120Y1271D01*
X2122Y1271D01*
X2122Y1267D01*
X2124Y1267D01*
X2124Y1265D01*
X2126Y1265D01*
X2126Y1257D01*
X2128Y1257D01*
X2128Y1241D01*
X2126Y1241D01*
X2126Y1235D01*
X2124Y1235D01*
X2124Y1231D01*
X2122Y1231D01*
X2122Y1227D01*
X2120Y1227D01*
X2120Y1225D01*
X2118Y1225D01*
X2118Y1223D01*
X2116Y1223D01*
X2116Y1221D01*
X2114Y1221D01*
X2114Y1219D01*
X2112Y1219D01*
X2112Y1217D01*
X2108Y1217D01*
X2108Y1215D01*
X2104Y1215D01*
X2104Y1213D01*
X2098Y1213D01*
X2098Y1211D01*
X2664Y1211D01*
X2664Y1399D01*
X52Y1399D01*
G37*
D02*
G36*
X52Y1289D02*
X52Y1213D01*
X200Y1213D01*
X200Y1215D01*
X194Y1215D01*
X194Y1217D01*
X190Y1217D01*
X190Y1219D01*
X188Y1219D01*
X188Y1221D01*
X186Y1221D01*
X186Y1223D01*
X182Y1223D01*
X182Y1227D01*
X180Y1227D01*
X180Y1229D01*
X178Y1229D01*
X178Y1233D01*
X176Y1233D01*
X176Y1235D01*
X174Y1235D01*
X174Y1243D01*
X172Y1243D01*
X172Y1259D01*
X174Y1259D01*
X174Y1265D01*
X176Y1265D01*
X176Y1269D01*
X178Y1269D01*
X178Y1273D01*
X180Y1273D01*
X180Y1275D01*
X182Y1275D01*
X182Y1277D01*
X184Y1277D01*
X184Y1279D01*
X186Y1279D01*
X186Y1281D01*
X188Y1281D01*
X188Y1283D01*
X192Y1283D01*
X192Y1285D01*
X196Y1285D01*
X196Y1287D01*
X202Y1287D01*
X202Y1289D01*
X52Y1289D01*
G37*
D02*
G36*
X220Y1289D02*
X220Y1287D01*
X226Y1287D01*
X226Y1285D01*
X230Y1285D01*
X230Y1283D01*
X232Y1283D01*
X232Y1281D01*
X236Y1281D01*
X236Y1279D01*
X238Y1279D01*
X238Y1277D01*
X240Y1277D01*
X240Y1275D01*
X260Y1275D01*
X260Y1277D01*
X262Y1277D01*
X262Y1279D01*
X264Y1279D01*
X264Y1281D01*
X268Y1281D01*
X268Y1283D01*
X270Y1283D01*
X270Y1285D01*
X274Y1285D01*
X274Y1287D01*
X280Y1287D01*
X280Y1289D01*
X220Y1289D01*
G37*
D02*
G36*
X298Y1289D02*
X298Y1287D01*
X304Y1287D01*
X304Y1285D01*
X308Y1285D01*
X308Y1283D01*
X312Y1283D01*
X312Y1281D01*
X314Y1281D01*
X314Y1279D01*
X316Y1279D01*
X316Y1277D01*
X318Y1277D01*
X318Y1275D01*
X320Y1275D01*
X320Y1273D01*
X322Y1273D01*
X322Y1269D01*
X324Y1269D01*
X324Y1265D01*
X326Y1265D01*
X326Y1257D01*
X328Y1257D01*
X328Y1243D01*
X326Y1243D01*
X326Y1237D01*
X324Y1237D01*
X324Y1233D01*
X322Y1233D01*
X322Y1229D01*
X320Y1229D01*
X320Y1227D01*
X318Y1227D01*
X318Y1225D01*
X316Y1225D01*
X316Y1223D01*
X314Y1223D01*
X314Y1221D01*
X312Y1221D01*
X312Y1219D01*
X310Y1219D01*
X310Y1217D01*
X306Y1217D01*
X306Y1215D01*
X300Y1215D01*
X300Y1213D01*
X500Y1213D01*
X500Y1215D01*
X494Y1215D01*
X494Y1217D01*
X490Y1217D01*
X490Y1219D01*
X488Y1219D01*
X488Y1221D01*
X486Y1221D01*
X486Y1223D01*
X482Y1223D01*
X482Y1227D01*
X480Y1227D01*
X480Y1229D01*
X478Y1229D01*
X478Y1233D01*
X476Y1233D01*
X476Y1235D01*
X474Y1235D01*
X474Y1243D01*
X472Y1243D01*
X472Y1259D01*
X474Y1259D01*
X474Y1265D01*
X476Y1265D01*
X476Y1269D01*
X478Y1269D01*
X478Y1273D01*
X480Y1273D01*
X480Y1275D01*
X482Y1275D01*
X482Y1277D01*
X484Y1277D01*
X484Y1279D01*
X486Y1279D01*
X486Y1281D01*
X488Y1281D01*
X488Y1283D01*
X492Y1283D01*
X492Y1285D01*
X496Y1285D01*
X496Y1287D01*
X502Y1287D01*
X502Y1289D01*
X298Y1289D01*
G37*
D02*
G36*
X520Y1289D02*
X520Y1287D01*
X526Y1287D01*
X526Y1285D01*
X530Y1285D01*
X530Y1283D01*
X532Y1283D01*
X532Y1281D01*
X536Y1281D01*
X536Y1279D01*
X538Y1279D01*
X538Y1277D01*
X540Y1277D01*
X540Y1275D01*
X560Y1275D01*
X560Y1277D01*
X562Y1277D01*
X562Y1279D01*
X564Y1279D01*
X564Y1281D01*
X568Y1281D01*
X568Y1283D01*
X570Y1283D01*
X570Y1285D01*
X574Y1285D01*
X574Y1287D01*
X580Y1287D01*
X580Y1289D01*
X520Y1289D01*
G37*
D02*
G36*
X598Y1289D02*
X598Y1287D01*
X604Y1287D01*
X604Y1285D01*
X608Y1285D01*
X608Y1283D01*
X612Y1283D01*
X612Y1281D01*
X614Y1281D01*
X614Y1279D01*
X616Y1279D01*
X616Y1277D01*
X618Y1277D01*
X618Y1275D01*
X620Y1275D01*
X620Y1273D01*
X622Y1273D01*
X622Y1269D01*
X624Y1269D01*
X624Y1265D01*
X626Y1265D01*
X626Y1257D01*
X628Y1257D01*
X628Y1243D01*
X626Y1243D01*
X626Y1237D01*
X624Y1237D01*
X624Y1233D01*
X622Y1233D01*
X622Y1229D01*
X620Y1229D01*
X620Y1227D01*
X618Y1227D01*
X618Y1225D01*
X616Y1225D01*
X616Y1223D01*
X614Y1223D01*
X614Y1221D01*
X612Y1221D01*
X612Y1219D01*
X610Y1219D01*
X610Y1217D01*
X606Y1217D01*
X606Y1215D01*
X600Y1215D01*
X600Y1213D01*
X800Y1213D01*
X800Y1215D01*
X794Y1215D01*
X794Y1217D01*
X790Y1217D01*
X790Y1219D01*
X788Y1219D01*
X788Y1221D01*
X786Y1221D01*
X786Y1223D01*
X782Y1223D01*
X782Y1227D01*
X780Y1227D01*
X780Y1229D01*
X778Y1229D01*
X778Y1233D01*
X776Y1233D01*
X776Y1235D01*
X774Y1235D01*
X774Y1243D01*
X772Y1243D01*
X772Y1259D01*
X774Y1259D01*
X774Y1265D01*
X776Y1265D01*
X776Y1269D01*
X778Y1269D01*
X778Y1273D01*
X780Y1273D01*
X780Y1275D01*
X782Y1275D01*
X782Y1277D01*
X784Y1277D01*
X784Y1279D01*
X786Y1279D01*
X786Y1281D01*
X788Y1281D01*
X788Y1283D01*
X792Y1283D01*
X792Y1285D01*
X796Y1285D01*
X796Y1287D01*
X802Y1287D01*
X802Y1289D01*
X598Y1289D01*
G37*
D02*
G36*
X820Y1289D02*
X820Y1287D01*
X826Y1287D01*
X826Y1285D01*
X830Y1285D01*
X830Y1283D01*
X832Y1283D01*
X832Y1281D01*
X836Y1281D01*
X836Y1279D01*
X838Y1279D01*
X838Y1277D01*
X840Y1277D01*
X840Y1275D01*
X860Y1275D01*
X860Y1277D01*
X862Y1277D01*
X862Y1279D01*
X864Y1279D01*
X864Y1281D01*
X868Y1281D01*
X868Y1283D01*
X870Y1283D01*
X870Y1285D01*
X874Y1285D01*
X874Y1287D01*
X880Y1287D01*
X880Y1289D01*
X820Y1289D01*
G37*
D02*
G36*
X898Y1289D02*
X898Y1287D01*
X904Y1287D01*
X904Y1285D01*
X908Y1285D01*
X908Y1283D01*
X912Y1283D01*
X912Y1281D01*
X914Y1281D01*
X914Y1279D01*
X916Y1279D01*
X916Y1277D01*
X918Y1277D01*
X918Y1275D01*
X920Y1275D01*
X920Y1273D01*
X922Y1273D01*
X922Y1269D01*
X924Y1269D01*
X924Y1265D01*
X926Y1265D01*
X926Y1257D01*
X928Y1257D01*
X928Y1243D01*
X926Y1243D01*
X926Y1237D01*
X924Y1237D01*
X924Y1233D01*
X922Y1233D01*
X922Y1229D01*
X920Y1229D01*
X920Y1227D01*
X918Y1227D01*
X918Y1225D01*
X916Y1225D01*
X916Y1223D01*
X914Y1223D01*
X914Y1221D01*
X912Y1221D01*
X912Y1219D01*
X910Y1219D01*
X910Y1217D01*
X906Y1217D01*
X906Y1215D01*
X900Y1215D01*
X900Y1213D01*
X1100Y1213D01*
X1100Y1215D01*
X1094Y1215D01*
X1094Y1217D01*
X1090Y1217D01*
X1090Y1219D01*
X1088Y1219D01*
X1088Y1221D01*
X1086Y1221D01*
X1086Y1223D01*
X1082Y1223D01*
X1082Y1227D01*
X1080Y1227D01*
X1080Y1229D01*
X1078Y1229D01*
X1078Y1233D01*
X1076Y1233D01*
X1076Y1235D01*
X1074Y1235D01*
X1074Y1243D01*
X1072Y1243D01*
X1072Y1259D01*
X1074Y1259D01*
X1074Y1265D01*
X1076Y1265D01*
X1076Y1269D01*
X1078Y1269D01*
X1078Y1273D01*
X1080Y1273D01*
X1080Y1275D01*
X1082Y1275D01*
X1082Y1277D01*
X1084Y1277D01*
X1084Y1279D01*
X1086Y1279D01*
X1086Y1281D01*
X1088Y1281D01*
X1088Y1283D01*
X1092Y1283D01*
X1092Y1285D01*
X1096Y1285D01*
X1096Y1287D01*
X1102Y1287D01*
X1102Y1289D01*
X898Y1289D01*
G37*
D02*
G36*
X1120Y1289D02*
X1120Y1287D01*
X1126Y1287D01*
X1126Y1285D01*
X1130Y1285D01*
X1130Y1283D01*
X1132Y1283D01*
X1132Y1281D01*
X1136Y1281D01*
X1136Y1279D01*
X1138Y1279D01*
X1138Y1277D01*
X1140Y1277D01*
X1140Y1275D01*
X1160Y1275D01*
X1160Y1277D01*
X1162Y1277D01*
X1162Y1279D01*
X1164Y1279D01*
X1164Y1281D01*
X1168Y1281D01*
X1168Y1283D01*
X1170Y1283D01*
X1170Y1285D01*
X1174Y1285D01*
X1174Y1287D01*
X1180Y1287D01*
X1180Y1289D01*
X1120Y1289D01*
G37*
D02*
G36*
X1198Y1289D02*
X1198Y1287D01*
X1204Y1287D01*
X1204Y1285D01*
X1208Y1285D01*
X1208Y1283D01*
X1212Y1283D01*
X1212Y1281D01*
X1214Y1281D01*
X1214Y1279D01*
X1216Y1279D01*
X1216Y1277D01*
X1218Y1277D01*
X1218Y1275D01*
X1220Y1275D01*
X1220Y1273D01*
X1222Y1273D01*
X1222Y1269D01*
X1224Y1269D01*
X1224Y1265D01*
X1226Y1265D01*
X1226Y1257D01*
X1228Y1257D01*
X1228Y1243D01*
X1226Y1243D01*
X1226Y1237D01*
X1224Y1237D01*
X1224Y1233D01*
X1222Y1233D01*
X1222Y1229D01*
X1220Y1229D01*
X1220Y1227D01*
X1218Y1227D01*
X1218Y1225D01*
X1216Y1225D01*
X1216Y1223D01*
X1214Y1223D01*
X1214Y1221D01*
X1212Y1221D01*
X1212Y1219D01*
X1210Y1219D01*
X1210Y1217D01*
X1206Y1217D01*
X1206Y1215D01*
X1200Y1215D01*
X1200Y1213D01*
X1400Y1213D01*
X1400Y1215D01*
X1394Y1215D01*
X1394Y1217D01*
X1390Y1217D01*
X1390Y1219D01*
X1388Y1219D01*
X1388Y1221D01*
X1386Y1221D01*
X1386Y1223D01*
X1382Y1223D01*
X1382Y1227D01*
X1380Y1227D01*
X1380Y1229D01*
X1378Y1229D01*
X1378Y1233D01*
X1376Y1233D01*
X1376Y1235D01*
X1374Y1235D01*
X1374Y1243D01*
X1372Y1243D01*
X1372Y1259D01*
X1374Y1259D01*
X1374Y1265D01*
X1376Y1265D01*
X1376Y1269D01*
X1378Y1269D01*
X1378Y1273D01*
X1380Y1273D01*
X1380Y1275D01*
X1382Y1275D01*
X1382Y1277D01*
X1384Y1277D01*
X1384Y1279D01*
X1386Y1279D01*
X1386Y1281D01*
X1388Y1281D01*
X1388Y1283D01*
X1392Y1283D01*
X1392Y1285D01*
X1396Y1285D01*
X1396Y1287D01*
X1402Y1287D01*
X1402Y1289D01*
X1198Y1289D01*
G37*
D02*
G36*
X1420Y1289D02*
X1420Y1287D01*
X1426Y1287D01*
X1426Y1285D01*
X1430Y1285D01*
X1430Y1283D01*
X1432Y1283D01*
X1432Y1281D01*
X1436Y1281D01*
X1436Y1279D01*
X1438Y1279D01*
X1438Y1277D01*
X1440Y1277D01*
X1440Y1275D01*
X1460Y1275D01*
X1460Y1277D01*
X1462Y1277D01*
X1462Y1279D01*
X1464Y1279D01*
X1464Y1281D01*
X1468Y1281D01*
X1468Y1283D01*
X1470Y1283D01*
X1470Y1285D01*
X1474Y1285D01*
X1474Y1287D01*
X1480Y1287D01*
X1480Y1289D01*
X1420Y1289D01*
G37*
D02*
G36*
X1498Y1289D02*
X1498Y1287D01*
X1504Y1287D01*
X1504Y1285D01*
X1508Y1285D01*
X1508Y1283D01*
X1512Y1283D01*
X1512Y1281D01*
X1514Y1281D01*
X1514Y1279D01*
X1516Y1279D01*
X1516Y1277D01*
X1518Y1277D01*
X1518Y1275D01*
X1520Y1275D01*
X1520Y1273D01*
X1522Y1273D01*
X1522Y1269D01*
X1524Y1269D01*
X1524Y1265D01*
X1526Y1265D01*
X1526Y1257D01*
X1528Y1257D01*
X1528Y1243D01*
X1526Y1243D01*
X1526Y1237D01*
X1524Y1237D01*
X1524Y1233D01*
X1522Y1233D01*
X1522Y1229D01*
X1520Y1229D01*
X1520Y1227D01*
X1518Y1227D01*
X1518Y1225D01*
X1516Y1225D01*
X1516Y1223D01*
X1514Y1223D01*
X1514Y1221D01*
X1512Y1221D01*
X1512Y1219D01*
X1510Y1219D01*
X1510Y1217D01*
X1506Y1217D01*
X1506Y1215D01*
X1500Y1215D01*
X1500Y1213D01*
X1700Y1213D01*
X1700Y1215D01*
X1694Y1215D01*
X1694Y1217D01*
X1690Y1217D01*
X1690Y1219D01*
X1688Y1219D01*
X1688Y1221D01*
X1686Y1221D01*
X1686Y1223D01*
X1682Y1223D01*
X1682Y1227D01*
X1680Y1227D01*
X1680Y1229D01*
X1678Y1229D01*
X1678Y1233D01*
X1676Y1233D01*
X1676Y1235D01*
X1674Y1235D01*
X1674Y1243D01*
X1672Y1243D01*
X1672Y1259D01*
X1674Y1259D01*
X1674Y1265D01*
X1676Y1265D01*
X1676Y1269D01*
X1678Y1269D01*
X1678Y1273D01*
X1680Y1273D01*
X1680Y1275D01*
X1682Y1275D01*
X1682Y1277D01*
X1684Y1277D01*
X1684Y1279D01*
X1686Y1279D01*
X1686Y1281D01*
X1688Y1281D01*
X1688Y1283D01*
X1692Y1283D01*
X1692Y1285D01*
X1696Y1285D01*
X1696Y1287D01*
X1702Y1287D01*
X1702Y1289D01*
X1498Y1289D01*
G37*
D02*
G36*
X1720Y1289D02*
X1720Y1287D01*
X1726Y1287D01*
X1726Y1285D01*
X1730Y1285D01*
X1730Y1283D01*
X1732Y1283D01*
X1732Y1281D01*
X1736Y1281D01*
X1736Y1279D01*
X1738Y1279D01*
X1738Y1277D01*
X1740Y1277D01*
X1740Y1275D01*
X1760Y1275D01*
X1760Y1277D01*
X1762Y1277D01*
X1762Y1279D01*
X1764Y1279D01*
X1764Y1281D01*
X1768Y1281D01*
X1768Y1283D01*
X1770Y1283D01*
X1770Y1285D01*
X1774Y1285D01*
X1774Y1287D01*
X1780Y1287D01*
X1780Y1289D01*
X1720Y1289D01*
G37*
D02*
G36*
X1804Y1287D02*
X1804Y1285D01*
X1808Y1285D01*
X1808Y1283D01*
X1812Y1283D01*
X1812Y1281D01*
X1814Y1281D01*
X1814Y1279D01*
X1816Y1279D01*
X1816Y1277D01*
X1818Y1277D01*
X1818Y1275D01*
X1820Y1275D01*
X1820Y1273D01*
X1822Y1273D01*
X1822Y1269D01*
X1824Y1269D01*
X1824Y1265D01*
X1826Y1265D01*
X1826Y1257D01*
X1828Y1257D01*
X1828Y1243D01*
X1826Y1243D01*
X1826Y1237D01*
X1824Y1237D01*
X1824Y1233D01*
X1822Y1233D01*
X1822Y1229D01*
X1820Y1229D01*
X1820Y1227D01*
X1818Y1227D01*
X1818Y1225D01*
X1816Y1225D01*
X1816Y1223D01*
X1814Y1223D01*
X1814Y1221D01*
X1812Y1221D01*
X1812Y1219D01*
X1810Y1219D01*
X1810Y1217D01*
X1806Y1217D01*
X1806Y1215D01*
X1800Y1215D01*
X1800Y1213D01*
X1996Y1213D01*
X1996Y1215D01*
X1992Y1215D01*
X1992Y1217D01*
X1988Y1217D01*
X1988Y1219D01*
X1986Y1219D01*
X1986Y1221D01*
X1984Y1221D01*
X1984Y1223D01*
X1982Y1223D01*
X1982Y1225D01*
X1980Y1225D01*
X1980Y1227D01*
X1978Y1227D01*
X1978Y1231D01*
X1976Y1231D01*
X1976Y1235D01*
X1974Y1235D01*
X1974Y1243D01*
X1972Y1243D01*
X1972Y1255D01*
X1974Y1255D01*
X1974Y1263D01*
X1976Y1263D01*
X1976Y1267D01*
X1978Y1267D01*
X1978Y1271D01*
X1980Y1271D01*
X1980Y1273D01*
X1982Y1273D01*
X1982Y1275D01*
X1984Y1275D01*
X1984Y1277D01*
X1986Y1277D01*
X1986Y1279D01*
X1988Y1279D01*
X1988Y1281D01*
X1990Y1281D01*
X1990Y1283D01*
X1994Y1283D01*
X1994Y1285D01*
X2000Y1285D01*
X2000Y1287D01*
X1804Y1287D01*
G37*
D02*
G36*
X2022Y1287D02*
X2022Y1285D01*
X2028Y1285D01*
X2028Y1283D01*
X2030Y1283D01*
X2030Y1281D01*
X2034Y1281D01*
X2034Y1279D01*
X2036Y1279D01*
X2036Y1277D01*
X2038Y1277D01*
X2038Y1275D01*
X2040Y1275D01*
X2040Y1273D01*
X2060Y1273D01*
X2060Y1275D01*
X2062Y1275D01*
X2062Y1277D01*
X2064Y1277D01*
X2064Y1279D01*
X2066Y1279D01*
X2066Y1281D01*
X2070Y1281D01*
X2070Y1283D01*
X2074Y1283D01*
X2074Y1285D01*
X2078Y1285D01*
X2078Y1287D01*
X2022Y1287D01*
G37*
D02*
G36*
X240Y1227D02*
X240Y1225D01*
X238Y1225D01*
X238Y1223D01*
X236Y1223D01*
X236Y1221D01*
X234Y1221D01*
X234Y1219D01*
X230Y1219D01*
X230Y1217D01*
X226Y1217D01*
X226Y1215D01*
X222Y1215D01*
X222Y1213D01*
X278Y1213D01*
X278Y1215D01*
X272Y1215D01*
X272Y1217D01*
X270Y1217D01*
X270Y1219D01*
X266Y1219D01*
X266Y1221D01*
X264Y1221D01*
X264Y1223D01*
X262Y1223D01*
X262Y1225D01*
X260Y1225D01*
X260Y1227D01*
X240Y1227D01*
G37*
D02*
G36*
X540Y1227D02*
X540Y1225D01*
X538Y1225D01*
X538Y1223D01*
X536Y1223D01*
X536Y1221D01*
X534Y1221D01*
X534Y1219D01*
X530Y1219D01*
X530Y1217D01*
X526Y1217D01*
X526Y1215D01*
X522Y1215D01*
X522Y1213D01*
X578Y1213D01*
X578Y1215D01*
X572Y1215D01*
X572Y1217D01*
X570Y1217D01*
X570Y1219D01*
X566Y1219D01*
X566Y1221D01*
X564Y1221D01*
X564Y1223D01*
X562Y1223D01*
X562Y1225D01*
X560Y1225D01*
X560Y1227D01*
X540Y1227D01*
G37*
D02*
G36*
X840Y1227D02*
X840Y1225D01*
X838Y1225D01*
X838Y1223D01*
X836Y1223D01*
X836Y1221D01*
X834Y1221D01*
X834Y1219D01*
X830Y1219D01*
X830Y1217D01*
X826Y1217D01*
X826Y1215D01*
X822Y1215D01*
X822Y1213D01*
X878Y1213D01*
X878Y1215D01*
X872Y1215D01*
X872Y1217D01*
X870Y1217D01*
X870Y1219D01*
X866Y1219D01*
X866Y1221D01*
X864Y1221D01*
X864Y1223D01*
X862Y1223D01*
X862Y1225D01*
X860Y1225D01*
X860Y1227D01*
X840Y1227D01*
G37*
D02*
G36*
X1140Y1227D02*
X1140Y1225D01*
X1138Y1225D01*
X1138Y1223D01*
X1136Y1223D01*
X1136Y1221D01*
X1134Y1221D01*
X1134Y1219D01*
X1130Y1219D01*
X1130Y1217D01*
X1126Y1217D01*
X1126Y1215D01*
X1122Y1215D01*
X1122Y1213D01*
X1178Y1213D01*
X1178Y1215D01*
X1172Y1215D01*
X1172Y1217D01*
X1170Y1217D01*
X1170Y1219D01*
X1166Y1219D01*
X1166Y1221D01*
X1164Y1221D01*
X1164Y1223D01*
X1162Y1223D01*
X1162Y1225D01*
X1160Y1225D01*
X1160Y1227D01*
X1140Y1227D01*
G37*
D02*
G36*
X1440Y1227D02*
X1440Y1225D01*
X1438Y1225D01*
X1438Y1223D01*
X1436Y1223D01*
X1436Y1221D01*
X1434Y1221D01*
X1434Y1219D01*
X1430Y1219D01*
X1430Y1217D01*
X1426Y1217D01*
X1426Y1215D01*
X1422Y1215D01*
X1422Y1213D01*
X1478Y1213D01*
X1478Y1215D01*
X1472Y1215D01*
X1472Y1217D01*
X1470Y1217D01*
X1470Y1219D01*
X1466Y1219D01*
X1466Y1221D01*
X1464Y1221D01*
X1464Y1223D01*
X1462Y1223D01*
X1462Y1225D01*
X1460Y1225D01*
X1460Y1227D01*
X1440Y1227D01*
G37*
D02*
G36*
X1740Y1227D02*
X1740Y1225D01*
X1738Y1225D01*
X1738Y1223D01*
X1736Y1223D01*
X1736Y1221D01*
X1734Y1221D01*
X1734Y1219D01*
X1730Y1219D01*
X1730Y1217D01*
X1726Y1217D01*
X1726Y1215D01*
X1722Y1215D01*
X1722Y1213D01*
X1778Y1213D01*
X1778Y1215D01*
X1772Y1215D01*
X1772Y1217D01*
X1770Y1217D01*
X1770Y1219D01*
X1766Y1219D01*
X1766Y1221D01*
X1764Y1221D01*
X1764Y1223D01*
X1762Y1223D01*
X1762Y1225D01*
X1760Y1225D01*
X1760Y1227D01*
X1740Y1227D01*
G37*
D02*
G36*
X2040Y1225D02*
X2040Y1223D01*
X2038Y1223D01*
X2038Y1221D01*
X2036Y1221D01*
X2036Y1219D01*
X2032Y1219D01*
X2032Y1217D01*
X2030Y1217D01*
X2030Y1215D01*
X2026Y1215D01*
X2026Y1213D01*
X2020Y1213D01*
X2020Y1211D01*
X2080Y1211D01*
X2080Y1213D01*
X2074Y1213D01*
X2074Y1215D01*
X2070Y1215D01*
X2070Y1217D01*
X2068Y1217D01*
X2068Y1219D01*
X2064Y1219D01*
X2064Y1221D01*
X2062Y1221D01*
X2062Y1223D01*
X2060Y1223D01*
X2060Y1225D01*
X2040Y1225D01*
G37*
D02*
G36*
X52Y1213D02*
X52Y1211D01*
X2002Y1211D01*
X2002Y1213D01*
X52Y1213D01*
G37*
D02*
G36*
X52Y1213D02*
X52Y1211D01*
X2002Y1211D01*
X2002Y1213D01*
X52Y1213D01*
G37*
D02*
G36*
X52Y1213D02*
X52Y1211D01*
X2002Y1211D01*
X2002Y1213D01*
X52Y1213D01*
G37*
D02*
G36*
X52Y1213D02*
X52Y1211D01*
X2002Y1211D01*
X2002Y1213D01*
X52Y1213D01*
G37*
D02*
G36*
X52Y1213D02*
X52Y1211D01*
X2002Y1211D01*
X2002Y1213D01*
X52Y1213D01*
G37*
D02*
G36*
X52Y1213D02*
X52Y1211D01*
X2002Y1211D01*
X2002Y1213D01*
X52Y1213D01*
G37*
D02*
G36*
X52Y1213D02*
X52Y1211D01*
X2002Y1211D01*
X2002Y1213D01*
X52Y1213D01*
G37*
D02*
G36*
X52Y1213D02*
X52Y1211D01*
X2002Y1211D01*
X2002Y1213D01*
X52Y1213D01*
G37*
D02*
G36*
X52Y1213D02*
X52Y1211D01*
X2002Y1211D01*
X2002Y1213D01*
X52Y1213D01*
G37*
D02*
G36*
X52Y1213D02*
X52Y1211D01*
X2002Y1211D01*
X2002Y1213D01*
X52Y1213D01*
G37*
D02*
G36*
X52Y1213D02*
X52Y1211D01*
X2002Y1211D01*
X2002Y1213D01*
X52Y1213D01*
G37*
D02*
G36*
X52Y1213D02*
X52Y1211D01*
X2002Y1211D01*
X2002Y1213D01*
X52Y1213D01*
G37*
D02*
G36*
X52Y1213D02*
X52Y1211D01*
X2002Y1211D01*
X2002Y1213D01*
X52Y1213D01*
G37*
D02*
G36*
X52Y1211D02*
X52Y1209D01*
X2664Y1209D01*
X2664Y1211D01*
X52Y1211D01*
G37*
D02*
G36*
X52Y1211D02*
X52Y1209D01*
X2664Y1209D01*
X2664Y1211D01*
X52Y1211D01*
G37*
D02*
G36*
X52Y1211D02*
X52Y1209D01*
X2664Y1209D01*
X2664Y1211D01*
X52Y1211D01*
G37*
D02*
G36*
X52Y1209D02*
X52Y1097D01*
X2308Y1097D01*
X2308Y1095D01*
X2316Y1095D01*
X2316Y1093D01*
X2320Y1093D01*
X2320Y1091D01*
X2324Y1091D01*
X2324Y1089D01*
X2328Y1089D01*
X2328Y1087D01*
X2330Y1087D01*
X2330Y1085D01*
X2332Y1085D01*
X2332Y1083D01*
X2334Y1083D01*
X2334Y1081D01*
X2336Y1081D01*
X2336Y1079D01*
X2338Y1079D01*
X2338Y1075D01*
X2340Y1075D01*
X2340Y1073D01*
X2342Y1073D01*
X2342Y1069D01*
X2344Y1069D01*
X2344Y1063D01*
X2346Y1063D01*
X2346Y1053D01*
X2348Y1053D01*
X2348Y1047D01*
X2346Y1047D01*
X2346Y1037D01*
X2344Y1037D01*
X2344Y1031D01*
X2342Y1031D01*
X2342Y1027D01*
X2340Y1027D01*
X2340Y1023D01*
X2338Y1023D01*
X2338Y1021D01*
X2336Y1021D01*
X2336Y1017D01*
X2334Y1017D01*
X2334Y1015D01*
X2332Y1015D01*
X2332Y1013D01*
X2328Y1013D01*
X2328Y1011D01*
X2326Y1011D01*
X2326Y1009D01*
X2324Y1009D01*
X2324Y999D01*
X2504Y999D01*
X2504Y997D01*
X2514Y997D01*
X2514Y995D01*
X2520Y995D01*
X2520Y993D01*
X2524Y993D01*
X2524Y991D01*
X2526Y991D01*
X2526Y989D01*
X2530Y989D01*
X2530Y987D01*
X2550Y987D01*
X2550Y997D01*
X2552Y997D01*
X2552Y999D01*
X2664Y999D01*
X2664Y1209D01*
X52Y1209D01*
G37*
D02*
G36*
X52Y1097D02*
X52Y1023D01*
X342Y1023D01*
X342Y1021D01*
X354Y1021D01*
X354Y1019D01*
X360Y1019D01*
X360Y1017D01*
X366Y1017D01*
X366Y1015D01*
X370Y1015D01*
X370Y1013D01*
X372Y1013D01*
X372Y1011D01*
X376Y1011D01*
X376Y1009D01*
X378Y1009D01*
X378Y1007D01*
X382Y1007D01*
X382Y1005D01*
X384Y1005D01*
X384Y1003D01*
X386Y1003D01*
X386Y1001D01*
X1898Y1001D01*
X1898Y1003D01*
X1886Y1003D01*
X1886Y1005D01*
X1880Y1005D01*
X1880Y1007D01*
X1876Y1007D01*
X1876Y1009D01*
X1874Y1009D01*
X1874Y1011D01*
X1870Y1011D01*
X1870Y1013D01*
X1868Y1013D01*
X1868Y1015D01*
X1866Y1015D01*
X1866Y1017D01*
X1864Y1017D01*
X1864Y1019D01*
X1862Y1019D01*
X1862Y1023D01*
X1860Y1023D01*
X1860Y1025D01*
X1858Y1025D01*
X1858Y1029D01*
X1856Y1029D01*
X1856Y1033D01*
X1854Y1033D01*
X1854Y1041D01*
X1852Y1041D01*
X1852Y1057D01*
X1854Y1057D01*
X1854Y1065D01*
X1856Y1065D01*
X1856Y1069D01*
X1858Y1069D01*
X1858Y1073D01*
X1860Y1073D01*
X1860Y1077D01*
X1862Y1077D01*
X1862Y1079D01*
X1864Y1079D01*
X1864Y1081D01*
X1866Y1081D01*
X1866Y1083D01*
X1868Y1083D01*
X1868Y1085D01*
X1870Y1085D01*
X1870Y1087D01*
X1872Y1087D01*
X1872Y1089D01*
X1876Y1089D01*
X1876Y1091D01*
X1880Y1091D01*
X1880Y1093D01*
X1884Y1093D01*
X1884Y1095D01*
X1892Y1095D01*
X1892Y1097D01*
X52Y1097D01*
G37*
D02*
G36*
X1908Y1097D02*
X1908Y1095D01*
X1916Y1095D01*
X1916Y1093D01*
X1920Y1093D01*
X1920Y1091D01*
X1924Y1091D01*
X1924Y1089D01*
X1928Y1089D01*
X1928Y1087D01*
X1930Y1087D01*
X1930Y1085D01*
X1932Y1085D01*
X1932Y1083D01*
X1934Y1083D01*
X1934Y1081D01*
X1936Y1081D01*
X1936Y1079D01*
X1938Y1079D01*
X1938Y1075D01*
X1940Y1075D01*
X1940Y1073D01*
X1942Y1073D01*
X1942Y1069D01*
X1944Y1069D01*
X1944Y1063D01*
X1946Y1063D01*
X1946Y1053D01*
X1948Y1053D01*
X1948Y1047D01*
X1946Y1047D01*
X1946Y1037D01*
X1944Y1037D01*
X1944Y1031D01*
X1942Y1031D01*
X1942Y1027D01*
X1940Y1027D01*
X1940Y1023D01*
X1938Y1023D01*
X1938Y1021D01*
X1936Y1021D01*
X1936Y1017D01*
X1934Y1017D01*
X1934Y1015D01*
X1932Y1015D01*
X1932Y1013D01*
X1928Y1013D01*
X1928Y1011D01*
X1926Y1011D01*
X1926Y1009D01*
X1922Y1009D01*
X1922Y1007D01*
X1918Y1007D01*
X1918Y1005D01*
X1912Y1005D01*
X1912Y1003D01*
X1902Y1003D01*
X1902Y1001D01*
X2278Y1001D01*
X2278Y1007D01*
X2276Y1007D01*
X2276Y1009D01*
X2274Y1009D01*
X2274Y1011D01*
X2270Y1011D01*
X2270Y1013D01*
X2268Y1013D01*
X2268Y1015D01*
X2266Y1015D01*
X2266Y1017D01*
X2264Y1017D01*
X2264Y1019D01*
X2262Y1019D01*
X2262Y1023D01*
X2260Y1023D01*
X2260Y1025D01*
X2258Y1025D01*
X2258Y1029D01*
X2256Y1029D01*
X2256Y1033D01*
X2254Y1033D01*
X2254Y1041D01*
X2252Y1041D01*
X2252Y1057D01*
X2254Y1057D01*
X2254Y1065D01*
X2256Y1065D01*
X2256Y1069D01*
X2258Y1069D01*
X2258Y1073D01*
X2260Y1073D01*
X2260Y1077D01*
X2262Y1077D01*
X2262Y1079D01*
X2264Y1079D01*
X2264Y1081D01*
X2266Y1081D01*
X2266Y1083D01*
X2268Y1083D01*
X2268Y1085D01*
X2270Y1085D01*
X2270Y1087D01*
X2272Y1087D01*
X2272Y1089D01*
X2276Y1089D01*
X2276Y1091D01*
X2280Y1091D01*
X2280Y1093D01*
X2284Y1093D01*
X2284Y1095D01*
X2292Y1095D01*
X2292Y1097D01*
X1908Y1097D01*
G37*
D02*
G36*
X52Y1023D02*
X52Y877D01*
X320Y877D01*
X320Y879D01*
X312Y879D01*
X312Y881D01*
X308Y881D01*
X308Y883D01*
X304Y883D01*
X304Y885D01*
X300Y885D01*
X300Y887D01*
X296Y887D01*
X296Y889D01*
X294Y889D01*
X294Y891D01*
X290Y891D01*
X290Y893D01*
X288Y893D01*
X288Y895D01*
X286Y895D01*
X286Y897D01*
X284Y897D01*
X284Y899D01*
X282Y899D01*
X282Y901D01*
X280Y901D01*
X280Y903D01*
X278Y903D01*
X278Y905D01*
X276Y905D01*
X276Y909D01*
X274Y909D01*
X274Y911D01*
X272Y911D01*
X272Y915D01*
X270Y915D01*
X270Y919D01*
X268Y919D01*
X268Y925D01*
X266Y925D01*
X266Y931D01*
X264Y931D01*
X264Y941D01*
X262Y941D01*
X262Y957D01*
X264Y957D01*
X264Y967D01*
X266Y967D01*
X266Y975D01*
X268Y975D01*
X268Y979D01*
X270Y979D01*
X270Y983D01*
X272Y983D01*
X272Y987D01*
X274Y987D01*
X274Y989D01*
X276Y989D01*
X276Y993D01*
X278Y993D01*
X278Y995D01*
X280Y995D01*
X280Y997D01*
X282Y997D01*
X282Y999D01*
X284Y999D01*
X284Y1001D01*
X286Y1001D01*
X286Y1003D01*
X288Y1003D01*
X288Y1005D01*
X290Y1005D01*
X290Y1007D01*
X292Y1007D01*
X292Y1009D01*
X296Y1009D01*
X296Y1011D01*
X298Y1011D01*
X298Y1013D01*
X302Y1013D01*
X302Y1015D01*
X306Y1015D01*
X306Y1017D01*
X312Y1017D01*
X312Y1019D01*
X318Y1019D01*
X318Y1021D01*
X330Y1021D01*
X330Y1023D01*
X52Y1023D01*
G37*
D02*
G36*
X388Y1001D02*
X388Y999D01*
X2278Y999D01*
X2278Y1001D01*
X388Y1001D01*
G37*
D02*
G36*
X388Y1001D02*
X388Y999D01*
X2278Y999D01*
X2278Y1001D01*
X388Y1001D01*
G37*
D02*
G36*
X390Y999D02*
X390Y997D01*
X1508Y997D01*
X1508Y995D01*
X1516Y995D01*
X1516Y993D01*
X1520Y993D01*
X1520Y991D01*
X1524Y991D01*
X1524Y989D01*
X1528Y989D01*
X1528Y987D01*
X1530Y987D01*
X1530Y985D01*
X1532Y985D01*
X1532Y983D01*
X1534Y983D01*
X1534Y981D01*
X1536Y981D01*
X1536Y979D01*
X1538Y979D01*
X1538Y975D01*
X1540Y975D01*
X1540Y973D01*
X1542Y973D01*
X1542Y969D01*
X1544Y969D01*
X1544Y963D01*
X1546Y963D01*
X1546Y953D01*
X1548Y953D01*
X1548Y947D01*
X1546Y947D01*
X1546Y937D01*
X1544Y937D01*
X1544Y931D01*
X1542Y931D01*
X1542Y927D01*
X1540Y927D01*
X1540Y923D01*
X1538Y923D01*
X1538Y921D01*
X1536Y921D01*
X1536Y917D01*
X1534Y917D01*
X1534Y915D01*
X1532Y915D01*
X1532Y913D01*
X1528Y913D01*
X1528Y911D01*
X1526Y911D01*
X1526Y909D01*
X1524Y909D01*
X1524Y897D01*
X1708Y897D01*
X1708Y895D01*
X1716Y895D01*
X1716Y893D01*
X1720Y893D01*
X1720Y891D01*
X1724Y891D01*
X1724Y889D01*
X1728Y889D01*
X1728Y887D01*
X1730Y887D01*
X1730Y885D01*
X1732Y885D01*
X1732Y883D01*
X1734Y883D01*
X1734Y881D01*
X1736Y881D01*
X1736Y879D01*
X1738Y879D01*
X1738Y875D01*
X1740Y875D01*
X1740Y873D01*
X1742Y873D01*
X1742Y869D01*
X1744Y869D01*
X1744Y863D01*
X1746Y863D01*
X1746Y853D01*
X1748Y853D01*
X1748Y847D01*
X1746Y847D01*
X1746Y837D01*
X1744Y837D01*
X1744Y831D01*
X1742Y831D01*
X1742Y827D01*
X1740Y827D01*
X1740Y823D01*
X1738Y823D01*
X1738Y821D01*
X1736Y821D01*
X1736Y817D01*
X1734Y817D01*
X1734Y815D01*
X1732Y815D01*
X1732Y813D01*
X1728Y813D01*
X1728Y811D01*
X1726Y811D01*
X1726Y809D01*
X1722Y809D01*
X1722Y807D01*
X1718Y807D01*
X1718Y805D01*
X1712Y805D01*
X1712Y803D01*
X1702Y803D01*
X1702Y801D01*
X2284Y801D01*
X2284Y809D01*
X2282Y809D01*
X2282Y899D01*
X2280Y899D01*
X2280Y989D01*
X2278Y989D01*
X2278Y999D01*
X390Y999D01*
G37*
D02*
G36*
X2324Y999D02*
X2324Y901D01*
X2388Y901D01*
X2388Y903D01*
X2382Y903D01*
X2382Y905D01*
X2378Y905D01*
X2378Y907D01*
X2374Y907D01*
X2374Y909D01*
X2370Y909D01*
X2370Y911D01*
X2368Y911D01*
X2368Y913D01*
X2366Y913D01*
X2366Y915D01*
X2364Y915D01*
X2364Y917D01*
X2362Y917D01*
X2362Y919D01*
X2360Y919D01*
X2360Y923D01*
X2358Y923D01*
X2358Y925D01*
X2356Y925D01*
X2356Y929D01*
X2354Y929D01*
X2354Y935D01*
X2352Y935D01*
X2352Y945D01*
X2350Y945D01*
X2350Y955D01*
X2352Y955D01*
X2352Y963D01*
X2354Y963D01*
X2354Y969D01*
X2356Y969D01*
X2356Y973D01*
X2358Y973D01*
X2358Y977D01*
X2360Y977D01*
X2360Y979D01*
X2362Y979D01*
X2362Y981D01*
X2364Y981D01*
X2364Y983D01*
X2366Y983D01*
X2366Y985D01*
X2368Y985D01*
X2368Y987D01*
X2370Y987D01*
X2370Y989D01*
X2372Y989D01*
X2372Y991D01*
X2376Y991D01*
X2376Y993D01*
X2380Y993D01*
X2380Y995D01*
X2386Y995D01*
X2386Y997D01*
X2394Y997D01*
X2394Y999D01*
X2324Y999D01*
G37*
D02*
G36*
X2404Y999D02*
X2404Y997D01*
X2414Y997D01*
X2414Y995D01*
X2420Y995D01*
X2420Y993D01*
X2424Y993D01*
X2424Y991D01*
X2426Y991D01*
X2426Y989D01*
X2430Y989D01*
X2430Y987D01*
X2432Y987D01*
X2432Y985D01*
X2434Y985D01*
X2434Y983D01*
X2436Y983D01*
X2436Y981D01*
X2438Y981D01*
X2438Y979D01*
X2440Y979D01*
X2440Y977D01*
X2460Y977D01*
X2460Y979D01*
X2462Y979D01*
X2462Y981D01*
X2464Y981D01*
X2464Y983D01*
X2466Y983D01*
X2466Y985D01*
X2468Y985D01*
X2468Y987D01*
X2470Y987D01*
X2470Y989D01*
X2472Y989D01*
X2472Y991D01*
X2476Y991D01*
X2476Y993D01*
X2480Y993D01*
X2480Y995D01*
X2486Y995D01*
X2486Y997D01*
X2494Y997D01*
X2494Y999D01*
X2404Y999D01*
G37*
D02*
G36*
X392Y997D02*
X392Y995D01*
X394Y995D01*
X394Y991D01*
X396Y991D01*
X396Y989D01*
X398Y989D01*
X398Y985D01*
X400Y985D01*
X400Y981D01*
X402Y981D01*
X402Y977D01*
X404Y977D01*
X404Y971D01*
X406Y971D01*
X406Y963D01*
X408Y963D01*
X408Y935D01*
X406Y935D01*
X406Y927D01*
X404Y927D01*
X404Y921D01*
X402Y921D01*
X402Y917D01*
X400Y917D01*
X400Y913D01*
X398Y913D01*
X398Y911D01*
X396Y911D01*
X396Y907D01*
X394Y907D01*
X394Y905D01*
X392Y905D01*
X392Y903D01*
X390Y903D01*
X390Y901D01*
X530Y901D01*
X530Y903D01*
X520Y903D01*
X520Y905D01*
X514Y905D01*
X514Y907D01*
X510Y907D01*
X510Y909D01*
X506Y909D01*
X506Y911D01*
X504Y911D01*
X504Y913D01*
X500Y913D01*
X500Y915D01*
X498Y915D01*
X498Y917D01*
X496Y917D01*
X496Y921D01*
X494Y921D01*
X494Y923D01*
X492Y923D01*
X492Y927D01*
X490Y927D01*
X490Y931D01*
X488Y931D01*
X488Y937D01*
X486Y937D01*
X486Y947D01*
X484Y947D01*
X484Y951D01*
X486Y951D01*
X486Y963D01*
X488Y963D01*
X488Y969D01*
X490Y969D01*
X490Y973D01*
X492Y973D01*
X492Y975D01*
X494Y975D01*
X494Y979D01*
X496Y979D01*
X496Y981D01*
X498Y981D01*
X498Y983D01*
X500Y983D01*
X500Y985D01*
X502Y985D01*
X502Y987D01*
X506Y987D01*
X506Y989D01*
X508Y989D01*
X508Y991D01*
X512Y991D01*
X512Y993D01*
X516Y993D01*
X516Y995D01*
X524Y995D01*
X524Y997D01*
X392Y997D01*
G37*
D02*
G36*
X540Y997D02*
X540Y995D01*
X548Y995D01*
X548Y993D01*
X552Y993D01*
X552Y991D01*
X556Y991D01*
X556Y989D01*
X560Y989D01*
X560Y987D01*
X562Y987D01*
X562Y985D01*
X564Y985D01*
X564Y983D01*
X566Y983D01*
X566Y981D01*
X568Y981D01*
X568Y979D01*
X570Y979D01*
X570Y977D01*
X572Y977D01*
X572Y973D01*
X574Y973D01*
X574Y969D01*
X576Y969D01*
X576Y965D01*
X578Y965D01*
X578Y957D01*
X580Y957D01*
X580Y941D01*
X578Y941D01*
X578Y933D01*
X576Y933D01*
X576Y929D01*
X574Y929D01*
X574Y925D01*
X572Y925D01*
X572Y921D01*
X570Y921D01*
X570Y919D01*
X568Y919D01*
X568Y917D01*
X566Y917D01*
X566Y915D01*
X564Y915D01*
X564Y913D01*
X562Y913D01*
X562Y911D01*
X558Y911D01*
X558Y909D01*
X556Y909D01*
X556Y907D01*
X552Y907D01*
X552Y905D01*
X546Y905D01*
X546Y903D01*
X536Y903D01*
X536Y901D01*
X1050Y901D01*
X1050Y799D01*
X1176Y799D01*
X1176Y809D01*
X1174Y809D01*
X1174Y811D01*
X1170Y811D01*
X1170Y813D01*
X1168Y813D01*
X1168Y815D01*
X1166Y815D01*
X1166Y817D01*
X1164Y817D01*
X1164Y819D01*
X1162Y819D01*
X1162Y823D01*
X1160Y823D01*
X1160Y825D01*
X1158Y825D01*
X1158Y829D01*
X1156Y829D01*
X1156Y833D01*
X1154Y833D01*
X1154Y841D01*
X1152Y841D01*
X1152Y857D01*
X1154Y857D01*
X1154Y865D01*
X1156Y865D01*
X1156Y869D01*
X1158Y869D01*
X1158Y873D01*
X1160Y873D01*
X1160Y877D01*
X1162Y877D01*
X1162Y879D01*
X1164Y879D01*
X1164Y881D01*
X1166Y881D01*
X1166Y901D01*
X1152Y901D01*
X1152Y997D01*
X540Y997D01*
G37*
D02*
G36*
X1248Y997D02*
X1248Y903D01*
X1246Y903D01*
X1246Y901D01*
X1234Y901D01*
X1234Y881D01*
X1236Y881D01*
X1236Y879D01*
X1238Y879D01*
X1238Y875D01*
X1240Y875D01*
X1240Y873D01*
X1242Y873D01*
X1242Y869D01*
X1244Y869D01*
X1244Y863D01*
X1246Y863D01*
X1246Y853D01*
X1248Y853D01*
X1248Y847D01*
X1246Y847D01*
X1246Y837D01*
X1244Y837D01*
X1244Y831D01*
X1242Y831D01*
X1242Y827D01*
X1240Y827D01*
X1240Y823D01*
X1238Y823D01*
X1238Y821D01*
X1236Y821D01*
X1236Y817D01*
X1234Y817D01*
X1234Y815D01*
X1232Y815D01*
X1232Y813D01*
X1228Y813D01*
X1228Y811D01*
X1226Y811D01*
X1226Y809D01*
X1224Y809D01*
X1224Y789D01*
X1228Y789D01*
X1228Y787D01*
X1230Y787D01*
X1230Y785D01*
X1232Y785D01*
X1232Y783D01*
X1234Y783D01*
X1234Y781D01*
X1236Y781D01*
X1236Y779D01*
X1238Y779D01*
X1238Y775D01*
X1240Y775D01*
X1240Y773D01*
X1242Y773D01*
X1242Y769D01*
X1244Y769D01*
X1244Y763D01*
X1246Y763D01*
X1246Y753D01*
X1248Y753D01*
X1248Y747D01*
X1246Y747D01*
X1246Y737D01*
X1244Y737D01*
X1244Y731D01*
X1242Y731D01*
X1242Y727D01*
X1240Y727D01*
X1240Y723D01*
X1238Y723D01*
X1238Y721D01*
X1236Y721D01*
X1236Y717D01*
X1234Y717D01*
X1234Y715D01*
X1232Y715D01*
X1232Y713D01*
X1228Y713D01*
X1228Y711D01*
X1226Y711D01*
X1226Y709D01*
X1224Y709D01*
X1224Y689D01*
X1228Y689D01*
X1228Y687D01*
X1230Y687D01*
X1230Y685D01*
X1232Y685D01*
X1232Y683D01*
X1234Y683D01*
X1234Y681D01*
X1236Y681D01*
X1236Y679D01*
X1238Y679D01*
X1238Y675D01*
X1240Y675D01*
X1240Y673D01*
X1242Y673D01*
X1242Y669D01*
X1244Y669D01*
X1244Y663D01*
X1246Y663D01*
X1246Y653D01*
X1248Y653D01*
X1248Y647D01*
X1246Y647D01*
X1246Y637D01*
X1244Y637D01*
X1244Y631D01*
X1242Y631D01*
X1242Y627D01*
X1240Y627D01*
X1240Y623D01*
X1238Y623D01*
X1238Y621D01*
X1236Y621D01*
X1236Y617D01*
X1234Y617D01*
X1234Y615D01*
X1232Y615D01*
X1232Y613D01*
X1228Y613D01*
X1228Y611D01*
X1226Y611D01*
X1226Y609D01*
X1222Y609D01*
X1222Y607D01*
X1218Y607D01*
X1218Y605D01*
X1212Y605D01*
X1212Y603D01*
X1202Y603D01*
X1202Y601D01*
X1498Y601D01*
X1498Y603D01*
X1486Y603D01*
X1486Y605D01*
X1480Y605D01*
X1480Y607D01*
X1476Y607D01*
X1476Y609D01*
X1474Y609D01*
X1474Y611D01*
X1470Y611D01*
X1470Y613D01*
X1468Y613D01*
X1468Y615D01*
X1466Y615D01*
X1466Y617D01*
X1464Y617D01*
X1464Y619D01*
X1462Y619D01*
X1462Y623D01*
X1460Y623D01*
X1460Y625D01*
X1458Y625D01*
X1458Y629D01*
X1456Y629D01*
X1456Y633D01*
X1454Y633D01*
X1454Y641D01*
X1452Y641D01*
X1452Y657D01*
X1454Y657D01*
X1454Y665D01*
X1456Y665D01*
X1456Y669D01*
X1458Y669D01*
X1458Y673D01*
X1460Y673D01*
X1460Y677D01*
X1462Y677D01*
X1462Y679D01*
X1464Y679D01*
X1464Y681D01*
X1466Y681D01*
X1466Y683D01*
X1468Y683D01*
X1468Y685D01*
X1470Y685D01*
X1470Y687D01*
X1472Y687D01*
X1472Y689D01*
X1476Y689D01*
X1476Y709D01*
X1474Y709D01*
X1474Y711D01*
X1470Y711D01*
X1470Y713D01*
X1468Y713D01*
X1468Y715D01*
X1466Y715D01*
X1466Y717D01*
X1464Y717D01*
X1464Y719D01*
X1462Y719D01*
X1462Y723D01*
X1460Y723D01*
X1460Y725D01*
X1458Y725D01*
X1458Y729D01*
X1456Y729D01*
X1456Y733D01*
X1454Y733D01*
X1454Y741D01*
X1452Y741D01*
X1452Y757D01*
X1454Y757D01*
X1454Y765D01*
X1456Y765D01*
X1456Y769D01*
X1458Y769D01*
X1458Y773D01*
X1460Y773D01*
X1460Y777D01*
X1462Y777D01*
X1462Y779D01*
X1464Y779D01*
X1464Y781D01*
X1466Y781D01*
X1466Y783D01*
X1468Y783D01*
X1468Y785D01*
X1470Y785D01*
X1470Y787D01*
X1472Y787D01*
X1472Y789D01*
X1476Y789D01*
X1476Y809D01*
X1474Y809D01*
X1474Y811D01*
X1470Y811D01*
X1470Y813D01*
X1468Y813D01*
X1468Y815D01*
X1466Y815D01*
X1466Y817D01*
X1464Y817D01*
X1464Y819D01*
X1462Y819D01*
X1462Y823D01*
X1460Y823D01*
X1460Y825D01*
X1458Y825D01*
X1458Y829D01*
X1456Y829D01*
X1456Y833D01*
X1454Y833D01*
X1454Y841D01*
X1452Y841D01*
X1452Y857D01*
X1454Y857D01*
X1454Y865D01*
X1456Y865D01*
X1456Y869D01*
X1458Y869D01*
X1458Y873D01*
X1460Y873D01*
X1460Y877D01*
X1462Y877D01*
X1462Y879D01*
X1464Y879D01*
X1464Y881D01*
X1466Y881D01*
X1466Y883D01*
X1468Y883D01*
X1468Y885D01*
X1470Y885D01*
X1470Y887D01*
X1472Y887D01*
X1472Y889D01*
X1476Y889D01*
X1476Y909D01*
X1474Y909D01*
X1474Y911D01*
X1470Y911D01*
X1470Y913D01*
X1468Y913D01*
X1468Y915D01*
X1466Y915D01*
X1466Y917D01*
X1464Y917D01*
X1464Y919D01*
X1462Y919D01*
X1462Y923D01*
X1460Y923D01*
X1460Y925D01*
X1458Y925D01*
X1458Y929D01*
X1456Y929D01*
X1456Y933D01*
X1454Y933D01*
X1454Y941D01*
X1452Y941D01*
X1452Y957D01*
X1454Y957D01*
X1454Y965D01*
X1456Y965D01*
X1456Y969D01*
X1458Y969D01*
X1458Y973D01*
X1460Y973D01*
X1460Y977D01*
X1462Y977D01*
X1462Y979D01*
X1464Y979D01*
X1464Y981D01*
X1466Y981D01*
X1466Y983D01*
X1468Y983D01*
X1468Y985D01*
X1470Y985D01*
X1470Y987D01*
X1472Y987D01*
X1472Y989D01*
X1476Y989D01*
X1476Y991D01*
X1480Y991D01*
X1480Y993D01*
X1484Y993D01*
X1484Y995D01*
X1492Y995D01*
X1492Y997D01*
X1248Y997D01*
G37*
D02*
G36*
X2440Y923D02*
X2440Y921D01*
X2438Y921D01*
X2438Y917D01*
X2436Y917D01*
X2436Y915D01*
X2434Y915D01*
X2434Y913D01*
X2430Y913D01*
X2430Y911D01*
X2428Y911D01*
X2428Y909D01*
X2426Y909D01*
X2426Y907D01*
X2422Y907D01*
X2422Y905D01*
X2418Y905D01*
X2418Y903D01*
X2412Y903D01*
X2412Y901D01*
X2488Y901D01*
X2488Y903D01*
X2482Y903D01*
X2482Y905D01*
X2478Y905D01*
X2478Y907D01*
X2474Y907D01*
X2474Y909D01*
X2470Y909D01*
X2470Y911D01*
X2468Y911D01*
X2468Y913D01*
X2466Y913D01*
X2466Y915D01*
X2464Y915D01*
X2464Y917D01*
X2462Y917D01*
X2462Y919D01*
X2460Y919D01*
X2460Y923D01*
X2440Y923D01*
G37*
D02*
G36*
X2530Y913D02*
X2530Y911D01*
X2528Y911D01*
X2528Y909D01*
X2526Y909D01*
X2526Y907D01*
X2522Y907D01*
X2522Y905D01*
X2518Y905D01*
X2518Y903D01*
X2512Y903D01*
X2512Y901D01*
X2550Y901D01*
X2550Y913D01*
X2530Y913D01*
G37*
D02*
G36*
X390Y901D02*
X390Y899D01*
X948Y899D01*
X948Y901D01*
X390Y901D01*
G37*
D02*
G36*
X390Y901D02*
X390Y899D01*
X948Y899D01*
X948Y901D01*
X390Y901D01*
G37*
D02*
G36*
X2326Y901D02*
X2326Y899D01*
X2664Y899D01*
X2664Y901D01*
X2326Y901D01*
G37*
D02*
G36*
X2326Y901D02*
X2326Y899D01*
X2664Y899D01*
X2664Y901D01*
X2326Y901D01*
G37*
D02*
G36*
X2326Y901D02*
X2326Y899D01*
X2664Y899D01*
X2664Y901D01*
X2326Y901D01*
G37*
D02*
G36*
X388Y899D02*
X388Y897D01*
X386Y897D01*
X386Y895D01*
X384Y895D01*
X384Y893D01*
X380Y893D01*
X380Y891D01*
X378Y891D01*
X378Y889D01*
X374Y889D01*
X374Y887D01*
X372Y887D01*
X372Y885D01*
X368Y885D01*
X368Y883D01*
X364Y883D01*
X364Y881D01*
X358Y881D01*
X358Y879D01*
X350Y879D01*
X350Y877D01*
X592Y877D01*
X592Y879D01*
X594Y879D01*
X594Y881D01*
X596Y881D01*
X596Y885D01*
X600Y885D01*
X600Y887D01*
X602Y887D01*
X602Y889D01*
X604Y889D01*
X604Y891D01*
X608Y891D01*
X608Y893D01*
X612Y893D01*
X612Y895D01*
X616Y895D01*
X616Y897D01*
X626Y897D01*
X626Y899D01*
X388Y899D01*
G37*
D02*
G36*
X636Y899D02*
X636Y897D01*
X808Y897D01*
X808Y895D01*
X816Y895D01*
X816Y893D01*
X820Y893D01*
X820Y891D01*
X824Y891D01*
X824Y889D01*
X828Y889D01*
X828Y887D01*
X830Y887D01*
X830Y885D01*
X832Y885D01*
X832Y883D01*
X834Y883D01*
X834Y881D01*
X836Y881D01*
X836Y879D01*
X838Y879D01*
X838Y875D01*
X840Y875D01*
X840Y873D01*
X842Y873D01*
X842Y869D01*
X844Y869D01*
X844Y863D01*
X846Y863D01*
X846Y853D01*
X848Y853D01*
X848Y847D01*
X846Y847D01*
X846Y837D01*
X844Y837D01*
X844Y831D01*
X842Y831D01*
X842Y827D01*
X840Y827D01*
X840Y823D01*
X838Y823D01*
X838Y821D01*
X836Y821D01*
X836Y817D01*
X834Y817D01*
X834Y815D01*
X832Y815D01*
X832Y813D01*
X828Y813D01*
X828Y811D01*
X826Y811D01*
X826Y809D01*
X822Y809D01*
X822Y807D01*
X818Y807D01*
X818Y805D01*
X812Y805D01*
X812Y803D01*
X802Y803D01*
X802Y801D01*
X948Y801D01*
X948Y899D01*
X636Y899D01*
G37*
D02*
G36*
X2326Y899D02*
X2326Y811D01*
X2328Y811D01*
X2328Y721D01*
X2330Y721D01*
X2330Y683D01*
X2418Y683D01*
X2418Y681D01*
X2424Y681D01*
X2424Y679D01*
X2428Y679D01*
X2428Y677D01*
X2432Y677D01*
X2432Y675D01*
X2434Y675D01*
X2434Y673D01*
X2436Y673D01*
X2436Y671D01*
X2438Y671D01*
X2438Y667D01*
X2440Y667D01*
X2440Y665D01*
X2442Y665D01*
X2442Y659D01*
X2444Y659D01*
X2444Y639D01*
X2442Y639D01*
X2442Y635D01*
X2440Y635D01*
X2440Y631D01*
X2438Y631D01*
X2438Y629D01*
X2436Y629D01*
X2436Y625D01*
X2432Y625D01*
X2432Y623D01*
X2430Y623D01*
X2430Y621D01*
X2428Y621D01*
X2428Y599D01*
X2430Y599D01*
X2430Y597D01*
X2432Y597D01*
X2432Y595D01*
X2436Y595D01*
X2436Y591D01*
X2438Y591D01*
X2438Y589D01*
X2440Y589D01*
X2440Y585D01*
X2442Y585D01*
X2442Y581D01*
X2444Y581D01*
X2444Y561D01*
X2442Y561D01*
X2442Y555D01*
X2440Y555D01*
X2440Y553D01*
X2438Y553D01*
X2438Y549D01*
X2436Y549D01*
X2436Y547D01*
X2434Y547D01*
X2434Y545D01*
X2432Y545D01*
X2432Y543D01*
X2428Y543D01*
X2428Y541D01*
X2426Y541D01*
X2426Y521D01*
X2430Y521D01*
X2430Y519D01*
X2432Y519D01*
X2432Y517D01*
X2434Y517D01*
X2434Y515D01*
X2436Y515D01*
X2436Y513D01*
X2438Y513D01*
X2438Y511D01*
X2440Y511D01*
X2440Y507D01*
X2442Y507D01*
X2442Y501D01*
X2444Y501D01*
X2444Y483D01*
X2442Y483D01*
X2442Y477D01*
X2440Y477D01*
X2440Y473D01*
X2438Y473D01*
X2438Y471D01*
X2436Y471D01*
X2436Y469D01*
X2434Y469D01*
X2434Y467D01*
X2432Y467D01*
X2432Y465D01*
X2430Y465D01*
X2430Y463D01*
X2426Y463D01*
X2426Y443D01*
X2428Y443D01*
X2428Y441D01*
X2430Y441D01*
X2430Y439D01*
X2434Y439D01*
X2434Y437D01*
X2436Y437D01*
X2436Y435D01*
X2438Y435D01*
X2438Y431D01*
X2440Y431D01*
X2440Y427D01*
X2442Y427D01*
X2442Y423D01*
X2444Y423D01*
X2444Y403D01*
X2442Y403D01*
X2442Y399D01*
X2440Y399D01*
X2440Y395D01*
X2438Y395D01*
X2438Y393D01*
X2436Y393D01*
X2436Y389D01*
X2434Y389D01*
X2434Y387D01*
X2430Y387D01*
X2430Y385D01*
X2428Y385D01*
X2428Y383D01*
X2424Y383D01*
X2424Y381D01*
X2416Y381D01*
X2416Y379D01*
X2664Y379D01*
X2664Y899D01*
X2326Y899D01*
G37*
D02*
G36*
X644Y897D02*
X644Y895D01*
X650Y895D01*
X650Y893D01*
X654Y893D01*
X654Y891D01*
X658Y891D01*
X658Y889D01*
X660Y889D01*
X660Y887D01*
X662Y887D01*
X662Y885D01*
X664Y885D01*
X664Y883D01*
X666Y883D01*
X666Y881D01*
X668Y881D01*
X668Y879D01*
X670Y879D01*
X670Y875D01*
X672Y875D01*
X672Y873D01*
X674Y873D01*
X674Y867D01*
X676Y867D01*
X676Y861D01*
X678Y861D01*
X678Y841D01*
X676Y841D01*
X676Y833D01*
X674Y833D01*
X674Y829D01*
X672Y829D01*
X672Y827D01*
X670Y827D01*
X670Y823D01*
X668Y823D01*
X668Y821D01*
X666Y821D01*
X666Y819D01*
X664Y819D01*
X664Y817D01*
X662Y817D01*
X662Y815D01*
X660Y815D01*
X660Y813D01*
X658Y813D01*
X658Y811D01*
X654Y811D01*
X654Y809D01*
X650Y809D01*
X650Y807D01*
X646Y807D01*
X646Y805D01*
X638Y805D01*
X638Y803D01*
X786Y803D01*
X786Y805D01*
X780Y805D01*
X780Y807D01*
X776Y807D01*
X776Y809D01*
X774Y809D01*
X774Y811D01*
X770Y811D01*
X770Y813D01*
X768Y813D01*
X768Y815D01*
X766Y815D01*
X766Y817D01*
X764Y817D01*
X764Y819D01*
X762Y819D01*
X762Y823D01*
X760Y823D01*
X760Y825D01*
X758Y825D01*
X758Y829D01*
X756Y829D01*
X756Y833D01*
X754Y833D01*
X754Y841D01*
X752Y841D01*
X752Y857D01*
X754Y857D01*
X754Y865D01*
X756Y865D01*
X756Y869D01*
X758Y869D01*
X758Y873D01*
X760Y873D01*
X760Y877D01*
X762Y877D01*
X762Y879D01*
X764Y879D01*
X764Y881D01*
X766Y881D01*
X766Y883D01*
X768Y883D01*
X768Y885D01*
X770Y885D01*
X770Y887D01*
X772Y887D01*
X772Y889D01*
X776Y889D01*
X776Y891D01*
X780Y891D01*
X780Y893D01*
X784Y893D01*
X784Y895D01*
X792Y895D01*
X792Y897D01*
X644Y897D01*
G37*
D02*
G36*
X1524Y897D02*
X1524Y889D01*
X1528Y889D01*
X1528Y887D01*
X1530Y887D01*
X1530Y885D01*
X1532Y885D01*
X1532Y883D01*
X1534Y883D01*
X1534Y881D01*
X1536Y881D01*
X1536Y879D01*
X1538Y879D01*
X1538Y875D01*
X1540Y875D01*
X1540Y873D01*
X1542Y873D01*
X1542Y869D01*
X1544Y869D01*
X1544Y863D01*
X1546Y863D01*
X1546Y853D01*
X1548Y853D01*
X1548Y847D01*
X1546Y847D01*
X1546Y837D01*
X1544Y837D01*
X1544Y831D01*
X1542Y831D01*
X1542Y827D01*
X1540Y827D01*
X1540Y823D01*
X1538Y823D01*
X1538Y821D01*
X1536Y821D01*
X1536Y817D01*
X1534Y817D01*
X1534Y815D01*
X1532Y815D01*
X1532Y813D01*
X1528Y813D01*
X1528Y811D01*
X1526Y811D01*
X1526Y809D01*
X1524Y809D01*
X1524Y801D01*
X1698Y801D01*
X1698Y803D01*
X1686Y803D01*
X1686Y805D01*
X1680Y805D01*
X1680Y807D01*
X1676Y807D01*
X1676Y809D01*
X1674Y809D01*
X1674Y811D01*
X1670Y811D01*
X1670Y813D01*
X1668Y813D01*
X1668Y815D01*
X1666Y815D01*
X1666Y817D01*
X1664Y817D01*
X1664Y819D01*
X1662Y819D01*
X1662Y823D01*
X1660Y823D01*
X1660Y825D01*
X1658Y825D01*
X1658Y829D01*
X1656Y829D01*
X1656Y833D01*
X1654Y833D01*
X1654Y841D01*
X1652Y841D01*
X1652Y857D01*
X1654Y857D01*
X1654Y865D01*
X1656Y865D01*
X1656Y869D01*
X1658Y869D01*
X1658Y873D01*
X1660Y873D01*
X1660Y877D01*
X1662Y877D01*
X1662Y879D01*
X1664Y879D01*
X1664Y881D01*
X1666Y881D01*
X1666Y883D01*
X1668Y883D01*
X1668Y885D01*
X1670Y885D01*
X1670Y887D01*
X1672Y887D01*
X1672Y889D01*
X1676Y889D01*
X1676Y891D01*
X1680Y891D01*
X1680Y893D01*
X1684Y893D01*
X1684Y895D01*
X1692Y895D01*
X1692Y897D01*
X1524Y897D01*
G37*
D02*
G36*
X52Y877D02*
X52Y875D01*
X590Y875D01*
X590Y877D01*
X52Y877D01*
G37*
D02*
G36*
X52Y877D02*
X52Y875D01*
X590Y875D01*
X590Y877D01*
X52Y877D01*
G37*
D02*
G36*
X52Y875D02*
X52Y803D01*
X624Y803D01*
X624Y805D01*
X616Y805D01*
X616Y807D01*
X610Y807D01*
X610Y809D01*
X608Y809D01*
X608Y811D01*
X604Y811D01*
X604Y813D01*
X602Y813D01*
X602Y815D01*
X598Y815D01*
X598Y817D01*
X596Y817D01*
X596Y821D01*
X594Y821D01*
X594Y823D01*
X592Y823D01*
X592Y825D01*
X590Y825D01*
X590Y829D01*
X588Y829D01*
X588Y833D01*
X586Y833D01*
X586Y839D01*
X584Y839D01*
X584Y863D01*
X586Y863D01*
X586Y869D01*
X588Y869D01*
X588Y873D01*
X590Y873D01*
X590Y875D01*
X52Y875D01*
G37*
D02*
G36*
X52Y803D02*
X52Y801D01*
X798Y801D01*
X798Y803D01*
X52Y803D01*
G37*
D02*
G36*
X52Y803D02*
X52Y801D01*
X798Y801D01*
X798Y803D01*
X52Y803D01*
G37*
D02*
G36*
X52Y801D02*
X52Y799D01*
X948Y799D01*
X948Y801D01*
X52Y801D01*
G37*
D02*
G36*
X52Y801D02*
X52Y799D01*
X948Y799D01*
X948Y801D01*
X52Y801D01*
G37*
D02*
G36*
X1524Y801D02*
X1524Y799D01*
X2284Y799D01*
X2284Y801D01*
X1524Y801D01*
G37*
D02*
G36*
X1524Y801D02*
X1524Y799D01*
X2284Y799D01*
X2284Y801D01*
X1524Y801D01*
G37*
D02*
G36*
X52Y799D02*
X52Y705D01*
X130Y705D01*
X130Y707D01*
X122Y707D01*
X122Y709D01*
X118Y709D01*
X118Y711D01*
X114Y711D01*
X114Y713D01*
X112Y713D01*
X112Y715D01*
X108Y715D01*
X108Y717D01*
X106Y717D01*
X106Y719D01*
X104Y719D01*
X104Y721D01*
X102Y721D01*
X102Y723D01*
X100Y723D01*
X100Y727D01*
X98Y727D01*
X98Y731D01*
X96Y731D01*
X96Y733D01*
X94Y733D01*
X94Y741D01*
X92Y741D01*
X92Y765D01*
X94Y765D01*
X94Y771D01*
X96Y771D01*
X96Y775D01*
X98Y775D01*
X98Y779D01*
X100Y779D01*
X100Y781D01*
X102Y781D01*
X102Y783D01*
X104Y783D01*
X104Y785D01*
X106Y785D01*
X106Y787D01*
X108Y787D01*
X108Y789D01*
X110Y789D01*
X110Y791D01*
X112Y791D01*
X112Y793D01*
X116Y793D01*
X116Y795D01*
X120Y795D01*
X120Y797D01*
X126Y797D01*
X126Y799D01*
X52Y799D01*
G37*
D02*
G36*
X152Y799D02*
X152Y797D01*
X1176Y797D01*
X1176Y799D01*
X152Y799D01*
G37*
D02*
G36*
X152Y799D02*
X152Y797D01*
X1176Y797D01*
X1176Y799D01*
X152Y799D01*
G37*
D02*
G36*
X1524Y799D02*
X1524Y789D01*
X1528Y789D01*
X1528Y787D01*
X1530Y787D01*
X1530Y785D01*
X1532Y785D01*
X1532Y783D01*
X1534Y783D01*
X1534Y781D01*
X1536Y781D01*
X1536Y779D01*
X1538Y779D01*
X1538Y775D01*
X1540Y775D01*
X1540Y773D01*
X1542Y773D01*
X1542Y769D01*
X1544Y769D01*
X1544Y763D01*
X1546Y763D01*
X1546Y753D01*
X1548Y753D01*
X1548Y747D01*
X1546Y747D01*
X1546Y737D01*
X1544Y737D01*
X1544Y731D01*
X1542Y731D01*
X1542Y727D01*
X1540Y727D01*
X1540Y723D01*
X1538Y723D01*
X1538Y721D01*
X1536Y721D01*
X1536Y717D01*
X1534Y717D01*
X1534Y715D01*
X1532Y715D01*
X1532Y713D01*
X1528Y713D01*
X1528Y711D01*
X1526Y711D01*
X1526Y709D01*
X1524Y709D01*
X1524Y697D01*
X1908Y697D01*
X1908Y695D01*
X1916Y695D01*
X1916Y693D01*
X1920Y693D01*
X1920Y691D01*
X1924Y691D01*
X1924Y689D01*
X1928Y689D01*
X1928Y687D01*
X1930Y687D01*
X1930Y685D01*
X1932Y685D01*
X1932Y683D01*
X1934Y683D01*
X1934Y681D01*
X1936Y681D01*
X1936Y679D01*
X1938Y679D01*
X1938Y675D01*
X1940Y675D01*
X1940Y673D01*
X1942Y673D01*
X1942Y669D01*
X1944Y669D01*
X1944Y663D01*
X1946Y663D01*
X1946Y653D01*
X1948Y653D01*
X1948Y647D01*
X1946Y647D01*
X1946Y637D01*
X1944Y637D01*
X1944Y631D01*
X1942Y631D01*
X1942Y627D01*
X1940Y627D01*
X1940Y623D01*
X1938Y623D01*
X1938Y621D01*
X1936Y621D01*
X1936Y617D01*
X1934Y617D01*
X1934Y615D01*
X1932Y615D01*
X1932Y613D01*
X1928Y613D01*
X1928Y611D01*
X1926Y611D01*
X1926Y609D01*
X1922Y609D01*
X1922Y607D01*
X1918Y607D01*
X1918Y605D01*
X1912Y605D01*
X1912Y603D01*
X1902Y603D01*
X1902Y601D01*
X2288Y601D01*
X2288Y629D01*
X2286Y629D01*
X2286Y719D01*
X2284Y719D01*
X2284Y799D01*
X1524Y799D01*
G37*
D02*
G36*
X158Y797D02*
X158Y795D01*
X162Y795D01*
X162Y793D01*
X164Y793D01*
X164Y791D01*
X168Y791D01*
X168Y789D01*
X170Y789D01*
X170Y787D01*
X172Y787D01*
X172Y785D01*
X174Y785D01*
X174Y783D01*
X176Y783D01*
X176Y781D01*
X178Y781D01*
X178Y777D01*
X180Y777D01*
X180Y773D01*
X182Y773D01*
X182Y769D01*
X184Y769D01*
X184Y763D01*
X186Y763D01*
X186Y743D01*
X184Y743D01*
X184Y735D01*
X182Y735D01*
X182Y731D01*
X180Y731D01*
X180Y727D01*
X178Y727D01*
X178Y725D01*
X176Y725D01*
X176Y723D01*
X174Y723D01*
X174Y719D01*
X172Y719D01*
X172Y717D01*
X168Y717D01*
X168Y715D01*
X166Y715D01*
X166Y713D01*
X164Y713D01*
X164Y711D01*
X160Y711D01*
X160Y709D01*
X154Y709D01*
X154Y707D01*
X148Y707D01*
X148Y705D01*
X1176Y705D01*
X1176Y709D01*
X1174Y709D01*
X1174Y711D01*
X1170Y711D01*
X1170Y713D01*
X1168Y713D01*
X1168Y715D01*
X1166Y715D01*
X1166Y717D01*
X1164Y717D01*
X1164Y719D01*
X1162Y719D01*
X1162Y723D01*
X1160Y723D01*
X1160Y725D01*
X1158Y725D01*
X1158Y729D01*
X1156Y729D01*
X1156Y733D01*
X1154Y733D01*
X1154Y741D01*
X1152Y741D01*
X1152Y757D01*
X1154Y757D01*
X1154Y765D01*
X1156Y765D01*
X1156Y769D01*
X1158Y769D01*
X1158Y773D01*
X1160Y773D01*
X1160Y777D01*
X1162Y777D01*
X1162Y779D01*
X1164Y779D01*
X1164Y781D01*
X1166Y781D01*
X1166Y783D01*
X1168Y783D01*
X1168Y785D01*
X1170Y785D01*
X1170Y787D01*
X1172Y787D01*
X1172Y789D01*
X1176Y789D01*
X1176Y797D01*
X158Y797D01*
G37*
D02*
G36*
X52Y705D02*
X52Y703D01*
X1176Y703D01*
X1176Y705D01*
X52Y705D01*
G37*
D02*
G36*
X52Y705D02*
X52Y703D01*
X1176Y703D01*
X1176Y705D01*
X52Y705D01*
G37*
D02*
G36*
X52Y703D02*
X52Y701D01*
X544Y701D01*
X544Y699D01*
X550Y699D01*
X550Y697D01*
X554Y697D01*
X554Y695D01*
X558Y695D01*
X558Y693D01*
X560Y693D01*
X560Y691D01*
X564Y691D01*
X564Y689D01*
X566Y689D01*
X566Y687D01*
X568Y687D01*
X568Y683D01*
X570Y683D01*
X570Y681D01*
X572Y681D01*
X572Y679D01*
X574Y679D01*
X574Y675D01*
X576Y675D01*
X576Y669D01*
X578Y669D01*
X578Y663D01*
X580Y663D01*
X580Y645D01*
X578Y645D01*
X578Y639D01*
X576Y639D01*
X576Y633D01*
X574Y633D01*
X574Y629D01*
X572Y629D01*
X572Y627D01*
X570Y627D01*
X570Y625D01*
X568Y625D01*
X568Y621D01*
X566Y621D01*
X566Y619D01*
X562Y619D01*
X562Y617D01*
X560Y617D01*
X560Y615D01*
X558Y615D01*
X558Y613D01*
X554Y613D01*
X554Y611D01*
X550Y611D01*
X550Y609D01*
X544Y609D01*
X544Y607D01*
X1176Y607D01*
X1176Y609D01*
X1174Y609D01*
X1174Y611D01*
X1170Y611D01*
X1170Y613D01*
X1168Y613D01*
X1168Y615D01*
X1166Y615D01*
X1166Y617D01*
X1164Y617D01*
X1164Y619D01*
X1162Y619D01*
X1162Y623D01*
X1160Y623D01*
X1160Y625D01*
X1158Y625D01*
X1158Y629D01*
X1156Y629D01*
X1156Y633D01*
X1154Y633D01*
X1154Y641D01*
X1152Y641D01*
X1152Y657D01*
X1154Y657D01*
X1154Y665D01*
X1156Y665D01*
X1156Y669D01*
X1158Y669D01*
X1158Y673D01*
X1160Y673D01*
X1160Y677D01*
X1162Y677D01*
X1162Y679D01*
X1164Y679D01*
X1164Y681D01*
X1166Y681D01*
X1166Y683D01*
X1168Y683D01*
X1168Y685D01*
X1170Y685D01*
X1170Y687D01*
X1172Y687D01*
X1172Y689D01*
X1176Y689D01*
X1176Y703D01*
X52Y703D01*
G37*
D02*
G36*
X52Y701D02*
X52Y607D01*
X522Y607D01*
X522Y609D01*
X514Y609D01*
X514Y611D01*
X510Y611D01*
X510Y613D01*
X508Y613D01*
X508Y615D01*
X504Y615D01*
X504Y617D01*
X502Y617D01*
X502Y619D01*
X500Y619D01*
X500Y621D01*
X498Y621D01*
X498Y623D01*
X496Y623D01*
X496Y625D01*
X494Y625D01*
X494Y627D01*
X492Y627D01*
X492Y631D01*
X490Y631D01*
X490Y635D01*
X488Y635D01*
X488Y641D01*
X486Y641D01*
X486Y651D01*
X484Y651D01*
X484Y657D01*
X486Y657D01*
X486Y667D01*
X488Y667D01*
X488Y673D01*
X490Y673D01*
X490Y677D01*
X492Y677D01*
X492Y681D01*
X494Y681D01*
X494Y683D01*
X496Y683D01*
X496Y685D01*
X498Y685D01*
X498Y687D01*
X500Y687D01*
X500Y689D01*
X502Y689D01*
X502Y691D01*
X504Y691D01*
X504Y693D01*
X506Y693D01*
X506Y695D01*
X510Y695D01*
X510Y697D01*
X514Y697D01*
X514Y699D01*
X522Y699D01*
X522Y701D01*
X52Y701D01*
G37*
D02*
G36*
X1524Y697D02*
X1524Y689D01*
X1528Y689D01*
X1528Y687D01*
X1530Y687D01*
X1530Y685D01*
X1532Y685D01*
X1532Y683D01*
X1534Y683D01*
X1534Y681D01*
X1536Y681D01*
X1536Y679D01*
X1538Y679D01*
X1538Y675D01*
X1540Y675D01*
X1540Y673D01*
X1542Y673D01*
X1542Y669D01*
X1544Y669D01*
X1544Y663D01*
X1546Y663D01*
X1546Y653D01*
X1548Y653D01*
X1548Y647D01*
X1546Y647D01*
X1546Y637D01*
X1544Y637D01*
X1544Y631D01*
X1542Y631D01*
X1542Y627D01*
X1540Y627D01*
X1540Y623D01*
X1538Y623D01*
X1538Y621D01*
X1536Y621D01*
X1536Y617D01*
X1534Y617D01*
X1534Y615D01*
X1532Y615D01*
X1532Y613D01*
X1528Y613D01*
X1528Y611D01*
X1526Y611D01*
X1526Y609D01*
X1522Y609D01*
X1522Y607D01*
X1518Y607D01*
X1518Y605D01*
X1512Y605D01*
X1512Y603D01*
X1502Y603D01*
X1502Y601D01*
X1898Y601D01*
X1898Y603D01*
X1886Y603D01*
X1886Y605D01*
X1880Y605D01*
X1880Y607D01*
X1876Y607D01*
X1876Y609D01*
X1874Y609D01*
X1874Y611D01*
X1870Y611D01*
X1870Y613D01*
X1868Y613D01*
X1868Y615D01*
X1866Y615D01*
X1866Y617D01*
X1864Y617D01*
X1864Y619D01*
X1862Y619D01*
X1862Y623D01*
X1860Y623D01*
X1860Y625D01*
X1858Y625D01*
X1858Y629D01*
X1856Y629D01*
X1856Y633D01*
X1854Y633D01*
X1854Y641D01*
X1852Y641D01*
X1852Y657D01*
X1854Y657D01*
X1854Y665D01*
X1856Y665D01*
X1856Y669D01*
X1858Y669D01*
X1858Y673D01*
X1860Y673D01*
X1860Y677D01*
X1862Y677D01*
X1862Y679D01*
X1864Y679D01*
X1864Y681D01*
X1866Y681D01*
X1866Y683D01*
X1868Y683D01*
X1868Y685D01*
X1870Y685D01*
X1870Y687D01*
X1872Y687D01*
X1872Y689D01*
X1876Y689D01*
X1876Y691D01*
X1880Y691D01*
X1880Y693D01*
X1884Y693D01*
X1884Y695D01*
X1892Y695D01*
X1892Y697D01*
X1524Y697D01*
G37*
D02*
G36*
X2330Y683D02*
X2330Y631D01*
X2332Y631D01*
X2332Y561D01*
X2336Y561D01*
X2336Y559D01*
X2340Y559D01*
X2340Y557D01*
X2344Y557D01*
X2344Y555D01*
X2346Y555D01*
X2346Y553D01*
X2350Y553D01*
X2350Y551D01*
X2354Y551D01*
X2354Y549D01*
X2358Y549D01*
X2358Y547D01*
X2360Y547D01*
X2360Y545D01*
X2382Y545D01*
X2382Y555D01*
X2380Y555D01*
X2380Y559D01*
X2378Y559D01*
X2378Y581D01*
X2380Y581D01*
X2380Y587D01*
X2382Y587D01*
X2382Y589D01*
X2384Y589D01*
X2384Y593D01*
X2386Y593D01*
X2386Y595D01*
X2388Y595D01*
X2388Y597D01*
X2392Y597D01*
X2392Y599D01*
X2394Y599D01*
X2394Y621D01*
X2392Y621D01*
X2392Y623D01*
X2388Y623D01*
X2388Y625D01*
X2386Y625D01*
X2386Y627D01*
X2384Y627D01*
X2384Y631D01*
X2382Y631D01*
X2382Y633D01*
X2380Y633D01*
X2380Y639D01*
X2378Y639D01*
X2378Y661D01*
X2380Y661D01*
X2380Y665D01*
X2382Y665D01*
X2382Y669D01*
X2384Y669D01*
X2384Y671D01*
X2386Y671D01*
X2386Y673D01*
X2388Y673D01*
X2388Y675D01*
X2390Y675D01*
X2390Y677D01*
X2394Y677D01*
X2394Y679D01*
X2396Y679D01*
X2396Y681D01*
X2402Y681D01*
X2402Y683D01*
X2330Y683D01*
G37*
D02*
G36*
X52Y607D02*
X52Y605D01*
X1180Y605D01*
X1180Y607D01*
X52Y607D01*
G37*
D02*
G36*
X52Y607D02*
X52Y605D01*
X1180Y605D01*
X1180Y607D01*
X52Y607D01*
G37*
D02*
G36*
X52Y605D02*
X52Y603D01*
X1006Y603D01*
X1006Y601D01*
X1198Y601D01*
X1198Y603D01*
X1186Y603D01*
X1186Y605D01*
X52Y605D01*
G37*
D02*
G36*
X52Y603D02*
X52Y509D01*
X126Y509D01*
X126Y511D01*
X120Y511D01*
X120Y513D01*
X116Y513D01*
X116Y515D01*
X112Y515D01*
X112Y517D01*
X110Y517D01*
X110Y519D01*
X108Y519D01*
X108Y521D01*
X106Y521D01*
X106Y523D01*
X104Y523D01*
X104Y525D01*
X102Y525D01*
X102Y527D01*
X100Y527D01*
X100Y529D01*
X98Y529D01*
X98Y533D01*
X96Y533D01*
X96Y537D01*
X94Y537D01*
X94Y543D01*
X92Y543D01*
X92Y567D01*
X94Y567D01*
X94Y575D01*
X96Y575D01*
X96Y577D01*
X98Y577D01*
X98Y581D01*
X100Y581D01*
X100Y585D01*
X102Y585D01*
X102Y587D01*
X104Y587D01*
X104Y589D01*
X106Y589D01*
X106Y591D01*
X108Y591D01*
X108Y593D01*
X110Y593D01*
X110Y595D01*
X114Y595D01*
X114Y597D01*
X118Y597D01*
X118Y599D01*
X122Y599D01*
X122Y601D01*
X128Y601D01*
X128Y603D01*
X52Y603D01*
G37*
D02*
G36*
X148Y603D02*
X148Y601D01*
X156Y601D01*
X156Y599D01*
X160Y599D01*
X160Y597D01*
X164Y597D01*
X164Y595D01*
X166Y595D01*
X166Y593D01*
X168Y593D01*
X168Y591D01*
X172Y591D01*
X172Y589D01*
X174Y589D01*
X174Y585D01*
X176Y585D01*
X176Y583D01*
X178Y583D01*
X178Y581D01*
X180Y581D01*
X180Y577D01*
X182Y577D01*
X182Y573D01*
X184Y573D01*
X184Y565D01*
X186Y565D01*
X186Y545D01*
X184Y545D01*
X184Y539D01*
X182Y539D01*
X182Y535D01*
X180Y535D01*
X180Y531D01*
X178Y531D01*
X178Y527D01*
X176Y527D01*
X176Y525D01*
X174Y525D01*
X174Y523D01*
X172Y523D01*
X172Y521D01*
X170Y521D01*
X170Y519D01*
X168Y519D01*
X168Y517D01*
X164Y517D01*
X164Y515D01*
X160Y515D01*
X160Y513D01*
X158Y513D01*
X158Y511D01*
X150Y511D01*
X150Y509D01*
X970Y509D01*
X970Y511D01*
X968Y511D01*
X968Y513D01*
X966Y513D01*
X966Y515D01*
X964Y515D01*
X964Y517D01*
X962Y517D01*
X962Y519D01*
X960Y519D01*
X960Y521D01*
X958Y521D01*
X958Y523D01*
X956Y523D01*
X956Y527D01*
X954Y527D01*
X954Y531D01*
X952Y531D01*
X952Y537D01*
X950Y537D01*
X950Y547D01*
X948Y547D01*
X948Y557D01*
X950Y557D01*
X950Y567D01*
X952Y567D01*
X952Y571D01*
X954Y571D01*
X954Y575D01*
X956Y575D01*
X956Y579D01*
X958Y579D01*
X958Y581D01*
X960Y581D01*
X960Y585D01*
X962Y585D01*
X962Y587D01*
X964Y587D01*
X964Y589D01*
X966Y589D01*
X966Y591D01*
X970Y591D01*
X970Y593D01*
X972Y593D01*
X972Y595D01*
X976Y595D01*
X976Y597D01*
X980Y597D01*
X980Y599D01*
X984Y599D01*
X984Y601D01*
X994Y601D01*
X994Y603D01*
X148Y603D01*
G37*
D02*
G36*
X1014Y601D02*
X1014Y599D01*
X2288Y599D01*
X2288Y601D01*
X1014Y601D01*
G37*
D02*
G36*
X1014Y601D02*
X1014Y599D01*
X2288Y599D01*
X2288Y601D01*
X1014Y601D01*
G37*
D02*
G36*
X1014Y601D02*
X1014Y599D01*
X2288Y599D01*
X2288Y601D01*
X1014Y601D01*
G37*
D02*
G36*
X1014Y601D02*
X1014Y599D01*
X2288Y599D01*
X2288Y601D01*
X1014Y601D01*
G37*
D02*
G36*
X1020Y599D02*
X1020Y597D01*
X1024Y597D01*
X1024Y595D01*
X1028Y595D01*
X1028Y593D01*
X1030Y593D01*
X1030Y591D01*
X1032Y591D01*
X1032Y589D01*
X1036Y589D01*
X1036Y585D01*
X1038Y585D01*
X1038Y583D01*
X1040Y583D01*
X1040Y581D01*
X1042Y581D01*
X1042Y577D01*
X1044Y577D01*
X1044Y575D01*
X1046Y575D01*
X1046Y571D01*
X1048Y571D01*
X1048Y563D01*
X1050Y563D01*
X1050Y539D01*
X1048Y539D01*
X1048Y533D01*
X1046Y533D01*
X1046Y529D01*
X1044Y529D01*
X1044Y525D01*
X1042Y525D01*
X1042Y521D01*
X1040Y521D01*
X1040Y519D01*
X1038Y519D01*
X1038Y517D01*
X1036Y517D01*
X1036Y515D01*
X1034Y515D01*
X1034Y513D01*
X1032Y513D01*
X1032Y511D01*
X1030Y511D01*
X1030Y509D01*
X1026Y509D01*
X1026Y507D01*
X1022Y507D01*
X1022Y505D01*
X1018Y505D01*
X1018Y503D01*
X1012Y503D01*
X1012Y501D01*
X2348Y501D01*
X2348Y503D01*
X2346Y503D01*
X2346Y505D01*
X2342Y505D01*
X2342Y507D01*
X2338Y507D01*
X2338Y509D01*
X2336Y509D01*
X2336Y511D01*
X2332Y511D01*
X2332Y513D01*
X2328Y513D01*
X2328Y515D01*
X2324Y515D01*
X2324Y517D01*
X2322Y517D01*
X2322Y519D01*
X2318Y519D01*
X2318Y521D01*
X2314Y521D01*
X2314Y523D01*
X2310Y523D01*
X2310Y525D01*
X2308Y525D01*
X2308Y527D01*
X2304Y527D01*
X2304Y529D01*
X2300Y529D01*
X2300Y531D01*
X2298Y531D01*
X2298Y533D01*
X2296Y533D01*
X2296Y535D01*
X2294Y535D01*
X2294Y537D01*
X2292Y537D01*
X2292Y539D01*
X2290Y539D01*
X2290Y547D01*
X2288Y547D01*
X2288Y599D01*
X1020Y599D01*
G37*
D02*
G36*
X52Y509D02*
X52Y507D01*
X974Y507D01*
X974Y509D01*
X52Y509D01*
G37*
D02*
G36*
X52Y509D02*
X52Y507D01*
X974Y507D01*
X974Y509D01*
X52Y509D01*
G37*
D02*
G36*
X52Y507D02*
X52Y505D01*
X638Y505D01*
X638Y503D01*
X646Y503D01*
X646Y501D01*
X988Y501D01*
X988Y503D01*
X980Y503D01*
X980Y505D01*
X976Y505D01*
X976Y507D01*
X52Y507D01*
G37*
D02*
G36*
X52Y505D02*
X52Y431D01*
X352Y431D01*
X352Y429D01*
X358Y429D01*
X358Y427D01*
X364Y427D01*
X364Y425D01*
X368Y425D01*
X368Y423D01*
X372Y423D01*
X372Y421D01*
X376Y421D01*
X376Y419D01*
X378Y419D01*
X378Y417D01*
X380Y417D01*
X380Y415D01*
X384Y415D01*
X384Y413D01*
X386Y413D01*
X386Y411D01*
X388Y411D01*
X388Y409D01*
X626Y409D01*
X626Y411D01*
X618Y411D01*
X618Y413D01*
X612Y413D01*
X612Y415D01*
X608Y415D01*
X608Y417D01*
X604Y417D01*
X604Y419D01*
X602Y419D01*
X602Y421D01*
X600Y421D01*
X600Y423D01*
X596Y423D01*
X596Y427D01*
X594Y427D01*
X594Y429D01*
X592Y429D01*
X592Y431D01*
X590Y431D01*
X590Y435D01*
X588Y435D01*
X588Y439D01*
X586Y439D01*
X586Y445D01*
X584Y445D01*
X584Y469D01*
X586Y469D01*
X586Y475D01*
X588Y475D01*
X588Y479D01*
X590Y479D01*
X590Y483D01*
X592Y483D01*
X592Y485D01*
X594Y485D01*
X594Y489D01*
X596Y489D01*
X596Y491D01*
X598Y491D01*
X598Y493D01*
X602Y493D01*
X602Y495D01*
X604Y495D01*
X604Y497D01*
X606Y497D01*
X606Y499D01*
X610Y499D01*
X610Y501D01*
X616Y501D01*
X616Y503D01*
X624Y503D01*
X624Y505D01*
X52Y505D01*
G37*
D02*
G36*
X652Y501D02*
X652Y499D01*
X2352Y499D01*
X2352Y501D01*
X652Y501D01*
G37*
D02*
G36*
X652Y501D02*
X652Y499D01*
X2352Y499D01*
X2352Y501D01*
X652Y501D01*
G37*
D02*
G36*
X654Y499D02*
X654Y497D01*
X1708Y497D01*
X1708Y495D01*
X1716Y495D01*
X1716Y493D01*
X1720Y493D01*
X1720Y491D01*
X1724Y491D01*
X1724Y489D01*
X1728Y489D01*
X1728Y487D01*
X1730Y487D01*
X1730Y485D01*
X1732Y485D01*
X1732Y483D01*
X1734Y483D01*
X1734Y481D01*
X1736Y481D01*
X1736Y479D01*
X1738Y479D01*
X1738Y475D01*
X1740Y475D01*
X1740Y473D01*
X1742Y473D01*
X1742Y469D01*
X1744Y469D01*
X1744Y463D01*
X1746Y463D01*
X1746Y453D01*
X1748Y453D01*
X1748Y447D01*
X1746Y447D01*
X1746Y437D01*
X1744Y437D01*
X1744Y431D01*
X1742Y431D01*
X1742Y427D01*
X1740Y427D01*
X1740Y423D01*
X1738Y423D01*
X1738Y421D01*
X1736Y421D01*
X1736Y417D01*
X1734Y417D01*
X1734Y415D01*
X1732Y415D01*
X1732Y413D01*
X1728Y413D01*
X1728Y411D01*
X1726Y411D01*
X1726Y409D01*
X1722Y409D01*
X1722Y407D01*
X1718Y407D01*
X1718Y405D01*
X1712Y405D01*
X1712Y403D01*
X1702Y403D01*
X1702Y401D01*
X2380Y401D01*
X2380Y403D01*
X2378Y403D01*
X2378Y425D01*
X2380Y425D01*
X2380Y429D01*
X2382Y429D01*
X2382Y433D01*
X2384Y433D01*
X2384Y435D01*
X2386Y435D01*
X2386Y437D01*
X2388Y437D01*
X2388Y439D01*
X2390Y439D01*
X2390Y441D01*
X2394Y441D01*
X2394Y443D01*
X2396Y443D01*
X2396Y463D01*
X2392Y463D01*
X2392Y465D01*
X2390Y465D01*
X2390Y467D01*
X2386Y467D01*
X2386Y471D01*
X2384Y471D01*
X2384Y473D01*
X2382Y473D01*
X2382Y477D01*
X2380Y477D01*
X2380Y481D01*
X2378Y481D01*
X2378Y485D01*
X2376Y485D01*
X2376Y487D01*
X2374Y487D01*
X2374Y489D01*
X2370Y489D01*
X2370Y491D01*
X2366Y491D01*
X2366Y493D01*
X2362Y493D01*
X2362Y495D01*
X2360Y495D01*
X2360Y497D01*
X2356Y497D01*
X2356Y499D01*
X654Y499D01*
G37*
D02*
G36*
X658Y497D02*
X658Y495D01*
X660Y495D01*
X660Y493D01*
X662Y493D01*
X662Y491D01*
X666Y491D01*
X666Y487D01*
X668Y487D01*
X668Y485D01*
X670Y485D01*
X670Y483D01*
X672Y483D01*
X672Y479D01*
X674Y479D01*
X674Y475D01*
X676Y475D01*
X676Y467D01*
X678Y467D01*
X678Y447D01*
X676Y447D01*
X676Y441D01*
X674Y441D01*
X674Y435D01*
X672Y435D01*
X672Y433D01*
X670Y433D01*
X670Y429D01*
X668Y429D01*
X668Y427D01*
X666Y427D01*
X666Y425D01*
X664Y425D01*
X664Y423D01*
X662Y423D01*
X662Y421D01*
X660Y421D01*
X660Y419D01*
X658Y419D01*
X658Y417D01*
X654Y417D01*
X654Y415D01*
X650Y415D01*
X650Y413D01*
X644Y413D01*
X644Y411D01*
X636Y411D01*
X636Y409D01*
X774Y409D01*
X774Y411D01*
X770Y411D01*
X770Y413D01*
X768Y413D01*
X768Y415D01*
X766Y415D01*
X766Y417D01*
X764Y417D01*
X764Y419D01*
X762Y419D01*
X762Y423D01*
X760Y423D01*
X760Y425D01*
X758Y425D01*
X758Y429D01*
X756Y429D01*
X756Y433D01*
X754Y433D01*
X754Y441D01*
X752Y441D01*
X752Y457D01*
X754Y457D01*
X754Y465D01*
X756Y465D01*
X756Y469D01*
X758Y469D01*
X758Y473D01*
X760Y473D01*
X760Y477D01*
X762Y477D01*
X762Y479D01*
X764Y479D01*
X764Y481D01*
X766Y481D01*
X766Y483D01*
X768Y483D01*
X768Y485D01*
X770Y485D01*
X770Y487D01*
X772Y487D01*
X772Y489D01*
X776Y489D01*
X776Y491D01*
X780Y491D01*
X780Y493D01*
X784Y493D01*
X784Y495D01*
X792Y495D01*
X792Y497D01*
X658Y497D01*
G37*
D02*
G36*
X808Y497D02*
X808Y495D01*
X816Y495D01*
X816Y493D01*
X820Y493D01*
X820Y491D01*
X824Y491D01*
X824Y489D01*
X828Y489D01*
X828Y487D01*
X830Y487D01*
X830Y485D01*
X832Y485D01*
X832Y483D01*
X834Y483D01*
X834Y481D01*
X836Y481D01*
X836Y479D01*
X838Y479D01*
X838Y475D01*
X840Y475D01*
X840Y473D01*
X842Y473D01*
X842Y469D01*
X844Y469D01*
X844Y463D01*
X846Y463D01*
X846Y453D01*
X848Y453D01*
X848Y447D01*
X846Y447D01*
X846Y437D01*
X844Y437D01*
X844Y431D01*
X842Y431D01*
X842Y427D01*
X840Y427D01*
X840Y423D01*
X838Y423D01*
X838Y421D01*
X836Y421D01*
X836Y417D01*
X834Y417D01*
X834Y415D01*
X832Y415D01*
X832Y413D01*
X828Y413D01*
X828Y411D01*
X826Y411D01*
X826Y409D01*
X822Y409D01*
X822Y407D01*
X818Y407D01*
X818Y405D01*
X812Y405D01*
X812Y403D01*
X802Y403D01*
X802Y401D01*
X1698Y401D01*
X1698Y403D01*
X1686Y403D01*
X1686Y405D01*
X1680Y405D01*
X1680Y407D01*
X1676Y407D01*
X1676Y409D01*
X1674Y409D01*
X1674Y411D01*
X1670Y411D01*
X1670Y413D01*
X1668Y413D01*
X1668Y415D01*
X1666Y415D01*
X1666Y417D01*
X1664Y417D01*
X1664Y419D01*
X1662Y419D01*
X1662Y423D01*
X1660Y423D01*
X1660Y425D01*
X1658Y425D01*
X1658Y429D01*
X1656Y429D01*
X1656Y433D01*
X1654Y433D01*
X1654Y441D01*
X1652Y441D01*
X1652Y457D01*
X1654Y457D01*
X1654Y465D01*
X1656Y465D01*
X1656Y469D01*
X1658Y469D01*
X1658Y473D01*
X1660Y473D01*
X1660Y477D01*
X1662Y477D01*
X1662Y479D01*
X1664Y479D01*
X1664Y481D01*
X1666Y481D01*
X1666Y483D01*
X1668Y483D01*
X1668Y485D01*
X1670Y485D01*
X1670Y487D01*
X1672Y487D01*
X1672Y489D01*
X1676Y489D01*
X1676Y491D01*
X1680Y491D01*
X1680Y493D01*
X1684Y493D01*
X1684Y495D01*
X1692Y495D01*
X1692Y497D01*
X808Y497D01*
G37*
D02*
G36*
X52Y431D02*
X52Y285D01*
X332Y285D01*
X332Y287D01*
X318Y287D01*
X318Y289D01*
X312Y289D01*
X312Y291D01*
X306Y291D01*
X306Y293D01*
X302Y293D01*
X302Y295D01*
X298Y295D01*
X298Y297D01*
X296Y297D01*
X296Y299D01*
X292Y299D01*
X292Y301D01*
X290Y301D01*
X290Y303D01*
X288Y303D01*
X288Y305D01*
X286Y305D01*
X286Y307D01*
X284Y307D01*
X284Y309D01*
X282Y309D01*
X282Y311D01*
X280Y311D01*
X280Y313D01*
X278Y313D01*
X278Y315D01*
X276Y315D01*
X276Y319D01*
X274Y319D01*
X274Y321D01*
X272Y321D01*
X272Y325D01*
X270Y325D01*
X270Y329D01*
X268Y329D01*
X268Y333D01*
X266Y333D01*
X266Y341D01*
X264Y341D01*
X264Y351D01*
X262Y351D01*
X262Y367D01*
X264Y367D01*
X264Y377D01*
X266Y377D01*
X266Y383D01*
X268Y383D01*
X268Y389D01*
X270Y389D01*
X270Y393D01*
X272Y393D01*
X272Y397D01*
X274Y397D01*
X274Y399D01*
X276Y399D01*
X276Y403D01*
X278Y403D01*
X278Y405D01*
X280Y405D01*
X280Y407D01*
X282Y407D01*
X282Y409D01*
X284Y409D01*
X284Y411D01*
X286Y411D01*
X286Y413D01*
X288Y413D01*
X288Y415D01*
X290Y415D01*
X290Y417D01*
X294Y417D01*
X294Y419D01*
X296Y419D01*
X296Y421D01*
X300Y421D01*
X300Y423D01*
X302Y423D01*
X302Y425D01*
X308Y425D01*
X308Y427D01*
X312Y427D01*
X312Y429D01*
X320Y429D01*
X320Y431D01*
X52Y431D01*
G37*
D02*
G36*
X390Y409D02*
X390Y407D01*
X776Y407D01*
X776Y409D01*
X390Y409D01*
G37*
D02*
G36*
X390Y409D02*
X390Y407D01*
X776Y407D01*
X776Y409D01*
X390Y409D01*
G37*
D02*
G36*
X392Y407D02*
X392Y403D01*
X394Y403D01*
X394Y401D01*
X396Y401D01*
X396Y397D01*
X398Y397D01*
X398Y395D01*
X400Y395D01*
X400Y391D01*
X402Y391D01*
X402Y387D01*
X404Y387D01*
X404Y381D01*
X406Y381D01*
X406Y373D01*
X408Y373D01*
X408Y345D01*
X406Y345D01*
X406Y337D01*
X404Y337D01*
X404Y331D01*
X402Y331D01*
X402Y327D01*
X400Y327D01*
X400Y323D01*
X398Y323D01*
X398Y319D01*
X396Y319D01*
X396Y317D01*
X394Y317D01*
X394Y315D01*
X392Y315D01*
X392Y311D01*
X526Y311D01*
X526Y313D01*
X518Y313D01*
X518Y315D01*
X512Y315D01*
X512Y317D01*
X508Y317D01*
X508Y319D01*
X506Y319D01*
X506Y321D01*
X502Y321D01*
X502Y323D01*
X500Y323D01*
X500Y325D01*
X498Y325D01*
X498Y327D01*
X496Y327D01*
X496Y329D01*
X494Y329D01*
X494Y333D01*
X492Y333D01*
X492Y337D01*
X490Y337D01*
X490Y339D01*
X488Y339D01*
X488Y345D01*
X486Y345D01*
X486Y357D01*
X484Y357D01*
X484Y361D01*
X486Y361D01*
X486Y371D01*
X488Y371D01*
X488Y377D01*
X490Y377D01*
X490Y381D01*
X492Y381D01*
X492Y385D01*
X494Y385D01*
X494Y387D01*
X496Y387D01*
X496Y391D01*
X498Y391D01*
X498Y393D01*
X500Y393D01*
X500Y395D01*
X504Y395D01*
X504Y397D01*
X506Y397D01*
X506Y399D01*
X510Y399D01*
X510Y401D01*
X512Y401D01*
X512Y403D01*
X518Y403D01*
X518Y405D01*
X528Y405D01*
X528Y407D01*
X392Y407D01*
G37*
D02*
G36*
X538Y407D02*
X538Y405D01*
X546Y405D01*
X546Y403D01*
X552Y403D01*
X552Y401D01*
X798Y401D01*
X798Y403D01*
X786Y403D01*
X786Y405D01*
X780Y405D01*
X780Y407D01*
X538Y407D01*
G37*
D02*
G36*
X556Y401D02*
X556Y399D01*
X2380Y399D01*
X2380Y401D01*
X556Y401D01*
G37*
D02*
G36*
X556Y401D02*
X556Y399D01*
X2380Y399D01*
X2380Y401D01*
X556Y401D01*
G37*
D02*
G36*
X556Y401D02*
X556Y399D01*
X2380Y399D01*
X2380Y401D01*
X556Y401D01*
G37*
D02*
G36*
X558Y399D02*
X558Y397D01*
X562Y397D01*
X562Y395D01*
X564Y395D01*
X564Y393D01*
X566Y393D01*
X566Y391D01*
X568Y391D01*
X568Y389D01*
X570Y389D01*
X570Y387D01*
X572Y387D01*
X572Y383D01*
X574Y383D01*
X574Y379D01*
X2406Y379D01*
X2406Y381D01*
X2398Y381D01*
X2398Y383D01*
X2394Y383D01*
X2394Y385D01*
X2390Y385D01*
X2390Y387D01*
X2388Y387D01*
X2388Y389D01*
X2386Y389D01*
X2386Y391D01*
X2384Y391D01*
X2384Y395D01*
X2382Y395D01*
X2382Y397D01*
X2380Y397D01*
X2380Y399D01*
X558Y399D01*
G37*
D02*
G36*
X576Y379D02*
X576Y377D01*
X2664Y377D01*
X2664Y379D01*
X576Y379D01*
G37*
D02*
G36*
X576Y379D02*
X576Y377D01*
X2664Y377D01*
X2664Y379D01*
X576Y379D01*
G37*
D02*
G36*
X576Y377D02*
X576Y375D01*
X578Y375D01*
X578Y367D01*
X580Y367D01*
X580Y351D01*
X578Y351D01*
X578Y343D01*
X576Y343D01*
X576Y339D01*
X574Y339D01*
X574Y335D01*
X572Y335D01*
X572Y331D01*
X570Y331D01*
X570Y329D01*
X568Y329D01*
X568Y327D01*
X566Y327D01*
X566Y325D01*
X564Y325D01*
X564Y323D01*
X562Y323D01*
X562Y321D01*
X560Y321D01*
X560Y319D01*
X556Y319D01*
X556Y317D01*
X552Y317D01*
X552Y315D01*
X548Y315D01*
X548Y313D01*
X540Y313D01*
X540Y311D01*
X2664Y311D01*
X2664Y377D01*
X576Y377D01*
G37*
D02*
G36*
X390Y311D02*
X390Y309D01*
X2664Y309D01*
X2664Y311D01*
X390Y311D01*
G37*
D02*
G36*
X390Y311D02*
X390Y309D01*
X2664Y309D01*
X2664Y311D01*
X390Y311D01*
G37*
D02*
G36*
X388Y309D02*
X388Y307D01*
X386Y307D01*
X386Y305D01*
X384Y305D01*
X384Y303D01*
X382Y303D01*
X382Y301D01*
X378Y301D01*
X378Y299D01*
X376Y299D01*
X376Y297D01*
X372Y297D01*
X372Y295D01*
X368Y295D01*
X368Y293D01*
X364Y293D01*
X364Y291D01*
X360Y291D01*
X360Y289D01*
X352Y289D01*
X352Y287D01*
X338Y287D01*
X338Y285D01*
X2664Y285D01*
X2664Y309D01*
X388Y309D01*
G37*
D02*
G36*
X52Y285D02*
X52Y283D01*
X2664Y283D01*
X2664Y285D01*
X52Y285D01*
G37*
D02*
G36*
X52Y285D02*
X52Y283D01*
X2664Y283D01*
X2664Y285D01*
X52Y285D01*
G37*
D02*
G36*
X52Y283D02*
X52Y143D01*
X2518Y143D01*
X2518Y141D01*
X2526Y141D01*
X2526Y139D01*
X2530Y139D01*
X2530Y137D01*
X2534Y137D01*
X2534Y135D01*
X2536Y135D01*
X2536Y133D01*
X2538Y133D01*
X2538Y131D01*
X2542Y131D01*
X2542Y127D01*
X2544Y127D01*
X2544Y125D01*
X2564Y125D01*
X2564Y147D01*
X2566Y147D01*
X2566Y149D01*
X2568Y149D01*
X2568Y151D01*
X2570Y151D01*
X2570Y153D01*
X2572Y153D01*
X2572Y155D01*
X2574Y155D01*
X2574Y157D01*
X2576Y157D01*
X2576Y159D01*
X2578Y159D01*
X2578Y161D01*
X2580Y161D01*
X2580Y163D01*
X2582Y163D01*
X2582Y165D01*
X2584Y165D01*
X2584Y167D01*
X2586Y167D01*
X2586Y169D01*
X2588Y169D01*
X2588Y171D01*
X2590Y171D01*
X2590Y173D01*
X2592Y173D01*
X2592Y175D01*
X2594Y175D01*
X2594Y177D01*
X2596Y177D01*
X2596Y179D01*
X2598Y179D01*
X2598Y181D01*
X2600Y181D01*
X2600Y183D01*
X2602Y183D01*
X2602Y185D01*
X2604Y185D01*
X2604Y187D01*
X2606Y187D01*
X2606Y189D01*
X2608Y189D01*
X2608Y191D01*
X2610Y191D01*
X2610Y193D01*
X2612Y193D01*
X2612Y195D01*
X2614Y195D01*
X2614Y197D01*
X2616Y197D01*
X2616Y199D01*
X2618Y199D01*
X2618Y201D01*
X2620Y201D01*
X2620Y203D01*
X2622Y203D01*
X2622Y205D01*
X2624Y205D01*
X2624Y207D01*
X2626Y207D01*
X2626Y209D01*
X2628Y209D01*
X2628Y211D01*
X2630Y211D01*
X2630Y213D01*
X2632Y213D01*
X2632Y215D01*
X2634Y215D01*
X2634Y217D01*
X2636Y217D01*
X2636Y219D01*
X2638Y219D01*
X2638Y221D01*
X2640Y221D01*
X2640Y223D01*
X2642Y223D01*
X2642Y225D01*
X2644Y225D01*
X2644Y227D01*
X2646Y227D01*
X2646Y229D01*
X2648Y229D01*
X2648Y231D01*
X2650Y231D01*
X2650Y233D01*
X2652Y233D01*
X2652Y235D01*
X2654Y235D01*
X2654Y237D01*
X2656Y237D01*
X2656Y239D01*
X2658Y239D01*
X2658Y241D01*
X2660Y241D01*
X2660Y243D01*
X2662Y243D01*
X2662Y245D01*
X2664Y245D01*
X2664Y283D01*
X52Y283D01*
G37*
D02*
G36*
X52Y143D02*
X52Y71D01*
X54Y71D01*
X54Y67D01*
X56Y67D01*
X56Y63D01*
X58Y63D01*
X58Y61D01*
X60Y61D01*
X60Y59D01*
X62Y59D01*
X62Y57D01*
X64Y57D01*
X64Y55D01*
X66Y55D01*
X66Y53D01*
X70Y53D01*
X70Y51D01*
X74Y51D01*
X74Y49D01*
X80Y49D01*
X80Y47D01*
X1086Y47D01*
X1086Y67D01*
X1084Y67D01*
X1084Y69D01*
X1080Y69D01*
X1080Y71D01*
X1078Y71D01*
X1078Y75D01*
X1076Y75D01*
X1076Y77D01*
X1074Y77D01*
X1074Y81D01*
X1072Y81D01*
X1072Y85D01*
X1070Y85D01*
X1070Y93D01*
X1068Y93D01*
X1068Y109D01*
X1070Y109D01*
X1070Y115D01*
X1072Y115D01*
X1072Y119D01*
X1074Y119D01*
X1074Y123D01*
X1076Y123D01*
X1076Y125D01*
X1078Y125D01*
X1078Y129D01*
X1080Y129D01*
X1080Y131D01*
X1082Y131D01*
X1082Y133D01*
X1086Y133D01*
X1086Y135D01*
X1088Y135D01*
X1088Y137D01*
X1092Y137D01*
X1092Y139D01*
X1096Y139D01*
X1096Y141D01*
X1104Y141D01*
X1104Y143D01*
X52Y143D01*
G37*
D02*
G36*
X1118Y143D02*
X1118Y141D01*
X1126Y141D01*
X1126Y139D01*
X1130Y139D01*
X1130Y137D01*
X1134Y137D01*
X1134Y135D01*
X1136Y135D01*
X1136Y133D01*
X1138Y133D01*
X1138Y131D01*
X1142Y131D01*
X1142Y127D01*
X1144Y127D01*
X1144Y125D01*
X1146Y125D01*
X1146Y123D01*
X1148Y123D01*
X1148Y119D01*
X1150Y119D01*
X1150Y113D01*
X1170Y113D01*
X1170Y115D01*
X1172Y115D01*
X1172Y119D01*
X1174Y119D01*
X1174Y123D01*
X1176Y123D01*
X1176Y125D01*
X1178Y125D01*
X1178Y129D01*
X1180Y129D01*
X1180Y131D01*
X1182Y131D01*
X1182Y133D01*
X1186Y133D01*
X1186Y135D01*
X1188Y135D01*
X1188Y137D01*
X1192Y137D01*
X1192Y139D01*
X1196Y139D01*
X1196Y141D01*
X1204Y141D01*
X1204Y143D01*
X1118Y143D01*
G37*
D02*
G36*
X1218Y143D02*
X1218Y141D01*
X1226Y141D01*
X1226Y139D01*
X1230Y139D01*
X1230Y137D01*
X1234Y137D01*
X1234Y135D01*
X1236Y135D01*
X1236Y133D01*
X1238Y133D01*
X1238Y131D01*
X1242Y131D01*
X1242Y127D01*
X1244Y127D01*
X1244Y125D01*
X1246Y125D01*
X1246Y123D01*
X1248Y123D01*
X1248Y119D01*
X1250Y119D01*
X1250Y113D01*
X1270Y113D01*
X1270Y115D01*
X1272Y115D01*
X1272Y119D01*
X1274Y119D01*
X1274Y123D01*
X1276Y123D01*
X1276Y125D01*
X1278Y125D01*
X1278Y129D01*
X1280Y129D01*
X1280Y131D01*
X1282Y131D01*
X1282Y133D01*
X1286Y133D01*
X1286Y135D01*
X1288Y135D01*
X1288Y137D01*
X1292Y137D01*
X1292Y139D01*
X1296Y139D01*
X1296Y141D01*
X1304Y141D01*
X1304Y143D01*
X1218Y143D01*
G37*
D02*
G36*
X1318Y143D02*
X1318Y141D01*
X1326Y141D01*
X1326Y139D01*
X1330Y139D01*
X1330Y137D01*
X1334Y137D01*
X1334Y135D01*
X1336Y135D01*
X1336Y133D01*
X1338Y133D01*
X1338Y131D01*
X1342Y131D01*
X1342Y127D01*
X1344Y127D01*
X1344Y125D01*
X1346Y125D01*
X1346Y123D01*
X1348Y123D01*
X1348Y119D01*
X1350Y119D01*
X1350Y113D01*
X1370Y113D01*
X1370Y115D01*
X1372Y115D01*
X1372Y119D01*
X1374Y119D01*
X1374Y123D01*
X1376Y123D01*
X1376Y125D01*
X1378Y125D01*
X1378Y129D01*
X1380Y129D01*
X1380Y131D01*
X1382Y131D01*
X1382Y133D01*
X1386Y133D01*
X1386Y135D01*
X1388Y135D01*
X1388Y137D01*
X1392Y137D01*
X1392Y139D01*
X1396Y139D01*
X1396Y141D01*
X1404Y141D01*
X1404Y143D01*
X1318Y143D01*
G37*
D02*
G36*
X1418Y143D02*
X1418Y141D01*
X1426Y141D01*
X1426Y139D01*
X1430Y139D01*
X1430Y137D01*
X1434Y137D01*
X1434Y135D01*
X1436Y135D01*
X1436Y133D01*
X1438Y133D01*
X1438Y131D01*
X1442Y131D01*
X1442Y127D01*
X1444Y127D01*
X1444Y125D01*
X1446Y125D01*
X1446Y123D01*
X1448Y123D01*
X1448Y119D01*
X1450Y119D01*
X1450Y113D01*
X1470Y113D01*
X1470Y115D01*
X1472Y115D01*
X1472Y119D01*
X1474Y119D01*
X1474Y123D01*
X1476Y123D01*
X1476Y125D01*
X1478Y125D01*
X1478Y129D01*
X1480Y129D01*
X1480Y131D01*
X1482Y131D01*
X1482Y133D01*
X1486Y133D01*
X1486Y135D01*
X1488Y135D01*
X1488Y137D01*
X1492Y137D01*
X1492Y139D01*
X1496Y139D01*
X1496Y141D01*
X1504Y141D01*
X1504Y143D01*
X1418Y143D01*
G37*
D02*
G36*
X1518Y143D02*
X1518Y141D01*
X1526Y141D01*
X1526Y139D01*
X1530Y139D01*
X1530Y137D01*
X1534Y137D01*
X1534Y135D01*
X1536Y135D01*
X1536Y133D01*
X1538Y133D01*
X1538Y131D01*
X1542Y131D01*
X1542Y127D01*
X1544Y127D01*
X1544Y125D01*
X1546Y125D01*
X1546Y123D01*
X1548Y123D01*
X1548Y119D01*
X1550Y119D01*
X1550Y113D01*
X1570Y113D01*
X1570Y115D01*
X1572Y115D01*
X1572Y119D01*
X1574Y119D01*
X1574Y123D01*
X1576Y123D01*
X1576Y125D01*
X1578Y125D01*
X1578Y129D01*
X1580Y129D01*
X1580Y131D01*
X1582Y131D01*
X1582Y133D01*
X1586Y133D01*
X1586Y135D01*
X1588Y135D01*
X1588Y137D01*
X1592Y137D01*
X1592Y139D01*
X1596Y139D01*
X1596Y141D01*
X1604Y141D01*
X1604Y143D01*
X1518Y143D01*
G37*
D02*
G36*
X1618Y143D02*
X1618Y141D01*
X1626Y141D01*
X1626Y139D01*
X1630Y139D01*
X1630Y137D01*
X1634Y137D01*
X1634Y135D01*
X1636Y135D01*
X1636Y133D01*
X1638Y133D01*
X1638Y131D01*
X1642Y131D01*
X1642Y127D01*
X1644Y127D01*
X1644Y125D01*
X1646Y125D01*
X1646Y123D01*
X1648Y123D01*
X1648Y119D01*
X1650Y119D01*
X1650Y113D01*
X1670Y113D01*
X1670Y115D01*
X1672Y115D01*
X1672Y119D01*
X1674Y119D01*
X1674Y123D01*
X1676Y123D01*
X1676Y125D01*
X1678Y125D01*
X1678Y129D01*
X1680Y129D01*
X1680Y131D01*
X1682Y131D01*
X1682Y133D01*
X1686Y133D01*
X1686Y135D01*
X1688Y135D01*
X1688Y137D01*
X1692Y137D01*
X1692Y139D01*
X1696Y139D01*
X1696Y141D01*
X1704Y141D01*
X1704Y143D01*
X1618Y143D01*
G37*
D02*
G36*
X1718Y143D02*
X1718Y141D01*
X1726Y141D01*
X1726Y139D01*
X1730Y139D01*
X1730Y137D01*
X1734Y137D01*
X1734Y135D01*
X1736Y135D01*
X1736Y133D01*
X1738Y133D01*
X1738Y131D01*
X1742Y131D01*
X1742Y127D01*
X1744Y127D01*
X1744Y125D01*
X1746Y125D01*
X1746Y123D01*
X1748Y123D01*
X1748Y119D01*
X1750Y119D01*
X1750Y113D01*
X1770Y113D01*
X1770Y115D01*
X1772Y115D01*
X1772Y119D01*
X1774Y119D01*
X1774Y123D01*
X1776Y123D01*
X1776Y125D01*
X1778Y125D01*
X1778Y129D01*
X1780Y129D01*
X1780Y131D01*
X1782Y131D01*
X1782Y133D01*
X1786Y133D01*
X1786Y135D01*
X1788Y135D01*
X1788Y137D01*
X1792Y137D01*
X1792Y139D01*
X1796Y139D01*
X1796Y141D01*
X1804Y141D01*
X1804Y143D01*
X1718Y143D01*
G37*
D02*
G36*
X1818Y143D02*
X1818Y141D01*
X1826Y141D01*
X1826Y139D01*
X1830Y139D01*
X1830Y137D01*
X1834Y137D01*
X1834Y135D01*
X1836Y135D01*
X1836Y133D01*
X1838Y133D01*
X1838Y131D01*
X1842Y131D01*
X1842Y127D01*
X1844Y127D01*
X1844Y125D01*
X1846Y125D01*
X1846Y123D01*
X1848Y123D01*
X1848Y119D01*
X1850Y119D01*
X1850Y113D01*
X1852Y113D01*
X1852Y105D01*
X1854Y105D01*
X1854Y95D01*
X1852Y95D01*
X1852Y87D01*
X1850Y87D01*
X1850Y81D01*
X1848Y81D01*
X1848Y77D01*
X1846Y77D01*
X1846Y75D01*
X1844Y75D01*
X1844Y73D01*
X1842Y73D01*
X1842Y71D01*
X1840Y71D01*
X1840Y69D01*
X1838Y69D01*
X1838Y67D01*
X1836Y67D01*
X1836Y47D01*
X1986Y47D01*
X1986Y67D01*
X1984Y67D01*
X1984Y69D01*
X1980Y69D01*
X1980Y71D01*
X1978Y71D01*
X1978Y75D01*
X1976Y75D01*
X1976Y77D01*
X1974Y77D01*
X1974Y81D01*
X1972Y81D01*
X1972Y85D01*
X1970Y85D01*
X1970Y93D01*
X1968Y93D01*
X1968Y107D01*
X1970Y107D01*
X1970Y115D01*
X1972Y115D01*
X1972Y119D01*
X1974Y119D01*
X1974Y123D01*
X1976Y123D01*
X1976Y125D01*
X1978Y125D01*
X1978Y129D01*
X1980Y129D01*
X1980Y131D01*
X1982Y131D01*
X1982Y133D01*
X1986Y133D01*
X1986Y135D01*
X1988Y135D01*
X1988Y137D01*
X1992Y137D01*
X1992Y139D01*
X1996Y139D01*
X1996Y141D01*
X2004Y141D01*
X2004Y143D01*
X1818Y143D01*
G37*
D02*
G36*
X2018Y143D02*
X2018Y141D01*
X2026Y141D01*
X2026Y139D01*
X2030Y139D01*
X2030Y137D01*
X2034Y137D01*
X2034Y135D01*
X2036Y135D01*
X2036Y133D01*
X2038Y133D01*
X2038Y131D01*
X2042Y131D01*
X2042Y127D01*
X2044Y127D01*
X2044Y125D01*
X2046Y125D01*
X2046Y123D01*
X2048Y123D01*
X2048Y119D01*
X2050Y119D01*
X2050Y113D01*
X2070Y113D01*
X2070Y115D01*
X2072Y115D01*
X2072Y119D01*
X2074Y119D01*
X2074Y123D01*
X2076Y123D01*
X2076Y125D01*
X2078Y125D01*
X2078Y129D01*
X2080Y129D01*
X2080Y131D01*
X2082Y131D01*
X2082Y133D01*
X2086Y133D01*
X2086Y135D01*
X2088Y135D01*
X2088Y137D01*
X2092Y137D01*
X2092Y139D01*
X2096Y139D01*
X2096Y141D01*
X2104Y141D01*
X2104Y143D01*
X2018Y143D01*
G37*
D02*
G36*
X2118Y143D02*
X2118Y141D01*
X2126Y141D01*
X2126Y139D01*
X2130Y139D01*
X2130Y137D01*
X2134Y137D01*
X2134Y135D01*
X2136Y135D01*
X2136Y133D01*
X2138Y133D01*
X2138Y131D01*
X2142Y131D01*
X2142Y127D01*
X2144Y127D01*
X2144Y125D01*
X2146Y125D01*
X2146Y123D01*
X2148Y123D01*
X2148Y119D01*
X2150Y119D01*
X2150Y113D01*
X2170Y113D01*
X2170Y115D01*
X2172Y115D01*
X2172Y119D01*
X2174Y119D01*
X2174Y123D01*
X2176Y123D01*
X2176Y125D01*
X2178Y125D01*
X2178Y129D01*
X2180Y129D01*
X2180Y131D01*
X2182Y131D01*
X2182Y133D01*
X2186Y133D01*
X2186Y135D01*
X2188Y135D01*
X2188Y137D01*
X2192Y137D01*
X2192Y139D01*
X2196Y139D01*
X2196Y141D01*
X2204Y141D01*
X2204Y143D01*
X2118Y143D01*
G37*
D02*
G36*
X2218Y143D02*
X2218Y141D01*
X2226Y141D01*
X2226Y139D01*
X2230Y139D01*
X2230Y137D01*
X2234Y137D01*
X2234Y135D01*
X2236Y135D01*
X2236Y133D01*
X2238Y133D01*
X2238Y131D01*
X2242Y131D01*
X2242Y127D01*
X2244Y127D01*
X2244Y125D01*
X2246Y125D01*
X2246Y123D01*
X2248Y123D01*
X2248Y119D01*
X2250Y119D01*
X2250Y113D01*
X2270Y113D01*
X2270Y115D01*
X2272Y115D01*
X2272Y119D01*
X2274Y119D01*
X2274Y123D01*
X2276Y123D01*
X2276Y125D01*
X2278Y125D01*
X2278Y129D01*
X2280Y129D01*
X2280Y131D01*
X2282Y131D01*
X2282Y133D01*
X2286Y133D01*
X2286Y135D01*
X2288Y135D01*
X2288Y137D01*
X2292Y137D01*
X2292Y139D01*
X2296Y139D01*
X2296Y141D01*
X2304Y141D01*
X2304Y143D01*
X2218Y143D01*
G37*
D02*
G36*
X2318Y143D02*
X2318Y141D01*
X2326Y141D01*
X2326Y139D01*
X2330Y139D01*
X2330Y137D01*
X2334Y137D01*
X2334Y135D01*
X2336Y135D01*
X2336Y133D01*
X2338Y133D01*
X2338Y131D01*
X2342Y131D01*
X2342Y127D01*
X2344Y127D01*
X2344Y125D01*
X2346Y125D01*
X2346Y123D01*
X2348Y123D01*
X2348Y119D01*
X2350Y119D01*
X2350Y113D01*
X2370Y113D01*
X2370Y115D01*
X2372Y115D01*
X2372Y119D01*
X2374Y119D01*
X2374Y123D01*
X2376Y123D01*
X2376Y125D01*
X2378Y125D01*
X2378Y129D01*
X2380Y129D01*
X2380Y131D01*
X2382Y131D01*
X2382Y133D01*
X2386Y133D01*
X2386Y135D01*
X2388Y135D01*
X2388Y137D01*
X2392Y137D01*
X2392Y139D01*
X2396Y139D01*
X2396Y141D01*
X2404Y141D01*
X2404Y143D01*
X2318Y143D01*
G37*
D02*
G36*
X2418Y143D02*
X2418Y141D01*
X2426Y141D01*
X2426Y139D01*
X2430Y139D01*
X2430Y137D01*
X2434Y137D01*
X2434Y135D01*
X2436Y135D01*
X2436Y133D01*
X2438Y133D01*
X2438Y131D01*
X2442Y131D01*
X2442Y127D01*
X2444Y127D01*
X2444Y125D01*
X2446Y125D01*
X2446Y123D01*
X2448Y123D01*
X2448Y119D01*
X2450Y119D01*
X2450Y113D01*
X2470Y113D01*
X2470Y115D01*
X2472Y115D01*
X2472Y119D01*
X2474Y119D01*
X2474Y123D01*
X2476Y123D01*
X2476Y125D01*
X2478Y125D01*
X2478Y129D01*
X2480Y129D01*
X2480Y131D01*
X2482Y131D01*
X2482Y133D01*
X2486Y133D01*
X2486Y135D01*
X2488Y135D01*
X2488Y137D01*
X2492Y137D01*
X2492Y139D01*
X2496Y139D01*
X2496Y141D01*
X2504Y141D01*
X2504Y143D01*
X2418Y143D01*
G37*
D02*
G36*
X766Y2059D02*
X766Y2039D01*
X770Y2039D01*
X770Y2037D01*
X774Y2037D01*
X774Y2035D01*
X776Y2035D01*
X776Y2033D01*
X778Y2033D01*
X778Y2031D01*
X782Y2031D01*
X782Y2027D01*
X784Y2027D01*
X784Y2025D01*
X786Y2025D01*
X786Y2023D01*
X788Y2023D01*
X788Y2019D01*
X790Y2019D01*
X790Y2013D01*
X810Y2013D01*
X810Y2015D01*
X812Y2015D01*
X812Y2019D01*
X814Y2019D01*
X814Y2023D01*
X816Y2023D01*
X816Y2025D01*
X818Y2025D01*
X818Y2029D01*
X820Y2029D01*
X820Y2031D01*
X822Y2031D01*
X822Y2033D01*
X826Y2033D01*
X826Y2035D01*
X828Y2035D01*
X828Y2037D01*
X832Y2037D01*
X832Y2039D01*
X836Y2039D01*
X836Y2059D01*
X766Y2059D01*
G37*
D02*
G36*
X866Y2059D02*
X866Y2039D01*
X870Y2039D01*
X870Y2037D01*
X874Y2037D01*
X874Y2035D01*
X876Y2035D01*
X876Y2033D01*
X878Y2033D01*
X878Y2031D01*
X882Y2031D01*
X882Y2027D01*
X884Y2027D01*
X884Y2025D01*
X886Y2025D01*
X886Y2023D01*
X888Y2023D01*
X888Y2019D01*
X890Y2019D01*
X890Y2013D01*
X910Y2013D01*
X910Y2015D01*
X912Y2015D01*
X912Y2019D01*
X914Y2019D01*
X914Y2023D01*
X916Y2023D01*
X916Y2025D01*
X918Y2025D01*
X918Y2029D01*
X920Y2029D01*
X920Y2031D01*
X922Y2031D01*
X922Y2033D01*
X926Y2033D01*
X926Y2035D01*
X928Y2035D01*
X928Y2037D01*
X932Y2037D01*
X932Y2039D01*
X936Y2039D01*
X936Y2059D01*
X866Y2059D01*
G37*
D02*
G36*
X966Y2059D02*
X966Y2039D01*
X970Y2039D01*
X970Y2037D01*
X974Y2037D01*
X974Y2035D01*
X976Y2035D01*
X976Y2033D01*
X978Y2033D01*
X978Y2031D01*
X982Y2031D01*
X982Y2027D01*
X984Y2027D01*
X984Y2025D01*
X986Y2025D01*
X986Y2023D01*
X988Y2023D01*
X988Y2019D01*
X990Y2019D01*
X990Y2013D01*
X1010Y2013D01*
X1010Y2015D01*
X1012Y2015D01*
X1012Y2019D01*
X1014Y2019D01*
X1014Y2023D01*
X1016Y2023D01*
X1016Y2025D01*
X1018Y2025D01*
X1018Y2029D01*
X1020Y2029D01*
X1020Y2031D01*
X1022Y2031D01*
X1022Y2033D01*
X1026Y2033D01*
X1026Y2035D01*
X1028Y2035D01*
X1028Y2037D01*
X1032Y2037D01*
X1032Y2039D01*
X1036Y2039D01*
X1036Y2059D01*
X966Y2059D01*
G37*
D02*
G36*
X1066Y2059D02*
X1066Y2039D01*
X1070Y2039D01*
X1070Y2037D01*
X1074Y2037D01*
X1074Y2035D01*
X1076Y2035D01*
X1076Y2033D01*
X1078Y2033D01*
X1078Y2031D01*
X1082Y2031D01*
X1082Y2027D01*
X1084Y2027D01*
X1084Y2025D01*
X1086Y2025D01*
X1086Y2023D01*
X1088Y2023D01*
X1088Y2019D01*
X1090Y2019D01*
X1090Y2013D01*
X1110Y2013D01*
X1110Y2015D01*
X1112Y2015D01*
X1112Y2019D01*
X1114Y2019D01*
X1114Y2023D01*
X1116Y2023D01*
X1116Y2025D01*
X1118Y2025D01*
X1118Y2029D01*
X1120Y2029D01*
X1120Y2031D01*
X1122Y2031D01*
X1122Y2033D01*
X1126Y2033D01*
X1126Y2035D01*
X1128Y2035D01*
X1128Y2037D01*
X1132Y2037D01*
X1132Y2039D01*
X1136Y2039D01*
X1136Y2059D01*
X1066Y2059D01*
G37*
D02*
G36*
X1166Y2059D02*
X1166Y2039D01*
X1170Y2039D01*
X1170Y2037D01*
X1174Y2037D01*
X1174Y2035D01*
X1176Y2035D01*
X1176Y2033D01*
X1178Y2033D01*
X1178Y2031D01*
X1182Y2031D01*
X1182Y2027D01*
X1184Y2027D01*
X1184Y2025D01*
X1186Y2025D01*
X1186Y2023D01*
X1188Y2023D01*
X1188Y2019D01*
X1190Y2019D01*
X1190Y2013D01*
X1210Y2013D01*
X1210Y2015D01*
X1212Y2015D01*
X1212Y2019D01*
X1214Y2019D01*
X1214Y2023D01*
X1216Y2023D01*
X1216Y2025D01*
X1218Y2025D01*
X1218Y2029D01*
X1220Y2029D01*
X1220Y2031D01*
X1222Y2031D01*
X1222Y2033D01*
X1226Y2033D01*
X1226Y2035D01*
X1228Y2035D01*
X1228Y2037D01*
X1232Y2037D01*
X1232Y2039D01*
X1236Y2039D01*
X1236Y2059D01*
X1166Y2059D01*
G37*
D02*
G36*
X1266Y2059D02*
X1266Y2039D01*
X1270Y2039D01*
X1270Y2037D01*
X1274Y2037D01*
X1274Y2035D01*
X1276Y2035D01*
X1276Y2033D01*
X1278Y2033D01*
X1278Y2031D01*
X1282Y2031D01*
X1282Y2027D01*
X1284Y2027D01*
X1284Y2025D01*
X1286Y2025D01*
X1286Y2023D01*
X1288Y2023D01*
X1288Y2019D01*
X1290Y2019D01*
X1290Y2013D01*
X1310Y2013D01*
X1310Y2015D01*
X1312Y2015D01*
X1312Y2019D01*
X1314Y2019D01*
X1314Y2023D01*
X1316Y2023D01*
X1316Y2025D01*
X1318Y2025D01*
X1318Y2029D01*
X1320Y2029D01*
X1320Y2031D01*
X1322Y2031D01*
X1322Y2033D01*
X1326Y2033D01*
X1326Y2035D01*
X1328Y2035D01*
X1328Y2037D01*
X1332Y2037D01*
X1332Y2039D01*
X1336Y2039D01*
X1336Y2059D01*
X1266Y2059D01*
G37*
D02*
G36*
X1366Y2059D02*
X1366Y2039D01*
X1370Y2039D01*
X1370Y2037D01*
X1374Y2037D01*
X1374Y2035D01*
X1376Y2035D01*
X1376Y2033D01*
X1378Y2033D01*
X1378Y2031D01*
X1382Y2031D01*
X1382Y2027D01*
X1384Y2027D01*
X1384Y2025D01*
X1386Y2025D01*
X1386Y2023D01*
X1388Y2023D01*
X1388Y2019D01*
X1390Y2019D01*
X1390Y2013D01*
X1410Y2013D01*
X1410Y2015D01*
X1412Y2015D01*
X1412Y2019D01*
X1414Y2019D01*
X1414Y2023D01*
X1416Y2023D01*
X1416Y2025D01*
X1418Y2025D01*
X1418Y2029D01*
X1420Y2029D01*
X1420Y2031D01*
X1422Y2031D01*
X1422Y2033D01*
X1426Y2033D01*
X1426Y2035D01*
X1428Y2035D01*
X1428Y2037D01*
X1432Y2037D01*
X1432Y2039D01*
X1436Y2039D01*
X1436Y2059D01*
X1366Y2059D01*
G37*
D02*
G36*
X1466Y2059D02*
X1466Y2039D01*
X1470Y2039D01*
X1470Y2037D01*
X1474Y2037D01*
X1474Y2035D01*
X1476Y2035D01*
X1476Y2033D01*
X1478Y2033D01*
X1478Y2031D01*
X1482Y2031D01*
X1482Y2027D01*
X1484Y2027D01*
X1484Y2025D01*
X1486Y2025D01*
X1486Y2023D01*
X1488Y2023D01*
X1488Y2019D01*
X1490Y2019D01*
X1490Y2013D01*
X1510Y2013D01*
X1510Y2015D01*
X1512Y2015D01*
X1512Y2019D01*
X1514Y2019D01*
X1514Y2023D01*
X1516Y2023D01*
X1516Y2025D01*
X1518Y2025D01*
X1518Y2029D01*
X1520Y2029D01*
X1520Y2031D01*
X1522Y2031D01*
X1522Y2033D01*
X1526Y2033D01*
X1526Y2035D01*
X1528Y2035D01*
X1528Y2037D01*
X1532Y2037D01*
X1532Y2039D01*
X1536Y2039D01*
X1536Y2059D01*
X1466Y2059D01*
G37*
D02*
G36*
X1566Y2059D02*
X1566Y2039D01*
X1570Y2039D01*
X1570Y2037D01*
X1574Y2037D01*
X1574Y2035D01*
X1576Y2035D01*
X1576Y2033D01*
X1578Y2033D01*
X1578Y2031D01*
X1582Y2031D01*
X1582Y2027D01*
X1584Y2027D01*
X1584Y2025D01*
X1586Y2025D01*
X1586Y2023D01*
X1588Y2023D01*
X1588Y2019D01*
X1590Y2019D01*
X1590Y2013D01*
X1610Y2013D01*
X1610Y2015D01*
X1612Y2015D01*
X1612Y2019D01*
X1614Y2019D01*
X1614Y2023D01*
X1616Y2023D01*
X1616Y2025D01*
X1618Y2025D01*
X1618Y2029D01*
X1620Y2029D01*
X1620Y2031D01*
X1622Y2031D01*
X1622Y2033D01*
X1626Y2033D01*
X1626Y2035D01*
X1628Y2035D01*
X1628Y2037D01*
X1632Y2037D01*
X1632Y2039D01*
X1636Y2039D01*
X1636Y2059D01*
X1566Y2059D01*
G37*
D02*
G36*
X1826Y2059D02*
X1826Y2039D01*
X1830Y2039D01*
X1830Y2037D01*
X1834Y2037D01*
X1834Y2035D01*
X1836Y2035D01*
X1836Y2033D01*
X1838Y2033D01*
X1838Y2031D01*
X1842Y2031D01*
X1842Y2027D01*
X1844Y2027D01*
X1844Y2025D01*
X1846Y2025D01*
X1846Y2023D01*
X1848Y2023D01*
X1848Y2019D01*
X1850Y2019D01*
X1850Y2013D01*
X1870Y2013D01*
X1870Y2015D01*
X1872Y2015D01*
X1872Y2019D01*
X1874Y2019D01*
X1874Y2023D01*
X1876Y2023D01*
X1876Y2025D01*
X1878Y2025D01*
X1878Y2029D01*
X1880Y2029D01*
X1880Y2031D01*
X1882Y2031D01*
X1882Y2033D01*
X1886Y2033D01*
X1886Y2035D01*
X1888Y2035D01*
X1888Y2037D01*
X1892Y2037D01*
X1892Y2039D01*
X1896Y2039D01*
X1896Y2059D01*
X1826Y2059D01*
G37*
D02*
G36*
X1926Y2059D02*
X1926Y2039D01*
X1930Y2039D01*
X1930Y2037D01*
X1934Y2037D01*
X1934Y2035D01*
X1936Y2035D01*
X1936Y2033D01*
X1938Y2033D01*
X1938Y2031D01*
X1942Y2031D01*
X1942Y2027D01*
X1944Y2027D01*
X1944Y2025D01*
X1946Y2025D01*
X1946Y2023D01*
X1948Y2023D01*
X1948Y2019D01*
X1950Y2019D01*
X1950Y2013D01*
X1970Y2013D01*
X1970Y2015D01*
X1972Y2015D01*
X1972Y2019D01*
X1974Y2019D01*
X1974Y2023D01*
X1976Y2023D01*
X1976Y2025D01*
X1978Y2025D01*
X1978Y2029D01*
X1980Y2029D01*
X1980Y2031D01*
X1982Y2031D01*
X1982Y2033D01*
X1986Y2033D01*
X1986Y2035D01*
X1988Y2035D01*
X1988Y2037D01*
X1992Y2037D01*
X1992Y2039D01*
X1996Y2039D01*
X1996Y2059D01*
X1926Y2059D01*
G37*
D02*
G36*
X2026Y2059D02*
X2026Y2039D01*
X2030Y2039D01*
X2030Y2037D01*
X2034Y2037D01*
X2034Y2035D01*
X2036Y2035D01*
X2036Y2033D01*
X2038Y2033D01*
X2038Y2031D01*
X2042Y2031D01*
X2042Y2027D01*
X2044Y2027D01*
X2044Y2025D01*
X2046Y2025D01*
X2046Y2023D01*
X2048Y2023D01*
X2048Y2019D01*
X2050Y2019D01*
X2050Y2013D01*
X2070Y2013D01*
X2070Y2015D01*
X2072Y2015D01*
X2072Y2019D01*
X2074Y2019D01*
X2074Y2023D01*
X2076Y2023D01*
X2076Y2025D01*
X2078Y2025D01*
X2078Y2029D01*
X2080Y2029D01*
X2080Y2031D01*
X2082Y2031D01*
X2082Y2033D01*
X2086Y2033D01*
X2086Y2035D01*
X2088Y2035D01*
X2088Y2037D01*
X2092Y2037D01*
X2092Y2039D01*
X2096Y2039D01*
X2096Y2059D01*
X2026Y2059D01*
G37*
D02*
G36*
X2126Y2059D02*
X2126Y2039D01*
X2130Y2039D01*
X2130Y2037D01*
X2134Y2037D01*
X2134Y2035D01*
X2136Y2035D01*
X2136Y2033D01*
X2138Y2033D01*
X2138Y2031D01*
X2142Y2031D01*
X2142Y2027D01*
X2144Y2027D01*
X2144Y2025D01*
X2146Y2025D01*
X2146Y2023D01*
X2148Y2023D01*
X2148Y2019D01*
X2150Y2019D01*
X2150Y2013D01*
X2170Y2013D01*
X2170Y2015D01*
X2172Y2015D01*
X2172Y2019D01*
X2174Y2019D01*
X2174Y2023D01*
X2176Y2023D01*
X2176Y2025D01*
X2178Y2025D01*
X2178Y2029D01*
X2180Y2029D01*
X2180Y2031D01*
X2182Y2031D01*
X2182Y2033D01*
X2186Y2033D01*
X2186Y2035D01*
X2188Y2035D01*
X2188Y2037D01*
X2192Y2037D01*
X2192Y2039D01*
X2196Y2039D01*
X2196Y2059D01*
X2126Y2059D01*
G37*
D02*
G36*
X2226Y2059D02*
X2226Y2039D01*
X2230Y2039D01*
X2230Y2037D01*
X2234Y2037D01*
X2234Y2035D01*
X2236Y2035D01*
X2236Y2033D01*
X2238Y2033D01*
X2238Y2031D01*
X2242Y2031D01*
X2242Y2027D01*
X2244Y2027D01*
X2244Y2025D01*
X2246Y2025D01*
X2246Y2023D01*
X2248Y2023D01*
X2248Y2019D01*
X2250Y2019D01*
X2250Y2013D01*
X2270Y2013D01*
X2270Y2015D01*
X2272Y2015D01*
X2272Y2019D01*
X2274Y2019D01*
X2274Y2023D01*
X2276Y2023D01*
X2276Y2025D01*
X2278Y2025D01*
X2278Y2029D01*
X2280Y2029D01*
X2280Y2031D01*
X2282Y2031D01*
X2282Y2033D01*
X2286Y2033D01*
X2286Y2035D01*
X2288Y2035D01*
X2288Y2037D01*
X2292Y2037D01*
X2292Y2039D01*
X2296Y2039D01*
X2296Y2059D01*
X2226Y2059D01*
G37*
D02*
G36*
X2326Y2059D02*
X2326Y2039D01*
X2330Y2039D01*
X2330Y2037D01*
X2334Y2037D01*
X2334Y2035D01*
X2336Y2035D01*
X2336Y2033D01*
X2338Y2033D01*
X2338Y2031D01*
X2342Y2031D01*
X2342Y2027D01*
X2344Y2027D01*
X2344Y2025D01*
X2346Y2025D01*
X2346Y2023D01*
X2348Y2023D01*
X2348Y2019D01*
X2350Y2019D01*
X2350Y2013D01*
X2370Y2013D01*
X2370Y2015D01*
X2372Y2015D01*
X2372Y2019D01*
X2374Y2019D01*
X2374Y2023D01*
X2376Y2023D01*
X2376Y2025D01*
X2378Y2025D01*
X2378Y2029D01*
X2380Y2029D01*
X2380Y2031D01*
X2382Y2031D01*
X2382Y2033D01*
X2386Y2033D01*
X2386Y2035D01*
X2388Y2035D01*
X2388Y2037D01*
X2392Y2037D01*
X2392Y2039D01*
X2396Y2039D01*
X2396Y2059D01*
X2326Y2059D01*
G37*
D02*
G36*
X2426Y2059D02*
X2426Y2039D01*
X2430Y2039D01*
X2430Y2037D01*
X2434Y2037D01*
X2434Y2035D01*
X2436Y2035D01*
X2436Y2033D01*
X2438Y2033D01*
X2438Y2031D01*
X2442Y2031D01*
X2442Y2027D01*
X2444Y2027D01*
X2444Y2025D01*
X2446Y2025D01*
X2446Y2023D01*
X2448Y2023D01*
X2448Y2019D01*
X2450Y2019D01*
X2450Y2013D01*
X2470Y2013D01*
X2470Y2015D01*
X2472Y2015D01*
X2472Y2019D01*
X2474Y2019D01*
X2474Y2023D01*
X2476Y2023D01*
X2476Y2025D01*
X2478Y2025D01*
X2478Y2029D01*
X2480Y2029D01*
X2480Y2031D01*
X2482Y2031D01*
X2482Y2033D01*
X2486Y2033D01*
X2486Y2035D01*
X2488Y2035D01*
X2488Y2037D01*
X2492Y2037D01*
X2492Y2039D01*
X2496Y2039D01*
X2496Y2059D01*
X2426Y2059D01*
G37*
D02*
G36*
X1150Y87D02*
X1150Y81D01*
X1148Y81D01*
X1148Y77D01*
X1146Y77D01*
X1146Y75D01*
X1144Y75D01*
X1144Y73D01*
X1142Y73D01*
X1142Y71D01*
X1140Y71D01*
X1140Y69D01*
X1138Y69D01*
X1138Y67D01*
X1136Y67D01*
X1136Y47D01*
X1186Y47D01*
X1186Y67D01*
X1184Y67D01*
X1184Y69D01*
X1180Y69D01*
X1180Y71D01*
X1178Y71D01*
X1178Y75D01*
X1176Y75D01*
X1176Y77D01*
X1174Y77D01*
X1174Y81D01*
X1172Y81D01*
X1172Y85D01*
X1170Y85D01*
X1170Y87D01*
X1150Y87D01*
G37*
D02*
G36*
X1250Y87D02*
X1250Y81D01*
X1248Y81D01*
X1248Y77D01*
X1246Y77D01*
X1246Y75D01*
X1244Y75D01*
X1244Y73D01*
X1242Y73D01*
X1242Y71D01*
X1240Y71D01*
X1240Y69D01*
X1238Y69D01*
X1238Y67D01*
X1236Y67D01*
X1236Y47D01*
X1286Y47D01*
X1286Y67D01*
X1284Y67D01*
X1284Y69D01*
X1280Y69D01*
X1280Y71D01*
X1278Y71D01*
X1278Y75D01*
X1276Y75D01*
X1276Y77D01*
X1274Y77D01*
X1274Y81D01*
X1272Y81D01*
X1272Y85D01*
X1270Y85D01*
X1270Y87D01*
X1250Y87D01*
G37*
D02*
G36*
X1350Y87D02*
X1350Y81D01*
X1348Y81D01*
X1348Y77D01*
X1346Y77D01*
X1346Y75D01*
X1344Y75D01*
X1344Y73D01*
X1342Y73D01*
X1342Y71D01*
X1340Y71D01*
X1340Y69D01*
X1338Y69D01*
X1338Y67D01*
X1336Y67D01*
X1336Y47D01*
X1386Y47D01*
X1386Y67D01*
X1384Y67D01*
X1384Y69D01*
X1380Y69D01*
X1380Y71D01*
X1378Y71D01*
X1378Y75D01*
X1376Y75D01*
X1376Y77D01*
X1374Y77D01*
X1374Y81D01*
X1372Y81D01*
X1372Y85D01*
X1370Y85D01*
X1370Y87D01*
X1350Y87D01*
G37*
D02*
G36*
X1450Y87D02*
X1450Y81D01*
X1448Y81D01*
X1448Y77D01*
X1446Y77D01*
X1446Y75D01*
X1444Y75D01*
X1444Y73D01*
X1442Y73D01*
X1442Y71D01*
X1440Y71D01*
X1440Y69D01*
X1438Y69D01*
X1438Y67D01*
X1436Y67D01*
X1436Y47D01*
X1486Y47D01*
X1486Y67D01*
X1484Y67D01*
X1484Y69D01*
X1480Y69D01*
X1480Y71D01*
X1478Y71D01*
X1478Y75D01*
X1476Y75D01*
X1476Y77D01*
X1474Y77D01*
X1474Y81D01*
X1472Y81D01*
X1472Y85D01*
X1470Y85D01*
X1470Y87D01*
X1450Y87D01*
G37*
D02*
G36*
X1550Y87D02*
X1550Y81D01*
X1548Y81D01*
X1548Y77D01*
X1546Y77D01*
X1546Y75D01*
X1544Y75D01*
X1544Y73D01*
X1542Y73D01*
X1542Y71D01*
X1540Y71D01*
X1540Y69D01*
X1538Y69D01*
X1538Y67D01*
X1536Y67D01*
X1536Y47D01*
X1586Y47D01*
X1586Y67D01*
X1584Y67D01*
X1584Y69D01*
X1580Y69D01*
X1580Y71D01*
X1578Y71D01*
X1578Y75D01*
X1576Y75D01*
X1576Y77D01*
X1574Y77D01*
X1574Y81D01*
X1572Y81D01*
X1572Y85D01*
X1570Y85D01*
X1570Y87D01*
X1550Y87D01*
G37*
D02*
G36*
X1650Y87D02*
X1650Y81D01*
X1648Y81D01*
X1648Y77D01*
X1646Y77D01*
X1646Y75D01*
X1644Y75D01*
X1644Y73D01*
X1642Y73D01*
X1642Y71D01*
X1640Y71D01*
X1640Y69D01*
X1638Y69D01*
X1638Y67D01*
X1636Y67D01*
X1636Y47D01*
X1686Y47D01*
X1686Y67D01*
X1684Y67D01*
X1684Y69D01*
X1680Y69D01*
X1680Y71D01*
X1678Y71D01*
X1678Y75D01*
X1676Y75D01*
X1676Y77D01*
X1674Y77D01*
X1674Y81D01*
X1672Y81D01*
X1672Y85D01*
X1670Y85D01*
X1670Y87D01*
X1650Y87D01*
G37*
D02*
G36*
X1750Y87D02*
X1750Y81D01*
X1748Y81D01*
X1748Y77D01*
X1746Y77D01*
X1746Y75D01*
X1744Y75D01*
X1744Y73D01*
X1742Y73D01*
X1742Y71D01*
X1740Y71D01*
X1740Y69D01*
X1738Y69D01*
X1738Y67D01*
X1736Y67D01*
X1736Y47D01*
X1786Y47D01*
X1786Y67D01*
X1784Y67D01*
X1784Y69D01*
X1780Y69D01*
X1780Y71D01*
X1778Y71D01*
X1778Y75D01*
X1776Y75D01*
X1776Y77D01*
X1774Y77D01*
X1774Y81D01*
X1772Y81D01*
X1772Y85D01*
X1770Y85D01*
X1770Y87D01*
X1750Y87D01*
G37*
D02*
G36*
X2050Y87D02*
X2050Y81D01*
X2048Y81D01*
X2048Y77D01*
X2046Y77D01*
X2046Y75D01*
X2044Y75D01*
X2044Y73D01*
X2042Y73D01*
X2042Y71D01*
X2040Y71D01*
X2040Y69D01*
X2038Y69D01*
X2038Y67D01*
X2036Y67D01*
X2036Y47D01*
X2086Y47D01*
X2086Y67D01*
X2084Y67D01*
X2084Y69D01*
X2080Y69D01*
X2080Y71D01*
X2078Y71D01*
X2078Y75D01*
X2076Y75D01*
X2076Y77D01*
X2074Y77D01*
X2074Y81D01*
X2072Y81D01*
X2072Y85D01*
X2070Y85D01*
X2070Y87D01*
X2050Y87D01*
G37*
D02*
G36*
X2150Y87D02*
X2150Y81D01*
X2148Y81D01*
X2148Y77D01*
X2146Y77D01*
X2146Y75D01*
X2144Y75D01*
X2144Y73D01*
X2142Y73D01*
X2142Y71D01*
X2140Y71D01*
X2140Y69D01*
X2138Y69D01*
X2138Y67D01*
X2136Y67D01*
X2136Y47D01*
X2186Y47D01*
X2186Y67D01*
X2184Y67D01*
X2184Y69D01*
X2180Y69D01*
X2180Y71D01*
X2178Y71D01*
X2178Y75D01*
X2176Y75D01*
X2176Y77D01*
X2174Y77D01*
X2174Y81D01*
X2172Y81D01*
X2172Y85D01*
X2170Y85D01*
X2170Y87D01*
X2150Y87D01*
G37*
D02*
G36*
X2250Y87D02*
X2250Y81D01*
X2248Y81D01*
X2248Y77D01*
X2246Y77D01*
X2246Y75D01*
X2244Y75D01*
X2244Y73D01*
X2242Y73D01*
X2242Y71D01*
X2240Y71D01*
X2240Y69D01*
X2238Y69D01*
X2238Y67D01*
X2236Y67D01*
X2236Y47D01*
X2286Y47D01*
X2286Y67D01*
X2284Y67D01*
X2284Y69D01*
X2280Y69D01*
X2280Y71D01*
X2278Y71D01*
X2278Y75D01*
X2276Y75D01*
X2276Y77D01*
X2274Y77D01*
X2274Y81D01*
X2272Y81D01*
X2272Y85D01*
X2270Y85D01*
X2270Y87D01*
X2250Y87D01*
G37*
D02*
G36*
X2350Y87D02*
X2350Y81D01*
X2348Y81D01*
X2348Y77D01*
X2346Y77D01*
X2346Y75D01*
X2344Y75D01*
X2344Y73D01*
X2342Y73D01*
X2342Y71D01*
X2340Y71D01*
X2340Y69D01*
X2338Y69D01*
X2338Y67D01*
X2336Y67D01*
X2336Y47D01*
X2386Y47D01*
X2386Y67D01*
X2384Y67D01*
X2384Y69D01*
X2380Y69D01*
X2380Y71D01*
X2378Y71D01*
X2378Y75D01*
X2376Y75D01*
X2376Y77D01*
X2374Y77D01*
X2374Y81D01*
X2372Y81D01*
X2372Y85D01*
X2370Y85D01*
X2370Y87D01*
X2350Y87D01*
G37*
D02*
G36*
X2450Y87D02*
X2450Y81D01*
X2448Y81D01*
X2448Y77D01*
X2446Y77D01*
X2446Y75D01*
X2444Y75D01*
X2444Y73D01*
X2442Y73D01*
X2442Y71D01*
X2440Y71D01*
X2440Y69D01*
X2438Y69D01*
X2438Y67D01*
X2436Y67D01*
X2436Y47D01*
X2486Y47D01*
X2486Y67D01*
X2484Y67D01*
X2484Y69D01*
X2480Y69D01*
X2480Y71D01*
X2478Y71D01*
X2478Y75D01*
X2476Y75D01*
X2476Y77D01*
X2474Y77D01*
X2474Y81D01*
X2472Y81D01*
X2472Y85D01*
X2470Y85D01*
X2470Y87D01*
X2450Y87D01*
G37*
D02*
G36*
X116Y607D02*
X159Y607D01*
X159Y575D01*
X116Y575D01*
X116Y607D01*
G37*
D02*
G36*
X116Y541D02*
X159Y541D01*
X159Y509D01*
X116Y509D01*
X116Y541D01*
G37*
D02*
G36*
X88Y579D02*
X120Y579D01*
X120Y536D01*
X88Y536D01*
X88Y579D01*
G37*
D02*
G36*
X154Y579D02*
X186Y579D01*
X186Y536D01*
X154Y536D01*
X154Y579D01*
G37*
D02*
G36*
X1476Y635D02*
X1519Y635D01*
X1519Y601D01*
X1476Y601D01*
X1476Y635D01*
G37*
D02*
G36*
X1448Y673D02*
X1480Y673D01*
X1480Y630D01*
X1448Y630D01*
X1448Y673D01*
G37*
D02*
G36*
X1514Y673D02*
X1548Y673D01*
X1548Y630D01*
X1514Y630D01*
X1514Y673D01*
G37*
D02*
G36*
X116Y803D02*
X159Y803D01*
X159Y773D01*
X116Y773D01*
X116Y803D01*
G37*
D02*
G36*
X116Y739D02*
X159Y739D01*
X159Y705D01*
X116Y705D01*
X116Y739D01*
G37*
D02*
G36*
X88Y777D02*
X120Y777D01*
X120Y734D01*
X88Y734D01*
X88Y777D01*
G37*
D02*
G36*
X154Y777D02*
X186Y777D01*
X186Y734D01*
X154Y734D01*
X154Y777D01*
G37*
D02*
G36*
X299Y435D02*
X368Y435D01*
X368Y405D01*
X299Y405D01*
X299Y435D01*
G37*
D02*
G36*
X299Y319D02*
X368Y319D01*
X368Y285D01*
X299Y285D01*
X299Y319D01*
G37*
D02*
G36*
X258Y396D02*
X290Y396D01*
X290Y327D01*
X258Y327D01*
X258Y396D01*
G37*
D02*
G36*
X299Y1027D02*
X368Y1027D01*
X368Y995D01*
X299Y995D01*
X299Y1027D01*
G37*
D02*
G36*
X299Y909D02*
X368Y909D01*
X368Y877D01*
X299Y877D01*
X299Y909D01*
G37*
D02*
G36*
X258Y986D02*
X290Y986D01*
X290Y917D01*
X258Y917D01*
X258Y986D01*
G37*
D02*
G36*
X1676Y501D02*
X1719Y501D01*
X1719Y469D01*
X1676Y469D01*
X1676Y501D01*
G37*
D02*
G36*
X1676Y435D02*
X1719Y435D01*
X1719Y401D01*
X1676Y401D01*
X1676Y435D01*
G37*
D02*
G36*
X1648Y473D02*
X1680Y473D01*
X1680Y430D01*
X1648Y430D01*
X1648Y473D01*
G37*
D02*
G36*
X1714Y473D02*
X1748Y473D01*
X1748Y430D01*
X1714Y430D01*
X1714Y473D01*
G37*
D02*
G36*
X1690Y147D02*
X1729Y147D01*
X1729Y125D01*
X1690Y125D01*
X1690Y147D01*
G37*
D02*
G36*
X1690Y83D02*
X1729Y83D01*
X1729Y57D01*
X1690Y57D01*
X1690Y83D01*
G37*
D02*
G36*
X2395Y403D02*
X2424Y403D01*
X2424Y379D01*
X2395Y379D01*
X2395Y403D01*
G37*
D02*
G36*
X2374Y430D02*
X2396Y430D01*
X2396Y401D01*
X2374Y401D01*
X2374Y430D01*
G37*
D02*
G36*
X2422Y430D02*
X2444Y430D01*
X2444Y401D01*
X2422Y401D01*
X2422Y430D01*
G37*
D02*
G36*
X1030Y2047D02*
X1069Y2047D01*
X1069Y2023D01*
X1030Y2023D01*
X1030Y2047D01*
G37*
D02*
G36*
X1030Y1981D02*
X1069Y1981D01*
X1069Y1957D01*
X1030Y1957D01*
X1030Y1981D01*
G37*
D02*
G36*
X1590Y147D02*
X1629Y147D01*
X1629Y125D01*
X1590Y125D01*
X1590Y147D01*
G37*
D02*
G36*
X1590Y83D02*
X1629Y83D01*
X1629Y57D01*
X1590Y57D01*
X1590Y83D01*
G37*
D02*
G36*
X1690Y1293D02*
X1725Y1293D01*
X1725Y1267D01*
X1690Y1267D01*
X1690Y1293D01*
G37*
D02*
G36*
X1690Y1241D02*
X1725Y1241D01*
X1725Y1213D01*
X1690Y1213D01*
X1690Y1241D01*
G37*
D02*
G36*
X1668Y1271D02*
X1694Y1271D01*
X1694Y1236D01*
X1668Y1236D01*
X1668Y1271D01*
G37*
D02*
G36*
X1092Y1293D02*
X1127Y1293D01*
X1127Y1267D01*
X1092Y1267D01*
X1092Y1293D01*
G37*
D02*
G36*
X1092Y1241D02*
X1127Y1241D01*
X1127Y1213D01*
X1092Y1213D01*
X1092Y1241D01*
G37*
D02*
G36*
X1068Y1271D02*
X1096Y1271D01*
X1096Y1236D01*
X1068Y1236D01*
X1068Y1271D01*
G37*
D02*
G36*
X492Y1293D02*
X527Y1293D01*
X527Y1267D01*
X492Y1267D01*
X492Y1293D01*
G37*
D02*
G36*
X492Y1241D02*
X527Y1241D01*
X527Y1213D01*
X492Y1213D01*
X492Y1241D01*
G37*
D02*
G36*
X468Y1271D02*
X496Y1271D01*
X496Y1236D01*
X468Y1236D01*
X468Y1271D01*
G37*
D02*
G36*
X192Y1293D02*
X227Y1293D01*
X227Y1267D01*
X192Y1267D01*
X192Y1293D01*
G37*
D02*
G36*
X192Y1241D02*
X227Y1241D01*
X227Y1213D01*
X192Y1213D01*
X192Y1241D01*
G37*
D02*
G36*
X168Y1271D02*
X196Y1271D01*
X196Y1236D01*
X168Y1236D01*
X168Y1271D01*
G37*
D02*
G36*
X792Y1293D02*
X827Y1293D01*
X827Y1267D01*
X792Y1267D01*
X792Y1293D01*
G37*
D02*
G36*
X792Y1241D02*
X827Y1241D01*
X827Y1213D01*
X792Y1213D01*
X792Y1241D01*
G37*
D02*
G36*
X768Y1271D02*
X796Y1271D01*
X796Y1236D01*
X768Y1236D01*
X768Y1271D01*
G37*
D02*
G36*
X1992Y1291D02*
X2027Y1291D01*
X2027Y1265D01*
X1992Y1265D01*
X1992Y1291D01*
G37*
D02*
G36*
X1992Y1239D02*
X2027Y1239D01*
X2027Y1211D01*
X1992Y1211D01*
X1992Y1239D01*
G37*
D02*
G36*
X1968Y1269D02*
X1996Y1269D01*
X1996Y1234D01*
X1968Y1234D01*
X1968Y1269D01*
G37*
D02*
G36*
X1392Y1293D02*
X1427Y1293D01*
X1427Y1267D01*
X1392Y1267D01*
X1392Y1293D01*
G37*
D02*
G36*
X1392Y1241D02*
X1427Y1241D01*
X1427Y1213D01*
X1392Y1213D01*
X1392Y1241D01*
G37*
D02*
G36*
X1368Y1271D02*
X1396Y1271D01*
X1396Y1236D01*
X1368Y1236D01*
X1368Y1271D01*
G37*
D02*
G04 End of Copper0*
M02*